G75*
%MOIN*%
%OFA0B0*%
%FSLAX25Y25*%
%IPPOS*%
%LPD*%
%AMOC8*
5,1,8,0,0,1.08239X$1,22.5*
%
%ADD10C,0.00000*%
%ADD11R,0.05118X0.05906*%
%ADD12R,0.04331X0.03937*%
%ADD13R,0.03937X0.04331*%
%ADD14R,0.05906X0.05118*%
%ADD15R,0.01181X0.06299*%
%ADD16R,0.06299X0.01181*%
%ADD17R,0.05906X0.01378*%
%ADD18OC8,0.06000*%
%ADD19R,0.03150X0.03150*%
%ADD20C,0.03600*%
%ADD21R,0.05512X0.03937*%
%ADD22R,0.05000X0.02200*%
%ADD23R,0.09449X0.07874*%
%ADD24R,0.11024X0.03937*%
%ADD25R,0.03900X0.01200*%
%ADD26C,0.03937*%
%ADD27C,0.05512*%
%ADD28C,0.01969*%
%ADD29C,0.01220*%
%ADD30OC8,0.02381*%
%ADD31C,0.01181*%
%ADD32C,0.03937*%
%ADD33C,0.07874*%
%ADD34C,0.05906*%
%ADD35C,0.01600*%
D10*
X0008586Y0012587D02*
X0008586Y0213768D01*
X0008589Y0214006D01*
X0008597Y0214244D01*
X0008612Y0214481D01*
X0008632Y0214718D01*
X0008658Y0214954D01*
X0008689Y0215190D01*
X0008726Y0215425D01*
X0008769Y0215659D01*
X0008818Y0215892D01*
X0008872Y0216124D01*
X0008932Y0216354D01*
X0008997Y0216583D01*
X0009068Y0216810D01*
X0009144Y0217035D01*
X0009226Y0217258D01*
X0009313Y0217480D01*
X0009405Y0217699D01*
X0009503Y0217916D01*
X0009605Y0218130D01*
X0009713Y0218342D01*
X0009827Y0218552D01*
X0009945Y0218758D01*
X0010068Y0218962D01*
X0010196Y0219162D01*
X0010328Y0219359D01*
X0010466Y0219554D01*
X0010608Y0219744D01*
X0010755Y0219932D01*
X0010906Y0220115D01*
X0011061Y0220295D01*
X0011221Y0220471D01*
X0011385Y0220643D01*
X0011554Y0220812D01*
X0011726Y0220976D01*
X0011902Y0221136D01*
X0012082Y0221291D01*
X0012265Y0221442D01*
X0012453Y0221589D01*
X0012643Y0221731D01*
X0012838Y0221869D01*
X0013035Y0222001D01*
X0013235Y0222129D01*
X0013439Y0222252D01*
X0013645Y0222370D01*
X0013855Y0222484D01*
X0014067Y0222592D01*
X0014281Y0222694D01*
X0014498Y0222792D01*
X0014717Y0222884D01*
X0014939Y0222971D01*
X0015162Y0223053D01*
X0015387Y0223129D01*
X0015614Y0223200D01*
X0015843Y0223265D01*
X0016073Y0223325D01*
X0016305Y0223379D01*
X0016538Y0223428D01*
X0016772Y0223471D01*
X0017007Y0223508D01*
X0017243Y0223539D01*
X0017479Y0223565D01*
X0017716Y0223585D01*
X0017953Y0223600D01*
X0018191Y0223608D01*
X0018429Y0223611D01*
X0276303Y0223611D01*
X0276303Y0077942D01*
X0264492Y0077942D01*
X0264492Y0009044D01*
X0276303Y0009044D01*
X0276303Y0003138D01*
X0018429Y0003138D01*
X0018192Y0003136D01*
X0017955Y0003140D01*
X0017719Y0003150D01*
X0017482Y0003165D01*
X0017247Y0003186D01*
X0017011Y0003214D01*
X0016777Y0003246D01*
X0016543Y0003285D01*
X0016311Y0003329D01*
X0016079Y0003379D01*
X0015849Y0003435D01*
X0015620Y0003496D01*
X0015393Y0003563D01*
X0015168Y0003636D01*
X0014944Y0003714D01*
X0014723Y0003797D01*
X0014503Y0003886D01*
X0014286Y0003980D01*
X0014071Y0004079D01*
X0013859Y0004184D01*
X0013649Y0004294D01*
X0013442Y0004409D01*
X0013238Y0004529D01*
X0013037Y0004654D01*
X0012839Y0004784D01*
X0012644Y0004919D01*
X0012453Y0005059D01*
X0012265Y0005203D01*
X0012081Y0005351D01*
X0011900Y0005505D01*
X0011723Y0005662D01*
X0011550Y0005824D01*
X0011382Y0005990D01*
X0011217Y0006160D01*
X0011057Y0006334D01*
X0010900Y0006512D01*
X0010749Y0006694D01*
X0010602Y0006880D01*
X0010459Y0007069D01*
X0010321Y0007261D01*
X0010188Y0007457D01*
X0010060Y0007656D01*
X0009936Y0007858D01*
X0009818Y0008063D01*
X0009704Y0008271D01*
X0009596Y0008482D01*
X0009493Y0008695D01*
X0009396Y0008911D01*
X0009303Y0009129D01*
X0009216Y0009349D01*
X0009135Y0009571D01*
X0009059Y0009796D01*
X0008988Y0010022D01*
X0008923Y0010249D01*
X0008864Y0010478D01*
X0008810Y0010709D01*
X0008762Y0010941D01*
X0008719Y0011174D01*
X0008683Y0011408D01*
X0008652Y0011643D01*
X0008627Y0011878D01*
X0008607Y0012114D01*
X0008594Y0012350D01*
X0008586Y0012587D01*
X0016953Y0016918D02*
X0016955Y0017065D01*
X0016961Y0017211D01*
X0016971Y0017357D01*
X0016985Y0017503D01*
X0017003Y0017649D01*
X0017024Y0017794D01*
X0017050Y0017938D01*
X0017080Y0018082D01*
X0017113Y0018224D01*
X0017150Y0018366D01*
X0017191Y0018507D01*
X0017236Y0018646D01*
X0017285Y0018785D01*
X0017337Y0018922D01*
X0017394Y0019057D01*
X0017453Y0019191D01*
X0017517Y0019323D01*
X0017584Y0019453D01*
X0017654Y0019582D01*
X0017728Y0019709D01*
X0017805Y0019833D01*
X0017886Y0019956D01*
X0017970Y0020076D01*
X0018057Y0020194D01*
X0018147Y0020309D01*
X0018240Y0020422D01*
X0018337Y0020533D01*
X0018436Y0020641D01*
X0018538Y0020746D01*
X0018643Y0020848D01*
X0018751Y0020947D01*
X0018862Y0021044D01*
X0018975Y0021137D01*
X0019090Y0021227D01*
X0019208Y0021314D01*
X0019328Y0021398D01*
X0019451Y0021479D01*
X0019575Y0021556D01*
X0019702Y0021630D01*
X0019831Y0021700D01*
X0019961Y0021767D01*
X0020093Y0021831D01*
X0020227Y0021890D01*
X0020362Y0021947D01*
X0020499Y0021999D01*
X0020638Y0022048D01*
X0020777Y0022093D01*
X0020918Y0022134D01*
X0021060Y0022171D01*
X0021202Y0022204D01*
X0021346Y0022234D01*
X0021490Y0022260D01*
X0021635Y0022281D01*
X0021781Y0022299D01*
X0021927Y0022313D01*
X0022073Y0022323D01*
X0022219Y0022329D01*
X0022366Y0022331D01*
X0022513Y0022329D01*
X0022659Y0022323D01*
X0022805Y0022313D01*
X0022951Y0022299D01*
X0023097Y0022281D01*
X0023242Y0022260D01*
X0023386Y0022234D01*
X0023530Y0022204D01*
X0023672Y0022171D01*
X0023814Y0022134D01*
X0023955Y0022093D01*
X0024094Y0022048D01*
X0024233Y0021999D01*
X0024370Y0021947D01*
X0024505Y0021890D01*
X0024639Y0021831D01*
X0024771Y0021767D01*
X0024901Y0021700D01*
X0025030Y0021630D01*
X0025157Y0021556D01*
X0025281Y0021479D01*
X0025404Y0021398D01*
X0025524Y0021314D01*
X0025642Y0021227D01*
X0025757Y0021137D01*
X0025870Y0021044D01*
X0025981Y0020947D01*
X0026089Y0020848D01*
X0026194Y0020746D01*
X0026296Y0020641D01*
X0026395Y0020533D01*
X0026492Y0020422D01*
X0026585Y0020309D01*
X0026675Y0020194D01*
X0026762Y0020076D01*
X0026846Y0019956D01*
X0026927Y0019833D01*
X0027004Y0019709D01*
X0027078Y0019582D01*
X0027148Y0019453D01*
X0027215Y0019323D01*
X0027279Y0019191D01*
X0027338Y0019057D01*
X0027395Y0018922D01*
X0027447Y0018785D01*
X0027496Y0018646D01*
X0027541Y0018507D01*
X0027582Y0018366D01*
X0027619Y0018224D01*
X0027652Y0018082D01*
X0027682Y0017938D01*
X0027708Y0017794D01*
X0027729Y0017649D01*
X0027747Y0017503D01*
X0027761Y0017357D01*
X0027771Y0017211D01*
X0027777Y0017065D01*
X0027779Y0016918D01*
X0027777Y0016771D01*
X0027771Y0016625D01*
X0027761Y0016479D01*
X0027747Y0016333D01*
X0027729Y0016187D01*
X0027708Y0016042D01*
X0027682Y0015898D01*
X0027652Y0015754D01*
X0027619Y0015612D01*
X0027582Y0015470D01*
X0027541Y0015329D01*
X0027496Y0015190D01*
X0027447Y0015051D01*
X0027395Y0014914D01*
X0027338Y0014779D01*
X0027279Y0014645D01*
X0027215Y0014513D01*
X0027148Y0014383D01*
X0027078Y0014254D01*
X0027004Y0014127D01*
X0026927Y0014003D01*
X0026846Y0013880D01*
X0026762Y0013760D01*
X0026675Y0013642D01*
X0026585Y0013527D01*
X0026492Y0013414D01*
X0026395Y0013303D01*
X0026296Y0013195D01*
X0026194Y0013090D01*
X0026089Y0012988D01*
X0025981Y0012889D01*
X0025870Y0012792D01*
X0025757Y0012699D01*
X0025642Y0012609D01*
X0025524Y0012522D01*
X0025404Y0012438D01*
X0025281Y0012357D01*
X0025157Y0012280D01*
X0025030Y0012206D01*
X0024901Y0012136D01*
X0024771Y0012069D01*
X0024639Y0012005D01*
X0024505Y0011946D01*
X0024370Y0011889D01*
X0024233Y0011837D01*
X0024094Y0011788D01*
X0023955Y0011743D01*
X0023814Y0011702D01*
X0023672Y0011665D01*
X0023530Y0011632D01*
X0023386Y0011602D01*
X0023242Y0011576D01*
X0023097Y0011555D01*
X0022951Y0011537D01*
X0022805Y0011523D01*
X0022659Y0011513D01*
X0022513Y0011507D01*
X0022366Y0011505D01*
X0022219Y0011507D01*
X0022073Y0011513D01*
X0021927Y0011523D01*
X0021781Y0011537D01*
X0021635Y0011555D01*
X0021490Y0011576D01*
X0021346Y0011602D01*
X0021202Y0011632D01*
X0021060Y0011665D01*
X0020918Y0011702D01*
X0020777Y0011743D01*
X0020638Y0011788D01*
X0020499Y0011837D01*
X0020362Y0011889D01*
X0020227Y0011946D01*
X0020093Y0012005D01*
X0019961Y0012069D01*
X0019831Y0012136D01*
X0019702Y0012206D01*
X0019575Y0012280D01*
X0019451Y0012357D01*
X0019328Y0012438D01*
X0019208Y0012522D01*
X0019090Y0012609D01*
X0018975Y0012699D01*
X0018862Y0012792D01*
X0018751Y0012889D01*
X0018643Y0012988D01*
X0018538Y0013090D01*
X0018436Y0013195D01*
X0018337Y0013303D01*
X0018240Y0013414D01*
X0018147Y0013527D01*
X0018057Y0013642D01*
X0017970Y0013760D01*
X0017886Y0013880D01*
X0017805Y0014003D01*
X0017728Y0014127D01*
X0017654Y0014254D01*
X0017584Y0014383D01*
X0017517Y0014513D01*
X0017453Y0014645D01*
X0017394Y0014779D01*
X0017337Y0014914D01*
X0017285Y0015051D01*
X0017236Y0015190D01*
X0017191Y0015329D01*
X0017150Y0015470D01*
X0017113Y0015612D01*
X0017080Y0015754D01*
X0017050Y0015898D01*
X0017024Y0016042D01*
X0017003Y0016187D01*
X0016985Y0016333D01*
X0016971Y0016479D01*
X0016961Y0016625D01*
X0016955Y0016771D01*
X0016953Y0016918D01*
X0245299Y0016918D02*
X0245301Y0017065D01*
X0245307Y0017211D01*
X0245317Y0017357D01*
X0245331Y0017503D01*
X0245349Y0017649D01*
X0245370Y0017794D01*
X0245396Y0017938D01*
X0245426Y0018082D01*
X0245459Y0018224D01*
X0245496Y0018366D01*
X0245537Y0018507D01*
X0245582Y0018646D01*
X0245631Y0018785D01*
X0245683Y0018922D01*
X0245740Y0019057D01*
X0245799Y0019191D01*
X0245863Y0019323D01*
X0245930Y0019453D01*
X0246000Y0019582D01*
X0246074Y0019709D01*
X0246151Y0019833D01*
X0246232Y0019956D01*
X0246316Y0020076D01*
X0246403Y0020194D01*
X0246493Y0020309D01*
X0246586Y0020422D01*
X0246683Y0020533D01*
X0246782Y0020641D01*
X0246884Y0020746D01*
X0246989Y0020848D01*
X0247097Y0020947D01*
X0247208Y0021044D01*
X0247321Y0021137D01*
X0247436Y0021227D01*
X0247554Y0021314D01*
X0247674Y0021398D01*
X0247797Y0021479D01*
X0247921Y0021556D01*
X0248048Y0021630D01*
X0248177Y0021700D01*
X0248307Y0021767D01*
X0248439Y0021831D01*
X0248573Y0021890D01*
X0248708Y0021947D01*
X0248845Y0021999D01*
X0248984Y0022048D01*
X0249123Y0022093D01*
X0249264Y0022134D01*
X0249406Y0022171D01*
X0249548Y0022204D01*
X0249692Y0022234D01*
X0249836Y0022260D01*
X0249981Y0022281D01*
X0250127Y0022299D01*
X0250273Y0022313D01*
X0250419Y0022323D01*
X0250565Y0022329D01*
X0250712Y0022331D01*
X0250859Y0022329D01*
X0251005Y0022323D01*
X0251151Y0022313D01*
X0251297Y0022299D01*
X0251443Y0022281D01*
X0251588Y0022260D01*
X0251732Y0022234D01*
X0251876Y0022204D01*
X0252018Y0022171D01*
X0252160Y0022134D01*
X0252301Y0022093D01*
X0252440Y0022048D01*
X0252579Y0021999D01*
X0252716Y0021947D01*
X0252851Y0021890D01*
X0252985Y0021831D01*
X0253117Y0021767D01*
X0253247Y0021700D01*
X0253376Y0021630D01*
X0253503Y0021556D01*
X0253627Y0021479D01*
X0253750Y0021398D01*
X0253870Y0021314D01*
X0253988Y0021227D01*
X0254103Y0021137D01*
X0254216Y0021044D01*
X0254327Y0020947D01*
X0254435Y0020848D01*
X0254540Y0020746D01*
X0254642Y0020641D01*
X0254741Y0020533D01*
X0254838Y0020422D01*
X0254931Y0020309D01*
X0255021Y0020194D01*
X0255108Y0020076D01*
X0255192Y0019956D01*
X0255273Y0019833D01*
X0255350Y0019709D01*
X0255424Y0019582D01*
X0255494Y0019453D01*
X0255561Y0019323D01*
X0255625Y0019191D01*
X0255684Y0019057D01*
X0255741Y0018922D01*
X0255793Y0018785D01*
X0255842Y0018646D01*
X0255887Y0018507D01*
X0255928Y0018366D01*
X0255965Y0018224D01*
X0255998Y0018082D01*
X0256028Y0017938D01*
X0256054Y0017794D01*
X0256075Y0017649D01*
X0256093Y0017503D01*
X0256107Y0017357D01*
X0256117Y0017211D01*
X0256123Y0017065D01*
X0256125Y0016918D01*
X0256123Y0016771D01*
X0256117Y0016625D01*
X0256107Y0016479D01*
X0256093Y0016333D01*
X0256075Y0016187D01*
X0256054Y0016042D01*
X0256028Y0015898D01*
X0255998Y0015754D01*
X0255965Y0015612D01*
X0255928Y0015470D01*
X0255887Y0015329D01*
X0255842Y0015190D01*
X0255793Y0015051D01*
X0255741Y0014914D01*
X0255684Y0014779D01*
X0255625Y0014645D01*
X0255561Y0014513D01*
X0255494Y0014383D01*
X0255424Y0014254D01*
X0255350Y0014127D01*
X0255273Y0014003D01*
X0255192Y0013880D01*
X0255108Y0013760D01*
X0255021Y0013642D01*
X0254931Y0013527D01*
X0254838Y0013414D01*
X0254741Y0013303D01*
X0254642Y0013195D01*
X0254540Y0013090D01*
X0254435Y0012988D01*
X0254327Y0012889D01*
X0254216Y0012792D01*
X0254103Y0012699D01*
X0253988Y0012609D01*
X0253870Y0012522D01*
X0253750Y0012438D01*
X0253627Y0012357D01*
X0253503Y0012280D01*
X0253376Y0012206D01*
X0253247Y0012136D01*
X0253117Y0012069D01*
X0252985Y0012005D01*
X0252851Y0011946D01*
X0252716Y0011889D01*
X0252579Y0011837D01*
X0252440Y0011788D01*
X0252301Y0011743D01*
X0252160Y0011702D01*
X0252018Y0011665D01*
X0251876Y0011632D01*
X0251732Y0011602D01*
X0251588Y0011576D01*
X0251443Y0011555D01*
X0251297Y0011537D01*
X0251151Y0011523D01*
X0251005Y0011513D01*
X0250859Y0011507D01*
X0250712Y0011505D01*
X0250565Y0011507D01*
X0250419Y0011513D01*
X0250273Y0011523D01*
X0250127Y0011537D01*
X0249981Y0011555D01*
X0249836Y0011576D01*
X0249692Y0011602D01*
X0249548Y0011632D01*
X0249406Y0011665D01*
X0249264Y0011702D01*
X0249123Y0011743D01*
X0248984Y0011788D01*
X0248845Y0011837D01*
X0248708Y0011889D01*
X0248573Y0011946D01*
X0248439Y0012005D01*
X0248307Y0012069D01*
X0248177Y0012136D01*
X0248048Y0012206D01*
X0247921Y0012280D01*
X0247797Y0012357D01*
X0247674Y0012438D01*
X0247554Y0012522D01*
X0247436Y0012609D01*
X0247321Y0012699D01*
X0247208Y0012792D01*
X0247097Y0012889D01*
X0246989Y0012988D01*
X0246884Y0013090D01*
X0246782Y0013195D01*
X0246683Y0013303D01*
X0246586Y0013414D01*
X0246493Y0013527D01*
X0246403Y0013642D01*
X0246316Y0013760D01*
X0246232Y0013880D01*
X0246151Y0014003D01*
X0246074Y0014127D01*
X0246000Y0014254D01*
X0245930Y0014383D01*
X0245863Y0014513D01*
X0245799Y0014645D01*
X0245740Y0014779D01*
X0245683Y0014914D01*
X0245631Y0015051D01*
X0245582Y0015190D01*
X0245537Y0015329D01*
X0245496Y0015470D01*
X0245459Y0015612D01*
X0245426Y0015754D01*
X0245396Y0015898D01*
X0245370Y0016042D01*
X0245349Y0016187D01*
X0245331Y0016333D01*
X0245317Y0016479D01*
X0245307Y0016625D01*
X0245301Y0016771D01*
X0245299Y0016918D01*
X0245299Y0209831D02*
X0245301Y0209978D01*
X0245307Y0210124D01*
X0245317Y0210270D01*
X0245331Y0210416D01*
X0245349Y0210562D01*
X0245370Y0210707D01*
X0245396Y0210851D01*
X0245426Y0210995D01*
X0245459Y0211137D01*
X0245496Y0211279D01*
X0245537Y0211420D01*
X0245582Y0211559D01*
X0245631Y0211698D01*
X0245683Y0211835D01*
X0245740Y0211970D01*
X0245799Y0212104D01*
X0245863Y0212236D01*
X0245930Y0212366D01*
X0246000Y0212495D01*
X0246074Y0212622D01*
X0246151Y0212746D01*
X0246232Y0212869D01*
X0246316Y0212989D01*
X0246403Y0213107D01*
X0246493Y0213222D01*
X0246586Y0213335D01*
X0246683Y0213446D01*
X0246782Y0213554D01*
X0246884Y0213659D01*
X0246989Y0213761D01*
X0247097Y0213860D01*
X0247208Y0213957D01*
X0247321Y0214050D01*
X0247436Y0214140D01*
X0247554Y0214227D01*
X0247674Y0214311D01*
X0247797Y0214392D01*
X0247921Y0214469D01*
X0248048Y0214543D01*
X0248177Y0214613D01*
X0248307Y0214680D01*
X0248439Y0214744D01*
X0248573Y0214803D01*
X0248708Y0214860D01*
X0248845Y0214912D01*
X0248984Y0214961D01*
X0249123Y0215006D01*
X0249264Y0215047D01*
X0249406Y0215084D01*
X0249548Y0215117D01*
X0249692Y0215147D01*
X0249836Y0215173D01*
X0249981Y0215194D01*
X0250127Y0215212D01*
X0250273Y0215226D01*
X0250419Y0215236D01*
X0250565Y0215242D01*
X0250712Y0215244D01*
X0250859Y0215242D01*
X0251005Y0215236D01*
X0251151Y0215226D01*
X0251297Y0215212D01*
X0251443Y0215194D01*
X0251588Y0215173D01*
X0251732Y0215147D01*
X0251876Y0215117D01*
X0252018Y0215084D01*
X0252160Y0215047D01*
X0252301Y0215006D01*
X0252440Y0214961D01*
X0252579Y0214912D01*
X0252716Y0214860D01*
X0252851Y0214803D01*
X0252985Y0214744D01*
X0253117Y0214680D01*
X0253247Y0214613D01*
X0253376Y0214543D01*
X0253503Y0214469D01*
X0253627Y0214392D01*
X0253750Y0214311D01*
X0253870Y0214227D01*
X0253988Y0214140D01*
X0254103Y0214050D01*
X0254216Y0213957D01*
X0254327Y0213860D01*
X0254435Y0213761D01*
X0254540Y0213659D01*
X0254642Y0213554D01*
X0254741Y0213446D01*
X0254838Y0213335D01*
X0254931Y0213222D01*
X0255021Y0213107D01*
X0255108Y0212989D01*
X0255192Y0212869D01*
X0255273Y0212746D01*
X0255350Y0212622D01*
X0255424Y0212495D01*
X0255494Y0212366D01*
X0255561Y0212236D01*
X0255625Y0212104D01*
X0255684Y0211970D01*
X0255741Y0211835D01*
X0255793Y0211698D01*
X0255842Y0211559D01*
X0255887Y0211420D01*
X0255928Y0211279D01*
X0255965Y0211137D01*
X0255998Y0210995D01*
X0256028Y0210851D01*
X0256054Y0210707D01*
X0256075Y0210562D01*
X0256093Y0210416D01*
X0256107Y0210270D01*
X0256117Y0210124D01*
X0256123Y0209978D01*
X0256125Y0209831D01*
X0256123Y0209684D01*
X0256117Y0209538D01*
X0256107Y0209392D01*
X0256093Y0209246D01*
X0256075Y0209100D01*
X0256054Y0208955D01*
X0256028Y0208811D01*
X0255998Y0208667D01*
X0255965Y0208525D01*
X0255928Y0208383D01*
X0255887Y0208242D01*
X0255842Y0208103D01*
X0255793Y0207964D01*
X0255741Y0207827D01*
X0255684Y0207692D01*
X0255625Y0207558D01*
X0255561Y0207426D01*
X0255494Y0207296D01*
X0255424Y0207167D01*
X0255350Y0207040D01*
X0255273Y0206916D01*
X0255192Y0206793D01*
X0255108Y0206673D01*
X0255021Y0206555D01*
X0254931Y0206440D01*
X0254838Y0206327D01*
X0254741Y0206216D01*
X0254642Y0206108D01*
X0254540Y0206003D01*
X0254435Y0205901D01*
X0254327Y0205802D01*
X0254216Y0205705D01*
X0254103Y0205612D01*
X0253988Y0205522D01*
X0253870Y0205435D01*
X0253750Y0205351D01*
X0253627Y0205270D01*
X0253503Y0205193D01*
X0253376Y0205119D01*
X0253247Y0205049D01*
X0253117Y0204982D01*
X0252985Y0204918D01*
X0252851Y0204859D01*
X0252716Y0204802D01*
X0252579Y0204750D01*
X0252440Y0204701D01*
X0252301Y0204656D01*
X0252160Y0204615D01*
X0252018Y0204578D01*
X0251876Y0204545D01*
X0251732Y0204515D01*
X0251588Y0204489D01*
X0251443Y0204468D01*
X0251297Y0204450D01*
X0251151Y0204436D01*
X0251005Y0204426D01*
X0250859Y0204420D01*
X0250712Y0204418D01*
X0250565Y0204420D01*
X0250419Y0204426D01*
X0250273Y0204436D01*
X0250127Y0204450D01*
X0249981Y0204468D01*
X0249836Y0204489D01*
X0249692Y0204515D01*
X0249548Y0204545D01*
X0249406Y0204578D01*
X0249264Y0204615D01*
X0249123Y0204656D01*
X0248984Y0204701D01*
X0248845Y0204750D01*
X0248708Y0204802D01*
X0248573Y0204859D01*
X0248439Y0204918D01*
X0248307Y0204982D01*
X0248177Y0205049D01*
X0248048Y0205119D01*
X0247921Y0205193D01*
X0247797Y0205270D01*
X0247674Y0205351D01*
X0247554Y0205435D01*
X0247436Y0205522D01*
X0247321Y0205612D01*
X0247208Y0205705D01*
X0247097Y0205802D01*
X0246989Y0205901D01*
X0246884Y0206003D01*
X0246782Y0206108D01*
X0246683Y0206216D01*
X0246586Y0206327D01*
X0246493Y0206440D01*
X0246403Y0206555D01*
X0246316Y0206673D01*
X0246232Y0206793D01*
X0246151Y0206916D01*
X0246074Y0207040D01*
X0246000Y0207167D01*
X0245930Y0207296D01*
X0245863Y0207426D01*
X0245799Y0207558D01*
X0245740Y0207692D01*
X0245683Y0207827D01*
X0245631Y0207964D01*
X0245582Y0208103D01*
X0245537Y0208242D01*
X0245496Y0208383D01*
X0245459Y0208525D01*
X0245426Y0208667D01*
X0245396Y0208811D01*
X0245370Y0208955D01*
X0245349Y0209100D01*
X0245331Y0209246D01*
X0245317Y0209392D01*
X0245307Y0209538D01*
X0245301Y0209684D01*
X0245299Y0209831D01*
X0016953Y0209831D02*
X0016955Y0209978D01*
X0016961Y0210124D01*
X0016971Y0210270D01*
X0016985Y0210416D01*
X0017003Y0210562D01*
X0017024Y0210707D01*
X0017050Y0210851D01*
X0017080Y0210995D01*
X0017113Y0211137D01*
X0017150Y0211279D01*
X0017191Y0211420D01*
X0017236Y0211559D01*
X0017285Y0211698D01*
X0017337Y0211835D01*
X0017394Y0211970D01*
X0017453Y0212104D01*
X0017517Y0212236D01*
X0017584Y0212366D01*
X0017654Y0212495D01*
X0017728Y0212622D01*
X0017805Y0212746D01*
X0017886Y0212869D01*
X0017970Y0212989D01*
X0018057Y0213107D01*
X0018147Y0213222D01*
X0018240Y0213335D01*
X0018337Y0213446D01*
X0018436Y0213554D01*
X0018538Y0213659D01*
X0018643Y0213761D01*
X0018751Y0213860D01*
X0018862Y0213957D01*
X0018975Y0214050D01*
X0019090Y0214140D01*
X0019208Y0214227D01*
X0019328Y0214311D01*
X0019451Y0214392D01*
X0019575Y0214469D01*
X0019702Y0214543D01*
X0019831Y0214613D01*
X0019961Y0214680D01*
X0020093Y0214744D01*
X0020227Y0214803D01*
X0020362Y0214860D01*
X0020499Y0214912D01*
X0020638Y0214961D01*
X0020777Y0215006D01*
X0020918Y0215047D01*
X0021060Y0215084D01*
X0021202Y0215117D01*
X0021346Y0215147D01*
X0021490Y0215173D01*
X0021635Y0215194D01*
X0021781Y0215212D01*
X0021927Y0215226D01*
X0022073Y0215236D01*
X0022219Y0215242D01*
X0022366Y0215244D01*
X0022513Y0215242D01*
X0022659Y0215236D01*
X0022805Y0215226D01*
X0022951Y0215212D01*
X0023097Y0215194D01*
X0023242Y0215173D01*
X0023386Y0215147D01*
X0023530Y0215117D01*
X0023672Y0215084D01*
X0023814Y0215047D01*
X0023955Y0215006D01*
X0024094Y0214961D01*
X0024233Y0214912D01*
X0024370Y0214860D01*
X0024505Y0214803D01*
X0024639Y0214744D01*
X0024771Y0214680D01*
X0024901Y0214613D01*
X0025030Y0214543D01*
X0025157Y0214469D01*
X0025281Y0214392D01*
X0025404Y0214311D01*
X0025524Y0214227D01*
X0025642Y0214140D01*
X0025757Y0214050D01*
X0025870Y0213957D01*
X0025981Y0213860D01*
X0026089Y0213761D01*
X0026194Y0213659D01*
X0026296Y0213554D01*
X0026395Y0213446D01*
X0026492Y0213335D01*
X0026585Y0213222D01*
X0026675Y0213107D01*
X0026762Y0212989D01*
X0026846Y0212869D01*
X0026927Y0212746D01*
X0027004Y0212622D01*
X0027078Y0212495D01*
X0027148Y0212366D01*
X0027215Y0212236D01*
X0027279Y0212104D01*
X0027338Y0211970D01*
X0027395Y0211835D01*
X0027447Y0211698D01*
X0027496Y0211559D01*
X0027541Y0211420D01*
X0027582Y0211279D01*
X0027619Y0211137D01*
X0027652Y0210995D01*
X0027682Y0210851D01*
X0027708Y0210707D01*
X0027729Y0210562D01*
X0027747Y0210416D01*
X0027761Y0210270D01*
X0027771Y0210124D01*
X0027777Y0209978D01*
X0027779Y0209831D01*
X0027777Y0209684D01*
X0027771Y0209538D01*
X0027761Y0209392D01*
X0027747Y0209246D01*
X0027729Y0209100D01*
X0027708Y0208955D01*
X0027682Y0208811D01*
X0027652Y0208667D01*
X0027619Y0208525D01*
X0027582Y0208383D01*
X0027541Y0208242D01*
X0027496Y0208103D01*
X0027447Y0207964D01*
X0027395Y0207827D01*
X0027338Y0207692D01*
X0027279Y0207558D01*
X0027215Y0207426D01*
X0027148Y0207296D01*
X0027078Y0207167D01*
X0027004Y0207040D01*
X0026927Y0206916D01*
X0026846Y0206793D01*
X0026762Y0206673D01*
X0026675Y0206555D01*
X0026585Y0206440D01*
X0026492Y0206327D01*
X0026395Y0206216D01*
X0026296Y0206108D01*
X0026194Y0206003D01*
X0026089Y0205901D01*
X0025981Y0205802D01*
X0025870Y0205705D01*
X0025757Y0205612D01*
X0025642Y0205522D01*
X0025524Y0205435D01*
X0025404Y0205351D01*
X0025281Y0205270D01*
X0025157Y0205193D01*
X0025030Y0205119D01*
X0024901Y0205049D01*
X0024771Y0204982D01*
X0024639Y0204918D01*
X0024505Y0204859D01*
X0024370Y0204802D01*
X0024233Y0204750D01*
X0024094Y0204701D01*
X0023955Y0204656D01*
X0023814Y0204615D01*
X0023672Y0204578D01*
X0023530Y0204545D01*
X0023386Y0204515D01*
X0023242Y0204489D01*
X0023097Y0204468D01*
X0022951Y0204450D01*
X0022805Y0204436D01*
X0022659Y0204426D01*
X0022513Y0204420D01*
X0022366Y0204418D01*
X0022219Y0204420D01*
X0022073Y0204426D01*
X0021927Y0204436D01*
X0021781Y0204450D01*
X0021635Y0204468D01*
X0021490Y0204489D01*
X0021346Y0204515D01*
X0021202Y0204545D01*
X0021060Y0204578D01*
X0020918Y0204615D01*
X0020777Y0204656D01*
X0020638Y0204701D01*
X0020499Y0204750D01*
X0020362Y0204802D01*
X0020227Y0204859D01*
X0020093Y0204918D01*
X0019961Y0204982D01*
X0019831Y0205049D01*
X0019702Y0205119D01*
X0019575Y0205193D01*
X0019451Y0205270D01*
X0019328Y0205351D01*
X0019208Y0205435D01*
X0019090Y0205522D01*
X0018975Y0205612D01*
X0018862Y0205705D01*
X0018751Y0205802D01*
X0018643Y0205901D01*
X0018538Y0206003D01*
X0018436Y0206108D01*
X0018337Y0206216D01*
X0018240Y0206327D01*
X0018147Y0206440D01*
X0018057Y0206555D01*
X0017970Y0206673D01*
X0017886Y0206793D01*
X0017805Y0206916D01*
X0017728Y0207040D01*
X0017654Y0207167D01*
X0017584Y0207296D01*
X0017517Y0207426D01*
X0017453Y0207558D01*
X0017394Y0207692D01*
X0017337Y0207827D01*
X0017285Y0207964D01*
X0017236Y0208103D01*
X0017191Y0208242D01*
X0017150Y0208383D01*
X0017113Y0208525D01*
X0017080Y0208667D01*
X0017050Y0208811D01*
X0017024Y0208955D01*
X0017003Y0209100D01*
X0016985Y0209246D01*
X0016971Y0209392D01*
X0016961Y0209538D01*
X0016955Y0209684D01*
X0016953Y0209831D01*
D11*
X0047366Y0177548D03*
X0054846Y0177548D03*
X0063901Y0133453D03*
X0071382Y0133453D03*
X0071382Y0116524D03*
X0063901Y0116524D03*
X0080830Y0107863D03*
X0088311Y0107863D03*
X0193035Y0151564D03*
X0200515Y0151564D03*
D12*
X0196185Y0141327D03*
X0189492Y0141327D03*
X0206027Y0141327D03*
X0212720Y0141327D03*
X0225909Y0133650D03*
X0225909Y0126957D03*
X0231224Y0096446D03*
X0237917Y0096446D03*
X0237523Y0069674D03*
X0230830Y0069674D03*
X0170397Y0072233D03*
X0170397Y0065540D03*
X0162326Y0075186D03*
X0155634Y0075186D03*
X0142051Y0071446D03*
X0142051Y0064753D03*
X0131224Y0065737D03*
X0124531Y0065737D03*
X0115279Y0057272D03*
X0115279Y0050579D03*
X0104649Y0050579D03*
X0104649Y0057272D03*
X0094413Y0057272D03*
X0094413Y0050579D03*
X0084177Y0050579D03*
X0084177Y0057272D03*
X0070988Y0108257D03*
X0064295Y0108257D03*
X0081224Y0117705D03*
X0087917Y0117705D03*
X0070988Y0124792D03*
X0064295Y0124792D03*
X0026145Y0162587D03*
X0026145Y0169280D03*
X0029256Y0177548D03*
X0035948Y0177548D03*
X0143232Y0178926D03*
X0143232Y0185619D03*
X0151500Y0185619D03*
X0151500Y0178926D03*
X0160161Y0171446D03*
X0160161Y0164753D03*
X0143232Y0167509D03*
X0143232Y0160816D03*
X0267011Y0182115D03*
X0267011Y0188808D03*
D13*
X0266460Y0163572D03*
X0266460Y0156879D03*
X0266460Y0149792D03*
X0266460Y0143099D03*
X0245200Y0133650D03*
X0245200Y0126957D03*
X0209767Y0150186D03*
X0209767Y0156879D03*
X0205240Y0163768D03*
X0198547Y0163768D03*
X0184964Y0178532D03*
X0184964Y0185225D03*
X0159767Y0185619D03*
X0159767Y0178926D03*
X0134964Y0167509D03*
X0134964Y0160816D03*
X0126697Y0160816D03*
X0126697Y0167509D03*
X0095200Y0157272D03*
X0095200Y0150579D03*
X0086145Y0150579D03*
X0086145Y0157272D03*
X0084767Y0164556D03*
X0091460Y0164556D03*
X0035161Y0141721D03*
X0028468Y0141721D03*
X0121736Y0093060D03*
X0128429Y0093060D03*
X0131224Y0074005D03*
X0124531Y0074005D03*
X0155634Y0066918D03*
X0162326Y0066918D03*
X0115279Y0045068D03*
X0115279Y0038375D03*
X0104649Y0038375D03*
X0104649Y0045068D03*
X0094413Y0045068D03*
X0094413Y0038375D03*
X0084177Y0038375D03*
X0084177Y0045068D03*
X0231224Y0078335D03*
X0237917Y0078335D03*
X0237917Y0087390D03*
X0231224Y0087390D03*
D14*
X0170397Y0056879D03*
X0170397Y0049398D03*
X0142051Y0049792D03*
X0142051Y0057272D03*
X0115279Y0064359D03*
X0115279Y0071839D03*
X0104649Y0071839D03*
X0104649Y0064359D03*
X0094413Y0064359D03*
X0094413Y0071839D03*
X0084177Y0071839D03*
X0084177Y0064359D03*
X0168035Y0178532D03*
X0168035Y0186012D03*
X0176697Y0186012D03*
X0176697Y0178532D03*
D15*
X0157799Y0141918D03*
X0155830Y0141918D03*
X0153862Y0141918D03*
X0151893Y0141918D03*
X0149925Y0141918D03*
X0147956Y0141918D03*
X0145988Y0141918D03*
X0144019Y0141918D03*
X0142051Y0141918D03*
X0140082Y0141918D03*
X0138114Y0141918D03*
X0136145Y0141918D03*
X0136145Y0108060D03*
X0138114Y0108060D03*
X0140082Y0108060D03*
X0142051Y0108060D03*
X0144019Y0108060D03*
X0145988Y0108060D03*
X0147956Y0108060D03*
X0149925Y0108060D03*
X0151893Y0108060D03*
X0153862Y0108060D03*
X0155830Y0108060D03*
X0157799Y0108060D03*
D16*
X0163901Y0114162D03*
X0163901Y0116131D03*
X0163901Y0118099D03*
X0163901Y0120068D03*
X0163901Y0122036D03*
X0163901Y0124005D03*
X0163901Y0125973D03*
X0163901Y0127942D03*
X0163901Y0129910D03*
X0163901Y0131879D03*
X0163901Y0133847D03*
X0163901Y0135816D03*
X0130043Y0135816D03*
X0130043Y0133847D03*
X0130043Y0131879D03*
X0130043Y0129910D03*
X0130043Y0125973D03*
X0130043Y0124005D03*
X0130043Y0122036D03*
X0130043Y0120068D03*
X0130043Y0118099D03*
X0130043Y0116131D03*
X0130043Y0114162D03*
D17*
X0130043Y0127942D03*
D18*
X0131539Y0204831D03*
X0141539Y0204831D03*
X0151539Y0204831D03*
X0161539Y0204831D03*
X0171539Y0204831D03*
X0181539Y0204831D03*
X0191539Y0204831D03*
X0201539Y0204831D03*
X0211539Y0204831D03*
X0221539Y0204831D03*
X0231539Y0204831D03*
X0231539Y0214831D03*
X0221539Y0214831D03*
X0211539Y0214831D03*
X0201539Y0214831D03*
X0191539Y0214831D03*
X0181539Y0214831D03*
X0171539Y0214831D03*
X0161539Y0214831D03*
X0151539Y0214831D03*
X0141539Y0214831D03*
X0131539Y0214831D03*
X0121539Y0214831D03*
X0111539Y0214831D03*
X0111539Y0204831D03*
X0121539Y0204831D03*
X0101539Y0204831D03*
X0091539Y0204831D03*
X0081539Y0204831D03*
X0071539Y0204831D03*
X0061539Y0204831D03*
X0051539Y0204831D03*
X0041539Y0204831D03*
X0041539Y0214831D03*
X0051539Y0214831D03*
X0061539Y0214831D03*
X0071539Y0214831D03*
X0081539Y0214831D03*
X0091539Y0214831D03*
X0101539Y0214831D03*
X0101539Y0021918D03*
X0091539Y0021918D03*
X0081539Y0021918D03*
X0071539Y0021918D03*
X0061539Y0021918D03*
X0051539Y0021918D03*
X0041539Y0021918D03*
X0041539Y0011918D03*
X0051539Y0011918D03*
X0061539Y0011918D03*
X0071539Y0011918D03*
X0081539Y0011918D03*
X0091539Y0011918D03*
X0101539Y0011918D03*
X0111539Y0011918D03*
X0121539Y0011918D03*
X0121539Y0021918D03*
X0111539Y0021918D03*
X0131539Y0021918D03*
X0141539Y0021918D03*
X0141539Y0011918D03*
X0131539Y0011918D03*
X0151539Y0011918D03*
X0161539Y0011918D03*
X0171539Y0011918D03*
X0171539Y0021918D03*
X0161539Y0021918D03*
X0151539Y0021918D03*
X0181539Y0021918D03*
X0191539Y0021918D03*
X0191539Y0011918D03*
X0181539Y0011918D03*
X0201539Y0011918D03*
X0211539Y0011918D03*
X0211539Y0021918D03*
X0201539Y0021918D03*
X0221539Y0021918D03*
X0231539Y0021918D03*
X0231539Y0011918D03*
X0221539Y0011918D03*
D19*
X0265673Y0196249D03*
X0265673Y0202154D03*
D20*
X0114205Y0175619D02*
X0110605Y0175619D01*
X0110605Y0155619D02*
X0114205Y0155619D01*
D21*
X0169925Y0162509D03*
X0169925Y0169989D03*
X0178586Y0166249D03*
D22*
X0046836Y0169673D03*
X0046836Y0162273D03*
X0036636Y0162273D03*
X0036636Y0165973D03*
X0036636Y0169673D03*
D23*
X0128665Y0055107D03*
X0128665Y0040146D03*
X0157011Y0040146D03*
X0157011Y0055107D03*
D24*
X0044610Y0051564D03*
X0026106Y0051564D03*
D25*
X0225288Y0141672D03*
X0225288Y0144172D03*
X0225288Y0146672D03*
X0225288Y0149172D03*
X0225288Y0151672D03*
X0225288Y0154172D03*
X0225288Y0156672D03*
X0225288Y0159172D03*
X0225288Y0161672D03*
X0225288Y0164172D03*
X0247082Y0164172D03*
X0247082Y0161672D03*
X0247082Y0159172D03*
X0247082Y0156672D03*
X0247082Y0154172D03*
X0247082Y0151672D03*
X0247082Y0149172D03*
X0247082Y0146672D03*
X0247082Y0144172D03*
X0247082Y0141672D03*
D26*
X0210948Y0120855D03*
X0267248Y0173611D03*
D27*
X0223153Y0097233D03*
X0221972Y0070461D03*
D28*
X0012677Y0009809D02*
X0012030Y0011672D01*
X0011933Y0012648D01*
X0011933Y0028468D01*
X0012728Y0027672D01*
X0015405Y0026564D01*
X0028010Y0026564D01*
X0034256Y0020318D01*
X0034256Y0010469D01*
X0035364Y0007792D01*
X0036672Y0006485D01*
X0019059Y0006485D01*
X0019026Y0006498D01*
X0018395Y0006485D01*
X0018348Y0006485D01*
X0017373Y0006542D01*
X0015486Y0007112D01*
X0013868Y0008238D01*
X0012677Y0009809D01*
X0013261Y0009040D02*
X0018496Y0009040D01*
X0017404Y0009492D02*
X0020623Y0008158D01*
X0024108Y0008158D01*
X0027328Y0009492D01*
X0029792Y0011956D01*
X0031126Y0015176D01*
X0031126Y0018660D01*
X0029792Y0021880D01*
X0027328Y0024344D01*
X0024108Y0025678D01*
X0020623Y0025678D01*
X0017404Y0024344D01*
X0014940Y0021880D01*
X0013606Y0018660D01*
X0013606Y0015176D01*
X0014940Y0011956D01*
X0017404Y0009492D01*
X0015889Y0011007D02*
X0012261Y0011007D01*
X0011933Y0012974D02*
X0014518Y0012974D01*
X0013703Y0014941D02*
X0011933Y0014941D01*
X0011933Y0016908D02*
X0013606Y0016908D01*
X0013695Y0018875D02*
X0011933Y0018875D01*
X0011933Y0020842D02*
X0014509Y0020842D01*
X0015868Y0022809D02*
X0011933Y0022809D01*
X0011933Y0024776D02*
X0018445Y0024776D01*
X0014973Y0026743D02*
X0011933Y0026743D01*
X0026286Y0024776D02*
X0029798Y0024776D01*
X0028863Y0022809D02*
X0031765Y0022809D01*
X0030222Y0020842D02*
X0033732Y0020842D01*
X0034256Y0018875D02*
X0031037Y0018875D01*
X0031126Y0016908D02*
X0034256Y0016908D01*
X0034256Y0014941D02*
X0031028Y0014941D01*
X0030214Y0012974D02*
X0034256Y0012974D01*
X0034256Y0011007D02*
X0028843Y0011007D01*
X0026236Y0009040D02*
X0034848Y0009040D01*
X0036084Y0007072D02*
X0015619Y0007072D01*
X0046406Y0006485D02*
X0047714Y0007792D01*
X0047978Y0008430D01*
X0049474Y0006934D01*
X0051523Y0006934D01*
X0051523Y0011902D01*
X0051555Y0011902D01*
X0051555Y0011934D01*
X0056523Y0011934D01*
X0056523Y0013983D01*
X0054551Y0015955D01*
X0057502Y0018906D01*
X0059474Y0016934D01*
X0061523Y0016934D01*
X0061523Y0021902D01*
X0061555Y0021902D01*
X0061555Y0016934D01*
X0063604Y0016934D01*
X0065576Y0018906D01*
X0067564Y0016918D01*
X0065576Y0014930D01*
X0063604Y0016902D01*
X0061555Y0016902D01*
X0061555Y0011934D01*
X0061523Y0011934D01*
X0061523Y0011902D01*
X0056555Y0011902D01*
X0056555Y0009853D01*
X0059474Y0006934D01*
X0061523Y0006934D01*
X0061523Y0011902D01*
X0061555Y0011902D01*
X0061555Y0006934D01*
X0063604Y0006934D01*
X0065576Y0008906D01*
X0067997Y0006485D01*
X0046406Y0006485D01*
X0046994Y0007072D02*
X0049336Y0007072D01*
X0051523Y0007072D02*
X0051555Y0007072D01*
X0051555Y0006934D02*
X0053604Y0006934D01*
X0056523Y0009853D01*
X0056523Y0011902D01*
X0051555Y0011902D01*
X0051555Y0006934D01*
X0051523Y0009040D02*
X0051555Y0009040D01*
X0051523Y0011007D02*
X0051555Y0011007D01*
X0053742Y0007072D02*
X0059336Y0007072D01*
X0061523Y0007072D02*
X0061555Y0007072D01*
X0061523Y0009040D02*
X0061555Y0009040D01*
X0061523Y0011007D02*
X0061555Y0011007D01*
X0061523Y0011934D02*
X0056555Y0011934D01*
X0056555Y0013983D01*
X0059474Y0016902D01*
X0061523Y0016902D01*
X0061523Y0011934D01*
X0061523Y0012974D02*
X0061555Y0012974D01*
X0061523Y0014941D02*
X0061555Y0014941D01*
X0065565Y0014941D02*
X0065586Y0014941D01*
X0067553Y0016908D02*
X0055504Y0016908D01*
X0055565Y0014941D02*
X0057513Y0014941D01*
X0056555Y0012974D02*
X0056523Y0012974D01*
X0056523Y0011007D02*
X0056555Y0011007D01*
X0057369Y0009040D02*
X0055709Y0009040D01*
X0063742Y0007072D02*
X0067409Y0007072D01*
X0075081Y0006485D02*
X0076539Y0007943D01*
X0077997Y0006485D01*
X0075081Y0006485D01*
X0075669Y0007072D02*
X0077409Y0007072D01*
X0085081Y0006485D02*
X0086539Y0007943D01*
X0087997Y0006485D01*
X0085081Y0006485D01*
X0085669Y0007072D02*
X0087409Y0007072D01*
X0086539Y0015893D02*
X0085514Y0016918D01*
X0086539Y0017943D01*
X0087564Y0016918D01*
X0086539Y0015893D01*
X0085525Y0016908D02*
X0087553Y0016908D01*
X0095514Y0016918D02*
X0096539Y0017943D01*
X0097564Y0016918D01*
X0096539Y0015893D01*
X0095514Y0016918D01*
X0095525Y0016908D02*
X0097553Y0016908D01*
X0092838Y0031935D02*
X0092838Y0034225D01*
X0094413Y0034225D01*
X0094413Y0038375D01*
X0094413Y0034225D01*
X0095129Y0034225D01*
X0092838Y0031935D01*
X0092838Y0032644D02*
X0093547Y0032644D01*
X0094413Y0034611D02*
X0094413Y0034611D01*
X0094413Y0036578D02*
X0094413Y0036578D01*
X0094413Y0038375D02*
X0094413Y0038375D01*
X0084964Y0034225D02*
X0084964Y0032521D01*
X0081465Y0032390D01*
X0080756Y0032390D01*
X0080685Y0032361D01*
X0080609Y0032358D01*
X0080488Y0032303D01*
X0080534Y0035140D01*
X0080621Y0034991D01*
X0080990Y0034622D01*
X0081442Y0034360D01*
X0081947Y0034225D01*
X0084177Y0034225D01*
X0084964Y0034225D01*
X0084177Y0034225D02*
X0084177Y0038375D01*
X0084177Y0038375D01*
X0084177Y0034225D01*
X0084177Y0034611D02*
X0084177Y0034611D01*
X0084177Y0036578D02*
X0084177Y0036578D01*
X0081009Y0034611D02*
X0080526Y0034611D01*
X0080494Y0032644D02*
X0084964Y0032644D01*
X0072548Y0028264D02*
X0072760Y0041359D01*
X0072760Y0042111D01*
X0072772Y0042141D01*
X0072773Y0042174D01*
X0073071Y0042863D01*
X0073359Y0043558D01*
X0073382Y0043581D01*
X0073395Y0043611D01*
X0073935Y0044134D01*
X0077690Y0047888D01*
X0078665Y0048864D01*
X0078665Y0053214D01*
X0078960Y0053926D01*
X0078665Y0054638D01*
X0078665Y0059626D01*
X0078387Y0059904D01*
X0077878Y0061134D01*
X0077878Y0067584D01*
X0078091Y0068099D01*
X0077878Y0068615D01*
X0077878Y0075064D01*
X0078387Y0076294D01*
X0079328Y0077235D01*
X0080558Y0077745D01*
X0084487Y0077745D01*
X0089613Y0082871D01*
X0091067Y0083473D01*
X0097499Y0083473D01*
X0099511Y0085486D01*
X0099511Y0091721D01*
X0099531Y0091768D01*
X0099531Y0102932D01*
X0097652Y0102932D01*
X0096966Y0103618D01*
X0096223Y0103926D01*
X0094084Y0103926D01*
X0093707Y0103014D01*
X0092765Y0102073D01*
X0091535Y0101564D01*
X0085086Y0101564D01*
X0083856Y0102073D01*
X0083003Y0102926D01*
X0081126Y0102926D01*
X0081126Y0107568D01*
X0080535Y0107568D01*
X0080535Y0102926D01*
X0078010Y0102926D01*
X0077505Y0103061D01*
X0077053Y0103322D01*
X0076684Y0103692D01*
X0076422Y0104144D01*
X0076287Y0104649D01*
X0076287Y0105109D01*
X0075990Y0104392D01*
X0075049Y0103451D01*
X0073819Y0102942D01*
X0068157Y0102942D01*
X0066927Y0103451D01*
X0066074Y0104304D01*
X0064295Y0104304D01*
X0064295Y0108256D01*
X0064295Y0108256D01*
X0064295Y0104304D01*
X0061868Y0104304D01*
X0061364Y0104439D01*
X0060911Y0104700D01*
X0060542Y0105070D01*
X0060281Y0105522D01*
X0060145Y0106027D01*
X0060145Y0108256D01*
X0064295Y0108256D01*
X0064295Y0108257D01*
X0060145Y0108257D01*
X0060145Y0110486D01*
X0060281Y0110991D01*
X0060542Y0111443D01*
X0060769Y0111671D01*
X0060576Y0111723D01*
X0060124Y0111984D01*
X0059754Y0112353D01*
X0059493Y0112806D01*
X0059358Y0113310D01*
X0059358Y0116229D01*
X0063606Y0116229D01*
X0063606Y0116820D01*
X0059358Y0116820D01*
X0059358Y0119738D01*
X0059493Y0120243D01*
X0059754Y0120695D01*
X0060124Y0121065D01*
X0060576Y0121326D01*
X0060769Y0121378D01*
X0060542Y0121605D01*
X0060281Y0122058D01*
X0060145Y0122562D01*
X0060145Y0124792D01*
X0064295Y0124792D01*
X0064295Y0124792D01*
X0060145Y0124792D01*
X0060145Y0127022D01*
X0060281Y0127526D01*
X0060542Y0127979D01*
X0060911Y0128348D01*
X0061202Y0128516D01*
X0061081Y0128516D01*
X0060576Y0128652D01*
X0060124Y0128913D01*
X0059754Y0129282D01*
X0059493Y0129735D01*
X0059358Y0130239D01*
X0059358Y0133158D01*
X0063606Y0133158D01*
X0063606Y0133749D01*
X0063606Y0138390D01*
X0061081Y0138390D01*
X0060576Y0138255D01*
X0060124Y0137994D01*
X0059754Y0137625D01*
X0059493Y0137172D01*
X0059358Y0136667D01*
X0059358Y0133749D01*
X0063606Y0133749D01*
X0064197Y0133749D01*
X0064197Y0138390D01*
X0066074Y0138390D01*
X0066927Y0139243D01*
X0068157Y0139753D01*
X0072956Y0139753D01*
X0072956Y0171052D01*
X0070293Y0171052D01*
X0063049Y0165257D01*
X0061019Y0164668D01*
X0059042Y0164888D01*
X0052331Y0164888D01*
X0052682Y0164039D01*
X0052682Y0160507D01*
X0052173Y0159277D01*
X0051231Y0158336D01*
X0050002Y0157827D01*
X0043670Y0157827D01*
X0042440Y0158336D01*
X0041736Y0159041D01*
X0041031Y0158336D01*
X0039802Y0157827D01*
X0033470Y0157827D01*
X0032240Y0158336D01*
X0030761Y0158336D01*
X0030206Y0157782D01*
X0028976Y0157272D01*
X0023314Y0157272D01*
X0022169Y0157747D01*
X0022169Y0141608D01*
X0023153Y0142592D01*
X0023153Y0144552D01*
X0023663Y0145782D01*
X0024604Y0146723D01*
X0025834Y0147233D01*
X0031102Y0147233D01*
X0031815Y0146938D01*
X0032527Y0147233D01*
X0037795Y0147233D01*
X0039025Y0146723D01*
X0039097Y0146652D01*
X0041174Y0146652D01*
X0043832Y0143994D01*
X0043832Y0140236D01*
X0041174Y0137578D01*
X0039884Y0137578D01*
X0039025Y0136719D01*
X0037795Y0136209D01*
X0032527Y0136209D01*
X0031815Y0136504D01*
X0031102Y0136209D01*
X0027961Y0136209D01*
X0027297Y0135544D01*
X0027297Y0134724D01*
X0024639Y0132066D01*
X0022169Y0132066D01*
X0022169Y0056879D01*
X0032283Y0056879D01*
X0033513Y0056369D01*
X0034455Y0055428D01*
X0034964Y0054198D01*
X0034964Y0048929D01*
X0034455Y0047700D01*
X0033513Y0046758D01*
X0032283Y0046249D01*
X0022169Y0046249D01*
X0022169Y0041131D01*
X0032476Y0041131D01*
X0035153Y0040022D01*
X0037202Y0037973D01*
X0041249Y0033926D01*
X0042596Y0033926D01*
X0044550Y0033117D01*
X0046045Y0031622D01*
X0046782Y0029842D01*
X0047621Y0029495D01*
X0048881Y0028235D01*
X0048910Y0028264D01*
X0054168Y0028264D01*
X0057502Y0024930D01*
X0059474Y0026902D01*
X0061523Y0026902D01*
X0061523Y0021934D01*
X0061555Y0021934D01*
X0061555Y0026902D01*
X0063604Y0026902D01*
X0065576Y0024930D01*
X0068910Y0028264D01*
X0072548Y0028264D01*
X0072555Y0028710D02*
X0048406Y0028710D01*
X0046436Y0030677D02*
X0072587Y0030677D01*
X0072619Y0032644D02*
X0045023Y0032644D01*
X0040564Y0034611D02*
X0072651Y0034611D01*
X0072682Y0036578D02*
X0038597Y0036578D01*
X0036630Y0038545D02*
X0072714Y0038545D01*
X0072746Y0040512D02*
X0033970Y0040512D01*
X0032680Y0046413D02*
X0076214Y0046413D01*
X0078181Y0048380D02*
X0051711Y0048380D01*
X0051709Y0048377D02*
X0051971Y0048829D01*
X0052106Y0049334D01*
X0052106Y0051564D01*
X0052106Y0053793D01*
X0051971Y0054298D01*
X0051709Y0054751D01*
X0051340Y0055120D01*
X0050888Y0055381D01*
X0050383Y0055516D01*
X0044610Y0055516D01*
X0044610Y0051564D01*
X0044610Y0051564D01*
X0044610Y0055516D01*
X0038837Y0055516D01*
X0038332Y0055381D01*
X0037880Y0055120D01*
X0037510Y0054751D01*
X0037249Y0054298D01*
X0037114Y0053793D01*
X0037114Y0051564D01*
X0044610Y0051564D01*
X0052106Y0051564D01*
X0044610Y0051564D01*
X0044610Y0051564D01*
X0044610Y0051564D01*
X0037114Y0051564D01*
X0037114Y0049334D01*
X0037249Y0048829D01*
X0037510Y0048377D01*
X0037880Y0048007D01*
X0038332Y0047746D01*
X0038837Y0047611D01*
X0044610Y0047611D01*
X0050383Y0047611D01*
X0050888Y0047746D01*
X0051340Y0048007D01*
X0051709Y0048377D01*
X0052106Y0050347D02*
X0078665Y0050347D01*
X0078665Y0052314D02*
X0052106Y0052314D01*
X0051975Y0054281D02*
X0078813Y0054281D01*
X0078665Y0056248D02*
X0033635Y0056248D01*
X0034930Y0054281D02*
X0037244Y0054281D01*
X0037114Y0052314D02*
X0034964Y0052314D01*
X0034964Y0050347D02*
X0037114Y0050347D01*
X0037509Y0048380D02*
X0034737Y0048380D01*
X0044610Y0048380D02*
X0044610Y0048380D01*
X0044610Y0047611D02*
X0044610Y0051564D01*
X0044610Y0051564D01*
X0044610Y0047611D01*
X0044610Y0050347D02*
X0044610Y0050347D01*
X0044610Y0052314D02*
X0044610Y0052314D01*
X0044610Y0054281D02*
X0044610Y0054281D01*
X0022169Y0058215D02*
X0078665Y0058215D01*
X0078272Y0060182D02*
X0022169Y0060182D01*
X0022169Y0062149D02*
X0077878Y0062149D01*
X0077878Y0064116D02*
X0022169Y0064116D01*
X0022169Y0066083D02*
X0077878Y0066083D01*
X0078071Y0068050D02*
X0022169Y0068050D01*
X0022169Y0070017D02*
X0077878Y0070017D01*
X0077878Y0071984D02*
X0022169Y0071984D01*
X0022169Y0073951D02*
X0077878Y0073951D01*
X0078231Y0075918D02*
X0022169Y0075918D01*
X0022169Y0077885D02*
X0084627Y0077885D01*
X0086594Y0079852D02*
X0022169Y0079852D01*
X0022169Y0081819D02*
X0088561Y0081819D01*
X0097812Y0083786D02*
X0022169Y0083786D01*
X0022169Y0085753D02*
X0099511Y0085753D01*
X0099511Y0087720D02*
X0022169Y0087720D01*
X0022169Y0089687D02*
X0099511Y0089687D01*
X0099511Y0091654D02*
X0022169Y0091654D01*
X0022169Y0093621D02*
X0099531Y0093621D01*
X0099531Y0095588D02*
X0022169Y0095588D01*
X0022169Y0097555D02*
X0099531Y0097555D01*
X0099531Y0099522D02*
X0022169Y0099522D01*
X0022169Y0101489D02*
X0099531Y0101489D01*
X0097128Y0103456D02*
X0093890Y0103456D01*
X0094084Y0111800D02*
X0093707Y0112711D01*
X0092765Y0113653D01*
X0092741Y0113663D01*
X0092919Y0113841D01*
X0093429Y0115071D01*
X0093429Y0120340D01*
X0092919Y0121570D01*
X0091978Y0122511D01*
X0090748Y0123020D01*
X0085086Y0123020D01*
X0083856Y0122511D01*
X0083003Y0121658D01*
X0082083Y0121658D01*
X0084430Y0124005D01*
X0101911Y0124005D01*
X0101299Y0123430D01*
X0101238Y0123405D01*
X0100729Y0122896D01*
X0100204Y0122404D01*
X0100177Y0122344D01*
X0100131Y0122298D01*
X0099855Y0121633D01*
X0099558Y0120977D01*
X0099556Y0120912D01*
X0099531Y0120851D01*
X0099531Y0120131D01*
X0099508Y0119412D01*
X0099531Y0119350D01*
X0099531Y0112006D01*
X0097652Y0112006D01*
X0097446Y0111800D01*
X0094084Y0111800D01*
X0093127Y0113291D02*
X0099531Y0113291D01*
X0099531Y0115258D02*
X0093429Y0115258D01*
X0093429Y0117225D02*
X0099531Y0117225D01*
X0099531Y0119192D02*
X0093429Y0119192D01*
X0093089Y0121159D02*
X0099641Y0121159D01*
X0100959Y0123126D02*
X0083551Y0123126D01*
X0081224Y0117705D02*
X0081224Y0113753D01*
X0081224Y0117705D01*
X0081224Y0117705D01*
X0081224Y0117225D02*
X0081224Y0117225D01*
X0081224Y0115258D02*
X0081224Y0115258D01*
X0081224Y0113753D02*
X0083003Y0113753D01*
X0083480Y0113276D01*
X0083003Y0112800D01*
X0081126Y0112800D01*
X0081126Y0108158D01*
X0080535Y0108158D01*
X0080535Y0112800D01*
X0078010Y0112800D01*
X0077505Y0112665D01*
X0077087Y0112423D01*
X0077287Y0112906D01*
X0077287Y0114837D01*
X0077471Y0114519D01*
X0077840Y0114149D01*
X0078293Y0113888D01*
X0078797Y0113753D01*
X0081224Y0113753D01*
X0083465Y0113291D02*
X0077287Y0113291D01*
X0080535Y0111324D02*
X0081126Y0111324D01*
X0081126Y0109357D02*
X0080535Y0109357D01*
X0080535Y0107390D02*
X0081126Y0107390D01*
X0081126Y0105423D02*
X0080535Y0105423D01*
X0080535Y0103456D02*
X0081126Y0103456D01*
X0076919Y0103456D02*
X0075054Y0103456D01*
X0066922Y0103456D02*
X0022169Y0103456D01*
X0022169Y0105423D02*
X0060338Y0105423D01*
X0060145Y0107390D02*
X0022169Y0107390D01*
X0022169Y0109357D02*
X0060145Y0109357D01*
X0060473Y0111324D02*
X0022169Y0111324D01*
X0022169Y0113291D02*
X0059363Y0113291D01*
X0059358Y0115258D02*
X0022169Y0115258D01*
X0022169Y0117225D02*
X0059358Y0117225D01*
X0059358Y0119192D02*
X0022169Y0119192D01*
X0022169Y0121159D02*
X0060288Y0121159D01*
X0060145Y0123126D02*
X0022169Y0123126D01*
X0022169Y0125093D02*
X0060145Y0125093D01*
X0060156Y0127060D02*
X0022169Y0127060D01*
X0022169Y0129027D02*
X0060009Y0129027D01*
X0059358Y0130994D02*
X0022169Y0130994D01*
X0025534Y0132961D02*
X0059358Y0132961D01*
X0059358Y0134928D02*
X0027297Y0134928D01*
X0023153Y0142797D02*
X0022169Y0142797D01*
X0022169Y0144764D02*
X0023241Y0144764D01*
X0022169Y0146731D02*
X0024621Y0146731D01*
X0022169Y0148698D02*
X0072956Y0148698D01*
X0072956Y0150665D02*
X0022169Y0150665D01*
X0022169Y0152632D02*
X0072956Y0152632D01*
X0072956Y0154599D02*
X0022169Y0154599D01*
X0022169Y0156566D02*
X0072956Y0156566D01*
X0072956Y0158533D02*
X0051428Y0158533D01*
X0052679Y0160500D02*
X0072956Y0160500D01*
X0072956Y0162467D02*
X0052682Y0162467D01*
X0052519Y0164434D02*
X0072956Y0164434D01*
X0072956Y0166401D02*
X0064479Y0166401D01*
X0066938Y0168368D02*
X0072956Y0168368D01*
X0072956Y0170335D02*
X0069397Y0170335D01*
X0064879Y0180333D02*
X0059389Y0175942D01*
X0059389Y0177253D01*
X0055141Y0177253D01*
X0055141Y0177843D01*
X0054551Y0177843D01*
X0054551Y0182485D01*
X0052673Y0182485D01*
X0051820Y0183338D01*
X0050591Y0183847D01*
X0044141Y0183847D01*
X0042911Y0183338D01*
X0041970Y0182396D01*
X0041460Y0181166D01*
X0041460Y0173929D01*
X0041841Y0173011D01*
X0041736Y0172906D01*
X0041031Y0173610D01*
X0040922Y0173655D01*
X0040951Y0173684D01*
X0041460Y0174914D01*
X0041460Y0180182D01*
X0040951Y0181412D01*
X0040009Y0182353D01*
X0038779Y0182863D01*
X0033117Y0182863D01*
X0031888Y0182353D01*
X0031035Y0181501D01*
X0029256Y0181501D01*
X0029256Y0177548D01*
X0029255Y0177548D01*
X0029255Y0177548D01*
X0025106Y0177548D01*
X0025106Y0179778D01*
X0025241Y0180282D01*
X0025502Y0180735D01*
X0025872Y0181104D01*
X0026324Y0181365D01*
X0026829Y0181501D01*
X0029255Y0181501D01*
X0029255Y0177548D01*
X0025106Y0177548D01*
X0025106Y0175318D01*
X0025241Y0174814D01*
X0025367Y0174595D01*
X0022169Y0174595D01*
X0022169Y0181763D01*
X0038923Y0196697D01*
X0039787Y0198485D01*
X0044168Y0198485D01*
X0046539Y0200856D01*
X0048910Y0198485D01*
X0052526Y0198485D01*
X0053055Y0197956D01*
X0053055Y0193000D01*
X0052474Y0192419D01*
X0052474Y0188661D01*
X0055132Y0186003D01*
X0058891Y0186003D01*
X0061548Y0188661D01*
X0061548Y0192419D01*
X0060968Y0193000D01*
X0060968Y0198485D01*
X0062137Y0198485D01*
X0068223Y0191964D01*
X0068223Y0191023D01*
X0070880Y0188365D01*
X0074639Y0188365D01*
X0077297Y0191023D01*
X0077297Y0194782D01*
X0074639Y0197439D01*
X0073937Y0197439D01*
X0072961Y0198485D01*
X0074168Y0198485D01*
X0077502Y0201819D01*
X0079474Y0199847D01*
X0081523Y0199847D01*
X0081523Y0204816D01*
X0081555Y0204816D01*
X0081555Y0199847D01*
X0083604Y0199847D01*
X0085576Y0201819D01*
X0088910Y0198485D01*
X0094168Y0198485D01*
X0096539Y0200856D01*
X0098910Y0198485D01*
X0102318Y0198485D01*
X0108876Y0191927D01*
X0110323Y0191327D01*
X0139295Y0191327D01*
X0139295Y0190476D01*
X0139171Y0190424D01*
X0138230Y0189483D01*
X0137720Y0188253D01*
X0137720Y0182985D01*
X0138015Y0182272D01*
X0137838Y0181845D01*
X0130906Y0188776D01*
X0129452Y0189379D01*
X0123941Y0189379D01*
X0122487Y0188776D01*
X0122302Y0188591D01*
X0107406Y0188591D01*
X0105951Y0187989D01*
X0104838Y0186876D01*
X0103798Y0185835D01*
X0101593Y0185835D01*
X0101302Y0185908D01*
X0100813Y0185835D01*
X0100319Y0185835D01*
X0100042Y0185721D01*
X0099745Y0185676D01*
X0099321Y0185422D01*
X0098865Y0185233D01*
X0098653Y0185021D01*
X0098042Y0184654D01*
X0088999Y0184654D01*
X0088418Y0185235D01*
X0084660Y0185235D01*
X0082002Y0182577D01*
X0082002Y0181682D01*
X0068723Y0181682D01*
X0067965Y0181766D01*
X0067674Y0181682D01*
X0067372Y0181682D01*
X0066667Y0181390D01*
X0065934Y0181178D01*
X0065698Y0180988D01*
X0065418Y0180873D01*
X0064879Y0180333D01*
X0064674Y0180170D02*
X0059389Y0180170D01*
X0059389Y0180762D02*
X0059254Y0181267D01*
X0058993Y0181719D01*
X0058624Y0182088D01*
X0058171Y0182350D01*
X0057666Y0182485D01*
X0055141Y0182485D01*
X0055141Y0177843D01*
X0059389Y0177843D01*
X0059389Y0180762D01*
X0058540Y0182137D02*
X0082002Y0182137D01*
X0083529Y0184104D02*
X0024795Y0184104D01*
X0027002Y0186071D02*
X0055064Y0186071D01*
X0053097Y0188038D02*
X0029209Y0188038D01*
X0031416Y0190005D02*
X0052474Y0190005D01*
X0052474Y0191972D02*
X0033622Y0191972D01*
X0035829Y0193939D02*
X0053055Y0193939D01*
X0053055Y0195906D02*
X0038036Y0195906D01*
X0039492Y0197873D02*
X0053055Y0197873D01*
X0047555Y0199840D02*
X0045523Y0199840D01*
X0056151Y0209194D02*
X0056539Y0208807D01*
X0058527Y0210795D01*
X0057949Y0211373D01*
X0057284Y0210126D01*
X0056151Y0209194D01*
X0056736Y0209675D02*
X0057407Y0209675D01*
X0061523Y0211178D02*
X0061523Y0214816D01*
X0061555Y0214816D01*
X0061555Y0211178D01*
X0061523Y0211178D01*
X0061523Y0211642D02*
X0061555Y0211642D01*
X0061523Y0213609D02*
X0061555Y0213609D01*
X0061555Y0214847D02*
X0061523Y0214847D01*
X0061523Y0219816D01*
X0059474Y0219816D01*
X0058065Y0218406D01*
X0057810Y0219244D01*
X0057578Y0219525D01*
X0057438Y0219863D01*
X0057036Y0220264D01*
X0067997Y0220264D01*
X0065576Y0217843D01*
X0063604Y0219816D01*
X0061555Y0219816D01*
X0061555Y0214847D01*
X0061523Y0215576D02*
X0061555Y0215576D01*
X0061523Y0217543D02*
X0061555Y0217543D01*
X0061523Y0219510D02*
X0061555Y0219510D01*
X0063909Y0219510D02*
X0067243Y0219510D01*
X0075081Y0220264D02*
X0076539Y0218807D01*
X0077997Y0220264D01*
X0075081Y0220264D01*
X0075835Y0219510D02*
X0077243Y0219510D01*
X0085081Y0220264D02*
X0086539Y0218807D01*
X0087997Y0220264D01*
X0085081Y0220264D01*
X0085835Y0219510D02*
X0087243Y0219510D01*
X0095081Y0220264D02*
X0102681Y0220264D01*
X0102681Y0219816D01*
X0101555Y0219816D01*
X0101555Y0214847D01*
X0101523Y0214847D01*
X0101523Y0219816D01*
X0099474Y0219816D01*
X0097502Y0217843D01*
X0095081Y0220264D01*
X0095835Y0219510D02*
X0099169Y0219510D01*
X0101523Y0219510D02*
X0101555Y0219510D01*
X0101523Y0217543D02*
X0101555Y0217543D01*
X0101523Y0215576D02*
X0101555Y0215576D01*
X0087564Y0209831D02*
X0085576Y0207843D01*
X0084551Y0208868D01*
X0086539Y0210856D01*
X0087564Y0209831D01*
X0087408Y0209675D02*
X0085358Y0209675D01*
X0078527Y0208868D02*
X0077502Y0207843D01*
X0075514Y0209831D01*
X0076539Y0210856D01*
X0078527Y0208868D01*
X0077720Y0209675D02*
X0075671Y0209675D01*
X0067564Y0209831D02*
X0066539Y0208807D01*
X0064551Y0210795D01*
X0065576Y0211819D01*
X0067564Y0209831D01*
X0067408Y0209675D02*
X0065671Y0209675D01*
X0065753Y0211642D02*
X0065399Y0211642D01*
X0059169Y0219510D02*
X0057590Y0219510D01*
X0077490Y0201807D02*
X0077515Y0201807D01*
X0075523Y0199840D02*
X0087555Y0199840D01*
X0085588Y0201807D02*
X0085563Y0201807D01*
X0081555Y0201807D02*
X0081523Y0201807D01*
X0081523Y0203774D02*
X0081555Y0203774D01*
X0076172Y0195906D02*
X0104897Y0195906D01*
X0106864Y0193939D02*
X0077297Y0193939D01*
X0077297Y0191972D02*
X0108831Y0191972D01*
X0106070Y0188038D02*
X0060926Y0188038D01*
X0061548Y0190005D02*
X0069241Y0190005D01*
X0068215Y0191972D02*
X0061548Y0191972D01*
X0060968Y0193939D02*
X0066380Y0193939D01*
X0064544Y0195906D02*
X0060968Y0195906D01*
X0060968Y0197873D02*
X0062708Y0197873D01*
X0073532Y0197873D02*
X0102930Y0197873D01*
X0097555Y0199840D02*
X0095523Y0199840D01*
X0104033Y0186071D02*
X0058959Y0186071D01*
X0055141Y0182137D02*
X0054551Y0182137D01*
X0054551Y0180170D02*
X0055141Y0180170D01*
X0055141Y0178203D02*
X0054551Y0178203D01*
X0059389Y0178203D02*
X0062216Y0178203D01*
X0059757Y0176236D02*
X0059389Y0176236D01*
X0041460Y0176236D02*
X0041460Y0176236D01*
X0041460Y0178203D02*
X0041460Y0178203D01*
X0041460Y0180170D02*
X0041460Y0180170D01*
X0041862Y0182137D02*
X0040226Y0182137D01*
X0031671Y0182137D02*
X0022588Y0182137D01*
X0022169Y0180170D02*
X0025211Y0180170D01*
X0025106Y0178203D02*
X0022169Y0178203D01*
X0022169Y0176236D02*
X0025106Y0176236D01*
X0029255Y0178203D02*
X0029256Y0178203D01*
X0029255Y0180170D02*
X0029256Y0180170D01*
X0030697Y0173595D02*
X0031075Y0173217D01*
X0031413Y0173217D01*
X0031035Y0173595D01*
X0030697Y0173595D01*
X0041193Y0174269D02*
X0041460Y0174269D01*
X0041736Y0166441D02*
X0042203Y0165973D01*
X0041736Y0165506D01*
X0041268Y0165973D01*
X0041736Y0166441D01*
X0041696Y0166401D02*
X0041776Y0166401D01*
X0042244Y0158533D02*
X0041228Y0158533D01*
X0039008Y0146731D02*
X0072956Y0146731D01*
X0072956Y0144764D02*
X0043063Y0144764D01*
X0043832Y0142797D02*
X0072956Y0142797D01*
X0072956Y0140830D02*
X0043832Y0140830D01*
X0042459Y0138863D02*
X0066546Y0138863D01*
X0064197Y0136895D02*
X0063606Y0136895D01*
X0063606Y0134928D02*
X0064197Y0134928D01*
X0059419Y0136895D02*
X0039202Y0136895D01*
X0064295Y0107390D02*
X0064295Y0107390D01*
X0064295Y0105423D02*
X0064295Y0105423D01*
X0085869Y0137784D02*
X0086053Y0137968D01*
X0111923Y0137968D01*
X0111923Y0137784D01*
X0085869Y0137784D01*
X0103862Y0154320D02*
X0103862Y0172036D01*
X0104251Y0172036D01*
X0105698Y0172635D01*
X0106103Y0173040D01*
X0106242Y0172704D01*
X0107690Y0171256D01*
X0109581Y0170472D01*
X0115229Y0170472D01*
X0117120Y0171256D01*
X0117546Y0171682D01*
X0122003Y0171682D01*
X0121891Y0171570D01*
X0121382Y0170340D01*
X0121382Y0164678D01*
X0121891Y0163448D01*
X0122744Y0162595D01*
X0122744Y0160816D01*
X0126696Y0160816D01*
X0126696Y0160816D01*
X0122744Y0160816D01*
X0122744Y0159162D01*
X0117940Y0159162D01*
X0117120Y0159982D01*
X0115229Y0160765D01*
X0109581Y0160765D01*
X0107690Y0159982D01*
X0106242Y0158534D01*
X0105459Y0156642D01*
X0105459Y0154595D01*
X0105573Y0154320D01*
X0103862Y0154320D01*
X0103862Y0154599D02*
X0105459Y0154599D01*
X0105459Y0156566D02*
X0103862Y0156566D01*
X0103862Y0158533D02*
X0106242Y0158533D01*
X0103862Y0160500D02*
X0108940Y0160500D01*
X0103862Y0162467D02*
X0122744Y0162467D01*
X0122744Y0160500D02*
X0115870Y0160500D01*
X0121483Y0164434D02*
X0103862Y0164434D01*
X0103862Y0166401D02*
X0121382Y0166401D01*
X0121382Y0168368D02*
X0103862Y0168368D01*
X0103862Y0170335D02*
X0121382Y0170335D01*
X0126697Y0172036D02*
X0126697Y0167509D01*
X0126697Y0172036D02*
X0128665Y0172430D01*
X0143232Y0172430D01*
X0143232Y0167509D01*
X0155830Y0160217D02*
X0155830Y0157980D01*
X0155920Y0158069D01*
X0156073Y0158069D01*
X0155830Y0158655D01*
X0155830Y0160217D01*
X0155830Y0160217D01*
X0155830Y0158533D02*
X0155881Y0158533D01*
X0165363Y0151957D02*
X0175122Y0151957D01*
X0175122Y0145382D01*
X0174522Y0144782D01*
X0174522Y0141023D01*
X0175792Y0139753D01*
X0167959Y0139753D01*
X0168448Y0140934D01*
X0168448Y0148020D01*
X0167846Y0149474D01*
X0166733Y0150587D01*
X0165363Y0151957D01*
X0166656Y0150665D02*
X0175122Y0150665D01*
X0175122Y0148698D02*
X0168168Y0148698D01*
X0168448Y0146731D02*
X0175122Y0146731D01*
X0174522Y0144764D02*
X0168448Y0144764D01*
X0168448Y0142797D02*
X0174522Y0142797D01*
X0174715Y0140830D02*
X0168405Y0140830D01*
X0160535Y0143360D02*
X0160374Y0143199D01*
X0160374Y0145329D01*
X0160367Y0145353D01*
X0160367Y0145354D01*
X0160367Y0145649D01*
X0160535Y0145579D01*
X0160535Y0143360D01*
X0160535Y0144764D02*
X0160374Y0144764D01*
X0150068Y0135422D02*
X0150463Y0134469D01*
X0150254Y0134260D01*
X0149629Y0134260D01*
X0149048Y0134841D01*
X0145290Y0134841D01*
X0142632Y0132183D01*
X0142632Y0128425D01*
X0145290Y0125767D01*
X0149048Y0125767D01*
X0149629Y0126347D01*
X0152680Y0126347D01*
X0153725Y0126780D01*
X0154236Y0126269D01*
X0154236Y0114556D01*
X0148669Y0114556D01*
X0147439Y0114046D01*
X0146972Y0113580D01*
X0146506Y0114046D01*
X0145276Y0114556D01*
X0136858Y0114556D01*
X0136539Y0114424D01*
X0136539Y0125261D01*
X0136166Y0126162D01*
X0136342Y0126587D01*
X0136342Y0128179D01*
X0136539Y0128654D01*
X0136539Y0135103D01*
X0136407Y0135422D01*
X0137402Y0135422D01*
X0141339Y0135422D01*
X0142051Y0135717D01*
X0142763Y0135422D01*
X0147244Y0135422D01*
X0147956Y0135717D01*
X0148669Y0135422D01*
X0150068Y0135422D01*
X0150273Y0134928D02*
X0136539Y0134928D01*
X0136539Y0132961D02*
X0143410Y0132961D01*
X0142632Y0130994D02*
X0136539Y0130994D01*
X0136539Y0129027D02*
X0142632Y0129027D01*
X0143996Y0127060D02*
X0136342Y0127060D01*
X0136539Y0125093D02*
X0154236Y0125093D01*
X0154236Y0123126D02*
X0136539Y0123126D01*
X0136539Y0121159D02*
X0154236Y0121159D01*
X0154236Y0119192D02*
X0136539Y0119192D01*
X0136539Y0117225D02*
X0154236Y0117225D01*
X0154236Y0115258D02*
X0136539Y0115258D01*
X0133571Y0109502D02*
X0133571Y0108060D01*
X0134177Y0108060D01*
X0134177Y0108060D01*
X0133571Y0108060D01*
X0133571Y0104649D01*
X0133706Y0104144D01*
X0133967Y0103692D01*
X0134177Y0103482D01*
X0134177Y0100439D01*
X0133595Y0099857D01*
X0133409Y0099408D01*
X0130329Y0099408D01*
X0129729Y0098808D01*
X0129457Y0098808D01*
X0128886Y0098572D01*
X0125795Y0098572D01*
X0124565Y0098062D01*
X0123712Y0097209D01*
X0121736Y0097209D01*
X0121736Y0093060D01*
X0121736Y0093060D01*
X0121736Y0097209D01*
X0121598Y0097209D01*
X0121598Y0098350D01*
X0130117Y0106869D01*
X0130938Y0106869D01*
X0133571Y0109502D01*
X0133571Y0109357D02*
X0133426Y0109357D01*
X0133571Y0107390D02*
X0131459Y0107390D01*
X0133571Y0105423D02*
X0128671Y0105423D01*
X0126704Y0103456D02*
X0134177Y0103456D01*
X0134177Y0101489D02*
X0124737Y0101489D01*
X0122770Y0099522D02*
X0133457Y0099522D01*
X0124058Y0097555D02*
X0121598Y0097555D01*
X0121736Y0095588D02*
X0121736Y0095588D01*
X0121736Y0093621D02*
X0121736Y0093621D01*
X0123292Y0088910D02*
X0123712Y0088910D01*
X0124565Y0088057D01*
X0125795Y0087548D01*
X0131063Y0087548D01*
X0132293Y0088057D01*
X0133234Y0088999D01*
X0133236Y0089002D01*
X0135053Y0087184D01*
X0138508Y0087184D01*
X0138508Y0085469D01*
X0138488Y0085422D01*
X0138488Y0076457D01*
X0137990Y0076251D01*
X0137048Y0075310D01*
X0136539Y0074080D01*
X0136539Y0068846D01*
X0136226Y0069601D01*
X0135957Y0069871D01*
X0136030Y0069944D01*
X0136539Y0071174D01*
X0136539Y0076836D01*
X0136030Y0078066D01*
X0135088Y0079007D01*
X0133858Y0079516D01*
X0128590Y0079516D01*
X0127360Y0079007D01*
X0126507Y0078154D01*
X0124531Y0078154D01*
X0124354Y0078154D01*
X0124354Y0086996D01*
X0123752Y0088451D01*
X0123292Y0088910D01*
X0124054Y0087720D02*
X0125379Y0087720D01*
X0124354Y0085753D02*
X0138508Y0085753D01*
X0138488Y0083786D02*
X0124354Y0083786D01*
X0124354Y0081819D02*
X0138488Y0081819D01*
X0138488Y0079852D02*
X0124354Y0079852D01*
X0124531Y0078154D02*
X0124531Y0074005D01*
X0124531Y0074005D01*
X0124531Y0078154D01*
X0124531Y0077885D02*
X0124531Y0077885D01*
X0124531Y0075918D02*
X0124531Y0075918D01*
X0116441Y0077745D02*
X0114969Y0077745D01*
X0114118Y0078596D01*
X0114118Y0087133D01*
X0114287Y0086724D01*
X0115400Y0085611D01*
X0115400Y0085611D01*
X0116441Y0084570D01*
X0116441Y0077745D01*
X0116441Y0077885D02*
X0114829Y0077885D01*
X0114118Y0079852D02*
X0116441Y0079852D01*
X0116441Y0081819D02*
X0114118Y0081819D01*
X0114118Y0083786D02*
X0116441Y0083786D01*
X0115258Y0085753D02*
X0114118Y0085753D01*
X0131479Y0087720D02*
X0134517Y0087720D01*
X0136104Y0077885D02*
X0138488Y0077885D01*
X0137657Y0075918D02*
X0136539Y0075918D01*
X0136539Y0073951D02*
X0136539Y0073951D01*
X0136539Y0071984D02*
X0136539Y0071984D01*
X0136539Y0070017D02*
X0136060Y0070017D01*
X0136736Y0068336D02*
X0136834Y0068099D01*
X0136736Y0067862D01*
X0136736Y0068336D01*
X0136736Y0068050D02*
X0136814Y0068050D01*
X0136539Y0062628D02*
X0136539Y0062118D01*
X0136572Y0062038D01*
X0136261Y0061727D01*
X0136020Y0061146D01*
X0135760Y0061406D01*
X0136226Y0061873D01*
X0136539Y0062628D01*
X0136539Y0062149D02*
X0136341Y0062149D01*
X0125712Y0065737D02*
X0124748Y0065737D01*
X0125712Y0065737D01*
X0125712Y0065737D01*
X0124748Y0065737D02*
X0124748Y0065737D01*
X0124748Y0069690D02*
X0124748Y0069855D01*
X0126476Y0069855D01*
X0126310Y0069690D01*
X0124748Y0069690D01*
X0109964Y0054163D02*
X0110062Y0053926D01*
X0109964Y0053689D01*
X0109866Y0053926D01*
X0109964Y0054163D01*
X0109964Y0047470D02*
X0109964Y0045320D01*
X0109964Y0047470D01*
X0109964Y0047470D01*
X0109964Y0046413D02*
X0109964Y0046413D01*
X0109964Y0045320D02*
X0109964Y0045320D01*
X0115279Y0038375D02*
X0115279Y0035072D01*
X0115279Y0035072D01*
X0115279Y0038375D01*
X0115279Y0038375D01*
X0115279Y0036578D02*
X0115279Y0036578D01*
X0114369Y0034225D02*
X0114098Y0033972D01*
X0114098Y0034225D01*
X0114369Y0034225D01*
X0124454Y0027978D02*
X0126367Y0029890D01*
X0136932Y0029890D01*
X0138387Y0030493D01*
X0139500Y0031606D01*
X0140102Y0033060D01*
X0140102Y0036190D01*
X0146278Y0036190D01*
X0146177Y0036088D01*
X0138185Y0028096D01*
X0137791Y0027145D01*
X0136539Y0025893D01*
X0134168Y0028264D01*
X0128910Y0028264D01*
X0126539Y0025893D01*
X0124454Y0027978D01*
X0125186Y0028710D02*
X0138798Y0028710D01*
X0138570Y0030677D02*
X0140765Y0030677D01*
X0139930Y0032644D02*
X0142732Y0032644D01*
X0144699Y0034611D02*
X0140102Y0034611D01*
X0137388Y0026743D02*
X0135690Y0026743D01*
X0127388Y0026743D02*
X0125690Y0026743D01*
X0126539Y0017943D02*
X0125514Y0016918D01*
X0126539Y0015893D01*
X0127564Y0016918D01*
X0126539Y0017943D01*
X0125525Y0016908D02*
X0127553Y0016908D01*
X0145081Y0006485D02*
X0146539Y0007943D01*
X0147997Y0006485D01*
X0145081Y0006485D01*
X0145669Y0007072D02*
X0147409Y0007072D01*
X0155081Y0006485D02*
X0156539Y0007943D01*
X0157997Y0006485D01*
X0155081Y0006485D01*
X0155669Y0007072D02*
X0157409Y0007072D01*
X0165081Y0006485D02*
X0166539Y0007943D01*
X0167997Y0006485D01*
X0165081Y0006485D01*
X0165669Y0007072D02*
X0167409Y0007072D01*
X0175081Y0006485D02*
X0176539Y0007943D01*
X0177997Y0006485D01*
X0175081Y0006485D01*
X0175669Y0007072D02*
X0177409Y0007072D01*
X0185081Y0006485D02*
X0186539Y0007943D01*
X0187997Y0006485D01*
X0185081Y0006485D01*
X0185669Y0007072D02*
X0187409Y0007072D01*
X0195081Y0006485D02*
X0196539Y0007943D01*
X0197997Y0006485D01*
X0195081Y0006485D01*
X0195669Y0007072D02*
X0197409Y0007072D01*
X0205081Y0006485D02*
X0206539Y0007943D01*
X0207997Y0006485D01*
X0205081Y0006485D01*
X0205669Y0007072D02*
X0207409Y0007072D01*
X0215081Y0006485D02*
X0216539Y0007943D01*
X0217997Y0006485D01*
X0215081Y0006485D01*
X0215669Y0007072D02*
X0217409Y0007072D01*
X0225081Y0006485D02*
X0226672Y0006485D01*
X0225876Y0007280D01*
X0225081Y0006485D01*
X0225669Y0007072D02*
X0226084Y0007072D01*
X0236406Y0006485D02*
X0237714Y0007792D01*
X0238822Y0010469D01*
X0238822Y0023367D01*
X0237714Y0026044D01*
X0235665Y0028093D01*
X0232988Y0029201D01*
X0230090Y0029201D01*
X0227413Y0028093D01*
X0225876Y0026556D01*
X0224168Y0028264D01*
X0220004Y0028264D01*
X0220004Y0064672D01*
X0220758Y0064359D01*
X0223186Y0064359D01*
X0225429Y0065288D01*
X0226913Y0066772D01*
X0227077Y0066487D01*
X0227447Y0066118D01*
X0227899Y0065856D01*
X0228404Y0065721D01*
X0230830Y0065721D01*
X0230830Y0069674D01*
X0230830Y0069674D01*
X0230830Y0065721D01*
X0232610Y0065721D01*
X0233462Y0064868D01*
X0234692Y0064359D01*
X0240354Y0064359D01*
X0241584Y0064868D01*
X0242526Y0065810D01*
X0243035Y0067040D01*
X0243035Y0072308D01*
X0242526Y0073538D01*
X0242256Y0073808D01*
X0242722Y0074274D01*
X0242774Y0074398D01*
X0256504Y0074398D01*
X0257609Y0074346D01*
X0257756Y0074398D01*
X0257795Y0074398D01*
X0258049Y0074504D01*
X0259091Y0074878D01*
X0259206Y0074983D01*
X0259242Y0074998D01*
X0259436Y0075193D01*
X0261145Y0076746D01*
X0261145Y0009710D01*
X0261145Y0008378D01*
X0261655Y0007148D01*
X0262318Y0006485D01*
X0236406Y0006485D01*
X0236994Y0007072D02*
X0261731Y0007072D01*
X0261145Y0009040D02*
X0254582Y0009040D01*
X0255674Y0009492D02*
X0258138Y0011956D01*
X0259472Y0015176D01*
X0259472Y0018660D01*
X0258138Y0021880D01*
X0255674Y0024344D01*
X0252455Y0025678D01*
X0248970Y0025678D01*
X0245750Y0024344D01*
X0243286Y0021880D01*
X0241952Y0018660D01*
X0241952Y0015176D01*
X0243286Y0011956D01*
X0245750Y0009492D01*
X0248970Y0008158D01*
X0252455Y0008158D01*
X0255674Y0009492D01*
X0257189Y0011007D02*
X0261145Y0011007D01*
X0261145Y0012974D02*
X0258560Y0012974D01*
X0259375Y0014941D02*
X0261145Y0014941D01*
X0261145Y0016908D02*
X0259472Y0016908D01*
X0259383Y0018875D02*
X0261145Y0018875D01*
X0261145Y0020842D02*
X0258569Y0020842D01*
X0257210Y0022809D02*
X0261145Y0022809D01*
X0261145Y0024776D02*
X0254633Y0024776D01*
X0261145Y0026743D02*
X0237015Y0026743D01*
X0238239Y0024776D02*
X0246792Y0024776D01*
X0244215Y0022809D02*
X0238822Y0022809D01*
X0238822Y0020842D02*
X0242856Y0020842D01*
X0242041Y0018875D02*
X0238822Y0018875D01*
X0238822Y0016908D02*
X0241952Y0016908D01*
X0242050Y0014941D02*
X0238822Y0014941D01*
X0238822Y0012974D02*
X0242865Y0012974D01*
X0244235Y0011007D02*
X0238822Y0011007D01*
X0238230Y0009040D02*
X0246842Y0009040D01*
X0226063Y0026743D02*
X0225690Y0026743D01*
X0228903Y0028710D02*
X0220004Y0028710D01*
X0220004Y0030677D02*
X0261145Y0030677D01*
X0261145Y0032644D02*
X0220004Y0032644D01*
X0220004Y0034611D02*
X0261145Y0034611D01*
X0261145Y0036578D02*
X0220004Y0036578D01*
X0220004Y0038545D02*
X0261145Y0038545D01*
X0261145Y0040512D02*
X0220004Y0040512D01*
X0220004Y0042479D02*
X0261145Y0042479D01*
X0261145Y0044446D02*
X0220004Y0044446D01*
X0220004Y0046413D02*
X0261145Y0046413D01*
X0261145Y0048380D02*
X0220004Y0048380D01*
X0220004Y0050347D02*
X0261145Y0050347D01*
X0261145Y0052314D02*
X0220004Y0052314D01*
X0220004Y0054281D02*
X0261145Y0054281D01*
X0261145Y0056248D02*
X0220004Y0056248D01*
X0220004Y0058215D02*
X0261145Y0058215D01*
X0261145Y0060182D02*
X0220004Y0060182D01*
X0220004Y0062149D02*
X0261145Y0062149D01*
X0261145Y0064116D02*
X0220004Y0064116D01*
X0226224Y0066083D02*
X0227507Y0066083D01*
X0230830Y0066083D02*
X0230830Y0066083D01*
X0230830Y0068050D02*
X0230830Y0068050D01*
X0227514Y0073269D02*
X0227447Y0073230D01*
X0227435Y0073219D01*
X0227394Y0073319D01*
X0227514Y0073269D01*
X0242399Y0073951D02*
X0261145Y0073951D01*
X0261145Y0071984D02*
X0243035Y0071984D01*
X0243035Y0070017D02*
X0261145Y0070017D01*
X0261145Y0068050D02*
X0243035Y0068050D01*
X0242639Y0066083D02*
X0261145Y0066083D01*
X0261145Y0075918D02*
X0260234Y0075918D01*
X0265252Y0081288D02*
X0265257Y0081298D01*
X0265262Y0081395D01*
X0265299Y0081485D01*
X0265299Y0082178D01*
X0265332Y0082870D01*
X0265299Y0082962D01*
X0265299Y0137587D01*
X0269094Y0137587D01*
X0270324Y0138097D01*
X0271266Y0139038D01*
X0271775Y0140268D01*
X0271775Y0145930D01*
X0271562Y0146446D01*
X0271775Y0146961D01*
X0271775Y0152623D01*
X0271266Y0153853D01*
X0270413Y0154706D01*
X0270413Y0156879D01*
X0270413Y0158658D01*
X0271266Y0159511D01*
X0271775Y0160741D01*
X0271775Y0166403D01*
X0271266Y0167632D01*
X0270324Y0168574D01*
X0269650Y0168853D01*
X0270258Y0169105D01*
X0271753Y0170600D01*
X0272563Y0172554D01*
X0272563Y0174668D01*
X0271753Y0176622D01*
X0271185Y0177190D01*
X0271185Y0177422D01*
X0272014Y0178251D01*
X0272523Y0179481D01*
X0272523Y0184749D01*
X0272228Y0185461D01*
X0272523Y0186174D01*
X0272523Y0191442D01*
X0272014Y0192672D01*
X0271072Y0193613D01*
X0270525Y0193840D01*
X0270594Y0194008D01*
X0270594Y0198489D01*
X0270085Y0199719D01*
X0269232Y0200572D01*
X0269232Y0202154D01*
X0265673Y0202154D01*
X0265673Y0202154D01*
X0262114Y0202154D01*
X0262114Y0200572D01*
X0261261Y0199719D01*
X0260752Y0198489D01*
X0260752Y0194008D01*
X0261261Y0192778D01*
X0261821Y0192218D01*
X0261500Y0191442D01*
X0261500Y0186174D01*
X0261795Y0185461D01*
X0261500Y0184749D01*
X0261500Y0179481D01*
X0262009Y0178251D01*
X0262951Y0177309D01*
X0263289Y0177169D01*
X0262742Y0176622D01*
X0261933Y0174668D01*
X0261933Y0173892D01*
X0251170Y0163129D01*
X0250967Y0163129D01*
X0251016Y0163311D01*
X0251016Y0164172D01*
X0251016Y0165033D01*
X0250881Y0165538D01*
X0250619Y0165990D01*
X0250250Y0166360D01*
X0249797Y0166621D01*
X0249293Y0166756D01*
X0247082Y0166756D01*
X0247082Y0164172D01*
X0247081Y0164172D01*
X0247081Y0166756D01*
X0244870Y0166756D01*
X0244366Y0166621D01*
X0243913Y0166360D01*
X0243544Y0165990D01*
X0243283Y0165538D01*
X0243147Y0165033D01*
X0243147Y0164172D01*
X0244556Y0164172D01*
X0244556Y0164172D01*
X0243147Y0164172D01*
X0243147Y0163311D01*
X0243251Y0162922D01*
X0243202Y0162737D01*
X0242693Y0162526D01*
X0242445Y0162277D01*
X0242445Y0177389D01*
X0242838Y0178340D01*
X0242838Y0179906D01*
X0242445Y0180856D01*
X0242445Y0206901D01*
X0243286Y0204869D01*
X0245750Y0202405D01*
X0248970Y0201072D01*
X0252455Y0201072D01*
X0255674Y0202405D01*
X0258138Y0204869D01*
X0259472Y0208089D01*
X0259472Y0211574D01*
X0258138Y0214793D01*
X0255674Y0217258D01*
X0252455Y0218591D01*
X0248970Y0218591D01*
X0245750Y0217258D01*
X0243286Y0214793D01*
X0242445Y0212762D01*
X0242445Y0216126D01*
X0241845Y0217573D01*
X0239154Y0220264D01*
X0272956Y0220264D01*
X0272956Y0081288D01*
X0265252Y0081288D01*
X0265299Y0081819D02*
X0272956Y0081819D01*
X0272956Y0083786D02*
X0265299Y0083786D01*
X0265299Y0085753D02*
X0272956Y0085753D01*
X0272956Y0087720D02*
X0265299Y0087720D01*
X0265299Y0089687D02*
X0272956Y0089687D01*
X0272956Y0091654D02*
X0265299Y0091654D01*
X0265299Y0093621D02*
X0272956Y0093621D01*
X0272956Y0095588D02*
X0265299Y0095588D01*
X0265299Y0097555D02*
X0272956Y0097555D01*
X0272956Y0099522D02*
X0265299Y0099522D01*
X0265299Y0101489D02*
X0272956Y0101489D01*
X0272956Y0103456D02*
X0265299Y0103456D01*
X0265299Y0105423D02*
X0272956Y0105423D01*
X0272956Y0107390D02*
X0265299Y0107390D01*
X0265299Y0109357D02*
X0272956Y0109357D01*
X0272956Y0111324D02*
X0265299Y0111324D01*
X0265299Y0113291D02*
X0272956Y0113291D01*
X0272956Y0115258D02*
X0265299Y0115258D01*
X0265299Y0117225D02*
X0272956Y0117225D01*
X0272956Y0119192D02*
X0265299Y0119192D01*
X0265299Y0121159D02*
X0272956Y0121159D01*
X0272956Y0123126D02*
X0265299Y0123126D01*
X0265299Y0125093D02*
X0272956Y0125093D01*
X0272956Y0127060D02*
X0265299Y0127060D01*
X0265299Y0129027D02*
X0272956Y0129027D01*
X0272956Y0130994D02*
X0265299Y0130994D01*
X0265299Y0132961D02*
X0272956Y0132961D01*
X0272956Y0134928D02*
X0265299Y0134928D01*
X0265299Y0136895D02*
X0272956Y0136895D01*
X0272956Y0138863D02*
X0271090Y0138863D01*
X0271775Y0140830D02*
X0272956Y0140830D01*
X0272956Y0142797D02*
X0271775Y0142797D01*
X0271775Y0144764D02*
X0272956Y0144764D01*
X0272956Y0146731D02*
X0271680Y0146731D01*
X0271775Y0148698D02*
X0272956Y0148698D01*
X0272956Y0150665D02*
X0271775Y0150665D01*
X0271772Y0152632D02*
X0272956Y0152632D01*
X0272956Y0154599D02*
X0270520Y0154599D01*
X0270413Y0156566D02*
X0272956Y0156566D01*
X0272956Y0158533D02*
X0270413Y0158533D01*
X0270413Y0156879D02*
X0266460Y0156879D01*
X0266460Y0156879D01*
X0270413Y0156879D01*
X0271675Y0160500D02*
X0272956Y0160500D01*
X0272956Y0162467D02*
X0271775Y0162467D01*
X0271775Y0164434D02*
X0272956Y0164434D01*
X0272956Y0166401D02*
X0271775Y0166401D01*
X0272956Y0168368D02*
X0270531Y0168368D01*
X0271488Y0170335D02*
X0272956Y0170335D01*
X0272956Y0172302D02*
X0272458Y0172302D01*
X0272563Y0174269D02*
X0272956Y0174269D01*
X0272956Y0176236D02*
X0271913Y0176236D01*
X0271966Y0178203D02*
X0272956Y0178203D01*
X0272956Y0180170D02*
X0272523Y0180170D01*
X0272523Y0182137D02*
X0272956Y0182137D01*
X0272956Y0184104D02*
X0272523Y0184104D01*
X0272481Y0186071D02*
X0272956Y0186071D01*
X0272956Y0188038D02*
X0272523Y0188038D01*
X0272523Y0190005D02*
X0272956Y0190005D01*
X0272956Y0191972D02*
X0272304Y0191972D01*
X0272956Y0193939D02*
X0270565Y0193939D01*
X0270594Y0195906D02*
X0272956Y0195906D01*
X0272956Y0197873D02*
X0270594Y0197873D01*
X0269964Y0199840D02*
X0272956Y0199840D01*
X0272956Y0201807D02*
X0269232Y0201807D01*
X0269232Y0202154D02*
X0269232Y0203990D01*
X0269097Y0204495D01*
X0268835Y0204947D01*
X0268466Y0205317D01*
X0268014Y0205578D01*
X0267509Y0205713D01*
X0265673Y0205713D01*
X0265673Y0202154D01*
X0265673Y0202154D01*
X0269232Y0202154D01*
X0269232Y0203774D02*
X0272956Y0203774D01*
X0272956Y0205741D02*
X0258500Y0205741D01*
X0259314Y0207708D02*
X0272956Y0207708D01*
X0272956Y0209675D02*
X0259472Y0209675D01*
X0259444Y0211642D02*
X0272956Y0211642D01*
X0272956Y0213609D02*
X0258629Y0213609D01*
X0257356Y0215576D02*
X0272956Y0215576D01*
X0272956Y0217543D02*
X0254985Y0217543D01*
X0246440Y0217543D02*
X0241858Y0217543D01*
X0242445Y0215576D02*
X0244069Y0215576D01*
X0242795Y0213609D02*
X0242445Y0213609D01*
X0239908Y0219510D02*
X0272956Y0219510D01*
X0265673Y0205713D02*
X0263837Y0205713D01*
X0263332Y0205578D01*
X0262880Y0205317D01*
X0262510Y0204947D01*
X0262249Y0204495D01*
X0262114Y0203990D01*
X0262114Y0202154D01*
X0265673Y0202154D01*
X0265673Y0202154D01*
X0265673Y0205713D01*
X0265673Y0203774D02*
X0265673Y0203774D01*
X0262114Y0203774D02*
X0257043Y0203774D01*
X0254230Y0201807D02*
X0262114Y0201807D01*
X0261382Y0199840D02*
X0242445Y0199840D01*
X0242445Y0201807D02*
X0247194Y0201807D01*
X0244381Y0203774D02*
X0242445Y0203774D01*
X0242445Y0205741D02*
X0242925Y0205741D01*
X0242445Y0197873D02*
X0260752Y0197873D01*
X0260752Y0195906D02*
X0242445Y0195906D01*
X0242445Y0193939D02*
X0260780Y0193939D01*
X0261719Y0191972D02*
X0242445Y0191972D01*
X0242445Y0190005D02*
X0261500Y0190005D01*
X0261500Y0188038D02*
X0242445Y0188038D01*
X0242445Y0186071D02*
X0261542Y0186071D01*
X0261500Y0184104D02*
X0242445Y0184104D01*
X0242445Y0182137D02*
X0261500Y0182137D01*
X0261500Y0180170D02*
X0242729Y0180170D01*
X0242782Y0178203D02*
X0262057Y0178203D01*
X0262582Y0176236D02*
X0242445Y0176236D01*
X0242445Y0174269D02*
X0261933Y0174269D01*
X0260343Y0172302D02*
X0242445Y0172302D01*
X0242445Y0170335D02*
X0258376Y0170335D01*
X0256409Y0168368D02*
X0242445Y0168368D01*
X0242445Y0166401D02*
X0243984Y0166401D01*
X0243147Y0164434D02*
X0242445Y0164434D01*
X0242445Y0162467D02*
X0242634Y0162467D01*
X0247081Y0164434D02*
X0247082Y0164434D01*
X0247081Y0166401D02*
X0247082Y0166401D01*
X0249607Y0164172D02*
X0251016Y0164172D01*
X0249607Y0164172D01*
X0249607Y0164172D01*
X0251016Y0164434D02*
X0252475Y0164434D01*
X0254442Y0166401D02*
X0250179Y0166401D01*
X0236913Y0154638D02*
X0234439Y0152164D01*
X0234875Y0152164D01*
X0236913Y0150126D01*
X0236913Y0154638D01*
X0236913Y0154599D02*
X0236874Y0154599D01*
X0236913Y0152632D02*
X0234907Y0152632D01*
X0236374Y0150665D02*
X0236913Y0150665D01*
X0236913Y0145128D02*
X0236913Y0137607D01*
X0230819Y0137607D01*
X0229970Y0138456D01*
X0229535Y0138636D01*
X0230075Y0139176D01*
X0230584Y0140406D01*
X0230584Y0142938D01*
X0230100Y0144106D01*
X0231116Y0143090D01*
X0234875Y0143090D01*
X0236913Y0145128D01*
X0236913Y0144764D02*
X0236549Y0144764D01*
X0236913Y0142797D02*
X0230584Y0142797D01*
X0230584Y0140830D02*
X0236913Y0140830D01*
X0236913Y0138863D02*
X0229761Y0138863D01*
X0221127Y0137735D02*
X0220907Y0137514D01*
X0220397Y0136284D01*
X0220397Y0131016D01*
X0220692Y0130304D01*
X0220397Y0129592D01*
X0220397Y0127041D01*
X0218168Y0124812D01*
X0214508Y0124812D01*
X0213959Y0125361D01*
X0212006Y0126170D01*
X0209891Y0126170D01*
X0207938Y0125361D01*
X0206443Y0123866D01*
X0205634Y0121912D01*
X0205634Y0119798D01*
X0206443Y0117844D01*
X0207938Y0116349D01*
X0209891Y0115540D01*
X0212006Y0115540D01*
X0213959Y0116349D01*
X0214508Y0116898D01*
X0220594Y0116898D01*
X0222048Y0117501D01*
X0226190Y0121642D01*
X0228740Y0121642D01*
X0229970Y0122152D01*
X0230042Y0122223D01*
X0233694Y0122223D01*
X0236352Y0124881D01*
X0236352Y0128640D01*
X0235298Y0129694D01*
X0240352Y0129694D01*
X0240395Y0129589D01*
X0241248Y0128737D01*
X0241248Y0126957D01*
X0241248Y0124531D01*
X0241383Y0124026D01*
X0241644Y0123574D01*
X0242014Y0123204D01*
X0242466Y0122943D01*
X0242971Y0122808D01*
X0245200Y0122808D01*
X0245200Y0126957D01*
X0241248Y0126957D01*
X0245200Y0126957D01*
X0245200Y0126957D01*
X0245201Y0126957D01*
X0245201Y0126957D01*
X0249153Y0126957D01*
X0249153Y0124531D01*
X0249018Y0124026D01*
X0248757Y0123574D01*
X0248387Y0123204D01*
X0247935Y0122943D01*
X0247430Y0122808D01*
X0245201Y0122808D01*
X0245201Y0126957D01*
X0249153Y0126957D01*
X0249153Y0128737D01*
X0250006Y0129589D01*
X0250515Y0130819D01*
X0250515Y0136481D01*
X0250006Y0137711D01*
X0249905Y0137812D01*
X0250927Y0138235D01*
X0251869Y0139176D01*
X0252299Y0140215D01*
X0252474Y0140215D01*
X0252474Y0136692D01*
X0255023Y0134143D01*
X0255023Y0091327D01*
X0242774Y0091327D01*
X0242722Y0091451D01*
X0242256Y0091918D01*
X0242919Y0092581D01*
X0243429Y0093811D01*
X0243429Y0099080D01*
X0242919Y0100310D01*
X0241978Y0101251D01*
X0240748Y0101760D01*
X0235086Y0101760D01*
X0233856Y0101251D01*
X0233003Y0100398D01*
X0231224Y0100398D01*
X0228797Y0100398D01*
X0228482Y0100314D01*
X0228327Y0100690D01*
X0226610Y0102406D01*
X0224367Y0103335D01*
X0221939Y0103335D01*
X0219798Y0102448D01*
X0219404Y0103400D01*
X0202357Y0120447D01*
X0202885Y0120976D01*
X0216074Y0134165D01*
X0216677Y0135619D01*
X0216677Y0136479D01*
X0216781Y0136522D01*
X0217722Y0137463D01*
X0217835Y0137735D01*
X0221127Y0137735D01*
X0220650Y0136895D02*
X0217155Y0136895D01*
X0216391Y0134928D02*
X0220397Y0134928D01*
X0220397Y0132961D02*
X0214871Y0132961D01*
X0212904Y0130994D02*
X0220406Y0130994D01*
X0220397Y0129027D02*
X0210937Y0129027D01*
X0208970Y0127060D02*
X0220397Y0127060D01*
X0218450Y0125093D02*
X0214227Y0125093D01*
X0207670Y0125093D02*
X0207003Y0125093D01*
X0206136Y0123126D02*
X0205036Y0123126D01*
X0205634Y0121159D02*
X0203069Y0121159D01*
X0203612Y0119192D02*
X0205884Y0119192D01*
X0205579Y0117225D02*
X0207062Y0117225D01*
X0207546Y0115258D02*
X0255023Y0115258D01*
X0255023Y0113291D02*
X0209513Y0113291D01*
X0211480Y0111324D02*
X0255023Y0111324D01*
X0255023Y0109357D02*
X0213447Y0109357D01*
X0215414Y0107390D02*
X0255023Y0107390D01*
X0255023Y0105423D02*
X0217381Y0105423D01*
X0219348Y0103456D02*
X0255023Y0103456D01*
X0255023Y0101489D02*
X0241403Y0101489D01*
X0243246Y0099522D02*
X0255023Y0099522D01*
X0255023Y0097555D02*
X0243429Y0097555D01*
X0243429Y0095588D02*
X0255023Y0095588D01*
X0255023Y0093621D02*
X0243350Y0093621D01*
X0242520Y0091654D02*
X0255023Y0091654D01*
X0256759Y0083453D02*
X0242774Y0083453D01*
X0242722Y0083329D01*
X0242256Y0082863D01*
X0242722Y0082396D01*
X0242774Y0082272D01*
X0255460Y0082272D01*
X0256759Y0083453D01*
X0234431Y0101489D02*
X0227527Y0101489D01*
X0231224Y0100398D02*
X0231224Y0096446D01*
X0231224Y0096446D01*
X0231224Y0100398D01*
X0231224Y0099522D02*
X0231224Y0099522D01*
X0231224Y0097555D02*
X0231224Y0097555D01*
X0221383Y0117225D02*
X0255023Y0117225D01*
X0255023Y0119192D02*
X0223740Y0119192D01*
X0225707Y0121159D02*
X0255023Y0121159D01*
X0255023Y0123126D02*
X0248253Y0123126D01*
X0249153Y0125093D02*
X0255023Y0125093D01*
X0255023Y0127060D02*
X0249153Y0127060D01*
X0249444Y0129027D02*
X0255023Y0129027D01*
X0255023Y0130994D02*
X0250515Y0130994D01*
X0250515Y0132961D02*
X0255023Y0132961D01*
X0254238Y0134928D02*
X0250515Y0134928D01*
X0250344Y0136895D02*
X0252474Y0136895D01*
X0252474Y0138863D02*
X0251555Y0138863D01*
X0240957Y0129027D02*
X0235964Y0129027D01*
X0236352Y0127060D02*
X0241248Y0127060D01*
X0241248Y0125093D02*
X0236352Y0125093D01*
X0234597Y0123126D02*
X0242148Y0123126D01*
X0245200Y0123126D02*
X0245201Y0123126D01*
X0245200Y0125093D02*
X0245201Y0125093D01*
X0218001Y0145609D02*
X0217305Y0145609D01*
X0216781Y0146133D01*
X0215551Y0146642D01*
X0213164Y0146642D01*
X0213324Y0146802D01*
X0213585Y0147254D01*
X0213720Y0147759D01*
X0213720Y0149889D01*
X0218001Y0145609D01*
X0216879Y0146731D02*
X0213252Y0146731D01*
X0213720Y0148698D02*
X0214912Y0148698D01*
X0209767Y0150186D02*
X0205815Y0150186D01*
X0209767Y0150186D01*
X0209767Y0150186D01*
X0205815Y0150186D02*
X0205815Y0147759D01*
X0205950Y0147254D01*
X0206211Y0146802D01*
X0206581Y0146433D01*
X0207033Y0146171D01*
X0207538Y0146036D01*
X0208562Y0146036D01*
X0207806Y0145280D01*
X0206027Y0145280D01*
X0203601Y0145280D01*
X0203096Y0145145D01*
X0202644Y0144884D01*
X0202274Y0144514D01*
X0202013Y0144062D01*
X0201878Y0143557D01*
X0201878Y0141327D01*
X0201878Y0139098D01*
X0202013Y0138593D01*
X0202274Y0138141D01*
X0202644Y0137771D01*
X0203096Y0137510D01*
X0203601Y0137375D01*
X0206027Y0137375D01*
X0206027Y0141327D01*
X0206027Y0141327D01*
X0201878Y0141327D01*
X0206027Y0141327D01*
X0206027Y0141327D01*
X0206027Y0137375D01*
X0207806Y0137375D01*
X0207950Y0137231D01*
X0199334Y0128616D01*
X0194120Y0133830D01*
X0194226Y0133936D01*
X0194226Y0137195D01*
X0194405Y0137375D01*
X0196185Y0137375D01*
X0198611Y0137375D01*
X0199116Y0137510D01*
X0199568Y0137771D01*
X0199938Y0138141D01*
X0200199Y0138593D01*
X0200334Y0139098D01*
X0200334Y0141327D01*
X0196185Y0141327D01*
X0196185Y0137375D01*
X0196185Y0141327D01*
X0196185Y0141327D01*
X0196185Y0141327D01*
X0200334Y0141327D01*
X0200334Y0143557D01*
X0200199Y0144062D01*
X0199938Y0144514D01*
X0199568Y0144884D01*
X0199116Y0145145D01*
X0198611Y0145280D01*
X0196298Y0145280D01*
X0197490Y0145774D01*
X0198343Y0146627D01*
X0200220Y0146627D01*
X0200220Y0151268D01*
X0200811Y0151268D01*
X0200811Y0151859D01*
X0205059Y0151859D01*
X0205059Y0152721D01*
X0205815Y0151965D01*
X0205815Y0150186D01*
X0205815Y0150665D02*
X0205059Y0150665D01*
X0205059Y0151268D02*
X0200811Y0151268D01*
X0200811Y0146627D01*
X0203336Y0146627D01*
X0203840Y0146762D01*
X0204293Y0147023D01*
X0204662Y0147393D01*
X0204923Y0147845D01*
X0205059Y0148350D01*
X0205059Y0151268D01*
X0205059Y0152632D02*
X0205148Y0152632D01*
X0204452Y0155945D02*
X0204293Y0156104D01*
X0203840Y0156365D01*
X0203336Y0156501D01*
X0200811Y0156501D01*
X0200811Y0151859D01*
X0200220Y0151859D01*
X0200220Y0156501D01*
X0198343Y0156501D01*
X0197490Y0157353D01*
X0197375Y0157401D01*
X0197375Y0159619D01*
X0198547Y0159619D01*
X0200523Y0159619D01*
X0201376Y0158766D01*
X0202606Y0158257D01*
X0204452Y0158257D01*
X0204452Y0155945D01*
X0204452Y0156566D02*
X0198278Y0156566D01*
X0197375Y0158533D02*
X0201939Y0158533D01*
X0198547Y0159619D02*
X0198547Y0163768D01*
X0198547Y0163768D01*
X0198547Y0159619D01*
X0198547Y0160500D02*
X0198547Y0160500D01*
X0198547Y0162467D02*
X0198547Y0162467D01*
X0198547Y0163768D02*
X0194594Y0163768D01*
X0194594Y0162794D01*
X0190959Y0162794D01*
X0188301Y0160136D01*
X0188301Y0157074D01*
X0187639Y0156412D01*
X0187130Y0155182D01*
X0187130Y0151226D01*
X0186154Y0150250D01*
X0186145Y0150229D01*
X0186145Y0162877D01*
X0186211Y0163113D01*
X0186145Y0163653D01*
X0186145Y0164197D01*
X0186051Y0164424D01*
X0186022Y0164668D01*
X0185754Y0165142D01*
X0185546Y0165644D01*
X0185372Y0165818D01*
X0185251Y0166032D01*
X0184823Y0166367D01*
X0184689Y0166501D01*
X0184689Y0168883D01*
X0184179Y0170113D01*
X0183238Y0171054D01*
X0182523Y0171350D01*
X0182523Y0173020D01*
X0187598Y0173020D01*
X0188828Y0173530D01*
X0189770Y0174471D01*
X0190279Y0175701D01*
X0190279Y0181363D01*
X0189770Y0182593D01*
X0188917Y0183446D01*
X0188917Y0184563D01*
X0204200Y0169280D01*
X0202606Y0169280D01*
X0201376Y0168771D01*
X0200523Y0167918D01*
X0198547Y0167918D01*
X0198547Y0163769D01*
X0198547Y0163769D01*
X0198547Y0167918D01*
X0196317Y0167918D01*
X0195813Y0167783D01*
X0195360Y0167522D01*
X0194991Y0167152D01*
X0194729Y0166700D01*
X0194594Y0166195D01*
X0194594Y0163768D01*
X0198547Y0163768D01*
X0198547Y0163768D01*
X0198547Y0164434D02*
X0198547Y0164434D01*
X0198547Y0166401D02*
X0198547Y0166401D01*
X0200973Y0168368D02*
X0184689Y0168368D01*
X0184789Y0166401D02*
X0194649Y0166401D01*
X0194594Y0164434D02*
X0186050Y0164434D01*
X0186145Y0162467D02*
X0190632Y0162467D01*
X0188665Y0160500D02*
X0186145Y0160500D01*
X0186145Y0158533D02*
X0188301Y0158533D01*
X0187793Y0156566D02*
X0186145Y0156566D01*
X0186145Y0154599D02*
X0187130Y0154599D01*
X0187130Y0152632D02*
X0186145Y0152632D01*
X0186145Y0150665D02*
X0186568Y0150665D01*
X0200220Y0150665D02*
X0200811Y0150665D01*
X0200811Y0152632D02*
X0200220Y0152632D01*
X0200220Y0154599D02*
X0200811Y0154599D01*
X0200811Y0148698D02*
X0200220Y0148698D01*
X0200220Y0146731D02*
X0200811Y0146731D01*
X0199689Y0144764D02*
X0202523Y0144764D01*
X0201878Y0142797D02*
X0200334Y0142797D01*
X0200334Y0140830D02*
X0201878Y0140830D01*
X0201941Y0138863D02*
X0200271Y0138863D01*
X0196185Y0138863D02*
X0196185Y0138863D01*
X0196185Y0140830D02*
X0196185Y0140830D01*
X0194226Y0136895D02*
X0207614Y0136895D01*
X0206027Y0138863D02*
X0206027Y0138863D01*
X0206027Y0140830D02*
X0206027Y0140830D01*
X0206027Y0141328D02*
X0206027Y0145280D01*
X0206027Y0141328D01*
X0206027Y0141328D01*
X0206027Y0142797D02*
X0206027Y0142797D01*
X0206027Y0144764D02*
X0206027Y0144764D01*
X0206282Y0146731D02*
X0203724Y0146731D01*
X0205059Y0148698D02*
X0205815Y0148698D01*
X0205647Y0134928D02*
X0194226Y0134928D01*
X0194989Y0132961D02*
X0203680Y0132961D01*
X0201713Y0130994D02*
X0196956Y0130994D01*
X0198923Y0129027D02*
X0199746Y0129027D01*
X0180821Y0108327D02*
X0180821Y0106377D01*
X0183479Y0103720D01*
X0184693Y0103720D01*
X0195968Y0092444D01*
X0195968Y0054557D01*
X0194767Y0052395D01*
X0194602Y0052230D01*
X0194388Y0051712D01*
X0194115Y0051222D01*
X0194089Y0050991D01*
X0194000Y0050776D01*
X0194000Y0050215D01*
X0193936Y0049659D01*
X0194000Y0049435D01*
X0194000Y0046840D01*
X0194602Y0045385D01*
X0195181Y0044807D01*
X0195181Y0041819D01*
X0194600Y0041238D01*
X0194600Y0037480D01*
X0197258Y0034822D01*
X0201017Y0034822D01*
X0203674Y0037480D01*
X0203674Y0041238D01*
X0203094Y0041819D01*
X0203094Y0042302D01*
X0204560Y0042302D01*
X0205140Y0042883D01*
X0208586Y0042883D01*
X0208586Y0032722D01*
X0204129Y0028264D01*
X0198910Y0028264D01*
X0196539Y0025893D01*
X0194168Y0028264D01*
X0188910Y0028264D01*
X0185576Y0024930D01*
X0183604Y0026902D01*
X0181555Y0026902D01*
X0181555Y0021934D01*
X0181523Y0021934D01*
X0181523Y0026902D01*
X0179474Y0026902D01*
X0177502Y0024930D01*
X0174168Y0028264D01*
X0170382Y0028264D01*
X0172948Y0030830D01*
X0173547Y0032277D01*
X0173547Y0032610D01*
X0183184Y0042247D01*
X0183783Y0043694D01*
X0183783Y0077150D01*
X0183184Y0078597D01*
X0182076Y0079704D01*
X0181027Y0080753D01*
X0181027Y0093685D01*
X0180428Y0095132D01*
X0179320Y0096240D01*
X0173359Y0102201D01*
X0173359Y0103837D01*
X0170702Y0106494D01*
X0167661Y0106494D01*
X0167661Y0107075D01*
X0174611Y0107075D01*
X0175211Y0106475D01*
X0178970Y0106475D01*
X0180821Y0108327D01*
X0180821Y0107390D02*
X0179884Y0107390D01*
X0181775Y0105423D02*
X0171773Y0105423D01*
X0173359Y0103456D02*
X0184956Y0103456D01*
X0186923Y0101489D02*
X0174071Y0101489D01*
X0176038Y0099522D02*
X0188890Y0099522D01*
X0190857Y0097555D02*
X0178005Y0097555D01*
X0179972Y0095588D02*
X0192824Y0095588D01*
X0194791Y0093621D02*
X0181027Y0093621D01*
X0181027Y0091654D02*
X0195968Y0091654D01*
X0195968Y0089687D02*
X0181027Y0089687D01*
X0181027Y0087720D02*
X0195968Y0087720D01*
X0195968Y0085753D02*
X0181027Y0085753D01*
X0181027Y0083786D02*
X0195968Y0083786D01*
X0195968Y0081819D02*
X0181027Y0081819D01*
X0181929Y0079852D02*
X0195968Y0079852D01*
X0195968Y0077885D02*
X0183479Y0077885D01*
X0183783Y0075918D02*
X0195968Y0075918D01*
X0195968Y0073951D02*
X0183783Y0073951D01*
X0183783Y0071984D02*
X0195968Y0071984D01*
X0195968Y0070017D02*
X0183783Y0070017D01*
X0183783Y0068050D02*
X0195968Y0068050D01*
X0195968Y0066083D02*
X0183783Y0066083D01*
X0183783Y0064116D02*
X0195968Y0064116D01*
X0195968Y0062149D02*
X0183783Y0062149D01*
X0183783Y0060182D02*
X0195968Y0060182D01*
X0195968Y0058215D02*
X0183783Y0058215D01*
X0183783Y0056248D02*
X0195968Y0056248D01*
X0195815Y0054281D02*
X0183783Y0054281D01*
X0183783Y0052314D02*
X0194686Y0052314D01*
X0194000Y0050347D02*
X0183783Y0050347D01*
X0183783Y0048380D02*
X0194000Y0048380D01*
X0194176Y0046413D02*
X0183783Y0046413D01*
X0183783Y0044446D02*
X0195181Y0044446D01*
X0195181Y0042479D02*
X0183280Y0042479D01*
X0181449Y0040512D02*
X0194600Y0040512D01*
X0194600Y0038545D02*
X0179482Y0038545D01*
X0177515Y0036578D02*
X0195502Y0036578D01*
X0202773Y0036578D02*
X0208586Y0036578D01*
X0208586Y0038545D02*
X0203674Y0038545D01*
X0203674Y0040512D02*
X0208586Y0040512D01*
X0208586Y0042479D02*
X0204737Y0042479D01*
X0208586Y0034611D02*
X0175548Y0034611D01*
X0173581Y0032644D02*
X0208508Y0032644D01*
X0206541Y0030677D02*
X0172795Y0030677D01*
X0170828Y0028710D02*
X0204574Y0028710D01*
X0197388Y0026743D02*
X0195690Y0026743D01*
X0187388Y0026743D02*
X0183763Y0026743D01*
X0181555Y0026743D02*
X0181523Y0026743D01*
X0181523Y0024776D02*
X0181555Y0024776D01*
X0181523Y0022809D02*
X0181555Y0022809D01*
X0179315Y0026743D02*
X0175690Y0026743D01*
X0177502Y0018906D02*
X0178527Y0017881D01*
X0176539Y0015893D01*
X0175514Y0016918D01*
X0177502Y0018906D01*
X0177471Y0018875D02*
X0177534Y0018875D01*
X0177553Y0016908D02*
X0175525Y0016908D01*
X0167564Y0016918D02*
X0166539Y0015893D01*
X0165514Y0016918D01*
X0166539Y0017943D01*
X0167564Y0016918D01*
X0167553Y0016908D02*
X0165525Y0016908D01*
X0166539Y0025893D02*
X0166619Y0025973D01*
X0166459Y0025973D01*
X0166539Y0025893D01*
X0155755Y0027922D02*
X0155133Y0027300D01*
X0154510Y0027922D01*
X0155755Y0027922D01*
X0148941Y0044103D02*
X0146192Y0044103D01*
X0146899Y0044396D01*
X0147841Y0045337D01*
X0148350Y0046567D01*
X0148350Y0053017D01*
X0148137Y0053532D01*
X0148350Y0054048D01*
X0148350Y0060497D01*
X0147841Y0061727D01*
X0147529Y0062038D01*
X0147563Y0062118D01*
X0147563Y0067387D01*
X0147268Y0068099D01*
X0147563Y0068811D01*
X0147563Y0074080D01*
X0147053Y0075310D01*
X0146401Y0075962D01*
X0146401Y0082853D01*
X0147080Y0082853D01*
X0149737Y0085511D01*
X0149737Y0086790D01*
X0150658Y0086790D01*
X0151110Y0086603D01*
X0163981Y0086603D01*
X0162711Y0085333D01*
X0162711Y0081574D01*
X0165314Y0078971D01*
X0165258Y0079003D01*
X0164753Y0079138D01*
X0162326Y0079138D01*
X0160547Y0079138D01*
X0159694Y0079991D01*
X0158465Y0080501D01*
X0152803Y0080501D01*
X0151573Y0079991D01*
X0150631Y0079050D01*
X0150122Y0077820D01*
X0150122Y0072552D01*
X0150631Y0071322D01*
X0150901Y0071052D01*
X0150828Y0070979D01*
X0150319Y0069749D01*
X0150319Y0064087D01*
X0150828Y0062857D01*
X0151390Y0062295D01*
X0150391Y0061881D01*
X0149450Y0060940D01*
X0148941Y0059710D01*
X0148941Y0050504D01*
X0149450Y0049274D01*
X0150391Y0048333D01*
X0151621Y0047823D01*
X0161877Y0047823D01*
X0162270Y0047430D01*
X0151621Y0047430D01*
X0150391Y0046920D01*
X0149450Y0045979D01*
X0148941Y0044749D01*
X0148941Y0044103D01*
X0148941Y0044446D02*
X0146949Y0044446D01*
X0148286Y0046413D02*
X0149884Y0046413D01*
X0150345Y0048380D02*
X0148350Y0048380D01*
X0148350Y0050347D02*
X0149006Y0050347D01*
X0148941Y0052314D02*
X0148350Y0052314D01*
X0148350Y0054281D02*
X0148941Y0054281D01*
X0148941Y0056248D02*
X0148350Y0056248D01*
X0148350Y0058215D02*
X0148941Y0058215D01*
X0149136Y0060182D02*
X0148350Y0060182D01*
X0147563Y0062149D02*
X0151038Y0062149D01*
X0150319Y0064116D02*
X0147563Y0064116D01*
X0147563Y0066083D02*
X0150319Y0066083D01*
X0150319Y0068050D02*
X0147288Y0068050D01*
X0147563Y0070017D02*
X0150430Y0070017D01*
X0150357Y0071984D02*
X0147563Y0071984D01*
X0147563Y0073951D02*
X0150122Y0073951D01*
X0150122Y0075918D02*
X0146445Y0075918D01*
X0146401Y0077885D02*
X0150149Y0077885D01*
X0151433Y0079852D02*
X0146401Y0079852D01*
X0146401Y0081819D02*
X0162711Y0081819D01*
X0162711Y0083786D02*
X0148012Y0083786D01*
X0149737Y0085753D02*
X0163131Y0085753D01*
X0164433Y0079852D02*
X0159834Y0079852D01*
X0162326Y0079138D02*
X0162326Y0075186D01*
X0162326Y0075186D01*
X0162326Y0079138D01*
X0162326Y0077885D02*
X0162326Y0077885D01*
X0162326Y0075918D02*
X0162326Y0075918D01*
X0162326Y0075186D02*
X0162326Y0071233D01*
X0162326Y0075186D01*
X0162326Y0075186D01*
X0162326Y0073951D02*
X0162326Y0073951D01*
X0162326Y0071984D02*
X0162326Y0071984D01*
X0162326Y0071233D02*
X0164753Y0071233D01*
X0164885Y0071268D01*
X0164885Y0070979D01*
X0164556Y0071068D01*
X0162326Y0071068D01*
X0162326Y0066918D01*
X0162326Y0066918D01*
X0162326Y0066918D01*
X0162326Y0062768D01*
X0160948Y0062768D01*
X0160948Y0062390D01*
X0162402Y0062390D01*
X0163631Y0061881D01*
X0164482Y0061030D01*
X0164608Y0061333D01*
X0165265Y0061990D01*
X0164904Y0062862D01*
X0164556Y0062768D01*
X0162326Y0062768D01*
X0162326Y0066918D01*
X0162326Y0071068D01*
X0160382Y0071068D01*
X0160547Y0071233D01*
X0162326Y0071233D01*
X0162326Y0070017D02*
X0162326Y0070017D01*
X0162326Y0068050D02*
X0162326Y0068050D01*
X0162326Y0066083D02*
X0162326Y0066083D01*
X0162326Y0064116D02*
X0162326Y0064116D01*
X0162985Y0062149D02*
X0165199Y0062149D01*
X0166337Y0077927D02*
X0166318Y0078787D01*
X0166189Y0078916D01*
X0165408Y0078916D01*
X0165710Y0078742D01*
X0166080Y0078373D01*
X0166337Y0077927D01*
X0146569Y0091927D02*
X0146401Y0091927D01*
X0146529Y0092312D01*
X0146569Y0092409D01*
X0146569Y0091927D01*
X0146803Y0093441D02*
X0146775Y0093829D01*
X0146775Y0094271D01*
X0147633Y0094271D01*
X0146803Y0093441D01*
X0146790Y0093621D02*
X0146983Y0093621D01*
X0164235Y0097253D02*
X0164388Y0097253D01*
X0164312Y0097329D01*
X0164235Y0097253D01*
X0122262Y0110205D02*
X0118241Y0106184D01*
X0118241Y0109231D01*
X0118340Y0109231D01*
X0119314Y0110205D01*
X0122262Y0110205D01*
X0121414Y0109357D02*
X0118465Y0109357D01*
X0118241Y0107390D02*
X0119447Y0107390D01*
X0115383Y0103326D02*
X0114287Y0102230D01*
X0114098Y0101774D01*
X0114098Y0103326D01*
X0115383Y0103326D01*
X0120997Y0137804D02*
X0120997Y0137968D01*
X0125649Y0137968D01*
X0125485Y0137804D01*
X0120997Y0137804D01*
X0130043Y0137804D02*
X0130043Y0137968D01*
X0130043Y0137804D01*
X0130043Y0137804D01*
X0130043Y0137968D02*
X0130043Y0137968D01*
X0095988Y0168895D02*
X0095324Y0169558D01*
X0094094Y0170068D01*
X0088826Y0170068D01*
X0088114Y0169773D01*
X0088024Y0169810D01*
X0088024Y0171052D01*
X0095988Y0171052D01*
X0095988Y0168895D01*
X0095988Y0170335D02*
X0088024Y0170335D01*
X0104893Y0172302D02*
X0106644Y0172302D01*
X0128302Y0179036D02*
X0128879Y0179613D01*
X0131731Y0176760D01*
X0130283Y0176760D01*
X0129995Y0177455D01*
X0129977Y0177473D01*
X0129967Y0177496D01*
X0129424Y0178026D01*
X0128494Y0178956D01*
X0128302Y0179036D01*
X0129247Y0178203D02*
X0130289Y0178203D01*
X0135579Y0184104D02*
X0137720Y0184104D01*
X0137720Y0186071D02*
X0133612Y0186071D01*
X0131645Y0188038D02*
X0137720Y0188038D01*
X0138752Y0190005D02*
X0076278Y0190005D01*
X0115514Y0209831D02*
X0116539Y0210856D01*
X0117564Y0209831D01*
X0116539Y0208807D01*
X0115514Y0209831D01*
X0115671Y0209675D02*
X0117408Y0209675D01*
X0125514Y0209831D02*
X0126539Y0208807D01*
X0128527Y0210795D01*
X0127502Y0211819D01*
X0125514Y0209831D01*
X0125671Y0209675D02*
X0127408Y0209675D01*
X0127325Y0211642D02*
X0127680Y0211642D01*
X0134551Y0210795D02*
X0136539Y0208807D01*
X0137564Y0209831D01*
X0135576Y0211819D01*
X0134551Y0210795D01*
X0135399Y0211642D02*
X0135753Y0211642D01*
X0135671Y0209675D02*
X0137408Y0209675D01*
X0145514Y0209831D02*
X0146539Y0208807D01*
X0147564Y0209831D01*
X0146539Y0210856D01*
X0145514Y0209831D01*
X0145671Y0209675D02*
X0147408Y0209675D01*
X0155514Y0209831D02*
X0156539Y0210856D01*
X0158527Y0208868D01*
X0157502Y0207843D01*
X0155514Y0209831D01*
X0155671Y0209675D02*
X0157720Y0209675D01*
X0161523Y0204816D02*
X0161555Y0204816D01*
X0161555Y0199847D01*
X0163604Y0199847D01*
X0165576Y0201819D01*
X0168910Y0198485D01*
X0174168Y0198485D01*
X0176539Y0200856D01*
X0178910Y0198485D01*
X0182602Y0198485D01*
X0182602Y0191725D01*
X0183201Y0190278D01*
X0184105Y0189375D01*
X0182734Y0189375D01*
X0182230Y0189239D01*
X0181777Y0188978D01*
X0181633Y0188834D01*
X0181498Y0189337D01*
X0181237Y0189790D01*
X0180868Y0190159D01*
X0180415Y0190421D01*
X0179911Y0190556D01*
X0176992Y0190556D01*
X0176992Y0186308D01*
X0176401Y0186308D01*
X0176401Y0190556D01*
X0173483Y0190556D01*
X0172978Y0190421D01*
X0172525Y0190159D01*
X0172366Y0190000D01*
X0172206Y0190159D01*
X0171754Y0190421D01*
X0171249Y0190556D01*
X0168330Y0190556D01*
X0168330Y0186308D01*
X0167740Y0186308D01*
X0167740Y0190556D01*
X0164821Y0190556D01*
X0164316Y0190421D01*
X0163864Y0190159D01*
X0163495Y0189790D01*
X0163233Y0189337D01*
X0163182Y0189145D01*
X0162954Y0189372D01*
X0162502Y0189633D01*
X0161997Y0189768D01*
X0159767Y0189768D01*
X0157538Y0189768D01*
X0157033Y0189633D01*
X0156581Y0189372D01*
X0156558Y0189349D01*
X0156502Y0189483D01*
X0155561Y0190424D01*
X0155437Y0190476D01*
X0155437Y0191196D01*
X0155480Y0191847D01*
X0155437Y0191975D01*
X0155437Y0192111D01*
X0155187Y0192713D01*
X0154978Y0193331D01*
X0154889Y0193432D01*
X0154837Y0193558D01*
X0154376Y0194019D01*
X0150468Y0198485D01*
X0154168Y0198485D01*
X0157502Y0201819D01*
X0159474Y0199847D01*
X0161523Y0199847D01*
X0161523Y0204816D01*
X0161523Y0203774D02*
X0161555Y0203774D01*
X0161523Y0201807D02*
X0161555Y0201807D01*
X0165563Y0201807D02*
X0165588Y0201807D01*
X0167555Y0199840D02*
X0155523Y0199840D01*
X0157490Y0201807D02*
X0157515Y0201807D01*
X0152725Y0195906D02*
X0182602Y0195906D01*
X0182602Y0197873D02*
X0151004Y0197873D01*
X0154456Y0193939D02*
X0182602Y0193939D01*
X0182602Y0191972D02*
X0155438Y0191972D01*
X0155980Y0190005D02*
X0163710Y0190005D01*
X0167740Y0190005D02*
X0168330Y0190005D01*
X0168330Y0188038D02*
X0167740Y0188038D01*
X0168330Y0186308D02*
X0172972Y0186308D01*
X0176401Y0186308D01*
X0176401Y0185717D01*
X0168330Y0185717D01*
X0168330Y0186308D01*
X0168330Y0186071D02*
X0176401Y0186071D01*
X0176401Y0188038D02*
X0176992Y0188038D01*
X0176992Y0190005D02*
X0176401Y0190005D01*
X0172371Y0190005D02*
X0172361Y0190005D01*
X0181022Y0190005D02*
X0183475Y0190005D01*
X0188917Y0184104D02*
X0189376Y0184104D01*
X0189959Y0182137D02*
X0191343Y0182137D01*
X0190279Y0180170D02*
X0193310Y0180170D01*
X0195277Y0178203D02*
X0190279Y0178203D01*
X0190279Y0176236D02*
X0197244Y0176236D01*
X0199211Y0174269D02*
X0189567Y0174269D01*
X0183957Y0170335D02*
X0203145Y0170335D01*
X0201178Y0172302D02*
X0182523Y0172302D01*
X0198544Y0186071D02*
X0232602Y0186071D01*
X0232602Y0188038D02*
X0196577Y0188038D01*
X0194610Y0190005D02*
X0232602Y0190005D01*
X0232602Y0191972D02*
X0192643Y0191972D01*
X0190676Y0193939D02*
X0232602Y0193939D01*
X0232602Y0195906D02*
X0190476Y0195906D01*
X0190476Y0194139D02*
X0190476Y0198485D01*
X0194168Y0198485D01*
X0196539Y0200856D01*
X0198910Y0198485D01*
X0204168Y0198485D01*
X0206539Y0200856D01*
X0208910Y0198485D01*
X0214168Y0198485D01*
X0216539Y0200856D01*
X0218910Y0198485D01*
X0224168Y0198485D01*
X0227502Y0201819D01*
X0229474Y0199847D01*
X0231523Y0199847D01*
X0231523Y0204816D01*
X0231555Y0204816D01*
X0231555Y0199847D01*
X0232602Y0199847D01*
X0232602Y0164218D01*
X0230063Y0161679D01*
X0229222Y0162520D01*
X0229222Y0162533D01*
X0229118Y0162922D01*
X0229222Y0163311D01*
X0229222Y0164172D01*
X0229222Y0165033D01*
X0229087Y0165538D01*
X0228826Y0165990D01*
X0228456Y0166360D01*
X0228004Y0166621D01*
X0227499Y0166756D01*
X0225288Y0166756D01*
X0225288Y0164172D01*
X0225288Y0164172D01*
X0225288Y0166756D01*
X0223077Y0166756D01*
X0222572Y0166621D01*
X0222119Y0166360D01*
X0221750Y0165990D01*
X0221489Y0165538D01*
X0221354Y0165033D01*
X0221354Y0164172D01*
X0222762Y0164172D01*
X0221354Y0164172D01*
X0221354Y0163311D01*
X0221372Y0163244D01*
X0190476Y0194139D01*
X0190476Y0197873D02*
X0232602Y0197873D01*
X0232602Y0199840D02*
X0225523Y0199840D01*
X0227490Y0201807D02*
X0227515Y0201807D01*
X0231523Y0201807D02*
X0231555Y0201807D01*
X0231523Y0203774D02*
X0231555Y0203774D01*
X0227502Y0207843D02*
X0228527Y0208868D01*
X0226539Y0210856D01*
X0225514Y0209831D01*
X0227502Y0207843D01*
X0227720Y0209675D02*
X0225671Y0209675D01*
X0217555Y0199840D02*
X0215523Y0199840D01*
X0207555Y0199840D02*
X0205523Y0199840D01*
X0197555Y0199840D02*
X0195523Y0199840D01*
X0196539Y0208807D02*
X0198527Y0210795D01*
X0197502Y0211819D01*
X0195514Y0209831D01*
X0196539Y0208807D01*
X0195671Y0209675D02*
X0197408Y0209675D01*
X0197325Y0211642D02*
X0197680Y0211642D01*
X0201523Y0214847D02*
X0201523Y0219816D01*
X0199474Y0219816D01*
X0197502Y0217843D01*
X0195081Y0220264D01*
X0207997Y0220264D01*
X0205576Y0217843D01*
X0203604Y0219816D01*
X0201555Y0219816D01*
X0201555Y0214847D01*
X0201523Y0214847D01*
X0201523Y0215576D02*
X0201555Y0215576D01*
X0201523Y0217543D02*
X0201555Y0217543D01*
X0201523Y0219510D02*
X0201555Y0219510D01*
X0203909Y0219510D02*
X0207243Y0219510D01*
X0205576Y0211819D02*
X0207564Y0209831D01*
X0206539Y0208807D01*
X0204551Y0210795D01*
X0205576Y0211819D01*
X0205399Y0211642D02*
X0205753Y0211642D01*
X0205671Y0209675D02*
X0207408Y0209675D01*
X0199169Y0219510D02*
X0195835Y0219510D01*
X0178527Y0210795D02*
X0176539Y0208807D01*
X0175514Y0209831D01*
X0177502Y0211819D01*
X0178527Y0210795D01*
X0177680Y0211642D02*
X0177325Y0211642D01*
X0177408Y0209675D02*
X0175671Y0209675D01*
X0167564Y0209831D02*
X0165576Y0207843D01*
X0164551Y0208868D01*
X0166539Y0210856D01*
X0167564Y0209831D01*
X0167408Y0209675D02*
X0165358Y0209675D01*
X0175523Y0199840D02*
X0177555Y0199840D01*
X0159767Y0189768D02*
X0159767Y0185619D01*
X0159767Y0189768D01*
X0159767Y0188038D02*
X0159767Y0188038D01*
X0159767Y0186071D02*
X0159767Y0186071D01*
X0159767Y0185619D02*
X0159767Y0185619D01*
X0137959Y0182137D02*
X0137546Y0182137D01*
X0200511Y0184104D02*
X0232602Y0184104D01*
X0232602Y0182137D02*
X0202478Y0182137D01*
X0204445Y0180170D02*
X0232602Y0180170D01*
X0232602Y0178203D02*
X0206413Y0178203D01*
X0208380Y0176236D02*
X0232602Y0176236D01*
X0232602Y0174269D02*
X0210347Y0174269D01*
X0212314Y0172302D02*
X0232602Y0172302D01*
X0232602Y0170335D02*
X0214281Y0170335D01*
X0216248Y0168368D02*
X0232602Y0168368D01*
X0232602Y0166401D02*
X0228385Y0166401D01*
X0229222Y0164434D02*
X0232602Y0164434D01*
X0230851Y0162467D02*
X0229276Y0162467D01*
X0229222Y0164172D02*
X0227814Y0164172D01*
X0227813Y0164172D01*
X0229222Y0164172D01*
X0225288Y0164434D02*
X0225288Y0164434D01*
X0225288Y0166401D02*
X0225288Y0166401D01*
X0222191Y0166401D02*
X0218215Y0166401D01*
X0220182Y0164434D02*
X0221354Y0164434D01*
X0222762Y0164172D02*
X0222762Y0164172D01*
X0130381Y0047823D02*
X0124748Y0047823D01*
X0124748Y0047430D01*
X0130774Y0047430D01*
X0130381Y0047823D01*
X0136656Y0044943D02*
X0137202Y0044396D01*
X0137910Y0044103D01*
X0136736Y0044103D01*
X0136736Y0044749D01*
X0136656Y0044943D01*
X0136736Y0044446D02*
X0137153Y0044446D01*
X0104184Y0034225D02*
X0103862Y0033903D01*
X0103862Y0034225D01*
X0104184Y0034225D01*
X0074247Y0044446D02*
X0022169Y0044446D01*
X0022169Y0042479D02*
X0072905Y0042479D01*
X0067388Y0026743D02*
X0063763Y0026743D01*
X0061555Y0026743D02*
X0061523Y0026743D01*
X0061523Y0024776D02*
X0061555Y0024776D01*
X0061523Y0022809D02*
X0061555Y0022809D01*
X0061523Y0020842D02*
X0061555Y0020842D01*
X0061523Y0018875D02*
X0061555Y0018875D01*
X0065544Y0018875D02*
X0065607Y0018875D01*
X0057534Y0018875D02*
X0057471Y0018875D01*
X0055690Y0026743D02*
X0059315Y0026743D01*
X0184551Y0017881D02*
X0185576Y0018906D01*
X0187564Y0016918D01*
X0186539Y0015893D01*
X0184551Y0017881D01*
X0185525Y0016908D02*
X0187553Y0016908D01*
X0185607Y0018875D02*
X0185544Y0018875D01*
X0195514Y0016918D02*
X0196539Y0015893D01*
X0197564Y0016918D01*
X0196539Y0017943D01*
X0195514Y0016918D01*
X0195525Y0016908D02*
X0197553Y0016908D01*
X0234175Y0028710D02*
X0261145Y0028710D01*
X0021939Y0201072D02*
X0011933Y0192153D01*
X0011933Y0213768D01*
X0012013Y0214785D01*
X0012641Y0216718D01*
X0013835Y0218362D01*
X0015480Y0219556D01*
X0017413Y0220184D01*
X0018429Y0220264D01*
X0029979Y0220264D01*
X0029577Y0219863D01*
X0028468Y0217186D01*
X0028468Y0216117D01*
X0027328Y0217258D01*
X0024108Y0218591D01*
X0020623Y0218591D01*
X0017404Y0217258D01*
X0014940Y0214793D01*
X0013606Y0211574D01*
X0013606Y0208089D01*
X0014940Y0204869D01*
X0017404Y0202405D01*
X0020623Y0201072D01*
X0021939Y0201072D01*
X0020557Y0199840D02*
X0011933Y0199840D01*
X0011933Y0201807D02*
X0018848Y0201807D01*
X0016035Y0203774D02*
X0011933Y0203774D01*
X0011933Y0205741D02*
X0014578Y0205741D01*
X0013764Y0207708D02*
X0011933Y0207708D01*
X0011933Y0209675D02*
X0013606Y0209675D01*
X0013634Y0211642D02*
X0011933Y0211642D01*
X0011933Y0213609D02*
X0014449Y0213609D01*
X0015722Y0215576D02*
X0012270Y0215576D01*
X0013241Y0217543D02*
X0018093Y0217543D01*
X0015416Y0219510D02*
X0029431Y0219510D01*
X0028616Y0217543D02*
X0026639Y0217543D01*
X0018350Y0197873D02*
X0011933Y0197873D01*
X0011933Y0195906D02*
X0016143Y0195906D01*
X0013936Y0193939D02*
X0011933Y0193939D01*
D29*
X0029256Y0182075D02*
X0032602Y0185422D01*
X0029256Y0182075D02*
X0029256Y0177548D01*
X0035948Y0177548D02*
X0036243Y0177253D01*
X0036243Y0169280D01*
X0036636Y0165973D02*
X0041421Y0165973D01*
X0041657Y0165737D01*
X0046836Y0169673D02*
X0047366Y0170203D01*
X0047366Y0177548D01*
X0057011Y0190540D02*
X0057011Y0199595D01*
X0051893Y0204713D01*
X0051539Y0204831D01*
X0061539Y0204831D02*
X0061736Y0204713D01*
X0072760Y0192902D01*
X0086539Y0180698D02*
X0099137Y0180698D01*
X0101106Y0181879D01*
X0105437Y0181879D01*
X0108193Y0184635D01*
X0123941Y0184635D01*
X0124728Y0185422D01*
X0128665Y0185422D01*
X0139295Y0174792D01*
X0144807Y0174792D01*
X0147956Y0171642D01*
X0147956Y0164949D01*
X0147563Y0162587D01*
X0140870Y0153926D02*
X0142051Y0148808D01*
X0142051Y0141918D01*
X0136145Y0141918D02*
X0136145Y0144083D01*
X0130043Y0133847D02*
X0116460Y0133847D01*
X0116460Y0137784D01*
X0108193Y0118886D02*
X0108193Y0075383D01*
X0104649Y0071839D01*
X0100319Y0076761D02*
X0096382Y0076761D01*
X0094413Y0074792D01*
X0094413Y0071839D01*
X0100319Y0076761D02*
X0105830Y0082272D01*
X0105830Y0089359D01*
X0103468Y0090934D02*
X0103468Y0083847D01*
X0099137Y0079516D01*
X0091854Y0079516D01*
X0084177Y0071839D01*
X0084177Y0064359D02*
X0084177Y0057272D01*
X0084177Y0050579D02*
X0084177Y0045068D01*
X0084177Y0038375D02*
X0083783Y0037981D01*
X0094413Y0045068D02*
X0094413Y0050579D01*
X0094413Y0057272D02*
X0094413Y0064359D01*
X0104649Y0064359D02*
X0104649Y0057272D01*
X0104649Y0050579D02*
X0104649Y0045068D01*
X0115279Y0045068D02*
X0115279Y0050579D01*
X0115279Y0057272D02*
X0115279Y0064359D01*
X0120791Y0069674D02*
X0120397Y0070068D01*
X0120397Y0086209D01*
X0117641Y0088965D01*
X0117641Y0099989D01*
X0129059Y0111406D01*
X0130043Y0114162D02*
X0116854Y0114162D01*
X0116460Y0113768D01*
X0144807Y0101957D02*
X0144807Y0101170D01*
X0144807Y0101957D02*
X0145594Y0101957D01*
X0147956Y0098808D02*
X0149925Y0101564D01*
X0149925Y0108060D01*
X0151893Y0108060D02*
X0151893Y0098020D01*
X0155043Y0094871D01*
X0153862Y0099989D02*
X0160555Y0093296D01*
X0171185Y0093296D01*
X0173153Y0091327D01*
X0173153Y0077548D01*
X0175909Y0074792D01*
X0175909Y0046052D01*
X0174728Y0044871D01*
X0168035Y0044871D01*
X0165673Y0042509D01*
X0165673Y0034635D01*
X0164885Y0033847D01*
X0149531Y0033847D01*
X0141539Y0025855D01*
X0141539Y0021918D01*
X0145988Y0020068D02*
X0142838Y0016918D01*
X0136933Y0016918D01*
X0136539Y0016524D01*
X0136539Y0007075D01*
X0135358Y0005894D01*
X0097563Y0005894D01*
X0091539Y0011918D01*
X0101539Y0011918D02*
X0101893Y0012194D01*
X0101893Y0016131D01*
X0106618Y0016131D01*
X0107011Y0025579D01*
X0107405Y0025973D01*
X0116460Y0025579D02*
X0116460Y0016839D01*
X0111539Y0011918D01*
X0116460Y0025579D02*
X0124728Y0033847D01*
X0136145Y0033847D01*
X0136145Y0040146D01*
X0157011Y0040146D01*
X0150319Y0031879D02*
X0165673Y0031879D01*
X0167641Y0033847D01*
X0167641Y0041721D01*
X0168823Y0042902D01*
X0175515Y0042902D01*
X0177878Y0045264D01*
X0177878Y0075579D01*
X0175122Y0078335D01*
X0175122Y0092115D01*
X0163704Y0103532D01*
X0163704Y0108650D01*
X0158193Y0114162D01*
X0158193Y0128729D01*
X0160161Y0133847D02*
X0163901Y0133847D01*
X0163901Y0131879D02*
X0153468Y0131879D01*
X0151893Y0130304D01*
X0147169Y0130304D01*
X0153862Y0136603D02*
X0153862Y0141918D01*
X0155830Y0141918D02*
X0155830Y0147233D01*
X0157799Y0153532D02*
X0162130Y0149201D01*
X0162523Y0149201D01*
X0164492Y0147233D01*
X0164492Y0141721D01*
X0161342Y0138572D01*
X0160161Y0138572D01*
X0158586Y0136997D01*
X0158586Y0135422D01*
X0160161Y0133847D01*
X0156224Y0134241D02*
X0153862Y0136603D01*
X0163901Y0125973D02*
X0182208Y0125973D01*
X0183389Y0124005D01*
X0183389Y0122823D01*
X0186933Y0121249D02*
X0186933Y0118886D01*
X0188508Y0118886D01*
X0209374Y0098020D01*
X0209374Y0047233D01*
X0208980Y0046839D01*
X0202681Y0046839D01*
X0199137Y0046446D02*
X0199137Y0039359D01*
X0199137Y0046446D02*
X0197956Y0047627D01*
X0197956Y0049989D01*
X0199925Y0053532D01*
X0199925Y0094083D01*
X0185752Y0108257D01*
X0185358Y0108257D01*
X0184177Y0114162D02*
X0203074Y0095264D01*
X0203074Y0053138D01*
X0201893Y0050776D01*
X0206224Y0050776D02*
X0206224Y0096839D01*
X0186539Y0116524D01*
X0170397Y0116524D01*
X0168823Y0118099D01*
X0163901Y0118099D01*
X0163901Y0116131D02*
X0167641Y0116131D01*
X0169610Y0114162D01*
X0184177Y0114162D01*
X0171578Y0118886D02*
X0170397Y0120068D01*
X0163901Y0120068D01*
X0153862Y0108060D02*
X0153862Y0099989D01*
X0145200Y0087390D02*
X0142445Y0084635D01*
X0142445Y0071839D01*
X0124531Y0074005D02*
X0124531Y0065737D01*
X0120791Y0069674D02*
X0120791Y0038965D01*
X0120004Y0038965D01*
X0145200Y0026761D02*
X0150319Y0031879D01*
X0145200Y0026761D02*
X0145200Y0025973D01*
X0145988Y0025186D01*
X0145988Y0020068D01*
X0170397Y0072233D02*
X0170397Y0080304D01*
X0167248Y0083453D01*
X0162523Y0080698D02*
X0162326Y0080501D01*
X0162326Y0075186D01*
X0124531Y0074005D02*
X0124334Y0074201D01*
X0124334Y0086997D01*
X0121736Y0089595D01*
X0121736Y0093060D01*
X0110161Y0090146D02*
X0110161Y0076957D01*
X0115279Y0071839D01*
X0070988Y0108257D02*
X0070988Y0116131D01*
X0071382Y0116524D01*
X0070988Y0124792D02*
X0070988Y0128729D01*
X0070988Y0131485D01*
X0070988Y0133060D01*
X0071382Y0133453D01*
X0039295Y0142115D02*
X0035555Y0142115D01*
X0035161Y0141721D01*
X0028468Y0141721D02*
X0027878Y0141721D01*
X0022760Y0136603D01*
X0027287Y0155304D02*
X0027484Y0155501D01*
X0078271Y0176252D02*
X0085343Y0176268D01*
X0085351Y0176123D02*
X0089279Y0176295D01*
X0093947Y0176295D01*
X0094019Y0176367D01*
X0093626Y0176367D02*
X0093626Y0175167D01*
X0094791Y0176332D01*
X0085351Y0176123D02*
X0084087Y0176067D01*
X0080634Y0175916D01*
X0131027Y0161800D02*
X0131027Y0157863D01*
X0155240Y0171446D02*
X0155437Y0174398D01*
X0155240Y0171446D02*
X0160161Y0171446D01*
X0160161Y0178532D01*
X0176697Y0178532D02*
X0179059Y0178532D01*
X0184964Y0178532D01*
X0184964Y0185225D02*
X0184177Y0186012D01*
X0176697Y0186012D01*
X0174807Y0162509D02*
X0169925Y0162509D01*
X0167563Y0162509D01*
X0174807Y0162509D02*
X0178271Y0159044D01*
X0192838Y0158257D02*
X0192838Y0151761D01*
X0193035Y0151564D01*
X0196185Y0141327D02*
X0196185Y0133650D01*
X0196382Y0133453D01*
X0190082Y0132272D02*
X0190082Y0135422D01*
X0189689Y0135816D01*
X0190082Y0132272D02*
X0199137Y0123217D01*
X0199531Y0123217D01*
X0212720Y0136406D01*
X0212720Y0141327D01*
X0217641Y0146446D02*
X0219915Y0144172D01*
X0225288Y0144172D01*
X0225288Y0146672D02*
X0222533Y0146672D01*
X0212326Y0156879D01*
X0209767Y0156879D01*
X0210161Y0163768D02*
X0205240Y0163768D01*
X0210161Y0163768D02*
X0222258Y0151672D01*
X0225288Y0151672D01*
X0225288Y0149172D02*
X0231450Y0149172D01*
X0232996Y0147627D01*
X0225288Y0141672D02*
X0225288Y0134272D01*
X0225909Y0133650D01*
X0240870Y0133650D01*
X0240870Y0155107D01*
X0244935Y0159172D01*
X0247082Y0159172D01*
X0252809Y0159172D01*
X0267248Y0173611D01*
X0266460Y0163572D02*
X0256135Y0151672D01*
X0247082Y0151672D01*
X0246934Y0154123D02*
X0247082Y0154172D01*
X0246934Y0154123D02*
X0252287Y0154123D01*
X0255437Y0156682D02*
X0247091Y0156682D01*
X0247082Y0156672D01*
X0247082Y0161672D02*
X0247082Y0164172D01*
X0247082Y0167618D01*
X0247563Y0168099D01*
X0256618Y0157863D02*
X0255437Y0156682D01*
X0256618Y0157863D02*
X0257405Y0157863D01*
X0265840Y0149172D02*
X0247082Y0149172D01*
X0247082Y0146672D02*
X0255210Y0146672D01*
X0255437Y0146642D01*
X0260555Y0140540D02*
X0261342Y0139753D01*
X0261342Y0082272D01*
X0257011Y0078335D01*
X0257405Y0087784D02*
X0258980Y0089359D01*
X0258980Y0136603D01*
X0257011Y0138572D01*
X0265387Y0144172D02*
X0266460Y0143099D01*
X0265387Y0144172D02*
X0247082Y0144172D01*
X0247082Y0141672D02*
X0245200Y0139791D01*
X0245200Y0133650D01*
X0240870Y0133650D01*
X0245200Y0126957D02*
X0245200Y0126367D01*
X0250319Y0121249D01*
X0231815Y0126761D02*
X0226106Y0126761D01*
X0225909Y0126957D01*
X0219807Y0120855D01*
X0210948Y0120855D01*
X0203074Y0135028D02*
X0206027Y0137981D01*
X0206027Y0141327D01*
X0222100Y0161672D02*
X0217641Y0166131D01*
X0222100Y0161672D02*
X0225288Y0161672D01*
X0265840Y0149172D02*
X0266460Y0149792D01*
X0237917Y0096446D02*
X0237917Y0087390D01*
X0231224Y0087390D02*
X0222760Y0087390D01*
X0222956Y0087390D01*
X0223153Y0081879D02*
X0226697Y0078335D01*
X0231224Y0078335D01*
X0237917Y0078335D02*
X0237917Y0070068D01*
X0237523Y0069674D01*
X0230830Y0069674D02*
X0230830Y0062390D01*
X0230634Y0062194D01*
D30*
X0230634Y0062194D03*
X0222760Y0062194D03*
X0206224Y0050776D03*
X0201893Y0050776D03*
X0202681Y0046839D03*
X0199137Y0039359D03*
X0194413Y0078729D03*
X0182208Y0078335D03*
X0167248Y0083453D03*
X0162523Y0080698D03*
X0148350Y0080698D03*
X0145200Y0087390D03*
X0151106Y0091327D03*
X0155043Y0094871D03*
X0147956Y0098808D03*
X0144807Y0101170D03*
X0140082Y0094871D03*
X0136933Y0091721D03*
X0132208Y0094871D03*
X0129846Y0083453D03*
X0132208Y0107863D03*
X0129059Y0111406D03*
X0138114Y0115343D03*
X0142445Y0116131D03*
X0149531Y0115343D03*
X0149531Y0120068D03*
X0152287Y0124398D03*
X0158193Y0128729D03*
X0156224Y0134241D03*
X0147956Y0135422D03*
X0147169Y0130304D03*
X0142051Y0131091D03*
X0137326Y0129910D03*
X0138508Y0125973D03*
X0137326Y0134241D03*
X0132996Y0142115D03*
X0125909Y0137784D03*
X0116460Y0137784D03*
X0140870Y0153926D03*
X0131027Y0157863D03*
X0147563Y0162587D03*
X0157799Y0153532D03*
X0155830Y0147233D03*
X0161736Y0142509D03*
X0179059Y0142902D03*
X0185358Y0135816D03*
X0189689Y0135816D03*
X0196382Y0133453D03*
X0203074Y0135028D03*
X0200712Y0145264D03*
X0217641Y0146446D03*
X0232996Y0147627D03*
X0252287Y0154123D03*
X0257405Y0157863D03*
X0247563Y0168099D03*
X0225515Y0170068D03*
X0217641Y0166131D03*
X0200319Y0157863D03*
X0192838Y0158257D03*
X0192445Y0164556D03*
X0178271Y0159044D03*
X0155437Y0174398D03*
X0134964Y0189359D03*
X0125515Y0182666D03*
X0165673Y0196839D03*
X0176697Y0196839D03*
X0255437Y0146642D03*
X0260555Y0140540D03*
X0257011Y0138572D03*
X0250319Y0121249D03*
X0231815Y0126761D03*
X0220004Y0103926D03*
X0222760Y0087390D03*
X0223153Y0081879D03*
X0188114Y0092115D03*
X0168823Y0101957D03*
X0162130Y0101564D03*
X0160948Y0107863D03*
X0177090Y0111012D03*
X0185358Y0108257D03*
X0186933Y0121249D03*
X0183389Y0122823D03*
X0179846Y0121446D03*
X0174334Y0121446D03*
X0172760Y0129123D03*
X0116460Y0113768D03*
X0113704Y0107863D03*
X0099531Y0107469D03*
X0058980Y0108257D03*
X0058586Y0116524D03*
X0058980Y0124792D03*
X0039295Y0142115D03*
X0022760Y0136603D03*
X0027484Y0155501D03*
X0041657Y0165737D03*
X0032602Y0185422D03*
X0057405Y0184241D03*
X0057011Y0190540D03*
X0072760Y0192902D03*
X0086539Y0180698D03*
X0070397Y0149989D03*
X0083783Y0142115D03*
X0075122Y0047627D03*
X0070791Y0034635D03*
X0070791Y0031091D03*
X0082208Y0032272D03*
X0093232Y0033060D03*
X0103074Y0032272D03*
X0107011Y0025579D03*
X0112523Y0033060D03*
X0120004Y0038965D03*
D31*
X0123547Y0040146D02*
X0123547Y0037390D01*
X0112130Y0026761D01*
X0111736Y0022036D01*
X0111539Y0021918D01*
X0101539Y0021918D02*
X0101933Y0026406D01*
X0110161Y0034635D01*
X0110161Y0039949D01*
X0115279Y0045068D01*
X0115279Y0038375D02*
X0115279Y0035422D01*
X0112523Y0033060D01*
X0104649Y0033847D02*
X0103074Y0032272D01*
X0104649Y0033847D02*
X0104649Y0038375D01*
X0099925Y0040343D02*
X0104649Y0045068D01*
X0099925Y0040343D02*
X0099925Y0033453D01*
X0091933Y0025461D01*
X0091539Y0021918D01*
X0088901Y0028729D02*
X0081539Y0028453D01*
X0081539Y0021918D01*
X0076303Y0016918D02*
X0076697Y0041327D01*
X0081027Y0045658D01*
X0083586Y0045658D01*
X0084177Y0045068D01*
X0088901Y0039556D02*
X0094413Y0045068D01*
X0088901Y0039556D02*
X0088901Y0028729D01*
X0093232Y0033060D02*
X0094413Y0034241D01*
X0094413Y0038375D01*
X0084177Y0038375D02*
X0084177Y0034241D01*
X0082208Y0032272D01*
X0076303Y0016918D02*
X0081303Y0011918D01*
X0081539Y0011918D01*
X0123547Y0040146D02*
X0128665Y0040146D01*
X0133980Y0049792D02*
X0128665Y0055107D01*
X0131224Y0057666D01*
X0131224Y0065737D01*
X0131224Y0074005D01*
X0142051Y0071446D02*
X0142445Y0071839D01*
X0142445Y0092509D01*
X0142838Y0093690D01*
X0142838Y0096052D01*
X0142051Y0097233D01*
X0142051Y0108060D01*
X0140082Y0108060D02*
X0140082Y0094871D01*
X0136933Y0097627D02*
X0136933Y0091721D01*
X0132208Y0094871D02*
X0130240Y0094871D01*
X0128429Y0093060D01*
X0136933Y0097627D02*
X0138114Y0098808D01*
X0138114Y0108060D01*
X0136145Y0108060D02*
X0134374Y0108060D01*
X0132208Y0107863D01*
X0136145Y0108060D02*
X0136145Y0113375D01*
X0138114Y0115343D01*
X0142445Y0116131D02*
X0145594Y0116131D01*
X0147956Y0113768D01*
X0149531Y0115343D01*
X0147956Y0113768D02*
X0147956Y0108060D01*
X0147956Y0104320D01*
X0145594Y0101957D01*
X0145988Y0102745D01*
X0145988Y0108060D01*
X0145988Y0114162D01*
X0144807Y0115343D01*
X0155830Y0108060D02*
X0155830Y0102745D01*
X0157011Y0101564D01*
X0162130Y0101564D01*
X0160948Y0107863D02*
X0160752Y0108060D01*
X0157799Y0108060D01*
X0163901Y0114162D02*
X0166854Y0114162D01*
X0166854Y0111012D01*
X0177090Y0111012D01*
X0171578Y0118886D02*
X0186933Y0118886D01*
X0179846Y0121446D02*
X0179846Y0124005D01*
X0163901Y0124005D01*
X0163901Y0122036D02*
X0171185Y0122036D01*
X0174334Y0121446D01*
X0172760Y0129123D02*
X0169610Y0129123D01*
X0169610Y0127942D01*
X0163901Y0127942D01*
X0163901Y0131879D02*
X0181027Y0131879D01*
X0212523Y0099201D01*
X0212523Y0031091D01*
X0206224Y0024792D01*
X0206224Y0016918D01*
X0211224Y0011918D01*
X0211539Y0011918D01*
X0216067Y0016131D02*
X0216067Y0101170D01*
X0183389Y0133847D01*
X0163901Y0133847D01*
X0163901Y0135816D02*
X0177484Y0135816D01*
X0182208Y0139753D01*
X0185358Y0135816D01*
X0189689Y0135816D02*
X0189689Y0141131D01*
X0189492Y0141327D01*
X0189492Y0148020D01*
X0193035Y0151564D01*
X0179059Y0155894D02*
X0179059Y0142902D01*
X0182208Y0139753D02*
X0182208Y0163414D01*
X0178586Y0166249D01*
X0178586Y0178060D01*
X0179059Y0178532D01*
X0168035Y0178532D02*
X0160161Y0178532D01*
X0159767Y0178926D01*
X0151893Y0178532D02*
X0151500Y0178926D01*
X0151893Y0178532D02*
X0151893Y0141918D01*
X0149925Y0141918D02*
X0149925Y0172233D01*
X0143232Y0178926D01*
X0143232Y0185619D02*
X0143232Y0195264D01*
X0111106Y0195264D01*
X0101539Y0204831D01*
X0106618Y0209831D02*
X0096382Y0209831D01*
X0091657Y0214556D01*
X0091539Y0214831D01*
X0086539Y0217705D02*
X0086539Y0209831D01*
X0081539Y0204831D01*
X0075752Y0209438D01*
X0062917Y0209438D01*
X0061539Y0211997D01*
X0061539Y0214831D01*
X0086539Y0217705D02*
X0089295Y0220461D01*
X0099137Y0220461D01*
X0101539Y0218060D01*
X0101539Y0214831D01*
X0106618Y0209831D02*
X0106618Y0220855D01*
X0185358Y0220855D01*
X0186539Y0219674D01*
X0186539Y0192509D01*
X0220004Y0159044D01*
X0225122Y0159044D01*
X0225288Y0159172D01*
X0225515Y0156682D02*
X0225288Y0156672D01*
X0225515Y0156682D02*
X0230634Y0156682D01*
X0236539Y0162587D01*
X0236539Y0209831D01*
X0231539Y0214831D01*
X0233389Y0220461D02*
X0216854Y0220461D01*
X0216854Y0209044D01*
X0211736Y0209044D01*
X0211736Y0205107D01*
X0211539Y0204831D01*
X0233389Y0220461D02*
X0238508Y0215343D01*
X0238508Y0179516D01*
X0238901Y0179123D01*
X0238508Y0178729D01*
X0238508Y0161800D01*
X0231027Y0154320D01*
X0225515Y0154320D01*
X0225288Y0154172D01*
X0225288Y0141672D02*
X0213065Y0141672D01*
X0212720Y0141327D01*
X0179059Y0155894D02*
X0163311Y0155894D01*
X0159767Y0159438D01*
X0159767Y0164359D01*
X0160161Y0164753D01*
X0164295Y0164753D01*
X0165279Y0165737D01*
X0165279Y0168886D01*
X0166067Y0169674D01*
X0169610Y0169674D01*
X0169925Y0169989D01*
X0151500Y0185619D02*
X0151500Y0191327D01*
X0145988Y0197627D01*
X0119531Y0197627D01*
X0111539Y0204831D01*
X0131539Y0214831D02*
X0136539Y0209831D01*
X0156618Y0209831D01*
X0161342Y0205107D01*
X0161539Y0204831D01*
X0161736Y0205501D01*
X0166067Y0209831D01*
X0176697Y0209831D01*
X0181421Y0214556D01*
X0181539Y0214831D01*
X0125515Y0182666D02*
X0110161Y0182666D01*
X0103468Y0175973D01*
X0100319Y0175973D01*
X0099925Y0175579D01*
X0099925Y0151957D01*
X0101500Y0150383D01*
X0138508Y0150383D01*
X0140082Y0148808D01*
X0140082Y0141918D01*
X0138114Y0141918D02*
X0138114Y0147627D01*
X0098153Y0147627D01*
X0095200Y0150579D01*
X0086145Y0150579D01*
X0086145Y0157272D02*
X0078271Y0157272D01*
X0078271Y0156682D01*
X0084087Y0164556D02*
X0084087Y0176067D01*
X0085343Y0176132D02*
X0085351Y0176123D01*
X0085343Y0176132D02*
X0085343Y0176268D01*
X0084767Y0164556D02*
X0084087Y0164556D01*
X0091460Y0164556D02*
X0095200Y0160816D01*
X0095200Y0157272D01*
X0112405Y0155619D02*
X0112799Y0155225D01*
X0134885Y0155225D01*
X0134964Y0160816D01*
X0144019Y0154910D01*
X0144019Y0141918D01*
X0142051Y0141918D02*
X0142051Y0131091D01*
X0137326Y0129910D02*
X0136539Y0130698D01*
X0136539Y0135028D01*
X0135752Y0135816D01*
X0130043Y0135816D01*
X0125909Y0135816D01*
X0125909Y0137784D01*
X0130043Y0133847D02*
X0130043Y0131879D01*
X0078271Y0131879D01*
X0078271Y0133847D01*
X0116460Y0133847D01*
X0109767Y0125973D02*
X0103468Y0120068D01*
X0103468Y0090934D01*
X0105830Y0089359D02*
X0105830Y0119280D01*
X0110555Y0124005D01*
X0123153Y0124005D01*
X0125122Y0122036D01*
X0130043Y0122036D01*
X0130043Y0120068D02*
X0123941Y0120068D01*
X0121972Y0122036D01*
X0111342Y0122036D01*
X0108193Y0118886D01*
X0110161Y0117705D02*
X0110161Y0090146D01*
X0113704Y0107863D02*
X0113704Y0115737D01*
X0115673Y0117705D01*
X0118823Y0117705D01*
X0120397Y0116131D01*
X0130043Y0116131D01*
X0130043Y0118099D02*
X0122760Y0118099D01*
X0120791Y0120068D01*
X0112523Y0120068D01*
X0110161Y0117705D01*
X0109767Y0125973D02*
X0123941Y0125973D01*
X0126303Y0124005D01*
X0130043Y0124005D01*
X0130043Y0125973D02*
X0138508Y0125973D01*
X0130043Y0127942D02*
X0082799Y0127942D01*
X0071382Y0116524D01*
X0063901Y0116524D02*
X0058586Y0116524D01*
X0058980Y0124792D02*
X0064295Y0124792D01*
X0070988Y0128729D02*
X0072169Y0129910D01*
X0130043Y0129910D01*
X0136145Y0141918D02*
X0136145Y0145264D01*
X0078271Y0145264D01*
X0078271Y0144083D01*
X0078271Y0134635D02*
X0078271Y0133847D01*
X0072956Y0129516D02*
X0070988Y0131485D01*
X0087917Y0117705D02*
X0087917Y0108257D01*
X0088311Y0107863D01*
X0097563Y0107863D01*
X0097956Y0107469D01*
X0099531Y0107469D01*
X0064295Y0108257D02*
X0058980Y0108257D01*
X0126697Y0160816D02*
X0126893Y0160619D01*
X0129846Y0160619D01*
X0131027Y0161800D01*
X0131027Y0167312D01*
X0131224Y0167509D01*
X0134964Y0167509D01*
X0126697Y0172036D02*
X0126657Y0175225D01*
X0126263Y0175619D01*
X0112405Y0175619D01*
X0100319Y0175973D02*
X0099925Y0176367D01*
X0099531Y0176761D01*
X0060555Y0170068D02*
X0060419Y0170203D01*
X0036636Y0169673D02*
X0036243Y0169280D01*
X0026145Y0169280D01*
X0026145Y0162587D02*
X0026460Y0162273D01*
X0036636Y0162273D01*
X0143232Y0160816D02*
X0145988Y0158060D01*
X0145988Y0141918D01*
X0147956Y0141918D02*
X0147956Y0135422D01*
X0157799Y0141918D02*
X0157799Y0145658D01*
X0159374Y0147233D01*
X0161736Y0147233D01*
X0162523Y0146446D01*
X0162523Y0143296D01*
X0161736Y0142509D01*
X0168823Y0101957D02*
X0168823Y0101170D01*
X0177090Y0092902D01*
X0177090Y0079123D01*
X0179846Y0076367D01*
X0179846Y0044477D01*
X0169610Y0034241D01*
X0169610Y0033060D01*
X0166460Y0029910D01*
X0163311Y0029910D01*
X0156224Y0022823D01*
X0156224Y0020068D01*
X0152681Y0016524D01*
X0149925Y0016524D01*
X0145594Y0012194D01*
X0141657Y0012194D01*
X0141539Y0011918D01*
X0142051Y0049792D02*
X0133980Y0049792D01*
X0142051Y0057272D02*
X0142051Y0064753D01*
X0155634Y0066918D02*
X0155634Y0075186D01*
X0155634Y0066918D02*
X0157011Y0065540D01*
X0157011Y0055107D01*
X0160161Y0055107D01*
X0166067Y0049201D01*
X0170200Y0049201D01*
X0170397Y0049398D01*
X0170397Y0056879D02*
X0170397Y0065540D01*
X0170397Y0072233D02*
X0170004Y0090540D01*
X0151893Y0090540D01*
X0151106Y0091327D01*
X0221972Y0080698D02*
X0223153Y0081879D01*
X0222760Y0087390D02*
X0223153Y0087784D01*
X0237917Y0087390D02*
X0257011Y0087390D01*
X0257405Y0087784D01*
X0257011Y0078335D02*
X0237917Y0078335D01*
X0216067Y0016131D02*
X0220279Y0011918D01*
X0221539Y0011918D01*
X0267248Y0173611D02*
X0267248Y0181879D01*
X0267011Y0182115D01*
X0267011Y0188808D02*
X0267011Y0190383D01*
X0265673Y0193690D01*
X0265673Y0196249D01*
D32*
X0223153Y0097233D02*
X0223153Y0087784D01*
X0221972Y0080698D02*
X0221972Y0070461D01*
X0099925Y0176367D02*
X0094019Y0176367D01*
X0093626Y0176367D01*
X0068429Y0176367D01*
X0060555Y0170068D01*
X0060419Y0170203D02*
X0047366Y0170203D01*
X0026145Y0169280D02*
X0017248Y0169280D01*
X0016067Y0170461D01*
X0014492Y0181721D01*
X0032996Y0201170D01*
X0078271Y0176252D02*
X0078271Y0156682D01*
X0078271Y0144083D01*
X0078271Y0134635D01*
X0026106Y0051564D02*
X0014885Y0051564D01*
X0041539Y0028611D02*
X0041539Y0023335D01*
X0041539Y0021918D02*
X0044610Y0024989D01*
D33*
X0041539Y0023335D02*
X0031027Y0033847D01*
X0016854Y0033847D01*
X0014885Y0035816D01*
X0014885Y0051170D01*
X0014885Y0185028D01*
X0032996Y0201170D01*
X0035752Y0215737D02*
X0051263Y0215737D01*
X0051539Y0214831D01*
X0041539Y0023335D02*
X0041539Y0021918D01*
X0041539Y0011918D01*
X0231539Y0011918D02*
X0231539Y0021918D01*
D34*
X0032996Y0201170D02*
X0032996Y0209831D01*
X0035752Y0215737D01*
D35*
X0083783Y0142115D02*
X0132996Y0142115D01*
X0014885Y0051564D02*
X0014885Y0051170D01*
M02*
