%
M48
M72
T01C0.01181
T02C0.02400
T03C0.04000
T04C0.10827
%
T01
X70791Y31091
X70791Y34635
X82208Y32272
X93232Y33060
X103074Y32272
X107011Y25579
X112523Y33060
X120004Y38965
X75122Y47627
X129846Y83453
X136933Y91721
X140082Y94871
X147956Y98808
X144807Y101170
X151106Y91327
X155043Y94871
X162130Y101564
X160948Y107863
X168823Y101957
X177090Y111012
X185358Y108257
X186933Y121249
X183389Y122823
X179846Y121446
X174334Y121446
X172760Y129123
X185358Y135816
X189689Y135816
X196382Y133453
X203074Y135028
X200712Y145264
X217641Y146446
X232996Y147627
X252287Y154123
X257405Y157863
X247563Y168099
X225515Y170068
X217641Y166131
X200319Y157863
X192838Y158257
X192445Y164556
X178271Y159044
X157799Y153532
X155830Y147233
X161736Y142509
X156224Y134241
X158193Y128729
X152287Y124398
X149531Y120068
X149531Y115343
X142445Y116131
X138114Y115343
X132208Y107863
X129059Y111406
X116460Y113768
X113704Y107863
X99531Y107469
X132208Y94871
X145200Y87390
X148350Y80698
X162523Y80698
X167248Y83453
X182208Y78335
X194413Y78729
X188114Y92115
X220004Y103926
X222760Y87390
X223153Y81879
X222760Y62194
X230634Y62194
X206224Y50776
X201893Y50776
X202681Y46839
X199137Y39359
X250319Y121249
X257011Y138572
X260555Y140540
X255437Y146642
X231815Y126761
X179059Y142902
X147956Y135422
X147169Y130304
X142051Y131091
X137326Y129910
X138508Y125973
X137326Y134241
X132996Y142115
X125909Y137784
X116460Y137784
X140870Y153926
X131027Y157863
X147563Y162587
X155437Y174398
X134964Y189359
X125515Y182666
X165673Y196839
X176697Y196839
X86539Y180698
X72760Y192902
X57011Y190540
X57405Y184241
X32602Y185422
X41657Y165737
X27484Y155501
X39295Y142115
X22760Y136603
X58980Y124792
X58586Y116524
X58980Y108257
X83783Y142115
X70397Y149989
T02
X112405Y155619
X112405Y175619
T03
X111539Y204831
X121539Y204831
X131539Y204831
X141539Y204831
X151539Y204831
X161539Y204831
X171539Y204831
X181539Y204831
X191539Y204831
X201539Y204831
X211539Y204831
X221539Y204831
X231539Y204831
X231539Y214831
X221539Y214831
X211539Y214831
X201539Y214831
X191539Y214831
X181539Y214831
X171539Y214831
X161539Y214831
X151539Y214831
X141539Y214831
X131539Y214831
X121539Y214831
X111539Y214831
X101539Y214831
X91539Y214831
X81539Y214831
X81539Y204831
X91539Y204831
X101539Y204831
X71539Y204831
X61539Y204831
X51539Y204831
X41539Y204831
X41539Y214831
X51539Y214831
X61539Y214831
X71539Y214831
X71539Y21918
X61539Y21918
X51539Y21918
X41539Y21918
X41539Y11918
X51539Y11918
X61539Y11918
X71539Y11918
X81539Y11918
X91539Y11918
X101539Y11918
X101539Y21918
X91539Y21918
X81539Y21918
X111539Y21918
X121539Y21918
X121539Y11918
X111539Y11918
X131539Y11918
X141539Y11918
X141539Y21918
X131539Y21918
X151539Y21918
X161539Y21918
X171539Y21918
X171539Y11918
X161539Y11918
X151539Y11918
X181539Y11918
X191539Y11918
X191539Y21918
X181539Y21918
X201539Y21918
X211539Y21918
X211539Y11918
X201539Y11918
X221539Y11918
X231539Y11918
X231539Y21918
X221539Y21918
T04
X22366Y16918
X250712Y16918
X250712Y209831
X22366Y209831
M30
