G75*
%MOIN*%
%OFA0B0*%
%FSLAX25Y25*%
%IPPOS*%
%LPD*%
%AMOC8*
5,1,8,0,0,1.08239X$1,22.5*
%
%ADD10C,0.00000*%
%ADD11C,0.00300*%
%ADD12C,0.00400*%
%ADD13C,0.00800*%
%ADD14C,0.00500*%
%ADD15R,0.15000X0.02500*%
%ADD16R,0.02500X0.12500*%
%ADD17R,0.05000X0.07500*%
%ADD18R,0.02500X0.05000*%
%ADD19R,0.07500X0.02500*%
%ADD20R,0.02625X0.00687*%
%ADD21R,0.00565X0.05132*%
%ADD22R,0.00646X0.03798*%
%ADD23R,0.00686X0.02909*%
%ADD24R,0.00565X0.01697*%
%ADD25R,0.00525X0.01010*%
%ADD26R,0.00606X0.04768*%
%ADD27R,0.02100X0.01455*%
%ADD28R,0.00444X0.02788*%
%ADD29R,0.00565X0.01778*%
%ADD30R,0.00485X0.01051*%
%ADD31R,0.03271X0.01455*%
%ADD32R,0.02423X0.01010*%
%ADD33R,0.01938X0.00970*%
%ADD34R,0.01575X0.00929*%
%ADD35R,0.01171X0.00970*%
%ADD36R,0.01413X0.00929*%
%ADD37R,0.00848X0.00889*%
%ADD38R,0.02423X0.00606*%
%ADD39R,0.02302X0.00525*%
%ADD40R,0.01857X0.00606*%
%ADD41R,0.01777X0.00970*%
%ADD42R,0.01534X0.00970*%
%ADD43R,0.01211X0.00970*%
%ADD44R,0.00485X0.00929*%
%ADD45R,0.00525X0.00445*%
%ADD46C,0.00600*%
%ADD47R,0.00886X0.00984*%
%ADD48C,0.00200*%
D10*
X0008586Y0012587D02*
X0008586Y0213768D01*
X0008589Y0214006D01*
X0008597Y0214244D01*
X0008612Y0214481D01*
X0008632Y0214718D01*
X0008658Y0214954D01*
X0008689Y0215190D01*
X0008726Y0215425D01*
X0008769Y0215659D01*
X0008818Y0215892D01*
X0008872Y0216124D01*
X0008932Y0216354D01*
X0008997Y0216583D01*
X0009068Y0216810D01*
X0009144Y0217035D01*
X0009226Y0217258D01*
X0009313Y0217480D01*
X0009405Y0217699D01*
X0009503Y0217916D01*
X0009605Y0218130D01*
X0009713Y0218342D01*
X0009827Y0218552D01*
X0009945Y0218758D01*
X0010068Y0218962D01*
X0010196Y0219162D01*
X0010328Y0219359D01*
X0010466Y0219554D01*
X0010608Y0219744D01*
X0010755Y0219932D01*
X0010906Y0220115D01*
X0011061Y0220295D01*
X0011221Y0220471D01*
X0011385Y0220643D01*
X0011554Y0220812D01*
X0011726Y0220976D01*
X0011902Y0221136D01*
X0012082Y0221291D01*
X0012265Y0221442D01*
X0012453Y0221589D01*
X0012643Y0221731D01*
X0012838Y0221869D01*
X0013035Y0222001D01*
X0013235Y0222129D01*
X0013439Y0222252D01*
X0013645Y0222370D01*
X0013855Y0222484D01*
X0014067Y0222592D01*
X0014281Y0222694D01*
X0014498Y0222792D01*
X0014717Y0222884D01*
X0014939Y0222971D01*
X0015162Y0223053D01*
X0015387Y0223129D01*
X0015614Y0223200D01*
X0015843Y0223265D01*
X0016073Y0223325D01*
X0016305Y0223379D01*
X0016538Y0223428D01*
X0016772Y0223471D01*
X0017007Y0223508D01*
X0017243Y0223539D01*
X0017479Y0223565D01*
X0017716Y0223585D01*
X0017953Y0223600D01*
X0018191Y0223608D01*
X0018429Y0223611D01*
X0276303Y0223611D01*
X0276303Y0077942D01*
X0264492Y0077942D01*
X0264492Y0009044D01*
X0276303Y0009044D01*
X0276303Y0003138D01*
X0018429Y0003138D01*
X0018192Y0003136D01*
X0017955Y0003140D01*
X0017719Y0003150D01*
X0017482Y0003165D01*
X0017247Y0003186D01*
X0017011Y0003214D01*
X0016777Y0003246D01*
X0016543Y0003285D01*
X0016311Y0003329D01*
X0016079Y0003379D01*
X0015849Y0003435D01*
X0015620Y0003496D01*
X0015393Y0003563D01*
X0015168Y0003636D01*
X0014944Y0003714D01*
X0014723Y0003797D01*
X0014503Y0003886D01*
X0014286Y0003980D01*
X0014071Y0004079D01*
X0013859Y0004184D01*
X0013649Y0004294D01*
X0013442Y0004409D01*
X0013238Y0004529D01*
X0013037Y0004654D01*
X0012839Y0004784D01*
X0012644Y0004919D01*
X0012453Y0005059D01*
X0012265Y0005203D01*
X0012081Y0005351D01*
X0011900Y0005505D01*
X0011723Y0005662D01*
X0011550Y0005824D01*
X0011382Y0005990D01*
X0011217Y0006160D01*
X0011057Y0006334D01*
X0010900Y0006512D01*
X0010749Y0006694D01*
X0010602Y0006880D01*
X0010459Y0007069D01*
X0010321Y0007261D01*
X0010188Y0007457D01*
X0010060Y0007656D01*
X0009936Y0007858D01*
X0009818Y0008063D01*
X0009704Y0008271D01*
X0009596Y0008482D01*
X0009493Y0008695D01*
X0009396Y0008911D01*
X0009303Y0009129D01*
X0009216Y0009349D01*
X0009135Y0009571D01*
X0009059Y0009796D01*
X0008988Y0010022D01*
X0008923Y0010249D01*
X0008864Y0010478D01*
X0008810Y0010709D01*
X0008762Y0010941D01*
X0008719Y0011174D01*
X0008683Y0011408D01*
X0008652Y0011643D01*
X0008627Y0011878D01*
X0008607Y0012114D01*
X0008594Y0012350D01*
X0008586Y0012587D01*
X0016953Y0016918D02*
X0016955Y0017065D01*
X0016961Y0017211D01*
X0016971Y0017357D01*
X0016985Y0017503D01*
X0017003Y0017649D01*
X0017024Y0017794D01*
X0017050Y0017938D01*
X0017080Y0018082D01*
X0017113Y0018224D01*
X0017150Y0018366D01*
X0017191Y0018507D01*
X0017236Y0018646D01*
X0017285Y0018785D01*
X0017337Y0018922D01*
X0017394Y0019057D01*
X0017453Y0019191D01*
X0017517Y0019323D01*
X0017584Y0019453D01*
X0017654Y0019582D01*
X0017728Y0019709D01*
X0017805Y0019833D01*
X0017886Y0019956D01*
X0017970Y0020076D01*
X0018057Y0020194D01*
X0018147Y0020309D01*
X0018240Y0020422D01*
X0018337Y0020533D01*
X0018436Y0020641D01*
X0018538Y0020746D01*
X0018643Y0020848D01*
X0018751Y0020947D01*
X0018862Y0021044D01*
X0018975Y0021137D01*
X0019090Y0021227D01*
X0019208Y0021314D01*
X0019328Y0021398D01*
X0019451Y0021479D01*
X0019575Y0021556D01*
X0019702Y0021630D01*
X0019831Y0021700D01*
X0019961Y0021767D01*
X0020093Y0021831D01*
X0020227Y0021890D01*
X0020362Y0021947D01*
X0020499Y0021999D01*
X0020638Y0022048D01*
X0020777Y0022093D01*
X0020918Y0022134D01*
X0021060Y0022171D01*
X0021202Y0022204D01*
X0021346Y0022234D01*
X0021490Y0022260D01*
X0021635Y0022281D01*
X0021781Y0022299D01*
X0021927Y0022313D01*
X0022073Y0022323D01*
X0022219Y0022329D01*
X0022366Y0022331D01*
X0022513Y0022329D01*
X0022659Y0022323D01*
X0022805Y0022313D01*
X0022951Y0022299D01*
X0023097Y0022281D01*
X0023242Y0022260D01*
X0023386Y0022234D01*
X0023530Y0022204D01*
X0023672Y0022171D01*
X0023814Y0022134D01*
X0023955Y0022093D01*
X0024094Y0022048D01*
X0024233Y0021999D01*
X0024370Y0021947D01*
X0024505Y0021890D01*
X0024639Y0021831D01*
X0024771Y0021767D01*
X0024901Y0021700D01*
X0025030Y0021630D01*
X0025157Y0021556D01*
X0025281Y0021479D01*
X0025404Y0021398D01*
X0025524Y0021314D01*
X0025642Y0021227D01*
X0025757Y0021137D01*
X0025870Y0021044D01*
X0025981Y0020947D01*
X0026089Y0020848D01*
X0026194Y0020746D01*
X0026296Y0020641D01*
X0026395Y0020533D01*
X0026492Y0020422D01*
X0026585Y0020309D01*
X0026675Y0020194D01*
X0026762Y0020076D01*
X0026846Y0019956D01*
X0026927Y0019833D01*
X0027004Y0019709D01*
X0027078Y0019582D01*
X0027148Y0019453D01*
X0027215Y0019323D01*
X0027279Y0019191D01*
X0027338Y0019057D01*
X0027395Y0018922D01*
X0027447Y0018785D01*
X0027496Y0018646D01*
X0027541Y0018507D01*
X0027582Y0018366D01*
X0027619Y0018224D01*
X0027652Y0018082D01*
X0027682Y0017938D01*
X0027708Y0017794D01*
X0027729Y0017649D01*
X0027747Y0017503D01*
X0027761Y0017357D01*
X0027771Y0017211D01*
X0027777Y0017065D01*
X0027779Y0016918D01*
X0027777Y0016771D01*
X0027771Y0016625D01*
X0027761Y0016479D01*
X0027747Y0016333D01*
X0027729Y0016187D01*
X0027708Y0016042D01*
X0027682Y0015898D01*
X0027652Y0015754D01*
X0027619Y0015612D01*
X0027582Y0015470D01*
X0027541Y0015329D01*
X0027496Y0015190D01*
X0027447Y0015051D01*
X0027395Y0014914D01*
X0027338Y0014779D01*
X0027279Y0014645D01*
X0027215Y0014513D01*
X0027148Y0014383D01*
X0027078Y0014254D01*
X0027004Y0014127D01*
X0026927Y0014003D01*
X0026846Y0013880D01*
X0026762Y0013760D01*
X0026675Y0013642D01*
X0026585Y0013527D01*
X0026492Y0013414D01*
X0026395Y0013303D01*
X0026296Y0013195D01*
X0026194Y0013090D01*
X0026089Y0012988D01*
X0025981Y0012889D01*
X0025870Y0012792D01*
X0025757Y0012699D01*
X0025642Y0012609D01*
X0025524Y0012522D01*
X0025404Y0012438D01*
X0025281Y0012357D01*
X0025157Y0012280D01*
X0025030Y0012206D01*
X0024901Y0012136D01*
X0024771Y0012069D01*
X0024639Y0012005D01*
X0024505Y0011946D01*
X0024370Y0011889D01*
X0024233Y0011837D01*
X0024094Y0011788D01*
X0023955Y0011743D01*
X0023814Y0011702D01*
X0023672Y0011665D01*
X0023530Y0011632D01*
X0023386Y0011602D01*
X0023242Y0011576D01*
X0023097Y0011555D01*
X0022951Y0011537D01*
X0022805Y0011523D01*
X0022659Y0011513D01*
X0022513Y0011507D01*
X0022366Y0011505D01*
X0022219Y0011507D01*
X0022073Y0011513D01*
X0021927Y0011523D01*
X0021781Y0011537D01*
X0021635Y0011555D01*
X0021490Y0011576D01*
X0021346Y0011602D01*
X0021202Y0011632D01*
X0021060Y0011665D01*
X0020918Y0011702D01*
X0020777Y0011743D01*
X0020638Y0011788D01*
X0020499Y0011837D01*
X0020362Y0011889D01*
X0020227Y0011946D01*
X0020093Y0012005D01*
X0019961Y0012069D01*
X0019831Y0012136D01*
X0019702Y0012206D01*
X0019575Y0012280D01*
X0019451Y0012357D01*
X0019328Y0012438D01*
X0019208Y0012522D01*
X0019090Y0012609D01*
X0018975Y0012699D01*
X0018862Y0012792D01*
X0018751Y0012889D01*
X0018643Y0012988D01*
X0018538Y0013090D01*
X0018436Y0013195D01*
X0018337Y0013303D01*
X0018240Y0013414D01*
X0018147Y0013527D01*
X0018057Y0013642D01*
X0017970Y0013760D01*
X0017886Y0013880D01*
X0017805Y0014003D01*
X0017728Y0014127D01*
X0017654Y0014254D01*
X0017584Y0014383D01*
X0017517Y0014513D01*
X0017453Y0014645D01*
X0017394Y0014779D01*
X0017337Y0014914D01*
X0017285Y0015051D01*
X0017236Y0015190D01*
X0017191Y0015329D01*
X0017150Y0015470D01*
X0017113Y0015612D01*
X0017080Y0015754D01*
X0017050Y0015898D01*
X0017024Y0016042D01*
X0017003Y0016187D01*
X0016985Y0016333D01*
X0016971Y0016479D01*
X0016961Y0016625D01*
X0016955Y0016771D01*
X0016953Y0016918D01*
X0245299Y0016918D02*
X0245301Y0017065D01*
X0245307Y0017211D01*
X0245317Y0017357D01*
X0245331Y0017503D01*
X0245349Y0017649D01*
X0245370Y0017794D01*
X0245396Y0017938D01*
X0245426Y0018082D01*
X0245459Y0018224D01*
X0245496Y0018366D01*
X0245537Y0018507D01*
X0245582Y0018646D01*
X0245631Y0018785D01*
X0245683Y0018922D01*
X0245740Y0019057D01*
X0245799Y0019191D01*
X0245863Y0019323D01*
X0245930Y0019453D01*
X0246000Y0019582D01*
X0246074Y0019709D01*
X0246151Y0019833D01*
X0246232Y0019956D01*
X0246316Y0020076D01*
X0246403Y0020194D01*
X0246493Y0020309D01*
X0246586Y0020422D01*
X0246683Y0020533D01*
X0246782Y0020641D01*
X0246884Y0020746D01*
X0246989Y0020848D01*
X0247097Y0020947D01*
X0247208Y0021044D01*
X0247321Y0021137D01*
X0247436Y0021227D01*
X0247554Y0021314D01*
X0247674Y0021398D01*
X0247797Y0021479D01*
X0247921Y0021556D01*
X0248048Y0021630D01*
X0248177Y0021700D01*
X0248307Y0021767D01*
X0248439Y0021831D01*
X0248573Y0021890D01*
X0248708Y0021947D01*
X0248845Y0021999D01*
X0248984Y0022048D01*
X0249123Y0022093D01*
X0249264Y0022134D01*
X0249406Y0022171D01*
X0249548Y0022204D01*
X0249692Y0022234D01*
X0249836Y0022260D01*
X0249981Y0022281D01*
X0250127Y0022299D01*
X0250273Y0022313D01*
X0250419Y0022323D01*
X0250565Y0022329D01*
X0250712Y0022331D01*
X0250859Y0022329D01*
X0251005Y0022323D01*
X0251151Y0022313D01*
X0251297Y0022299D01*
X0251443Y0022281D01*
X0251588Y0022260D01*
X0251732Y0022234D01*
X0251876Y0022204D01*
X0252018Y0022171D01*
X0252160Y0022134D01*
X0252301Y0022093D01*
X0252440Y0022048D01*
X0252579Y0021999D01*
X0252716Y0021947D01*
X0252851Y0021890D01*
X0252985Y0021831D01*
X0253117Y0021767D01*
X0253247Y0021700D01*
X0253376Y0021630D01*
X0253503Y0021556D01*
X0253627Y0021479D01*
X0253750Y0021398D01*
X0253870Y0021314D01*
X0253988Y0021227D01*
X0254103Y0021137D01*
X0254216Y0021044D01*
X0254327Y0020947D01*
X0254435Y0020848D01*
X0254540Y0020746D01*
X0254642Y0020641D01*
X0254741Y0020533D01*
X0254838Y0020422D01*
X0254931Y0020309D01*
X0255021Y0020194D01*
X0255108Y0020076D01*
X0255192Y0019956D01*
X0255273Y0019833D01*
X0255350Y0019709D01*
X0255424Y0019582D01*
X0255494Y0019453D01*
X0255561Y0019323D01*
X0255625Y0019191D01*
X0255684Y0019057D01*
X0255741Y0018922D01*
X0255793Y0018785D01*
X0255842Y0018646D01*
X0255887Y0018507D01*
X0255928Y0018366D01*
X0255965Y0018224D01*
X0255998Y0018082D01*
X0256028Y0017938D01*
X0256054Y0017794D01*
X0256075Y0017649D01*
X0256093Y0017503D01*
X0256107Y0017357D01*
X0256117Y0017211D01*
X0256123Y0017065D01*
X0256125Y0016918D01*
X0256123Y0016771D01*
X0256117Y0016625D01*
X0256107Y0016479D01*
X0256093Y0016333D01*
X0256075Y0016187D01*
X0256054Y0016042D01*
X0256028Y0015898D01*
X0255998Y0015754D01*
X0255965Y0015612D01*
X0255928Y0015470D01*
X0255887Y0015329D01*
X0255842Y0015190D01*
X0255793Y0015051D01*
X0255741Y0014914D01*
X0255684Y0014779D01*
X0255625Y0014645D01*
X0255561Y0014513D01*
X0255494Y0014383D01*
X0255424Y0014254D01*
X0255350Y0014127D01*
X0255273Y0014003D01*
X0255192Y0013880D01*
X0255108Y0013760D01*
X0255021Y0013642D01*
X0254931Y0013527D01*
X0254838Y0013414D01*
X0254741Y0013303D01*
X0254642Y0013195D01*
X0254540Y0013090D01*
X0254435Y0012988D01*
X0254327Y0012889D01*
X0254216Y0012792D01*
X0254103Y0012699D01*
X0253988Y0012609D01*
X0253870Y0012522D01*
X0253750Y0012438D01*
X0253627Y0012357D01*
X0253503Y0012280D01*
X0253376Y0012206D01*
X0253247Y0012136D01*
X0253117Y0012069D01*
X0252985Y0012005D01*
X0252851Y0011946D01*
X0252716Y0011889D01*
X0252579Y0011837D01*
X0252440Y0011788D01*
X0252301Y0011743D01*
X0252160Y0011702D01*
X0252018Y0011665D01*
X0251876Y0011632D01*
X0251732Y0011602D01*
X0251588Y0011576D01*
X0251443Y0011555D01*
X0251297Y0011537D01*
X0251151Y0011523D01*
X0251005Y0011513D01*
X0250859Y0011507D01*
X0250712Y0011505D01*
X0250565Y0011507D01*
X0250419Y0011513D01*
X0250273Y0011523D01*
X0250127Y0011537D01*
X0249981Y0011555D01*
X0249836Y0011576D01*
X0249692Y0011602D01*
X0249548Y0011632D01*
X0249406Y0011665D01*
X0249264Y0011702D01*
X0249123Y0011743D01*
X0248984Y0011788D01*
X0248845Y0011837D01*
X0248708Y0011889D01*
X0248573Y0011946D01*
X0248439Y0012005D01*
X0248307Y0012069D01*
X0248177Y0012136D01*
X0248048Y0012206D01*
X0247921Y0012280D01*
X0247797Y0012357D01*
X0247674Y0012438D01*
X0247554Y0012522D01*
X0247436Y0012609D01*
X0247321Y0012699D01*
X0247208Y0012792D01*
X0247097Y0012889D01*
X0246989Y0012988D01*
X0246884Y0013090D01*
X0246782Y0013195D01*
X0246683Y0013303D01*
X0246586Y0013414D01*
X0246493Y0013527D01*
X0246403Y0013642D01*
X0246316Y0013760D01*
X0246232Y0013880D01*
X0246151Y0014003D01*
X0246074Y0014127D01*
X0246000Y0014254D01*
X0245930Y0014383D01*
X0245863Y0014513D01*
X0245799Y0014645D01*
X0245740Y0014779D01*
X0245683Y0014914D01*
X0245631Y0015051D01*
X0245582Y0015190D01*
X0245537Y0015329D01*
X0245496Y0015470D01*
X0245459Y0015612D01*
X0245426Y0015754D01*
X0245396Y0015898D01*
X0245370Y0016042D01*
X0245349Y0016187D01*
X0245331Y0016333D01*
X0245317Y0016479D01*
X0245307Y0016625D01*
X0245301Y0016771D01*
X0245299Y0016918D01*
X0245299Y0209831D02*
X0245301Y0209978D01*
X0245307Y0210124D01*
X0245317Y0210270D01*
X0245331Y0210416D01*
X0245349Y0210562D01*
X0245370Y0210707D01*
X0245396Y0210851D01*
X0245426Y0210995D01*
X0245459Y0211137D01*
X0245496Y0211279D01*
X0245537Y0211420D01*
X0245582Y0211559D01*
X0245631Y0211698D01*
X0245683Y0211835D01*
X0245740Y0211970D01*
X0245799Y0212104D01*
X0245863Y0212236D01*
X0245930Y0212366D01*
X0246000Y0212495D01*
X0246074Y0212622D01*
X0246151Y0212746D01*
X0246232Y0212869D01*
X0246316Y0212989D01*
X0246403Y0213107D01*
X0246493Y0213222D01*
X0246586Y0213335D01*
X0246683Y0213446D01*
X0246782Y0213554D01*
X0246884Y0213659D01*
X0246989Y0213761D01*
X0247097Y0213860D01*
X0247208Y0213957D01*
X0247321Y0214050D01*
X0247436Y0214140D01*
X0247554Y0214227D01*
X0247674Y0214311D01*
X0247797Y0214392D01*
X0247921Y0214469D01*
X0248048Y0214543D01*
X0248177Y0214613D01*
X0248307Y0214680D01*
X0248439Y0214744D01*
X0248573Y0214803D01*
X0248708Y0214860D01*
X0248845Y0214912D01*
X0248984Y0214961D01*
X0249123Y0215006D01*
X0249264Y0215047D01*
X0249406Y0215084D01*
X0249548Y0215117D01*
X0249692Y0215147D01*
X0249836Y0215173D01*
X0249981Y0215194D01*
X0250127Y0215212D01*
X0250273Y0215226D01*
X0250419Y0215236D01*
X0250565Y0215242D01*
X0250712Y0215244D01*
X0250859Y0215242D01*
X0251005Y0215236D01*
X0251151Y0215226D01*
X0251297Y0215212D01*
X0251443Y0215194D01*
X0251588Y0215173D01*
X0251732Y0215147D01*
X0251876Y0215117D01*
X0252018Y0215084D01*
X0252160Y0215047D01*
X0252301Y0215006D01*
X0252440Y0214961D01*
X0252579Y0214912D01*
X0252716Y0214860D01*
X0252851Y0214803D01*
X0252985Y0214744D01*
X0253117Y0214680D01*
X0253247Y0214613D01*
X0253376Y0214543D01*
X0253503Y0214469D01*
X0253627Y0214392D01*
X0253750Y0214311D01*
X0253870Y0214227D01*
X0253988Y0214140D01*
X0254103Y0214050D01*
X0254216Y0213957D01*
X0254327Y0213860D01*
X0254435Y0213761D01*
X0254540Y0213659D01*
X0254642Y0213554D01*
X0254741Y0213446D01*
X0254838Y0213335D01*
X0254931Y0213222D01*
X0255021Y0213107D01*
X0255108Y0212989D01*
X0255192Y0212869D01*
X0255273Y0212746D01*
X0255350Y0212622D01*
X0255424Y0212495D01*
X0255494Y0212366D01*
X0255561Y0212236D01*
X0255625Y0212104D01*
X0255684Y0211970D01*
X0255741Y0211835D01*
X0255793Y0211698D01*
X0255842Y0211559D01*
X0255887Y0211420D01*
X0255928Y0211279D01*
X0255965Y0211137D01*
X0255998Y0210995D01*
X0256028Y0210851D01*
X0256054Y0210707D01*
X0256075Y0210562D01*
X0256093Y0210416D01*
X0256107Y0210270D01*
X0256117Y0210124D01*
X0256123Y0209978D01*
X0256125Y0209831D01*
X0256123Y0209684D01*
X0256117Y0209538D01*
X0256107Y0209392D01*
X0256093Y0209246D01*
X0256075Y0209100D01*
X0256054Y0208955D01*
X0256028Y0208811D01*
X0255998Y0208667D01*
X0255965Y0208525D01*
X0255928Y0208383D01*
X0255887Y0208242D01*
X0255842Y0208103D01*
X0255793Y0207964D01*
X0255741Y0207827D01*
X0255684Y0207692D01*
X0255625Y0207558D01*
X0255561Y0207426D01*
X0255494Y0207296D01*
X0255424Y0207167D01*
X0255350Y0207040D01*
X0255273Y0206916D01*
X0255192Y0206793D01*
X0255108Y0206673D01*
X0255021Y0206555D01*
X0254931Y0206440D01*
X0254838Y0206327D01*
X0254741Y0206216D01*
X0254642Y0206108D01*
X0254540Y0206003D01*
X0254435Y0205901D01*
X0254327Y0205802D01*
X0254216Y0205705D01*
X0254103Y0205612D01*
X0253988Y0205522D01*
X0253870Y0205435D01*
X0253750Y0205351D01*
X0253627Y0205270D01*
X0253503Y0205193D01*
X0253376Y0205119D01*
X0253247Y0205049D01*
X0253117Y0204982D01*
X0252985Y0204918D01*
X0252851Y0204859D01*
X0252716Y0204802D01*
X0252579Y0204750D01*
X0252440Y0204701D01*
X0252301Y0204656D01*
X0252160Y0204615D01*
X0252018Y0204578D01*
X0251876Y0204545D01*
X0251732Y0204515D01*
X0251588Y0204489D01*
X0251443Y0204468D01*
X0251297Y0204450D01*
X0251151Y0204436D01*
X0251005Y0204426D01*
X0250859Y0204420D01*
X0250712Y0204418D01*
X0250565Y0204420D01*
X0250419Y0204426D01*
X0250273Y0204436D01*
X0250127Y0204450D01*
X0249981Y0204468D01*
X0249836Y0204489D01*
X0249692Y0204515D01*
X0249548Y0204545D01*
X0249406Y0204578D01*
X0249264Y0204615D01*
X0249123Y0204656D01*
X0248984Y0204701D01*
X0248845Y0204750D01*
X0248708Y0204802D01*
X0248573Y0204859D01*
X0248439Y0204918D01*
X0248307Y0204982D01*
X0248177Y0205049D01*
X0248048Y0205119D01*
X0247921Y0205193D01*
X0247797Y0205270D01*
X0247674Y0205351D01*
X0247554Y0205435D01*
X0247436Y0205522D01*
X0247321Y0205612D01*
X0247208Y0205705D01*
X0247097Y0205802D01*
X0246989Y0205901D01*
X0246884Y0206003D01*
X0246782Y0206108D01*
X0246683Y0206216D01*
X0246586Y0206327D01*
X0246493Y0206440D01*
X0246403Y0206555D01*
X0246316Y0206673D01*
X0246232Y0206793D01*
X0246151Y0206916D01*
X0246074Y0207040D01*
X0246000Y0207167D01*
X0245930Y0207296D01*
X0245863Y0207426D01*
X0245799Y0207558D01*
X0245740Y0207692D01*
X0245683Y0207827D01*
X0245631Y0207964D01*
X0245582Y0208103D01*
X0245537Y0208242D01*
X0245496Y0208383D01*
X0245459Y0208525D01*
X0245426Y0208667D01*
X0245396Y0208811D01*
X0245370Y0208955D01*
X0245349Y0209100D01*
X0245331Y0209246D01*
X0245317Y0209392D01*
X0245307Y0209538D01*
X0245301Y0209684D01*
X0245299Y0209831D01*
X0016953Y0209831D02*
X0016955Y0209978D01*
X0016961Y0210124D01*
X0016971Y0210270D01*
X0016985Y0210416D01*
X0017003Y0210562D01*
X0017024Y0210707D01*
X0017050Y0210851D01*
X0017080Y0210995D01*
X0017113Y0211137D01*
X0017150Y0211279D01*
X0017191Y0211420D01*
X0017236Y0211559D01*
X0017285Y0211698D01*
X0017337Y0211835D01*
X0017394Y0211970D01*
X0017453Y0212104D01*
X0017517Y0212236D01*
X0017584Y0212366D01*
X0017654Y0212495D01*
X0017728Y0212622D01*
X0017805Y0212746D01*
X0017886Y0212869D01*
X0017970Y0212989D01*
X0018057Y0213107D01*
X0018147Y0213222D01*
X0018240Y0213335D01*
X0018337Y0213446D01*
X0018436Y0213554D01*
X0018538Y0213659D01*
X0018643Y0213761D01*
X0018751Y0213860D01*
X0018862Y0213957D01*
X0018975Y0214050D01*
X0019090Y0214140D01*
X0019208Y0214227D01*
X0019328Y0214311D01*
X0019451Y0214392D01*
X0019575Y0214469D01*
X0019702Y0214543D01*
X0019831Y0214613D01*
X0019961Y0214680D01*
X0020093Y0214744D01*
X0020227Y0214803D01*
X0020362Y0214860D01*
X0020499Y0214912D01*
X0020638Y0214961D01*
X0020777Y0215006D01*
X0020918Y0215047D01*
X0021060Y0215084D01*
X0021202Y0215117D01*
X0021346Y0215147D01*
X0021490Y0215173D01*
X0021635Y0215194D01*
X0021781Y0215212D01*
X0021927Y0215226D01*
X0022073Y0215236D01*
X0022219Y0215242D01*
X0022366Y0215244D01*
X0022513Y0215242D01*
X0022659Y0215236D01*
X0022805Y0215226D01*
X0022951Y0215212D01*
X0023097Y0215194D01*
X0023242Y0215173D01*
X0023386Y0215147D01*
X0023530Y0215117D01*
X0023672Y0215084D01*
X0023814Y0215047D01*
X0023955Y0215006D01*
X0024094Y0214961D01*
X0024233Y0214912D01*
X0024370Y0214860D01*
X0024505Y0214803D01*
X0024639Y0214744D01*
X0024771Y0214680D01*
X0024901Y0214613D01*
X0025030Y0214543D01*
X0025157Y0214469D01*
X0025281Y0214392D01*
X0025404Y0214311D01*
X0025524Y0214227D01*
X0025642Y0214140D01*
X0025757Y0214050D01*
X0025870Y0213957D01*
X0025981Y0213860D01*
X0026089Y0213761D01*
X0026194Y0213659D01*
X0026296Y0213554D01*
X0026395Y0213446D01*
X0026492Y0213335D01*
X0026585Y0213222D01*
X0026675Y0213107D01*
X0026762Y0212989D01*
X0026846Y0212869D01*
X0026927Y0212746D01*
X0027004Y0212622D01*
X0027078Y0212495D01*
X0027148Y0212366D01*
X0027215Y0212236D01*
X0027279Y0212104D01*
X0027338Y0211970D01*
X0027395Y0211835D01*
X0027447Y0211698D01*
X0027496Y0211559D01*
X0027541Y0211420D01*
X0027582Y0211279D01*
X0027619Y0211137D01*
X0027652Y0210995D01*
X0027682Y0210851D01*
X0027708Y0210707D01*
X0027729Y0210562D01*
X0027747Y0210416D01*
X0027761Y0210270D01*
X0027771Y0210124D01*
X0027777Y0209978D01*
X0027779Y0209831D01*
X0027777Y0209684D01*
X0027771Y0209538D01*
X0027761Y0209392D01*
X0027747Y0209246D01*
X0027729Y0209100D01*
X0027708Y0208955D01*
X0027682Y0208811D01*
X0027652Y0208667D01*
X0027619Y0208525D01*
X0027582Y0208383D01*
X0027541Y0208242D01*
X0027496Y0208103D01*
X0027447Y0207964D01*
X0027395Y0207827D01*
X0027338Y0207692D01*
X0027279Y0207558D01*
X0027215Y0207426D01*
X0027148Y0207296D01*
X0027078Y0207167D01*
X0027004Y0207040D01*
X0026927Y0206916D01*
X0026846Y0206793D01*
X0026762Y0206673D01*
X0026675Y0206555D01*
X0026585Y0206440D01*
X0026492Y0206327D01*
X0026395Y0206216D01*
X0026296Y0206108D01*
X0026194Y0206003D01*
X0026089Y0205901D01*
X0025981Y0205802D01*
X0025870Y0205705D01*
X0025757Y0205612D01*
X0025642Y0205522D01*
X0025524Y0205435D01*
X0025404Y0205351D01*
X0025281Y0205270D01*
X0025157Y0205193D01*
X0025030Y0205119D01*
X0024901Y0205049D01*
X0024771Y0204982D01*
X0024639Y0204918D01*
X0024505Y0204859D01*
X0024370Y0204802D01*
X0024233Y0204750D01*
X0024094Y0204701D01*
X0023955Y0204656D01*
X0023814Y0204615D01*
X0023672Y0204578D01*
X0023530Y0204545D01*
X0023386Y0204515D01*
X0023242Y0204489D01*
X0023097Y0204468D01*
X0022951Y0204450D01*
X0022805Y0204436D01*
X0022659Y0204426D01*
X0022513Y0204420D01*
X0022366Y0204418D01*
X0022219Y0204420D01*
X0022073Y0204426D01*
X0021927Y0204436D01*
X0021781Y0204450D01*
X0021635Y0204468D01*
X0021490Y0204489D01*
X0021346Y0204515D01*
X0021202Y0204545D01*
X0021060Y0204578D01*
X0020918Y0204615D01*
X0020777Y0204656D01*
X0020638Y0204701D01*
X0020499Y0204750D01*
X0020362Y0204802D01*
X0020227Y0204859D01*
X0020093Y0204918D01*
X0019961Y0204982D01*
X0019831Y0205049D01*
X0019702Y0205119D01*
X0019575Y0205193D01*
X0019451Y0205270D01*
X0019328Y0205351D01*
X0019208Y0205435D01*
X0019090Y0205522D01*
X0018975Y0205612D01*
X0018862Y0205705D01*
X0018751Y0205802D01*
X0018643Y0205901D01*
X0018538Y0206003D01*
X0018436Y0206108D01*
X0018337Y0206216D01*
X0018240Y0206327D01*
X0018147Y0206440D01*
X0018057Y0206555D01*
X0017970Y0206673D01*
X0017886Y0206793D01*
X0017805Y0206916D01*
X0017728Y0207040D01*
X0017654Y0207167D01*
X0017584Y0207296D01*
X0017517Y0207426D01*
X0017453Y0207558D01*
X0017394Y0207692D01*
X0017337Y0207827D01*
X0017285Y0207964D01*
X0017236Y0208103D01*
X0017191Y0208242D01*
X0017150Y0208383D01*
X0017113Y0208525D01*
X0017080Y0208667D01*
X0017050Y0208811D01*
X0017024Y0208955D01*
X0017003Y0209100D01*
X0016985Y0209246D01*
X0016971Y0209392D01*
X0016961Y0209538D01*
X0016955Y0209684D01*
X0016953Y0209831D01*
D11*
X0025283Y0217347D02*
X0025283Y0220036D01*
X0023939Y0218691D02*
X0026628Y0218691D01*
X0027926Y0218691D02*
X0029271Y0219364D01*
X0029943Y0219364D01*
X0030616Y0218691D01*
X0030616Y0217347D01*
X0029943Y0216674D01*
X0028599Y0216674D01*
X0027926Y0217347D01*
X0027926Y0218691D02*
X0027926Y0220708D01*
X0030616Y0220708D01*
X0031914Y0220708D02*
X0031914Y0218019D01*
X0033259Y0216674D01*
X0034603Y0218019D01*
X0034603Y0220708D01*
X0034105Y0186318D02*
X0035187Y0186318D01*
X0035728Y0185777D01*
X0033564Y0183613D01*
X0034105Y0183072D01*
X0035187Y0183072D01*
X0035728Y0183613D01*
X0035728Y0185777D01*
X0034105Y0186318D02*
X0033564Y0185777D01*
X0033564Y0183613D01*
X0032466Y0183072D02*
X0030302Y0183072D01*
X0031384Y0183072D02*
X0031384Y0186318D01*
X0030302Y0185236D01*
X0029203Y0185777D02*
X0028662Y0186318D01*
X0027580Y0186318D01*
X0027039Y0185777D01*
X0027039Y0183613D01*
X0027580Y0183072D01*
X0028662Y0183072D01*
X0029203Y0183613D01*
X0033486Y0175443D02*
X0036622Y0172307D01*
X0035054Y0172307D02*
X0035054Y0175443D01*
X0036622Y0175443D02*
X0033486Y0172307D01*
X0033486Y0173875D02*
X0036622Y0173875D01*
X0046650Y0183633D02*
X0047191Y0183092D01*
X0048273Y0183092D01*
X0048814Y0183633D01*
X0049912Y0183092D02*
X0052076Y0183092D01*
X0050994Y0183092D02*
X0050994Y0186338D01*
X0049912Y0185256D01*
X0048814Y0185797D02*
X0048273Y0186338D01*
X0047191Y0186338D01*
X0046650Y0185797D01*
X0046650Y0183633D01*
X0053175Y0183092D02*
X0055339Y0183092D01*
X0054257Y0183092D02*
X0054257Y0186338D01*
X0053175Y0185256D01*
X0082944Y0171751D02*
X0082944Y0168505D01*
X0082944Y0169587D02*
X0084567Y0169587D01*
X0085109Y0170128D01*
X0085109Y0171210D01*
X0084567Y0171751D01*
X0082944Y0171751D01*
X0084026Y0169587D02*
X0085109Y0168505D01*
X0086207Y0168505D02*
X0088371Y0168505D01*
X0087289Y0168505D02*
X0087289Y0171751D01*
X0086207Y0170669D01*
X0089470Y0171751D02*
X0091634Y0171751D01*
X0091634Y0171210D01*
X0089470Y0169046D01*
X0089470Y0168505D01*
X0091817Y0146830D02*
X0091276Y0146289D01*
X0091276Y0144125D01*
X0091817Y0143584D01*
X0092899Y0143584D01*
X0093440Y0144125D01*
X0094538Y0145207D02*
X0096702Y0145207D01*
X0097801Y0145207D02*
X0099424Y0145207D01*
X0099965Y0144666D01*
X0099965Y0144125D01*
X0099424Y0143584D01*
X0098342Y0143584D01*
X0097801Y0144125D01*
X0097801Y0145207D01*
X0098883Y0146289D01*
X0099965Y0146830D01*
X0096161Y0146830D02*
X0096161Y0143584D01*
X0094538Y0145207D02*
X0096161Y0146830D01*
X0093440Y0146289D02*
X0092899Y0146830D01*
X0091817Y0146830D01*
X0087303Y0146554D02*
X0085139Y0146554D01*
X0085139Y0144931D01*
X0086221Y0145472D01*
X0086762Y0145472D01*
X0087303Y0144931D01*
X0087303Y0143849D01*
X0086762Y0143308D01*
X0085680Y0143308D01*
X0085139Y0143849D01*
X0084040Y0144931D02*
X0081876Y0144931D01*
X0083499Y0146554D01*
X0083499Y0143308D01*
X0080778Y0143849D02*
X0080237Y0143308D01*
X0079155Y0143308D01*
X0078614Y0143849D01*
X0078614Y0146013D01*
X0079155Y0146554D01*
X0080237Y0146554D01*
X0080778Y0146013D01*
X0081850Y0134369D02*
X0080227Y0132746D01*
X0082391Y0132746D01*
X0083490Y0131664D02*
X0083490Y0131123D01*
X0083490Y0131664D02*
X0085654Y0133828D01*
X0085654Y0134369D01*
X0083490Y0134369D01*
X0081850Y0134369D02*
X0081850Y0131123D01*
X0079129Y0131664D02*
X0078588Y0131123D01*
X0077506Y0131123D01*
X0076965Y0131664D01*
X0076965Y0133828D01*
X0077506Y0134369D01*
X0078588Y0134369D01*
X0079129Y0133828D01*
X0080168Y0126475D02*
X0081250Y0126475D01*
X0081791Y0125934D01*
X0081791Y0125393D01*
X0081250Y0124852D01*
X0080168Y0124852D01*
X0079627Y0125393D01*
X0079627Y0125934D01*
X0080168Y0126475D01*
X0080168Y0124852D02*
X0079627Y0124311D01*
X0079627Y0123770D01*
X0080168Y0123229D01*
X0081250Y0123229D01*
X0081791Y0123770D01*
X0081791Y0124311D01*
X0081250Y0124852D01*
X0078529Y0124852D02*
X0076365Y0124852D01*
X0077988Y0126475D01*
X0077988Y0123229D01*
X0075266Y0123770D02*
X0074725Y0123229D01*
X0073643Y0123229D01*
X0073102Y0123770D01*
X0073102Y0125934D01*
X0073643Y0126475D01*
X0074725Y0126475D01*
X0075266Y0125934D01*
X0092063Y0118730D02*
X0092063Y0116566D01*
X0092604Y0116025D01*
X0093686Y0116025D01*
X0094227Y0116566D01*
X0095326Y0116566D02*
X0095867Y0116025D01*
X0096949Y0116025D01*
X0097490Y0116566D01*
X0097490Y0117648D01*
X0096949Y0118189D01*
X0096408Y0118189D01*
X0095326Y0117648D01*
X0095326Y0119271D01*
X0097490Y0119271D01*
X0098588Y0118730D02*
X0099129Y0119271D01*
X0100211Y0119271D01*
X0100752Y0118730D01*
X0098588Y0116566D01*
X0099129Y0116025D01*
X0100211Y0116025D01*
X0100752Y0116566D01*
X0100752Y0118730D01*
X0098588Y0118730D02*
X0098588Y0116566D01*
X0094227Y0118730D02*
X0093686Y0119271D01*
X0092604Y0119271D01*
X0092063Y0118730D01*
X0089050Y0102873D02*
X0087968Y0102873D01*
X0087427Y0102332D01*
X0087427Y0101791D01*
X0087968Y0101250D01*
X0089591Y0101250D01*
X0089591Y0100168D02*
X0089591Y0102332D01*
X0089050Y0102873D01*
X0089591Y0100168D02*
X0089050Y0099627D01*
X0087968Y0099627D01*
X0087427Y0100168D01*
X0086328Y0101250D02*
X0084164Y0101250D01*
X0085787Y0102873D01*
X0085787Y0099627D01*
X0083066Y0100168D02*
X0082525Y0099627D01*
X0081443Y0099627D01*
X0080902Y0100168D01*
X0080902Y0102332D01*
X0081443Y0102873D01*
X0082525Y0102873D01*
X0083066Y0102332D01*
X0056201Y0107136D02*
X0054037Y0107136D01*
X0055660Y0108759D01*
X0055660Y0105513D01*
X0052938Y0107136D02*
X0050774Y0107136D01*
X0052397Y0108759D01*
X0052397Y0105513D01*
X0049675Y0106054D02*
X0049134Y0105513D01*
X0048052Y0105513D01*
X0047511Y0106054D01*
X0047511Y0108218D01*
X0048052Y0108759D01*
X0049134Y0108759D01*
X0049675Y0108218D01*
X0049947Y0114588D02*
X0049406Y0115129D01*
X0049406Y0117293D01*
X0049947Y0117834D01*
X0051029Y0117834D01*
X0051570Y0117293D01*
X0052668Y0116211D02*
X0054832Y0116211D01*
X0055931Y0117293D02*
X0056472Y0117834D01*
X0057554Y0117834D01*
X0058095Y0117293D01*
X0058095Y0116752D01*
X0057554Y0116211D01*
X0058095Y0115670D01*
X0058095Y0115129D01*
X0057554Y0114588D01*
X0056472Y0114588D01*
X0055931Y0115129D01*
X0057013Y0116211D02*
X0057554Y0116211D01*
X0054291Y0114588D02*
X0054291Y0117834D01*
X0052668Y0116211D01*
X0051570Y0115129D02*
X0051029Y0114588D01*
X0049947Y0114588D01*
X0028121Y0106184D02*
X0027580Y0106725D01*
X0027039Y0106725D01*
X0026498Y0106184D01*
X0026498Y0104561D01*
X0027580Y0104561D01*
X0028121Y0105102D01*
X0028121Y0106184D01*
X0026498Y0104561D02*
X0025416Y0105643D01*
X0024875Y0106725D01*
X0022806Y0106733D02*
X0022806Y0108357D01*
X0021183Y0108357D01*
X0020642Y0107816D01*
X0020642Y0106733D01*
X0021724Y0106733D02*
X0021724Y0108357D01*
X0022806Y0109455D02*
X0022806Y0110537D01*
X0022806Y0109996D02*
X0019560Y0109996D01*
X0019560Y0109455D01*
X0019560Y0111630D02*
X0019560Y0112171D01*
X0022806Y0112171D01*
X0022806Y0111630D02*
X0022806Y0112712D01*
X0022265Y0113805D02*
X0021183Y0113805D01*
X0020642Y0114346D01*
X0020642Y0115428D01*
X0021183Y0115969D01*
X0021724Y0115969D01*
X0021724Y0113805D01*
X0022265Y0113805D02*
X0022806Y0114346D01*
X0022806Y0115428D01*
X0022806Y0106733D02*
X0022265Y0106192D01*
X0021724Y0106733D01*
X0021183Y0105094D02*
X0022806Y0105094D01*
X0021183Y0105094D02*
X0020642Y0104553D01*
X0020642Y0103471D01*
X0021183Y0102930D01*
X0019560Y0102930D02*
X0022806Y0102930D01*
X0022806Y0101837D02*
X0022806Y0100755D01*
X0022806Y0101296D02*
X0019560Y0101296D01*
X0019560Y0100755D01*
X0021183Y0099656D02*
X0021724Y0099656D01*
X0021724Y0097492D01*
X0021183Y0097492D02*
X0020642Y0098033D01*
X0020642Y0099115D01*
X0021183Y0099656D01*
X0022806Y0099115D02*
X0022806Y0098033D01*
X0022265Y0097492D01*
X0021183Y0097492D01*
X0022265Y0096394D02*
X0020101Y0096394D01*
X0019560Y0095853D01*
X0019560Y0094230D01*
X0022806Y0094230D01*
X0022806Y0095853D01*
X0022265Y0096394D01*
X0024875Y0096396D02*
X0024875Y0095314D01*
X0025416Y0094773D01*
X0024875Y0096396D02*
X0025416Y0096937D01*
X0025957Y0096937D01*
X0028121Y0094773D01*
X0028121Y0096937D01*
X0027580Y0098036D02*
X0025416Y0098036D01*
X0024875Y0098577D01*
X0024875Y0099659D01*
X0025416Y0100200D01*
X0027580Y0098036D01*
X0028121Y0098577D01*
X0028121Y0099659D01*
X0027580Y0100200D01*
X0025416Y0100200D01*
X0025957Y0101299D02*
X0024875Y0102381D01*
X0028121Y0102381D01*
X0028121Y0101299D02*
X0028121Y0103463D01*
X0017491Y0104015D02*
X0016950Y0103474D01*
X0014786Y0105638D01*
X0016950Y0105638D01*
X0017491Y0105097D01*
X0017491Y0104015D01*
X0016950Y0103474D02*
X0014786Y0103474D01*
X0014245Y0104015D01*
X0014245Y0105097D01*
X0014786Y0105638D01*
X0016950Y0102383D02*
X0017491Y0102383D01*
X0017491Y0101842D01*
X0016950Y0101842D01*
X0016950Y0102383D01*
X0017491Y0100744D02*
X0017491Y0098580D01*
X0015327Y0100744D01*
X0014786Y0100744D01*
X0014245Y0100203D01*
X0014245Y0099121D01*
X0014786Y0098580D01*
X0015868Y0094218D02*
X0015868Y0092054D01*
X0020101Y0089333D02*
X0022265Y0089333D01*
X0022806Y0089874D01*
X0020642Y0089874D02*
X0020642Y0088792D01*
X0021183Y0087693D02*
X0022806Y0087693D01*
X0021183Y0087693D02*
X0020642Y0087152D01*
X0020642Y0085529D01*
X0022806Y0085529D01*
X0021724Y0084431D02*
X0021724Y0082267D01*
X0021183Y0082267D02*
X0020642Y0082808D01*
X0020642Y0083890D01*
X0021183Y0084431D01*
X0021724Y0084431D01*
X0022806Y0083890D02*
X0022806Y0082808D01*
X0022265Y0082267D01*
X0021183Y0082267D01*
X0020642Y0081168D02*
X0020642Y0079545D01*
X0021183Y0079004D01*
X0022265Y0079004D01*
X0022806Y0079545D01*
X0022806Y0081168D01*
X0024875Y0082267D02*
X0028121Y0082267D01*
X0028121Y0083890D01*
X0027580Y0084431D01*
X0026498Y0084431D01*
X0025957Y0083890D01*
X0025957Y0082267D01*
X0026498Y0081168D02*
X0025957Y0080627D01*
X0025957Y0079545D01*
X0026498Y0079004D01*
X0027580Y0079004D01*
X0028121Y0079545D01*
X0028121Y0080627D01*
X0027580Y0081168D01*
X0026498Y0081168D01*
X0025957Y0077911D02*
X0025957Y0076829D01*
X0025416Y0077370D02*
X0027580Y0077370D01*
X0028121Y0077911D01*
X0028121Y0075730D02*
X0028121Y0074107D01*
X0027580Y0073566D01*
X0026498Y0073566D01*
X0025957Y0074107D01*
X0025957Y0075730D01*
X0022806Y0075741D02*
X0020642Y0075741D01*
X0020642Y0077364D01*
X0021183Y0077905D01*
X0022806Y0077905D01*
X0018573Y0075189D02*
X0018573Y0074648D01*
X0018573Y0075189D02*
X0018032Y0075730D01*
X0015327Y0075730D01*
X0014245Y0076829D02*
X0014245Y0078452D01*
X0014786Y0078993D01*
X0016950Y0078993D01*
X0017491Y0078452D01*
X0017491Y0076829D01*
X0014245Y0076829D01*
X0015327Y0073566D02*
X0016950Y0073566D01*
X0017491Y0074107D01*
X0017491Y0075730D01*
X0019019Y0074107D02*
X0019560Y0074107D01*
X0020642Y0074107D02*
X0022806Y0074107D01*
X0022806Y0073566D02*
X0022806Y0074648D01*
X0020642Y0074107D02*
X0020642Y0073566D01*
X0021724Y0072468D02*
X0019560Y0072468D01*
X0017491Y0072468D02*
X0014245Y0072468D01*
X0015327Y0071386D01*
X0014245Y0070304D01*
X0017491Y0070304D01*
X0019560Y0070304D02*
X0021724Y0070304D01*
X0022806Y0071386D01*
X0021724Y0072468D01*
X0024875Y0071927D02*
X0025416Y0072468D01*
X0027580Y0072468D01*
X0028121Y0071927D01*
X0028121Y0070845D01*
X0027580Y0070304D01*
X0025416Y0070304D01*
X0024875Y0070845D01*
X0024875Y0071927D01*
X0016950Y0080091D02*
X0017491Y0080632D01*
X0017491Y0081715D01*
X0016950Y0082256D01*
X0016409Y0082256D01*
X0015868Y0081715D01*
X0015868Y0080632D01*
X0015327Y0080091D01*
X0014786Y0080091D01*
X0014245Y0080632D01*
X0014245Y0081715D01*
X0014786Y0082256D01*
X0014245Y0083354D02*
X0014245Y0084977D01*
X0014786Y0085518D01*
X0015868Y0085518D01*
X0016409Y0084977D01*
X0016409Y0083354D01*
X0017491Y0083354D02*
X0014245Y0083354D01*
X0015327Y0086617D02*
X0015327Y0087158D01*
X0017491Y0087158D01*
X0017491Y0086617D02*
X0017491Y0087699D01*
X0014245Y0087158D02*
X0013704Y0087158D01*
X0025957Y0087152D02*
X0025957Y0086070D01*
X0026498Y0085529D01*
X0027580Y0085529D01*
X0028121Y0086070D01*
X0028121Y0087152D01*
X0027039Y0087693D02*
X0027039Y0085529D01*
X0025957Y0087152D02*
X0026498Y0087693D01*
X0027039Y0087693D01*
X0027039Y0088792D02*
X0025957Y0089874D01*
X0025957Y0090415D01*
X0025957Y0088792D02*
X0028121Y0088792D01*
X0076588Y0055724D02*
X0078211Y0054101D01*
X0078211Y0056265D01*
X0079834Y0055724D02*
X0076588Y0055724D01*
X0078211Y0053002D02*
X0078211Y0050838D01*
X0076588Y0052461D01*
X0079834Y0052461D01*
X0079834Y0049739D02*
X0078752Y0048657D01*
X0078752Y0049198D02*
X0078752Y0047575D01*
X0079834Y0047575D02*
X0076588Y0047575D01*
X0076588Y0049198D01*
X0077129Y0049739D01*
X0078211Y0049739D01*
X0078752Y0049198D01*
X0089186Y0049198D02*
X0089186Y0047575D01*
X0092432Y0047575D01*
X0091350Y0047575D02*
X0091350Y0049198D01*
X0090809Y0049739D01*
X0089727Y0049739D01*
X0089186Y0049198D01*
X0089727Y0050838D02*
X0089186Y0051379D01*
X0089186Y0052461D01*
X0089727Y0053002D01*
X0090268Y0053002D01*
X0090809Y0052461D01*
X0091350Y0053002D01*
X0091891Y0053002D01*
X0092432Y0052461D01*
X0092432Y0051379D01*
X0091891Y0050838D01*
X0092432Y0049739D02*
X0091350Y0048657D01*
X0090809Y0051920D02*
X0090809Y0052461D01*
X0090268Y0054101D02*
X0090809Y0054642D01*
X0090809Y0056265D01*
X0091891Y0056265D02*
X0089727Y0056265D01*
X0089186Y0055724D01*
X0089186Y0054642D01*
X0089727Y0054101D01*
X0090268Y0054101D01*
X0091891Y0054101D02*
X0092432Y0054642D01*
X0092432Y0055724D01*
X0091891Y0056265D01*
X0099816Y0055871D02*
X0099816Y0053707D01*
X0101439Y0053707D01*
X0100898Y0054789D01*
X0100898Y0055330D01*
X0101439Y0055871D01*
X0102521Y0055871D01*
X0103062Y0055330D01*
X0103062Y0054248D01*
X0102521Y0053707D01*
X0102521Y0052608D02*
X0103062Y0052067D01*
X0103062Y0050985D01*
X0102521Y0050444D01*
X0103062Y0049346D02*
X0101980Y0048264D01*
X0101980Y0048805D02*
X0101980Y0047182D01*
X0103062Y0047182D02*
X0099816Y0047182D01*
X0099816Y0048805D01*
X0100357Y0049346D01*
X0101439Y0049346D01*
X0101980Y0048805D01*
X0100357Y0050444D02*
X0099816Y0050985D01*
X0099816Y0052067D01*
X0100357Y0052608D01*
X0100898Y0052608D01*
X0101439Y0052067D01*
X0101980Y0052608D01*
X0102521Y0052608D01*
X0101439Y0052067D02*
X0101439Y0051526D01*
X0109659Y0051674D02*
X0110200Y0052215D01*
X0110741Y0052215D01*
X0111282Y0051674D01*
X0111823Y0052215D01*
X0112364Y0052215D01*
X0112905Y0051674D01*
X0112905Y0050592D01*
X0112364Y0050051D01*
X0112905Y0048952D02*
X0111823Y0047870D01*
X0111823Y0048411D02*
X0111823Y0046788D01*
X0112905Y0046788D02*
X0109659Y0046788D01*
X0109659Y0048411D01*
X0110200Y0048952D01*
X0111282Y0048952D01*
X0111823Y0048411D01*
X0110200Y0050051D02*
X0109659Y0050592D01*
X0109659Y0051674D01*
X0111282Y0051674D02*
X0111282Y0051133D01*
X0110741Y0053313D02*
X0109659Y0054395D01*
X0112905Y0054395D01*
X0112905Y0053313D02*
X0112905Y0055477D01*
X0134068Y0061109D02*
X0134609Y0060568D01*
X0136773Y0060568D01*
X0137314Y0061109D01*
X0137314Y0062191D01*
X0136773Y0062732D01*
X0136773Y0063830D02*
X0137314Y0064371D01*
X0137314Y0065453D01*
X0136773Y0065994D01*
X0136232Y0065994D01*
X0135691Y0065453D01*
X0135691Y0064912D01*
X0135691Y0065453D02*
X0135150Y0065994D01*
X0134609Y0065994D01*
X0134068Y0065453D01*
X0134068Y0064371D01*
X0134609Y0063830D01*
X0134609Y0062732D02*
X0134068Y0062191D01*
X0134068Y0061109D01*
X0135691Y0067093D02*
X0135691Y0069257D01*
X0134068Y0068716D02*
X0135691Y0067093D01*
X0137314Y0068716D02*
X0134068Y0068716D01*
X0133282Y0078623D02*
X0132200Y0078623D01*
X0131659Y0079164D01*
X0130561Y0078623D02*
X0128397Y0078623D01*
X0129479Y0078623D02*
X0129479Y0081869D01*
X0128397Y0080787D01*
X0127298Y0080246D02*
X0126757Y0079705D01*
X0125134Y0079705D01*
X0125134Y0078623D02*
X0125134Y0081869D01*
X0126757Y0081869D01*
X0127298Y0081328D01*
X0127298Y0080246D01*
X0126216Y0079705D02*
X0127298Y0078623D01*
X0131659Y0081328D02*
X0132200Y0081869D01*
X0133282Y0081869D01*
X0133823Y0081328D01*
X0133823Y0080787D01*
X0133282Y0080246D01*
X0133823Y0079705D01*
X0133823Y0079164D01*
X0133282Y0078623D01*
X0133282Y0080246D02*
X0132741Y0080246D01*
X0119906Y0078022D02*
X0117742Y0078022D01*
X0119365Y0079645D01*
X0119365Y0076399D01*
X0116643Y0076940D02*
X0116643Y0077481D01*
X0116102Y0078022D01*
X0115020Y0078022D01*
X0114479Y0078563D01*
X0114479Y0079104D01*
X0115020Y0079645D01*
X0116102Y0079645D01*
X0116643Y0079104D01*
X0116643Y0078563D01*
X0116102Y0078022D01*
X0115020Y0078022D02*
X0114479Y0077481D01*
X0114479Y0076940D01*
X0115020Y0076399D01*
X0116102Y0076399D01*
X0116643Y0076940D01*
X0113381Y0076940D02*
X0112840Y0076399D01*
X0111758Y0076399D01*
X0111217Y0076940D01*
X0111217Y0079104D01*
X0111758Y0079645D01*
X0112840Y0079645D01*
X0113381Y0079104D01*
X0109670Y0079645D02*
X0108588Y0079104D01*
X0107506Y0078022D01*
X0109129Y0078022D01*
X0109670Y0077481D01*
X0109670Y0076940D01*
X0109129Y0076399D01*
X0108047Y0076399D01*
X0107506Y0076940D01*
X0107506Y0078022D01*
X0106407Y0078563D02*
X0105866Y0078022D01*
X0104784Y0078022D01*
X0104243Y0078563D01*
X0104243Y0079104D01*
X0104784Y0079645D01*
X0105866Y0079645D01*
X0106407Y0079104D01*
X0106407Y0078563D01*
X0105866Y0078022D02*
X0106407Y0077481D01*
X0106407Y0076940D01*
X0105866Y0076399D01*
X0104784Y0076399D01*
X0104243Y0076940D01*
X0104243Y0077481D01*
X0104784Y0078022D01*
X0103144Y0079104D02*
X0102603Y0079645D01*
X0101521Y0079645D01*
X0100980Y0079104D01*
X0100980Y0076940D01*
X0101521Y0076399D01*
X0102603Y0076399D01*
X0103144Y0076940D01*
X0099433Y0076940D02*
X0099433Y0077481D01*
X0098892Y0078022D01*
X0097810Y0078022D01*
X0097269Y0078563D01*
X0097269Y0079104D01*
X0097810Y0079645D01*
X0098892Y0079645D01*
X0099433Y0079104D01*
X0099433Y0078563D01*
X0098892Y0078022D01*
X0097810Y0078022D02*
X0097269Y0077481D01*
X0097269Y0076940D01*
X0097810Y0076399D01*
X0098892Y0076399D01*
X0099433Y0076940D01*
X0096171Y0076940D02*
X0096171Y0077481D01*
X0095630Y0078022D01*
X0094548Y0078022D01*
X0094007Y0078563D01*
X0094007Y0079104D01*
X0094548Y0079645D01*
X0095630Y0079645D01*
X0096171Y0079104D01*
X0096171Y0078563D01*
X0095630Y0078022D01*
X0094548Y0078022D02*
X0094007Y0077481D01*
X0094007Y0076940D01*
X0094548Y0076399D01*
X0095630Y0076399D01*
X0096171Y0076940D01*
X0092908Y0076940D02*
X0092367Y0076399D01*
X0091285Y0076399D01*
X0090744Y0076940D01*
X0090744Y0079104D01*
X0091285Y0079645D01*
X0092367Y0079645D01*
X0092908Y0079104D01*
X0088804Y0079104D02*
X0088804Y0076940D01*
X0088263Y0076399D01*
X0087180Y0076399D01*
X0086639Y0076940D01*
X0088804Y0079104D01*
X0088263Y0079645D01*
X0087180Y0079645D01*
X0086639Y0079104D01*
X0086639Y0076940D01*
X0085541Y0076940D02*
X0085541Y0079104D01*
X0085000Y0079645D01*
X0083918Y0079645D01*
X0083377Y0079104D01*
X0083377Y0078563D01*
X0083918Y0078022D01*
X0085541Y0078022D01*
X0085541Y0076940D02*
X0085000Y0076399D01*
X0083918Y0076399D01*
X0083377Y0076940D01*
X0082278Y0076940D02*
X0081737Y0076399D01*
X0080655Y0076399D01*
X0080114Y0076940D01*
X0080114Y0079104D01*
X0080655Y0079645D01*
X0081737Y0079645D01*
X0082278Y0079104D01*
X0119913Y0097796D02*
X0119913Y0101042D01*
X0121536Y0101042D01*
X0122077Y0100501D01*
X0122077Y0099419D01*
X0121536Y0098878D01*
X0119913Y0098878D01*
X0120995Y0098878D02*
X0122077Y0097796D01*
X0123176Y0097796D02*
X0125340Y0097796D01*
X0124258Y0097796D02*
X0124258Y0101042D01*
X0123176Y0099960D01*
X0126438Y0099960D02*
X0126979Y0099419D01*
X0128061Y0099419D01*
X0128602Y0098878D01*
X0128602Y0098337D01*
X0128061Y0097796D01*
X0126979Y0097796D01*
X0126438Y0098337D01*
X0126438Y0098878D01*
X0126979Y0099419D01*
X0126438Y0099960D02*
X0126438Y0100501D01*
X0126979Y0101042D01*
X0128061Y0101042D01*
X0128602Y0100501D01*
X0128602Y0099960D01*
X0128061Y0099419D01*
X0128588Y0107816D02*
X0126965Y0107816D01*
X0126965Y0111062D01*
X0128588Y0111062D01*
X0129129Y0110521D01*
X0129129Y0108357D01*
X0128588Y0107816D01*
X0130227Y0108357D02*
X0130768Y0107816D01*
X0131850Y0107816D01*
X0132391Y0108357D01*
X0132391Y0108898D01*
X0131850Y0109439D01*
X0130768Y0109439D01*
X0130227Y0109980D01*
X0130227Y0110521D01*
X0130768Y0111062D01*
X0131850Y0111062D01*
X0132391Y0110521D01*
X0133490Y0111062D02*
X0135113Y0111062D01*
X0135654Y0110521D01*
X0135654Y0109439D01*
X0135113Y0108898D01*
X0133490Y0108898D01*
X0133490Y0107816D02*
X0133490Y0111062D01*
X0154809Y0083838D02*
X0154268Y0083297D01*
X0154268Y0081133D01*
X0154809Y0080592D01*
X0155891Y0080592D01*
X0156432Y0081133D01*
X0157530Y0081133D02*
X0158071Y0080592D01*
X0159153Y0080592D01*
X0159694Y0081133D01*
X0159694Y0081674D01*
X0159153Y0082215D01*
X0158612Y0082215D01*
X0159153Y0082215D02*
X0159694Y0082756D01*
X0159694Y0083297D01*
X0159153Y0083838D01*
X0158071Y0083838D01*
X0157530Y0083297D01*
X0156432Y0083297D02*
X0155891Y0083838D01*
X0154809Y0083838D01*
X0160793Y0083838D02*
X0160793Y0082215D01*
X0161875Y0082756D01*
X0162416Y0082756D01*
X0162957Y0082215D01*
X0162957Y0081133D01*
X0162416Y0080592D01*
X0161334Y0080592D01*
X0160793Y0081133D01*
X0160793Y0083838D02*
X0162957Y0083838D01*
X0175407Y0071865D02*
X0175948Y0072406D01*
X0178112Y0070242D01*
X0178653Y0070783D01*
X0178653Y0071865D01*
X0178112Y0072406D01*
X0175948Y0072406D01*
X0175407Y0071865D02*
X0175407Y0070783D01*
X0175948Y0070242D01*
X0178112Y0070242D01*
X0178653Y0069144D02*
X0178653Y0066980D01*
X0178653Y0068062D02*
X0175407Y0068062D01*
X0176489Y0066980D01*
X0177030Y0065881D02*
X0177571Y0065340D01*
X0177571Y0063717D01*
X0178653Y0063717D02*
X0175407Y0063717D01*
X0175407Y0065340D01*
X0175948Y0065881D01*
X0177030Y0065881D01*
X0177571Y0064799D02*
X0178653Y0065881D01*
X0163744Y0064399D02*
X0163203Y0064940D01*
X0162121Y0064940D01*
X0161580Y0064399D01*
X0163744Y0064399D02*
X0163744Y0063858D01*
X0161580Y0061694D01*
X0163744Y0061694D01*
X0160482Y0061694D02*
X0158318Y0061694D01*
X0159400Y0061694D02*
X0159400Y0064940D01*
X0158318Y0063858D01*
X0157219Y0064399D02*
X0157219Y0063317D01*
X0156678Y0062776D01*
X0155055Y0062776D01*
X0155055Y0061694D02*
X0155055Y0064940D01*
X0156678Y0064940D01*
X0157219Y0064399D01*
X0156137Y0062776D02*
X0157219Y0061694D01*
X0149913Y0062142D02*
X0146667Y0062142D01*
X0146667Y0063765D01*
X0147208Y0064306D01*
X0148290Y0064306D01*
X0148831Y0063765D01*
X0148831Y0062142D01*
X0148831Y0063224D02*
X0149913Y0064306D01*
X0149913Y0065405D02*
X0149913Y0067569D01*
X0149913Y0066487D02*
X0146667Y0066487D01*
X0147749Y0065405D01*
X0147749Y0068668D02*
X0146667Y0069750D01*
X0149913Y0069750D01*
X0149913Y0068668D02*
X0149913Y0070832D01*
X0145168Y0044448D02*
X0145709Y0043907D01*
X0145709Y0043366D01*
X0145168Y0042825D01*
X0144086Y0042825D01*
X0143545Y0043366D01*
X0143545Y0043907D01*
X0144086Y0044448D01*
X0145168Y0044448D01*
X0145168Y0042825D02*
X0145709Y0042284D01*
X0145709Y0041743D01*
X0145168Y0041202D01*
X0144086Y0041202D01*
X0143545Y0041743D01*
X0143545Y0042284D01*
X0144086Y0042825D01*
X0142446Y0043366D02*
X0141905Y0042825D01*
X0142446Y0042284D01*
X0142446Y0041743D01*
X0141905Y0041202D01*
X0140823Y0041202D01*
X0140282Y0041743D01*
X0139183Y0041743D02*
X0138642Y0041202D01*
X0137560Y0041202D01*
X0137019Y0041743D01*
X0137019Y0043907D01*
X0137560Y0044448D01*
X0138642Y0044448D01*
X0139183Y0043907D01*
X0140282Y0043907D02*
X0140823Y0044448D01*
X0141905Y0044448D01*
X0142446Y0043907D01*
X0142446Y0043366D01*
X0141905Y0042825D02*
X0141364Y0042825D01*
X0129311Y0032608D02*
X0128770Y0033149D01*
X0127688Y0033149D01*
X0127147Y0032608D01*
X0129311Y0032608D02*
X0129311Y0032067D01*
X0127147Y0029903D01*
X0129311Y0029903D01*
X0126048Y0029903D02*
X0123884Y0029903D01*
X0123884Y0033149D01*
X0117618Y0033514D02*
X0117618Y0032432D01*
X0117077Y0031891D01*
X0115995Y0031891D01*
X0115454Y0032432D01*
X0115454Y0033514D02*
X0116536Y0034055D01*
X0117077Y0034055D01*
X0117618Y0033514D01*
X0117618Y0035137D02*
X0115454Y0035137D01*
X0115454Y0033514D01*
X0114355Y0034055D02*
X0113814Y0033514D01*
X0112732Y0033514D01*
X0112191Y0034055D01*
X0112191Y0034596D01*
X0112732Y0035137D01*
X0113814Y0035137D01*
X0114355Y0034596D01*
X0114355Y0034055D01*
X0113814Y0033514D02*
X0114355Y0032973D01*
X0114355Y0032432D01*
X0113814Y0031891D01*
X0112732Y0031891D01*
X0112191Y0032432D01*
X0112191Y0032973D01*
X0112732Y0033514D01*
X0111093Y0034596D02*
X0110552Y0035137D01*
X0109470Y0035137D01*
X0108929Y0034596D01*
X0108929Y0032432D01*
X0109470Y0031891D01*
X0110552Y0031891D01*
X0111093Y0032432D01*
X0107382Y0034596D02*
X0105218Y0032432D01*
X0105218Y0031891D01*
X0104119Y0032432D02*
X0103578Y0031891D01*
X0102496Y0031891D01*
X0101955Y0032432D01*
X0101955Y0032973D01*
X0102496Y0033514D01*
X0103578Y0033514D01*
X0104119Y0032973D01*
X0104119Y0032432D01*
X0103578Y0033514D02*
X0104119Y0034055D01*
X0104119Y0034596D01*
X0103578Y0035137D01*
X0102496Y0035137D01*
X0101955Y0034596D01*
X0101955Y0034055D01*
X0102496Y0033514D01*
X0100857Y0034596D02*
X0100316Y0035137D01*
X0099234Y0035137D01*
X0098692Y0034596D01*
X0098692Y0032432D01*
X0099234Y0031891D01*
X0100316Y0031891D01*
X0100857Y0032432D01*
X0097146Y0032432D02*
X0097146Y0034596D01*
X0096605Y0035137D01*
X0095523Y0035137D01*
X0094982Y0034596D01*
X0094982Y0034055D01*
X0095523Y0033514D01*
X0097146Y0033514D01*
X0097146Y0032432D02*
X0096605Y0031891D01*
X0095523Y0031891D01*
X0094982Y0032432D01*
X0093883Y0032432D02*
X0093342Y0031891D01*
X0092260Y0031891D01*
X0091719Y0032432D01*
X0091719Y0032973D01*
X0092260Y0033514D01*
X0093342Y0033514D01*
X0093883Y0032973D01*
X0093883Y0032432D01*
X0093342Y0033514D02*
X0093883Y0034055D01*
X0093883Y0034596D01*
X0093342Y0035137D01*
X0092260Y0035137D01*
X0091719Y0034596D01*
X0091719Y0034055D01*
X0092260Y0033514D01*
X0090620Y0034596D02*
X0090079Y0035137D01*
X0088997Y0035137D01*
X0088456Y0034596D01*
X0088456Y0032432D01*
X0088997Y0031891D01*
X0090079Y0031891D01*
X0090620Y0032432D01*
X0086909Y0031891D02*
X0084745Y0031891D01*
X0085827Y0031891D02*
X0085827Y0035137D01*
X0084745Y0034055D01*
X0083647Y0034596D02*
X0083106Y0035137D01*
X0082024Y0035137D01*
X0081483Y0034596D01*
X0081483Y0034055D01*
X0082024Y0033514D01*
X0083647Y0033514D01*
X0083647Y0032432D02*
X0083647Y0034596D01*
X0083647Y0032432D02*
X0083106Y0031891D01*
X0082024Y0031891D01*
X0081483Y0032432D01*
X0080384Y0032432D02*
X0079843Y0031891D01*
X0078761Y0031891D01*
X0078220Y0032432D01*
X0078220Y0034596D01*
X0078761Y0035137D01*
X0079843Y0035137D01*
X0080384Y0034596D01*
X0105218Y0035137D02*
X0107382Y0035137D01*
X0107382Y0034596D01*
X0153806Y0032755D02*
X0153806Y0029509D01*
X0155970Y0029509D01*
X0157068Y0029509D02*
X0159232Y0029509D01*
X0158150Y0029509D02*
X0158150Y0032755D01*
X0157068Y0031673D01*
X0165907Y0040808D02*
X0166989Y0040808D01*
X0167530Y0041349D01*
X0168628Y0041349D02*
X0169169Y0040808D01*
X0170251Y0040808D01*
X0170792Y0041349D01*
X0170792Y0041890D01*
X0170251Y0042431D01*
X0169710Y0042431D01*
X0170251Y0042431D02*
X0170792Y0042972D01*
X0170792Y0043513D01*
X0170251Y0044054D01*
X0169169Y0044054D01*
X0168628Y0043513D01*
X0167530Y0043513D02*
X0166989Y0044054D01*
X0165907Y0044054D01*
X0165366Y0043513D01*
X0165366Y0041349D01*
X0165907Y0040808D01*
X0171891Y0041349D02*
X0172432Y0040808D01*
X0173514Y0040808D01*
X0174055Y0041349D01*
X0174055Y0041890D01*
X0173514Y0042431D01*
X0171891Y0042431D01*
X0171891Y0041349D01*
X0171891Y0042431D02*
X0172973Y0043513D01*
X0174055Y0044054D01*
X0220347Y0055257D02*
X0222511Y0055257D01*
X0223593Y0056339D01*
X0222511Y0057421D01*
X0220347Y0057421D01*
X0220347Y0058520D02*
X0220347Y0059602D01*
X0220347Y0059061D02*
X0223593Y0059061D01*
X0223593Y0058520D02*
X0223593Y0059602D01*
X0223593Y0060695D02*
X0220347Y0060695D01*
X0223593Y0062859D01*
X0220347Y0062859D01*
X0220347Y0063957D02*
X0220347Y0065580D01*
X0220888Y0066121D01*
X0221970Y0066121D01*
X0222511Y0065580D01*
X0222511Y0063957D01*
X0222511Y0065039D02*
X0223593Y0066121D01*
X0223593Y0063957D02*
X0220347Y0063957D01*
X0241276Y0068534D02*
X0241817Y0067993D01*
X0242899Y0067993D01*
X0243440Y0068534D01*
X0244538Y0067993D02*
X0246702Y0067993D01*
X0245620Y0067993D02*
X0245620Y0071239D01*
X0244538Y0070157D01*
X0243440Y0070698D02*
X0242899Y0071239D01*
X0241817Y0071239D01*
X0241276Y0070698D01*
X0241276Y0068534D01*
X0247801Y0069616D02*
X0249965Y0069616D01*
X0249424Y0067993D02*
X0249424Y0071239D01*
X0247801Y0069616D01*
X0245817Y0075985D02*
X0244735Y0075985D01*
X0244194Y0076526D01*
X0244194Y0077608D02*
X0245276Y0078149D01*
X0245817Y0078149D01*
X0246358Y0077608D01*
X0246358Y0076526D01*
X0245817Y0075985D01*
X0244194Y0077608D02*
X0244194Y0079231D01*
X0246358Y0079231D01*
X0243096Y0078690D02*
X0243096Y0077608D01*
X0242555Y0077067D01*
X0240931Y0077067D01*
X0240931Y0075985D02*
X0240931Y0079231D01*
X0242555Y0079231D01*
X0243096Y0078690D01*
X0242014Y0077067D02*
X0243096Y0075985D01*
X0242589Y0085434D02*
X0241507Y0086516D01*
X0242048Y0086516D02*
X0240425Y0086516D01*
X0240425Y0085434D02*
X0240425Y0088680D01*
X0242048Y0088680D01*
X0242589Y0088139D01*
X0242589Y0087057D01*
X0242048Y0086516D01*
X0243687Y0085434D02*
X0245851Y0085434D01*
X0244769Y0085434D02*
X0244769Y0088680D01*
X0243687Y0087598D01*
X0246950Y0087057D02*
X0249114Y0087057D01*
X0248573Y0085434D02*
X0248573Y0088680D01*
X0246950Y0087057D01*
X0247491Y0094489D02*
X0246950Y0095030D01*
X0247491Y0094489D02*
X0248573Y0094489D01*
X0249114Y0095030D01*
X0249114Y0095571D01*
X0248573Y0096112D01*
X0248032Y0096112D01*
X0248573Y0096112D02*
X0249114Y0096653D01*
X0249114Y0097194D01*
X0248573Y0097735D01*
X0247491Y0097735D01*
X0246950Y0097194D01*
X0244769Y0097735D02*
X0244769Y0094489D01*
X0243687Y0094489D02*
X0245851Y0094489D01*
X0243687Y0096653D02*
X0244769Y0097735D01*
X0242589Y0097194D02*
X0242048Y0097735D01*
X0240966Y0097735D01*
X0240425Y0097194D01*
X0240425Y0095030D01*
X0240966Y0094489D01*
X0242048Y0094489D01*
X0242589Y0095030D01*
X0224381Y0103189D02*
X0223299Y0104271D01*
X0221135Y0104271D01*
X0221135Y0105370D02*
X0221135Y0106452D01*
X0221135Y0105911D02*
X0224381Y0105911D01*
X0224381Y0105370D02*
X0224381Y0106452D01*
X0224381Y0107545D02*
X0221135Y0107545D01*
X0224381Y0109709D01*
X0221135Y0109709D01*
X0221135Y0110808D02*
X0224381Y0110808D01*
X0224381Y0112972D01*
X0224592Y0119686D02*
X0223510Y0120768D01*
X0224051Y0120768D02*
X0222428Y0120768D01*
X0222428Y0119686D02*
X0222428Y0122932D01*
X0224051Y0122932D01*
X0224592Y0122391D01*
X0224592Y0121309D01*
X0224051Y0120768D01*
X0225690Y0120227D02*
X0226231Y0119686D01*
X0227313Y0119686D01*
X0227854Y0120227D01*
X0227854Y0122391D01*
X0227313Y0122932D01*
X0226231Y0122932D01*
X0225690Y0122391D01*
X0225690Y0121850D01*
X0226231Y0121309D01*
X0227854Y0121309D01*
X0221082Y0123170D02*
X0218917Y0123170D01*
X0218917Y0126416D01*
X0221082Y0126416D01*
X0219999Y0124793D02*
X0218917Y0124793D01*
X0217819Y0126416D02*
X0215655Y0126416D01*
X0216737Y0126416D02*
X0216737Y0123170D01*
X0214556Y0123711D02*
X0214556Y0126416D01*
X0212392Y0126416D02*
X0212392Y0123711D01*
X0212933Y0123170D01*
X0214015Y0123170D01*
X0214556Y0123711D01*
X0211294Y0123170D02*
X0211294Y0126416D01*
X0210212Y0125334D01*
X0209130Y0126416D01*
X0209130Y0123170D01*
X0209105Y0132560D02*
X0211269Y0132560D01*
X0210187Y0132560D02*
X0210187Y0135806D01*
X0209105Y0134724D01*
X0208007Y0135265D02*
X0207466Y0135806D01*
X0206384Y0135806D01*
X0205843Y0135265D01*
X0205843Y0133101D01*
X0206384Y0132560D01*
X0207466Y0132560D01*
X0208007Y0133101D01*
X0212368Y0133101D02*
X0212909Y0132560D01*
X0213991Y0132560D01*
X0214532Y0133101D01*
X0214532Y0134183D01*
X0213991Y0134724D01*
X0213450Y0134724D01*
X0212368Y0134183D01*
X0212368Y0135806D01*
X0214532Y0135806D01*
X0214924Y0147575D02*
X0217088Y0147575D01*
X0217629Y0148116D01*
X0217629Y0149198D01*
X0217088Y0149739D01*
X0217629Y0150838D02*
X0217629Y0153002D01*
X0217629Y0151920D02*
X0214383Y0151920D01*
X0215465Y0150838D01*
X0214924Y0149739D02*
X0214383Y0149198D01*
X0214383Y0148116D01*
X0214924Y0147575D01*
X0214924Y0154101D02*
X0215465Y0154101D01*
X0216006Y0154642D01*
X0216006Y0155724D01*
X0216547Y0156265D01*
X0217088Y0156265D01*
X0217629Y0155724D01*
X0217629Y0154642D01*
X0217088Y0154101D01*
X0216547Y0154101D01*
X0216006Y0154642D01*
X0216006Y0155724D02*
X0215465Y0156265D01*
X0214924Y0156265D01*
X0214383Y0155724D01*
X0214383Y0154642D01*
X0214924Y0154101D01*
X0202510Y0168111D02*
X0202510Y0171357D01*
X0200887Y0169734D01*
X0203051Y0169734D01*
X0199788Y0169734D02*
X0199788Y0170816D01*
X0199247Y0171357D01*
X0197624Y0171357D01*
X0197624Y0168111D01*
X0197624Y0169193D02*
X0199247Y0169193D01*
X0199788Y0169734D01*
X0198706Y0169193D02*
X0199788Y0168111D01*
X0185965Y0153109D02*
X0185965Y0149863D01*
X0184883Y0149863D02*
X0187047Y0149863D01*
X0184883Y0152027D02*
X0185965Y0153109D01*
X0183785Y0152568D02*
X0183244Y0153109D01*
X0182161Y0153109D01*
X0181620Y0152568D01*
X0181620Y0150404D01*
X0182161Y0149863D01*
X0183244Y0149863D01*
X0183785Y0150404D01*
X0176881Y0154282D02*
X0173635Y0154282D01*
X0173635Y0153200D02*
X0173635Y0155364D01*
X0174717Y0156463D02*
X0173635Y0157545D01*
X0176881Y0157545D01*
X0176881Y0156463D02*
X0176881Y0158627D01*
X0163681Y0159203D02*
X0163140Y0158662D01*
X0162058Y0158662D01*
X0161517Y0159203D01*
X0161517Y0160286D01*
X0163140Y0160286D01*
X0163681Y0159745D01*
X0163681Y0159203D01*
X0161517Y0160286D02*
X0162599Y0161368D01*
X0163681Y0161909D01*
X0159336Y0161909D02*
X0159336Y0158662D01*
X0158254Y0158662D02*
X0160418Y0158662D01*
X0158254Y0160827D02*
X0159336Y0161909D01*
X0157156Y0161368D02*
X0157156Y0160286D01*
X0156615Y0159745D01*
X0154992Y0159745D01*
X0156074Y0159745D02*
X0157156Y0158662D01*
X0154992Y0158662D02*
X0154992Y0161909D01*
X0156615Y0161909D01*
X0157156Y0161368D01*
X0145177Y0157037D02*
X0145177Y0156496D01*
X0144636Y0155955D01*
X0143554Y0155955D01*
X0143013Y0156496D01*
X0143013Y0157037D01*
X0143554Y0157578D01*
X0144636Y0157578D01*
X0145177Y0157037D01*
X0144636Y0155955D02*
X0145177Y0155414D01*
X0145177Y0154873D01*
X0144636Y0154332D01*
X0143554Y0154332D01*
X0143013Y0154873D01*
X0143013Y0155414D01*
X0143554Y0155955D01*
X0141914Y0155955D02*
X0141914Y0157037D01*
X0141373Y0157578D01*
X0139750Y0157578D01*
X0139750Y0154332D01*
X0139750Y0155414D02*
X0141373Y0155414D01*
X0141914Y0155955D01*
X0140832Y0155414D02*
X0141914Y0154332D01*
X0137647Y0155148D02*
X0137647Y0157312D01*
X0137106Y0157853D01*
X0136024Y0157853D01*
X0135483Y0157312D01*
X0135483Y0156771D01*
X0136024Y0156230D01*
X0137647Y0156230D01*
X0137647Y0155148D02*
X0137106Y0154607D01*
X0136024Y0154607D01*
X0135483Y0155148D01*
X0134385Y0155148D02*
X0133844Y0154607D01*
X0132762Y0154607D01*
X0132221Y0155148D01*
X0132221Y0157312D01*
X0132762Y0157853D01*
X0133844Y0157853D01*
X0134385Y0157312D01*
X0128248Y0156643D02*
X0128248Y0156102D01*
X0127707Y0155561D01*
X0126625Y0155561D01*
X0126084Y0156102D01*
X0126084Y0156643D01*
X0126625Y0157184D01*
X0127707Y0157184D01*
X0128248Y0156643D01*
X0127707Y0155561D02*
X0128248Y0155020D01*
X0128248Y0154479D01*
X0127707Y0153938D01*
X0126625Y0153938D01*
X0126084Y0154479D01*
X0126084Y0155020D01*
X0126625Y0155561D01*
X0124985Y0154479D02*
X0124444Y0153938D01*
X0123362Y0153938D01*
X0122821Y0154479D01*
X0122821Y0156643D01*
X0123362Y0157184D01*
X0124444Y0157184D01*
X0124985Y0156643D01*
X0140488Y0188859D02*
X0140488Y0192105D01*
X0142111Y0192105D01*
X0142652Y0191564D01*
X0142652Y0190482D01*
X0142111Y0189941D01*
X0140488Y0189941D01*
X0141570Y0189941D02*
X0142652Y0188859D01*
X0143751Y0189400D02*
X0144292Y0188859D01*
X0145374Y0188859D01*
X0145915Y0189400D01*
X0145915Y0189941D01*
X0145374Y0190482D01*
X0143751Y0190482D01*
X0143751Y0189400D01*
X0143751Y0190482D02*
X0144833Y0191564D01*
X0145915Y0192105D01*
X0149150Y0192105D02*
X0149150Y0188859D01*
X0149150Y0189941D02*
X0150773Y0189941D01*
X0151314Y0190482D01*
X0151314Y0191564D01*
X0150773Y0192105D01*
X0149150Y0192105D01*
X0150232Y0189941D02*
X0151314Y0188859D01*
X0152412Y0188859D02*
X0152412Y0189400D01*
X0154576Y0191564D01*
X0154576Y0192105D01*
X0152412Y0192105D01*
X0156236Y0191564D02*
X0156236Y0189400D01*
X0156777Y0188859D01*
X0157859Y0188859D01*
X0158400Y0189400D01*
X0159499Y0189400D02*
X0160040Y0188859D01*
X0161122Y0188859D01*
X0161663Y0189400D01*
X0161663Y0189941D01*
X0161122Y0190482D01*
X0160581Y0190482D01*
X0161122Y0190482D02*
X0161663Y0191023D01*
X0161663Y0191564D01*
X0161122Y0192105D01*
X0160040Y0192105D01*
X0159499Y0191564D01*
X0158400Y0191564D02*
X0157859Y0192105D01*
X0156777Y0192105D01*
X0156236Y0191564D01*
X0162762Y0192105D02*
X0164926Y0192105D01*
X0164926Y0191564D01*
X0162762Y0189400D01*
X0162762Y0188859D01*
X0165232Y0191596D02*
X0166314Y0191596D01*
X0166855Y0192137D01*
X0167954Y0192137D02*
X0168495Y0191596D01*
X0169577Y0191596D01*
X0170118Y0192137D01*
X0170118Y0192678D01*
X0169577Y0193219D01*
X0167954Y0193219D01*
X0167954Y0192137D01*
X0167954Y0193219D02*
X0169036Y0194301D01*
X0170118Y0194842D01*
X0170878Y0193907D02*
X0170878Y0191743D01*
X0171419Y0191202D01*
X0172501Y0191202D01*
X0173042Y0191743D01*
X0174140Y0192825D02*
X0176304Y0192825D01*
X0177403Y0193907D02*
X0177944Y0194448D01*
X0179026Y0194448D01*
X0179567Y0193907D01*
X0177403Y0191743D01*
X0177944Y0191202D01*
X0179026Y0191202D01*
X0179567Y0191743D01*
X0179567Y0193907D01*
X0177403Y0193907D02*
X0177403Y0191743D01*
X0175763Y0191202D02*
X0175763Y0194448D01*
X0174140Y0192825D01*
X0173042Y0193907D02*
X0172501Y0194448D01*
X0171419Y0194448D01*
X0170878Y0193907D01*
X0166855Y0194301D02*
X0166314Y0194842D01*
X0165232Y0194842D01*
X0164691Y0194301D01*
X0164691Y0192137D01*
X0165232Y0191596D01*
X0182157Y0191682D02*
X0182157Y0189518D01*
X0182698Y0188977D01*
X0183780Y0188977D01*
X0184321Y0189518D01*
X0185420Y0190600D02*
X0187584Y0190600D01*
X0188682Y0191141D02*
X0189764Y0192224D01*
X0189764Y0188977D01*
X0188682Y0188977D02*
X0190846Y0188977D01*
X0187043Y0188977D02*
X0187043Y0192224D01*
X0185420Y0190600D01*
X0184321Y0191682D02*
X0183780Y0192224D01*
X0182698Y0192224D01*
X0182157Y0191682D01*
X0191029Y0136594D02*
X0190488Y0136053D01*
X0190488Y0133889D01*
X0191029Y0133348D01*
X0192111Y0133348D01*
X0192652Y0133889D01*
X0193751Y0133889D02*
X0193751Y0133348D01*
X0193751Y0133889D02*
X0195915Y0136053D01*
X0195915Y0136594D01*
X0193751Y0136594D01*
X0192652Y0136053D02*
X0192111Y0136594D01*
X0191029Y0136594D01*
X0224381Y0103189D02*
X0223299Y0102107D01*
X0221135Y0102107D01*
X0241276Y0120503D02*
X0241817Y0119962D01*
X0242899Y0119962D01*
X0243440Y0120503D01*
X0244538Y0119962D02*
X0246702Y0122126D01*
X0246702Y0122667D01*
X0246161Y0123208D01*
X0245079Y0123208D01*
X0244538Y0122667D01*
X0243440Y0122667D02*
X0242899Y0123208D01*
X0241817Y0123208D01*
X0241276Y0122667D01*
X0241276Y0120503D01*
X0244538Y0119962D02*
X0246702Y0119962D01*
X0247801Y0121585D02*
X0249965Y0121585D01*
X0249424Y0123208D02*
X0247801Y0121585D01*
X0249424Y0119962D02*
X0249424Y0123208D01*
X0270800Y0142274D02*
X0271341Y0141733D01*
X0273506Y0141733D01*
X0274047Y0142274D01*
X0274047Y0143356D01*
X0273506Y0143897D01*
X0274047Y0144996D02*
X0271882Y0147160D01*
X0271341Y0147160D01*
X0270800Y0146619D01*
X0270800Y0145537D01*
X0271341Y0144996D01*
X0271341Y0143897D02*
X0270800Y0143356D01*
X0270800Y0142274D01*
X0274047Y0144996D02*
X0274047Y0147160D01*
X0273506Y0148259D02*
X0274047Y0148800D01*
X0274047Y0149882D01*
X0273506Y0150423D01*
X0272964Y0150423D01*
X0272423Y0149882D01*
X0272423Y0149341D01*
X0272423Y0149882D02*
X0271882Y0150423D01*
X0271341Y0150423D01*
X0270800Y0149882D01*
X0270800Y0148800D01*
X0271341Y0148259D01*
X0272404Y0153481D02*
X0274569Y0153481D01*
X0275110Y0154022D01*
X0275110Y0155104D01*
X0274569Y0155645D01*
X0275110Y0156744D02*
X0275110Y0158908D01*
X0275110Y0157826D02*
X0271863Y0157826D01*
X0272945Y0156744D01*
X0272404Y0155645D02*
X0271863Y0155104D01*
X0271863Y0154022D01*
X0272404Y0153481D01*
X0271863Y0160006D02*
X0271863Y0162170D01*
X0272404Y0162170D01*
X0274569Y0160006D01*
X0275110Y0160006D01*
X0275758Y0175926D02*
X0275217Y0176467D01*
X0275758Y0175926D02*
X0276840Y0175926D01*
X0277381Y0176467D01*
X0277381Y0177008D01*
X0276840Y0177549D01*
X0276299Y0177549D01*
X0276840Y0177549D02*
X0277381Y0178090D01*
X0277381Y0178631D01*
X0276840Y0179172D01*
X0275758Y0179172D01*
X0275217Y0178631D01*
X0274118Y0179172D02*
X0274118Y0177008D01*
X0273036Y0175926D01*
X0271954Y0177008D01*
X0271954Y0179172D01*
X0270855Y0178631D02*
X0270855Y0178090D01*
X0270314Y0177549D01*
X0270855Y0177008D01*
X0270855Y0176467D01*
X0270314Y0175926D01*
X0269232Y0175926D01*
X0268691Y0176467D01*
X0269773Y0177549D02*
X0270314Y0177549D01*
X0270855Y0178631D02*
X0270314Y0179172D01*
X0269232Y0179172D01*
X0268691Y0178631D01*
X0267593Y0177549D02*
X0265429Y0177549D01*
X0266511Y0178631D02*
X0266511Y0176467D01*
X0261487Y0181586D02*
X0258241Y0181586D01*
X0258241Y0183209D01*
X0258782Y0183750D01*
X0259864Y0183750D01*
X0260405Y0183209D01*
X0260405Y0181586D01*
X0260405Y0182668D02*
X0261487Y0183750D01*
X0261487Y0184849D02*
X0259323Y0187013D01*
X0258782Y0187013D01*
X0258241Y0186472D01*
X0258241Y0185390D01*
X0258782Y0184849D01*
X0261487Y0184849D02*
X0261487Y0187013D01*
X0052570Y0046039D02*
X0052570Y0044957D01*
X0052029Y0044416D01*
X0052029Y0043317D02*
X0052570Y0042776D01*
X0052570Y0041694D01*
X0052029Y0041153D01*
X0049865Y0041153D01*
X0049324Y0041694D01*
X0049324Y0042776D01*
X0049865Y0043317D01*
X0049865Y0044416D02*
X0049324Y0044957D01*
X0049324Y0046039D01*
X0049865Y0046580D01*
X0050406Y0046580D01*
X0050947Y0046039D01*
X0051488Y0046580D01*
X0052029Y0046580D01*
X0052570Y0046039D01*
X0050947Y0046039D02*
X0050947Y0045498D01*
X0036572Y0030551D02*
X0036572Y0027862D01*
X0035227Y0026517D01*
X0033882Y0027862D01*
X0033882Y0030551D01*
X0032584Y0030551D02*
X0029895Y0030551D01*
X0029895Y0028534D01*
X0031240Y0029206D01*
X0031912Y0029206D01*
X0032584Y0028534D01*
X0032584Y0027189D01*
X0031912Y0026517D01*
X0030567Y0026517D01*
X0029895Y0027189D01*
X0028597Y0028534D02*
X0025907Y0028534D01*
X0027252Y0029879D02*
X0027252Y0027189D01*
X0024508Y0139647D02*
X0023426Y0139647D01*
X0022885Y0140188D01*
X0021786Y0139647D02*
X0020704Y0140729D01*
X0021245Y0140729D02*
X0019622Y0140729D01*
X0019622Y0139647D02*
X0019622Y0142893D01*
X0021245Y0142893D01*
X0021786Y0142352D01*
X0021786Y0141270D01*
X0021245Y0140729D01*
X0022885Y0142352D02*
X0023426Y0142893D01*
X0024508Y0142893D01*
X0025049Y0142352D01*
X0025049Y0141811D01*
X0024508Y0141270D01*
X0025049Y0140729D01*
X0025049Y0140188D01*
X0024508Y0139647D01*
X0024508Y0141270D02*
X0023967Y0141270D01*
X0020739Y0164765D02*
X0017493Y0164765D01*
X0017493Y0166388D01*
X0018034Y0166929D01*
X0019116Y0166929D01*
X0019657Y0166388D01*
X0019657Y0164765D01*
X0019657Y0165847D02*
X0020739Y0166929D01*
X0020739Y0168027D02*
X0020739Y0170192D01*
X0020739Y0169109D02*
X0017493Y0169109D01*
X0018575Y0168027D01*
D12*
X0038201Y0158713D02*
X0038725Y0159238D01*
X0039774Y0159238D01*
X0040298Y0158713D01*
X0041464Y0158713D02*
X0041464Y0156092D01*
X0040298Y0156616D02*
X0039774Y0156092D01*
X0038725Y0156092D01*
X0038201Y0156616D01*
X0038201Y0157140D01*
X0038725Y0157665D01*
X0038201Y0158189D01*
X0038201Y0158713D01*
X0038725Y0157665D02*
X0039250Y0157665D01*
X0041464Y0158713D02*
X0041988Y0159238D01*
X0043037Y0159238D01*
X0043561Y0158713D01*
X0043561Y0156092D01*
X0046712Y0195071D02*
X0046188Y0195595D01*
X0046712Y0195071D02*
X0047761Y0195071D01*
X0048285Y0195595D01*
X0048285Y0196119D01*
X0047761Y0196644D01*
X0046712Y0196644D01*
X0046188Y0197168D01*
X0046188Y0197692D01*
X0046712Y0198217D01*
X0047761Y0198217D01*
X0048285Y0197692D01*
X0049450Y0198217D02*
X0051023Y0198217D01*
X0051548Y0197692D01*
X0051548Y0195595D01*
X0051023Y0195071D01*
X0049450Y0195071D01*
X0049450Y0198217D01*
X0052713Y0197168D02*
X0053762Y0198217D01*
X0054810Y0197168D01*
X0054810Y0195071D01*
X0054810Y0196644D02*
X0052713Y0196644D01*
X0052713Y0197168D02*
X0052713Y0195071D01*
X0056479Y0195595D02*
X0057003Y0195071D01*
X0058052Y0195071D01*
X0058576Y0195595D01*
X0058576Y0196119D01*
X0058052Y0196644D01*
X0057003Y0196644D01*
X0056479Y0197168D01*
X0056479Y0197692D01*
X0057003Y0198217D01*
X0058052Y0198217D01*
X0058576Y0197692D01*
X0059741Y0197692D02*
X0059741Y0195595D01*
X0060266Y0195071D01*
X0061314Y0195071D01*
X0061839Y0195595D01*
X0063004Y0195071D02*
X0065101Y0195071D01*
X0063004Y0195071D02*
X0063004Y0198217D01*
X0061839Y0197692D02*
X0061314Y0198217D01*
X0060266Y0198217D01*
X0059741Y0197692D01*
X0077251Y0198151D02*
X0077251Y0196317D01*
X0077710Y0195858D01*
X0078627Y0195858D01*
X0079086Y0196317D01*
X0079086Y0197234D01*
X0078169Y0197234D01*
X0079086Y0198151D02*
X0078627Y0198610D01*
X0077710Y0198610D01*
X0077251Y0198151D01*
X0080151Y0198610D02*
X0080151Y0195858D01*
X0081986Y0195858D02*
X0080151Y0198610D01*
X0081986Y0198610D02*
X0081986Y0195858D01*
X0083052Y0195858D02*
X0084427Y0195858D01*
X0084886Y0196317D01*
X0084886Y0198151D01*
X0084427Y0198610D01*
X0083052Y0198610D01*
X0083052Y0195858D01*
X0101709Y0189500D02*
X0104855Y0189500D01*
X0104855Y0188451D02*
X0104855Y0190549D01*
X0102757Y0188451D02*
X0101709Y0189500D01*
X0102233Y0187286D02*
X0101709Y0186762D01*
X0101709Y0185713D01*
X0102233Y0185189D01*
X0104330Y0185189D01*
X0104855Y0185713D01*
X0104855Y0186762D01*
X0104330Y0187286D01*
X0102233Y0187286D01*
X0103806Y0186238D02*
X0104855Y0187286D01*
X0095416Y0219086D02*
X0093843Y0220659D01*
X0093319Y0220135D02*
X0095416Y0222232D01*
X0093319Y0222232D02*
X0093319Y0219086D01*
X0092154Y0219611D02*
X0091629Y0219086D01*
X0090581Y0219086D01*
X0090056Y0219611D01*
X0090056Y0221708D01*
X0090581Y0222232D01*
X0091629Y0222232D01*
X0092154Y0221708D01*
X0088891Y0221708D02*
X0088891Y0221184D01*
X0088367Y0220659D01*
X0086794Y0220659D01*
X0086794Y0219086D02*
X0086794Y0222232D01*
X0088367Y0222232D01*
X0088891Y0221708D01*
X0088367Y0220659D02*
X0088891Y0220135D01*
X0088891Y0219611D01*
X0088367Y0219086D01*
X0086794Y0219086D01*
X0040770Y0202055D02*
X0040770Y0198909D01*
X0041818Y0198909D02*
X0039721Y0198909D01*
X0038556Y0200482D02*
X0038031Y0199958D01*
X0036458Y0199958D01*
X0036458Y0198909D02*
X0036458Y0202055D01*
X0038031Y0202055D01*
X0038556Y0201531D01*
X0038556Y0200482D01*
X0039721Y0201007D02*
X0040770Y0202055D01*
X0035293Y0202055D02*
X0034244Y0202055D01*
X0034769Y0202055D02*
X0034769Y0199434D01*
X0034244Y0198909D01*
X0033720Y0198909D01*
X0033196Y0199434D01*
X0157960Y0198151D02*
X0157960Y0196317D01*
X0158419Y0195858D01*
X0159336Y0195858D01*
X0159795Y0196317D01*
X0159795Y0197234D01*
X0158877Y0197234D01*
X0157960Y0198151D02*
X0158419Y0198610D01*
X0159336Y0198610D01*
X0159795Y0198151D01*
X0160860Y0198610D02*
X0162695Y0195858D01*
X0162695Y0198610D01*
X0163760Y0198610D02*
X0163760Y0195858D01*
X0165136Y0195858D01*
X0165595Y0196317D01*
X0165595Y0198151D01*
X0165136Y0198610D01*
X0163760Y0198610D01*
X0160860Y0198610D02*
X0160860Y0195858D01*
X0206030Y0195858D02*
X0208128Y0195858D01*
X0209293Y0195858D02*
X0209293Y0199004D01*
X0210866Y0199004D01*
X0211390Y0198480D01*
X0211390Y0197431D01*
X0210866Y0196907D01*
X0209293Y0196907D01*
X0210342Y0196907D02*
X0211390Y0195858D01*
X0212556Y0196382D02*
X0212556Y0198480D01*
X0213080Y0199004D01*
X0214129Y0199004D01*
X0214653Y0198480D01*
X0215818Y0199004D02*
X0215818Y0195858D01*
X0215818Y0196907D02*
X0217916Y0199004D01*
X0216343Y0197431D02*
X0217916Y0195858D01*
X0214653Y0196382D02*
X0214129Y0195858D01*
X0213080Y0195858D01*
X0212556Y0196382D01*
X0206030Y0195858D02*
X0206030Y0199004D01*
X0229259Y0218693D02*
X0230832Y0218693D01*
X0231356Y0219217D01*
X0231356Y0221314D01*
X0230832Y0221839D01*
X0229259Y0221839D01*
X0229259Y0218693D01*
X0232521Y0218693D02*
X0232521Y0220790D01*
X0233570Y0221839D01*
X0234619Y0220790D01*
X0234619Y0218693D01*
X0234619Y0220266D02*
X0232521Y0220266D01*
X0235784Y0221839D02*
X0237881Y0221839D01*
X0236833Y0221839D02*
X0236833Y0218693D01*
X0239047Y0218693D02*
X0239047Y0220790D01*
X0240095Y0221839D01*
X0241144Y0220790D01*
X0241144Y0218693D01*
X0241144Y0220266D02*
X0239047Y0220266D01*
X0264295Y0199989D02*
X0264295Y0198414D01*
X0267051Y0198414D02*
X0267051Y0199989D01*
X0259835Y0196118D02*
X0259835Y0194020D01*
X0258786Y0195069D02*
X0260884Y0195069D01*
X0241136Y0170695D02*
X0241136Y0167549D01*
X0240088Y0167549D02*
X0242185Y0167549D01*
X0240088Y0169647D02*
X0241136Y0170695D01*
X0238923Y0170171D02*
X0238398Y0170695D01*
X0237350Y0170695D01*
X0236825Y0170171D01*
X0236825Y0168074D01*
X0237350Y0167549D01*
X0238398Y0167549D01*
X0238923Y0168074D01*
X0235660Y0167549D02*
X0235660Y0169647D01*
X0234611Y0170695D01*
X0233563Y0169647D01*
X0233563Y0167549D01*
X0232397Y0168074D02*
X0232397Y0170171D01*
X0231873Y0170695D01*
X0230300Y0170695D01*
X0230300Y0167549D01*
X0231873Y0167549D01*
X0232397Y0168074D01*
X0233563Y0169122D02*
X0235660Y0169122D01*
X0065595Y0030041D02*
X0065136Y0030500D01*
X0063760Y0030500D01*
X0063760Y0027748D01*
X0065136Y0027748D01*
X0065595Y0028207D01*
X0065595Y0030041D01*
X0062695Y0030500D02*
X0062695Y0027748D01*
X0060860Y0030500D01*
X0060860Y0027748D01*
X0059795Y0028207D02*
X0059795Y0029124D01*
X0058877Y0029124D01*
X0057960Y0030041D02*
X0057960Y0028207D01*
X0058419Y0027748D01*
X0059336Y0027748D01*
X0059795Y0028207D01*
X0059795Y0030041D02*
X0059336Y0030500D01*
X0058419Y0030500D01*
X0057960Y0030041D01*
X0048153Y0038768D02*
X0025712Y0038768D01*
X0022563Y0041918D01*
X0023645Y0048218D02*
X0023730Y0047932D01*
X0023821Y0047649D01*
X0023920Y0047368D01*
X0024025Y0047090D01*
X0024137Y0046814D01*
X0024256Y0046541D01*
X0024382Y0046271D01*
X0024514Y0046005D01*
X0024652Y0045741D01*
X0024797Y0045481D01*
X0024949Y0045225D01*
X0025106Y0044972D01*
X0025270Y0044724D01*
X0025439Y0044479D01*
X0025615Y0044239D01*
X0025796Y0044003D01*
X0025983Y0043771D01*
X0026176Y0043544D01*
X0026374Y0043322D01*
X0026577Y0043105D01*
X0026786Y0042893D01*
X0027000Y0042686D01*
X0027219Y0042484D01*
X0027442Y0042288D01*
X0027671Y0042097D01*
X0027904Y0041912D01*
X0028141Y0041732D01*
X0028383Y0041559D01*
X0028629Y0041391D01*
X0028879Y0041230D01*
X0029133Y0041074D01*
X0029391Y0040925D01*
X0029652Y0040782D01*
X0029916Y0040646D01*
X0030184Y0040516D01*
X0030455Y0040393D01*
X0030729Y0040276D01*
X0031005Y0040166D01*
X0031285Y0040063D01*
X0031566Y0039967D01*
X0031850Y0039878D01*
X0032136Y0039795D01*
X0032424Y0039720D01*
X0032714Y0039651D01*
X0033005Y0039590D01*
X0033298Y0039536D01*
X0033592Y0039489D01*
X0033887Y0039449D01*
X0034182Y0039417D01*
X0034479Y0039391D01*
X0034776Y0039373D01*
X0035074Y0039363D01*
X0035371Y0039359D01*
X0035669Y0039363D01*
X0035966Y0039374D01*
X0036263Y0039392D01*
X0036560Y0039418D01*
X0036856Y0039450D01*
X0037151Y0039490D01*
X0037444Y0039537D01*
X0037737Y0039592D01*
X0038028Y0039653D01*
X0038318Y0039722D01*
X0038606Y0039797D01*
X0038892Y0039880D01*
X0039176Y0039969D01*
X0039457Y0040066D01*
X0039736Y0040169D01*
X0040013Y0040279D01*
X0040287Y0040396D01*
X0040557Y0040520D01*
X0040825Y0040650D01*
X0041090Y0040786D01*
X0041351Y0040929D01*
X0041608Y0041079D01*
X0041862Y0041234D01*
X0042112Y0041396D01*
X0042357Y0041564D01*
X0042599Y0041737D01*
X0042837Y0041917D01*
X0043069Y0042102D01*
X0043298Y0042293D01*
X0043521Y0042490D01*
X0043740Y0042692D01*
X0043954Y0042899D01*
X0044162Y0043111D01*
X0044366Y0043328D01*
X0044564Y0043551D01*
X0044756Y0043778D01*
X0044943Y0044009D01*
X0045124Y0044245D01*
X0045300Y0044486D01*
X0045469Y0044731D01*
X0045632Y0044979D01*
X0045790Y0045232D01*
X0045941Y0045488D01*
X0046086Y0045749D01*
X0046224Y0046012D01*
X0046356Y0046279D01*
X0046481Y0046549D01*
X0046600Y0046822D01*
X0046712Y0047098D01*
X0046817Y0047376D01*
X0046915Y0047657D01*
X0047007Y0047940D01*
X0047091Y0048225D01*
X0047169Y0048513D01*
X0048153Y0048414D02*
X0048153Y0038768D01*
X0047071Y0054910D02*
X0046986Y0055196D01*
X0046895Y0055479D01*
X0046796Y0055760D01*
X0046691Y0056038D01*
X0046579Y0056314D01*
X0046460Y0056587D01*
X0046334Y0056857D01*
X0046202Y0057123D01*
X0046064Y0057387D01*
X0045919Y0057647D01*
X0045767Y0057903D01*
X0045610Y0058156D01*
X0045446Y0058404D01*
X0045277Y0058649D01*
X0045101Y0058889D01*
X0044920Y0059125D01*
X0044733Y0059357D01*
X0044540Y0059584D01*
X0044342Y0059806D01*
X0044139Y0060023D01*
X0043930Y0060235D01*
X0043716Y0060442D01*
X0043497Y0060644D01*
X0043274Y0060840D01*
X0043045Y0061031D01*
X0042812Y0061216D01*
X0042575Y0061396D01*
X0042333Y0061569D01*
X0042087Y0061737D01*
X0041837Y0061898D01*
X0041583Y0062054D01*
X0041325Y0062203D01*
X0041064Y0062346D01*
X0040800Y0062482D01*
X0040532Y0062612D01*
X0040261Y0062735D01*
X0039987Y0062852D01*
X0039711Y0062962D01*
X0039431Y0063065D01*
X0039150Y0063161D01*
X0038866Y0063250D01*
X0038580Y0063333D01*
X0038292Y0063408D01*
X0038002Y0063477D01*
X0037711Y0063538D01*
X0037418Y0063592D01*
X0037124Y0063639D01*
X0036829Y0063679D01*
X0036534Y0063711D01*
X0036237Y0063737D01*
X0035940Y0063755D01*
X0035642Y0063765D01*
X0035345Y0063769D01*
X0035047Y0063765D01*
X0034750Y0063754D01*
X0034453Y0063736D01*
X0034156Y0063710D01*
X0033860Y0063678D01*
X0033565Y0063638D01*
X0033272Y0063591D01*
X0032979Y0063536D01*
X0032688Y0063475D01*
X0032398Y0063406D01*
X0032110Y0063331D01*
X0031824Y0063248D01*
X0031540Y0063159D01*
X0031259Y0063062D01*
X0030980Y0062959D01*
X0030703Y0062849D01*
X0030429Y0062732D01*
X0030159Y0062608D01*
X0029891Y0062478D01*
X0029626Y0062342D01*
X0029365Y0062199D01*
X0029108Y0062049D01*
X0028854Y0061894D01*
X0028604Y0061732D01*
X0028359Y0061564D01*
X0028117Y0061391D01*
X0027879Y0061211D01*
X0027647Y0061026D01*
X0027418Y0060835D01*
X0027195Y0060638D01*
X0026976Y0060436D01*
X0026762Y0060229D01*
X0026554Y0060017D01*
X0026350Y0059800D01*
X0026152Y0059577D01*
X0025960Y0059350D01*
X0025773Y0059119D01*
X0025592Y0058883D01*
X0025416Y0058642D01*
X0025247Y0058397D01*
X0025084Y0058149D01*
X0024926Y0057896D01*
X0024775Y0057640D01*
X0024630Y0057379D01*
X0024492Y0057116D01*
X0024360Y0056849D01*
X0024235Y0056579D01*
X0024116Y0056306D01*
X0024004Y0056030D01*
X0023899Y0055752D01*
X0023801Y0055471D01*
X0023709Y0055188D01*
X0023625Y0054903D01*
X0023547Y0054615D01*
X0022563Y0061209D02*
X0025712Y0064359D01*
X0048153Y0064359D01*
X0048153Y0054320D01*
X0231676Y0024827D02*
X0232200Y0024303D01*
X0232724Y0024303D01*
X0233249Y0024827D01*
X0233249Y0027449D01*
X0233773Y0027449D02*
X0232724Y0027449D01*
X0234938Y0027449D02*
X0236511Y0027449D01*
X0237036Y0026925D01*
X0237036Y0025876D01*
X0236511Y0025352D01*
X0234938Y0025352D01*
X0234938Y0024303D02*
X0234938Y0027449D01*
X0238201Y0026925D02*
X0238725Y0027449D01*
X0239774Y0027449D01*
X0240298Y0026925D01*
X0240298Y0026400D01*
X0238201Y0024303D01*
X0240298Y0024303D01*
D13*
X0159177Y0111603D02*
X0134767Y0111603D01*
X0133586Y0112784D01*
X0133586Y0137194D01*
X0134767Y0138375D01*
X0159177Y0138375D01*
X0160358Y0137194D01*
X0160358Y0112784D01*
X0159177Y0111603D01*
X0135555Y0114359D02*
X0135557Y0114421D01*
X0135563Y0114484D01*
X0135573Y0114545D01*
X0135587Y0114606D01*
X0135604Y0114666D01*
X0135625Y0114725D01*
X0135651Y0114782D01*
X0135679Y0114837D01*
X0135711Y0114891D01*
X0135747Y0114942D01*
X0135785Y0114992D01*
X0135827Y0115038D01*
X0135871Y0115082D01*
X0135919Y0115123D01*
X0135968Y0115161D01*
X0136020Y0115195D01*
X0136074Y0115226D01*
X0136130Y0115254D01*
X0136188Y0115278D01*
X0136247Y0115299D01*
X0136307Y0115315D01*
X0136368Y0115328D01*
X0136430Y0115337D01*
X0136492Y0115342D01*
X0136555Y0115343D01*
X0136617Y0115340D01*
X0136679Y0115333D01*
X0136741Y0115322D01*
X0136801Y0115307D01*
X0136861Y0115289D01*
X0136919Y0115267D01*
X0136976Y0115241D01*
X0137031Y0115211D01*
X0137084Y0115178D01*
X0137135Y0115142D01*
X0137183Y0115103D01*
X0137229Y0115060D01*
X0137272Y0115015D01*
X0137312Y0114967D01*
X0137349Y0114917D01*
X0137383Y0114864D01*
X0137414Y0114810D01*
X0137440Y0114754D01*
X0137464Y0114696D01*
X0137483Y0114636D01*
X0137499Y0114576D01*
X0137511Y0114514D01*
X0137519Y0114453D01*
X0137523Y0114390D01*
X0137523Y0114328D01*
X0137519Y0114265D01*
X0137511Y0114204D01*
X0137499Y0114142D01*
X0137483Y0114082D01*
X0137464Y0114022D01*
X0137440Y0113964D01*
X0137414Y0113908D01*
X0137383Y0113854D01*
X0137349Y0113801D01*
X0137312Y0113751D01*
X0137272Y0113703D01*
X0137229Y0113658D01*
X0137183Y0113615D01*
X0137135Y0113576D01*
X0137084Y0113540D01*
X0137031Y0113507D01*
X0136976Y0113477D01*
X0136919Y0113451D01*
X0136861Y0113429D01*
X0136801Y0113411D01*
X0136741Y0113396D01*
X0136679Y0113385D01*
X0136617Y0113378D01*
X0136555Y0113375D01*
X0136492Y0113376D01*
X0136430Y0113381D01*
X0136368Y0113390D01*
X0136307Y0113403D01*
X0136247Y0113419D01*
X0136188Y0113440D01*
X0136130Y0113464D01*
X0136074Y0113492D01*
X0136020Y0113523D01*
X0135968Y0113557D01*
X0135919Y0113595D01*
X0135871Y0113636D01*
X0135827Y0113680D01*
X0135785Y0113726D01*
X0135747Y0113776D01*
X0135711Y0113827D01*
X0135679Y0113881D01*
X0135651Y0113936D01*
X0135625Y0113993D01*
X0135604Y0114052D01*
X0135587Y0114112D01*
X0135573Y0114173D01*
X0135563Y0114234D01*
X0135557Y0114297D01*
X0135555Y0114359D01*
D14*
X0139472Y0117489D02*
X0139472Y0132489D01*
X0154472Y0132489D01*
X0154472Y0117489D01*
X0139472Y0117489D01*
X0141972Y0119989D02*
X0146972Y0129989D01*
X0151972Y0119989D01*
X0141972Y0119989D01*
D15*
X0146972Y0118739D03*
D16*
X0153222Y0126239D03*
D17*
X0141972Y0128739D03*
D18*
X0140722Y0122489D03*
X0150722Y0127489D03*
D19*
X0148222Y0131239D03*
D20*
X0143035Y0124928D03*
D21*
X0142046Y0122948D03*
D22*
X0142490Y0123170D03*
D23*
X0142954Y0123494D03*
D24*
X0143419Y0123979D03*
D25*
X0143722Y0124322D03*
D26*
X0144691Y0128060D03*
D27*
X0145680Y0129838D03*
D28*
X0145216Y0128080D03*
D29*
X0145599Y0128464D03*
D30*
X0146043Y0128828D03*
D31*
X0148809Y0129797D03*
D32*
X0148749Y0128969D03*
D33*
X0148830Y0128343D03*
D34*
X0148890Y0127838D03*
D35*
X0149132Y0127130D03*
D36*
X0149496Y0126666D03*
D37*
X0149375Y0126161D03*
D38*
X0151010Y0124686D03*
D39*
X0151273Y0124039D03*
D40*
X0151293Y0123716D03*
D41*
X0151495Y0123170D03*
D42*
X0151616Y0122443D03*
D43*
X0151818Y0121716D03*
D44*
X0151939Y0121089D03*
D45*
X0149577Y0125656D03*
D46*
X0121405Y0152119D02*
X0121405Y0179119D01*
X0121402Y0179338D01*
X0121394Y0179557D01*
X0121381Y0179776D01*
X0121362Y0179994D01*
X0121338Y0180212D01*
X0121309Y0180429D01*
X0121275Y0180646D01*
X0121235Y0180861D01*
X0121190Y0181076D01*
X0121139Y0181289D01*
X0121084Y0181501D01*
X0121023Y0181712D01*
X0120958Y0181921D01*
X0120887Y0182128D01*
X0120811Y0182334D01*
X0120730Y0182538D01*
X0120645Y0182740D01*
X0120554Y0182939D01*
X0120459Y0183136D01*
X0120358Y0183331D01*
X0120253Y0183524D01*
X0120144Y0183714D01*
X0120030Y0183901D01*
X0119911Y0184085D01*
X0119788Y0184266D01*
X0119660Y0184444D01*
X0119528Y0184620D01*
X0119392Y0184791D01*
X0119252Y0184960D01*
X0119108Y0185125D01*
X0118960Y0185286D01*
X0118808Y0185444D01*
X0118652Y0185598D01*
X0118492Y0185748D01*
X0118329Y0185895D01*
X0118162Y0186037D01*
X0117992Y0186175D01*
X0117818Y0186309D01*
X0117642Y0186439D01*
X0117462Y0186564D01*
X0117279Y0186685D01*
X0117093Y0186801D01*
X0116905Y0186913D01*
X0116714Y0187020D01*
X0116520Y0187123D01*
X0116324Y0187221D01*
X0116126Y0187314D01*
X0115925Y0187402D01*
X0115722Y0187485D01*
X0115517Y0187564D01*
X0115311Y0187637D01*
X0115103Y0187705D01*
X0114893Y0187768D01*
X0114681Y0187826D01*
X0114469Y0187879D01*
X0114255Y0187927D01*
X0114040Y0187969D01*
X0113824Y0188006D01*
X0113607Y0188038D01*
X0113389Y0188065D01*
X0113171Y0188086D01*
X0112953Y0188102D01*
X0112734Y0188113D01*
X0112515Y0188118D01*
X0112295Y0188118D01*
X0112076Y0188113D01*
X0111857Y0188102D01*
X0111639Y0188086D01*
X0111421Y0188065D01*
X0111203Y0188038D01*
X0110986Y0188006D01*
X0110770Y0187969D01*
X0110555Y0187927D01*
X0110341Y0187879D01*
X0110129Y0187826D01*
X0109917Y0187768D01*
X0109707Y0187705D01*
X0109499Y0187637D01*
X0109293Y0187564D01*
X0109088Y0187485D01*
X0108885Y0187402D01*
X0108684Y0187314D01*
X0108486Y0187221D01*
X0108290Y0187123D01*
X0108096Y0187020D01*
X0107905Y0186913D01*
X0107717Y0186801D01*
X0107531Y0186685D01*
X0107348Y0186564D01*
X0107168Y0186439D01*
X0106992Y0186309D01*
X0106818Y0186175D01*
X0106648Y0186037D01*
X0106481Y0185895D01*
X0106318Y0185748D01*
X0106158Y0185598D01*
X0106002Y0185444D01*
X0105850Y0185286D01*
X0105702Y0185125D01*
X0105558Y0184960D01*
X0105418Y0184791D01*
X0105282Y0184620D01*
X0105150Y0184444D01*
X0105022Y0184266D01*
X0104899Y0184085D01*
X0104780Y0183901D01*
X0104666Y0183714D01*
X0104557Y0183524D01*
X0104452Y0183331D01*
X0104351Y0183136D01*
X0104256Y0182939D01*
X0104165Y0182740D01*
X0104080Y0182538D01*
X0103999Y0182334D01*
X0103923Y0182128D01*
X0103852Y0181921D01*
X0103787Y0181712D01*
X0103726Y0181501D01*
X0103671Y0181289D01*
X0103620Y0181076D01*
X0103575Y0180861D01*
X0103535Y0180646D01*
X0103501Y0180429D01*
X0103472Y0180212D01*
X0103448Y0179994D01*
X0103429Y0179776D01*
X0103416Y0179557D01*
X0103408Y0179338D01*
X0103405Y0179119D01*
X0103405Y0152119D01*
X0103408Y0151900D01*
X0103416Y0151681D01*
X0103429Y0151462D01*
X0103448Y0151244D01*
X0103472Y0151026D01*
X0103501Y0150809D01*
X0103535Y0150592D01*
X0103575Y0150377D01*
X0103620Y0150162D01*
X0103671Y0149949D01*
X0103726Y0149737D01*
X0103787Y0149526D01*
X0103852Y0149317D01*
X0103923Y0149110D01*
X0103999Y0148904D01*
X0104080Y0148700D01*
X0104165Y0148498D01*
X0104256Y0148299D01*
X0104351Y0148102D01*
X0104452Y0147907D01*
X0104557Y0147714D01*
X0104666Y0147524D01*
X0104780Y0147337D01*
X0104899Y0147153D01*
X0105022Y0146972D01*
X0105150Y0146794D01*
X0105282Y0146618D01*
X0105418Y0146447D01*
X0105558Y0146278D01*
X0105702Y0146113D01*
X0105850Y0145952D01*
X0106002Y0145794D01*
X0106158Y0145640D01*
X0106318Y0145490D01*
X0106481Y0145343D01*
X0106648Y0145201D01*
X0106818Y0145063D01*
X0106992Y0144929D01*
X0107168Y0144799D01*
X0107348Y0144674D01*
X0107531Y0144553D01*
X0107717Y0144437D01*
X0107905Y0144325D01*
X0108096Y0144218D01*
X0108290Y0144115D01*
X0108486Y0144017D01*
X0108684Y0143924D01*
X0108885Y0143836D01*
X0109088Y0143753D01*
X0109293Y0143674D01*
X0109499Y0143601D01*
X0109707Y0143533D01*
X0109917Y0143470D01*
X0110129Y0143412D01*
X0110341Y0143359D01*
X0110555Y0143311D01*
X0110770Y0143269D01*
X0110986Y0143232D01*
X0111203Y0143200D01*
X0111421Y0143173D01*
X0111639Y0143152D01*
X0111857Y0143136D01*
X0112076Y0143125D01*
X0112295Y0143120D01*
X0112515Y0143120D01*
X0112734Y0143125D01*
X0112953Y0143136D01*
X0113171Y0143152D01*
X0113389Y0143173D01*
X0113607Y0143200D01*
X0113824Y0143232D01*
X0114040Y0143269D01*
X0114255Y0143311D01*
X0114469Y0143359D01*
X0114681Y0143412D01*
X0114893Y0143470D01*
X0115103Y0143533D01*
X0115311Y0143601D01*
X0115517Y0143674D01*
X0115722Y0143753D01*
X0115925Y0143836D01*
X0116126Y0143924D01*
X0116324Y0144017D01*
X0116520Y0144115D01*
X0116714Y0144218D01*
X0116905Y0144325D01*
X0117093Y0144437D01*
X0117279Y0144553D01*
X0117462Y0144674D01*
X0117642Y0144799D01*
X0117818Y0144929D01*
X0117992Y0145063D01*
X0118162Y0145201D01*
X0118329Y0145343D01*
X0118492Y0145490D01*
X0118652Y0145640D01*
X0118808Y0145794D01*
X0118960Y0145952D01*
X0119108Y0146113D01*
X0119252Y0146278D01*
X0119392Y0146447D01*
X0119528Y0146618D01*
X0119660Y0146794D01*
X0119788Y0146972D01*
X0119911Y0147153D01*
X0120030Y0147337D01*
X0120144Y0147524D01*
X0120253Y0147714D01*
X0120358Y0147907D01*
X0120459Y0148102D01*
X0120554Y0148299D01*
X0120645Y0148498D01*
X0120730Y0148700D01*
X0120811Y0148904D01*
X0120887Y0149110D01*
X0120958Y0149317D01*
X0121023Y0149526D01*
X0121084Y0149737D01*
X0121139Y0149949D01*
X0121190Y0150162D01*
X0121235Y0150377D01*
X0121275Y0150592D01*
X0121309Y0150809D01*
X0121338Y0151026D01*
X0121362Y0151244D01*
X0121381Y0151462D01*
X0121394Y0151681D01*
X0121402Y0151900D01*
X0121405Y0152119D01*
X0119039Y0199831D02*
X0116539Y0202331D01*
X0116539Y0217331D01*
X0119039Y0219831D01*
X0124039Y0219831D01*
X0126539Y0217331D01*
X0126539Y0202331D01*
X0124039Y0199831D01*
X0119039Y0199831D01*
X0116539Y0202331D02*
X0114039Y0199831D01*
X0109039Y0199831D01*
X0106539Y0202331D01*
X0106539Y0217331D01*
X0109039Y0219831D01*
X0114039Y0219831D01*
X0116539Y0217331D01*
X0126539Y0217331D02*
X0129039Y0219831D01*
X0134039Y0219831D01*
X0136539Y0217331D01*
X0136539Y0202331D01*
X0134039Y0199831D01*
X0129039Y0199831D01*
X0126539Y0202331D01*
X0136539Y0202331D02*
X0139039Y0199831D01*
X0144039Y0199831D01*
X0146539Y0202331D01*
X0146539Y0217331D01*
X0149039Y0219831D01*
X0154039Y0219831D01*
X0156539Y0217331D01*
X0156539Y0202331D01*
X0154039Y0199831D01*
X0149039Y0199831D01*
X0146539Y0202331D01*
X0156539Y0202331D02*
X0159039Y0199831D01*
X0164039Y0199831D01*
X0166539Y0202331D01*
X0166539Y0217331D01*
X0169039Y0219831D01*
X0174039Y0219831D01*
X0176539Y0217331D01*
X0176539Y0202331D01*
X0174039Y0199831D01*
X0169039Y0199831D01*
X0166539Y0202331D01*
X0176539Y0202331D02*
X0179039Y0199831D01*
X0184039Y0199831D01*
X0186539Y0202331D01*
X0186539Y0217331D01*
X0189039Y0219831D01*
X0194039Y0219831D01*
X0196539Y0217331D01*
X0196539Y0202331D01*
X0194039Y0199831D01*
X0189039Y0199831D01*
X0186539Y0202331D01*
X0196539Y0202331D02*
X0199039Y0199831D01*
X0204039Y0199831D01*
X0206539Y0202331D01*
X0206539Y0217331D01*
X0209039Y0219831D01*
X0214039Y0219831D01*
X0216539Y0217331D01*
X0216539Y0202331D01*
X0214039Y0199831D01*
X0209039Y0199831D01*
X0206539Y0202331D01*
X0216539Y0202331D02*
X0219039Y0199831D01*
X0224039Y0199831D01*
X0226539Y0202331D01*
X0229039Y0199831D01*
X0234039Y0199831D01*
X0236539Y0202331D01*
X0236539Y0217331D01*
X0234039Y0219831D01*
X0229039Y0219831D01*
X0226539Y0217331D01*
X0226539Y0202331D01*
X0226539Y0217331D02*
X0224039Y0219831D01*
X0219039Y0219831D01*
X0216539Y0217331D01*
X0206539Y0217331D02*
X0204039Y0219831D01*
X0199039Y0219831D01*
X0196539Y0217331D01*
X0186539Y0217331D02*
X0184039Y0219831D01*
X0179039Y0219831D01*
X0176539Y0217331D01*
X0166539Y0217331D02*
X0164039Y0219831D01*
X0159039Y0219831D01*
X0156539Y0217331D01*
X0146539Y0217331D02*
X0144039Y0219831D01*
X0139039Y0219831D01*
X0136539Y0217331D01*
X0106539Y0217331D02*
X0104039Y0219831D01*
X0099039Y0219831D01*
X0096539Y0217331D01*
X0096539Y0202331D01*
X0099039Y0199831D01*
X0104039Y0199831D01*
X0106539Y0202331D01*
X0096539Y0202331D02*
X0094039Y0199831D01*
X0089039Y0199831D01*
X0086539Y0202331D01*
X0086539Y0217331D01*
X0089039Y0219831D01*
X0094039Y0219831D01*
X0096539Y0217331D01*
X0086539Y0217331D02*
X0084039Y0219831D01*
X0079039Y0219831D01*
X0076539Y0217331D01*
X0076539Y0202331D01*
X0079039Y0199831D01*
X0084039Y0199831D01*
X0086539Y0202331D01*
X0076539Y0202331D02*
X0074039Y0199831D01*
X0069039Y0199831D01*
X0066539Y0202331D01*
X0066539Y0217331D01*
X0069039Y0219831D01*
X0074039Y0219831D01*
X0076539Y0217331D01*
X0066539Y0217331D02*
X0064039Y0219831D01*
X0059039Y0219831D01*
X0056539Y0217331D01*
X0056539Y0202331D01*
X0059039Y0199831D01*
X0064039Y0199831D01*
X0066539Y0202331D01*
X0056539Y0202331D02*
X0054039Y0199831D01*
X0049039Y0199831D01*
X0046539Y0202331D01*
X0046539Y0217331D01*
X0049039Y0219831D01*
X0054039Y0219831D01*
X0056539Y0217331D01*
X0046539Y0217331D02*
X0044039Y0219831D01*
X0039039Y0219831D01*
X0036539Y0217331D01*
X0036539Y0202331D01*
X0039039Y0199831D01*
X0044039Y0199831D01*
X0046539Y0202331D01*
X0043836Y0171973D02*
X0042936Y0171973D01*
X0040536Y0171973D01*
X0039636Y0171973D01*
X0040536Y0171973D02*
X0040538Y0171904D01*
X0040544Y0171836D01*
X0040554Y0171768D01*
X0040567Y0171701D01*
X0040585Y0171635D01*
X0040606Y0171570D01*
X0040631Y0171506D01*
X0040659Y0171444D01*
X0040691Y0171383D01*
X0040726Y0171324D01*
X0040765Y0171268D01*
X0040807Y0171213D01*
X0040852Y0171162D01*
X0040900Y0171112D01*
X0040950Y0171066D01*
X0041003Y0171023D01*
X0041059Y0170982D01*
X0041116Y0170945D01*
X0041176Y0170912D01*
X0041238Y0170881D01*
X0041301Y0170855D01*
X0041365Y0170832D01*
X0041431Y0170812D01*
X0041498Y0170797D01*
X0041565Y0170785D01*
X0041633Y0170777D01*
X0041702Y0170773D01*
X0041770Y0170773D01*
X0041839Y0170777D01*
X0041907Y0170785D01*
X0041974Y0170797D01*
X0042041Y0170812D01*
X0042107Y0170832D01*
X0042171Y0170855D01*
X0042234Y0170881D01*
X0042296Y0170912D01*
X0042356Y0170945D01*
X0042413Y0170982D01*
X0042469Y0171023D01*
X0042522Y0171066D01*
X0042572Y0171112D01*
X0042620Y0171162D01*
X0042665Y0171213D01*
X0042707Y0171268D01*
X0042746Y0171324D01*
X0042781Y0171383D01*
X0042813Y0171444D01*
X0042841Y0171506D01*
X0042866Y0171570D01*
X0042887Y0171635D01*
X0042905Y0171701D01*
X0042918Y0171768D01*
X0042928Y0171836D01*
X0042934Y0171904D01*
X0042936Y0171973D01*
X0045136Y0167273D02*
X0045136Y0164673D01*
X0043836Y0159973D02*
X0039636Y0159973D01*
X0039039Y0026918D02*
X0044039Y0026918D01*
X0046539Y0024418D01*
X0046539Y0009418D01*
X0044039Y0006918D01*
X0039039Y0006918D01*
X0036539Y0009418D01*
X0036539Y0024418D01*
X0039039Y0026918D01*
X0046539Y0024418D02*
X0049039Y0026918D01*
X0054039Y0026918D01*
X0056539Y0024418D01*
X0056539Y0009418D01*
X0054039Y0006918D01*
X0049039Y0006918D01*
X0046539Y0009418D01*
X0056539Y0009418D02*
X0059039Y0006918D01*
X0064039Y0006918D01*
X0066539Y0009418D01*
X0066539Y0024418D01*
X0069039Y0026918D01*
X0074039Y0026918D01*
X0076539Y0024418D01*
X0076539Y0009418D01*
X0074039Y0006918D01*
X0069039Y0006918D01*
X0066539Y0009418D01*
X0076539Y0009418D02*
X0079039Y0006918D01*
X0084039Y0006918D01*
X0086539Y0009418D01*
X0086539Y0024418D01*
X0089039Y0026918D01*
X0094039Y0026918D01*
X0096539Y0024418D01*
X0096539Y0009418D01*
X0094039Y0006918D01*
X0089039Y0006918D01*
X0086539Y0009418D01*
X0096539Y0009418D02*
X0099039Y0006918D01*
X0104039Y0006918D01*
X0106539Y0009418D01*
X0106539Y0024418D01*
X0109039Y0026918D01*
X0114039Y0026918D01*
X0116539Y0024418D01*
X0116539Y0009418D01*
X0114039Y0006918D01*
X0109039Y0006918D01*
X0106539Y0009418D01*
X0116539Y0009418D02*
X0119039Y0006918D01*
X0124039Y0006918D01*
X0126539Y0009418D01*
X0126539Y0024418D01*
X0129039Y0026918D01*
X0134039Y0026918D01*
X0136539Y0024418D01*
X0136539Y0009418D01*
X0134039Y0006918D01*
X0129039Y0006918D01*
X0126539Y0009418D01*
X0136539Y0009418D02*
X0139039Y0006918D01*
X0144039Y0006918D01*
X0146539Y0009418D01*
X0146539Y0024418D01*
X0149039Y0026918D01*
X0154039Y0026918D01*
X0156539Y0024418D01*
X0156539Y0009418D01*
X0154039Y0006918D01*
X0149039Y0006918D01*
X0146539Y0009418D01*
X0156539Y0009418D02*
X0159039Y0006918D01*
X0164039Y0006918D01*
X0166539Y0009418D01*
X0166539Y0024418D01*
X0169039Y0026918D01*
X0174039Y0026918D01*
X0176539Y0024418D01*
X0176539Y0009418D01*
X0174039Y0006918D01*
X0169039Y0006918D01*
X0166539Y0009418D01*
X0176539Y0009418D02*
X0179039Y0006918D01*
X0184039Y0006918D01*
X0186539Y0009418D01*
X0186539Y0024418D01*
X0184039Y0026918D01*
X0179039Y0026918D01*
X0176539Y0024418D01*
X0166539Y0024418D02*
X0164039Y0026918D01*
X0159039Y0026918D01*
X0156539Y0024418D01*
X0146539Y0024418D02*
X0144039Y0026918D01*
X0139039Y0026918D01*
X0136539Y0024418D01*
X0126539Y0024418D02*
X0124039Y0026918D01*
X0119039Y0026918D01*
X0116539Y0024418D01*
X0106539Y0024418D02*
X0104039Y0026918D01*
X0099039Y0026918D01*
X0096539Y0024418D01*
X0086539Y0024418D02*
X0084039Y0026918D01*
X0079039Y0026918D01*
X0076539Y0024418D01*
X0066539Y0024418D02*
X0064039Y0026918D01*
X0059039Y0026918D01*
X0056539Y0024418D01*
X0186539Y0024418D02*
X0189039Y0026918D01*
X0194039Y0026918D01*
X0196539Y0024418D01*
X0196539Y0009418D01*
X0194039Y0006918D01*
X0189039Y0006918D01*
X0186539Y0009418D01*
X0196539Y0009418D02*
X0199039Y0006918D01*
X0204039Y0006918D01*
X0206539Y0009418D01*
X0206539Y0024418D01*
X0204039Y0026918D01*
X0199039Y0026918D01*
X0196539Y0024418D01*
X0206539Y0024418D02*
X0209039Y0026918D01*
X0214039Y0026918D01*
X0216539Y0024418D01*
X0216539Y0009418D01*
X0214039Y0006918D01*
X0209039Y0006918D01*
X0206539Y0009418D01*
X0216539Y0009418D02*
X0219039Y0006918D01*
X0224039Y0006918D01*
X0226539Y0009418D01*
X0226539Y0024418D01*
X0224039Y0026918D01*
X0219039Y0026918D01*
X0216539Y0024418D01*
X0226539Y0024418D02*
X0229039Y0026918D01*
X0234039Y0026918D01*
X0236539Y0024418D01*
X0236539Y0009418D01*
X0234039Y0006918D01*
X0229039Y0006918D01*
X0226539Y0009418D01*
X0227484Y0139772D02*
X0244976Y0139772D01*
X0244976Y0165572D01*
X0227484Y0165572D01*
X0227484Y0139772D01*
X0240182Y0142972D02*
X0240184Y0143047D01*
X0240190Y0143121D01*
X0240200Y0143195D01*
X0240214Y0143268D01*
X0240231Y0143340D01*
X0240253Y0143412D01*
X0240278Y0143482D01*
X0240307Y0143550D01*
X0240340Y0143618D01*
X0240376Y0143683D01*
X0240415Y0143746D01*
X0240458Y0143807D01*
X0240504Y0143866D01*
X0240553Y0143922D01*
X0240605Y0143975D01*
X0240660Y0144026D01*
X0240717Y0144073D01*
X0240777Y0144118D01*
X0240839Y0144159D01*
X0240904Y0144197D01*
X0240970Y0144231D01*
X0241038Y0144262D01*
X0241107Y0144289D01*
X0241178Y0144312D01*
X0241250Y0144332D01*
X0241323Y0144348D01*
X0241396Y0144360D01*
X0241470Y0144368D01*
X0241545Y0144372D01*
X0241619Y0144372D01*
X0241694Y0144368D01*
X0241768Y0144360D01*
X0241841Y0144348D01*
X0241914Y0144332D01*
X0241986Y0144312D01*
X0242057Y0144289D01*
X0242126Y0144262D01*
X0242194Y0144231D01*
X0242260Y0144197D01*
X0242325Y0144159D01*
X0242387Y0144118D01*
X0242447Y0144073D01*
X0242504Y0144026D01*
X0242559Y0143975D01*
X0242611Y0143922D01*
X0242660Y0143866D01*
X0242706Y0143807D01*
X0242749Y0143746D01*
X0242788Y0143683D01*
X0242824Y0143618D01*
X0242857Y0143550D01*
X0242886Y0143482D01*
X0242911Y0143412D01*
X0242933Y0143340D01*
X0242950Y0143268D01*
X0242964Y0143195D01*
X0242974Y0143121D01*
X0242980Y0143047D01*
X0242982Y0142972D01*
X0242980Y0142897D01*
X0242974Y0142823D01*
X0242964Y0142749D01*
X0242950Y0142676D01*
X0242933Y0142604D01*
X0242911Y0142532D01*
X0242886Y0142462D01*
X0242857Y0142394D01*
X0242824Y0142326D01*
X0242788Y0142261D01*
X0242749Y0142198D01*
X0242706Y0142137D01*
X0242660Y0142078D01*
X0242611Y0142022D01*
X0242559Y0141969D01*
X0242504Y0141918D01*
X0242447Y0141871D01*
X0242387Y0141826D01*
X0242325Y0141785D01*
X0242260Y0141747D01*
X0242194Y0141713D01*
X0242126Y0141682D01*
X0242057Y0141655D01*
X0241986Y0141632D01*
X0241914Y0141612D01*
X0241841Y0141596D01*
X0241768Y0141584D01*
X0241694Y0141576D01*
X0241619Y0141572D01*
X0241545Y0141572D01*
X0241470Y0141576D01*
X0241396Y0141584D01*
X0241323Y0141596D01*
X0241250Y0141612D01*
X0241178Y0141632D01*
X0241107Y0141655D01*
X0241038Y0141682D01*
X0240970Y0141713D01*
X0240904Y0141747D01*
X0240839Y0141785D01*
X0240777Y0141826D01*
X0240717Y0141871D01*
X0240660Y0141918D01*
X0240605Y0141969D01*
X0240553Y0142022D01*
X0240504Y0142078D01*
X0240458Y0142137D01*
X0240415Y0142198D01*
X0240376Y0142261D01*
X0240340Y0142326D01*
X0240307Y0142394D01*
X0240278Y0142462D01*
X0240253Y0142532D01*
X0240231Y0142604D01*
X0240214Y0142676D01*
X0240200Y0142749D01*
X0240190Y0142823D01*
X0240184Y0142897D01*
X0240182Y0142972D01*
D47*
X0266805Y0199694D03*
D48*
X0270495Y0200009D02*
X0270495Y0198927D01*
X0272660Y0198927D01*
X0272660Y0200009D01*
X0272299Y0200370D01*
X0270856Y0200370D01*
X0270495Y0200009D01*
X0271217Y0201102D02*
X0270495Y0201824D01*
X0272660Y0201824D01*
X0272660Y0202545D02*
X0272660Y0201102D01*
X0272660Y0198195D02*
X0272660Y0196752D01*
X0270495Y0196752D01*
X0270495Y0198195D01*
X0271577Y0197473D02*
X0271577Y0196752D01*
X0272660Y0196020D02*
X0272660Y0194577D01*
X0270495Y0194577D01*
X0243681Y0164674D02*
X0229082Y0164674D01*
X0229082Y0140670D01*
X0243681Y0140670D01*
X0243681Y0164674D01*
X0119405Y0152119D02*
X0119405Y0179119D01*
X0119403Y0179289D01*
X0119397Y0179460D01*
X0119386Y0179630D01*
X0119372Y0179800D01*
X0119353Y0179969D01*
X0119330Y0180138D01*
X0119304Y0180307D01*
X0119273Y0180474D01*
X0119238Y0180641D01*
X0119198Y0180807D01*
X0119155Y0180972D01*
X0119108Y0181136D01*
X0119057Y0181298D01*
X0119002Y0181460D01*
X0118943Y0181620D01*
X0118880Y0181778D01*
X0118814Y0181935D01*
X0118743Y0182090D01*
X0118669Y0182244D01*
X0118591Y0182395D01*
X0118509Y0182545D01*
X0118424Y0182693D01*
X0118335Y0182838D01*
X0118243Y0182981D01*
X0118147Y0183122D01*
X0118048Y0183261D01*
X0117945Y0183397D01*
X0117840Y0183531D01*
X0117731Y0183662D01*
X0117618Y0183790D01*
X0117503Y0183916D01*
X0117385Y0184039D01*
X0117264Y0184158D01*
X0117139Y0184275D01*
X0117012Y0184389D01*
X0116883Y0184500D01*
X0116750Y0184607D01*
X0116615Y0184711D01*
X0116478Y0184812D01*
X0116338Y0184910D01*
X0116196Y0185004D01*
X0116052Y0185094D01*
X0115905Y0185181D01*
X0115756Y0185265D01*
X0115606Y0185344D01*
X0115453Y0185420D01*
X0115299Y0185493D01*
X0115143Y0185561D01*
X0114985Y0185626D01*
X0114826Y0185687D01*
X0114665Y0185744D01*
X0114503Y0185797D01*
X0114340Y0185846D01*
X0114176Y0185891D01*
X0114010Y0185932D01*
X0113844Y0185970D01*
X0113676Y0186003D01*
X0113508Y0186031D01*
X0113340Y0186056D01*
X0113171Y0186077D01*
X0113001Y0186094D01*
X0112831Y0186106D01*
X0112661Y0186114D01*
X0112490Y0186118D01*
X0112320Y0186118D01*
X0112149Y0186114D01*
X0111979Y0186106D01*
X0111809Y0186094D01*
X0111639Y0186077D01*
X0111470Y0186056D01*
X0111302Y0186031D01*
X0111134Y0186003D01*
X0110966Y0185970D01*
X0110800Y0185932D01*
X0110634Y0185891D01*
X0110470Y0185846D01*
X0110307Y0185797D01*
X0110145Y0185744D01*
X0109984Y0185687D01*
X0109825Y0185626D01*
X0109667Y0185561D01*
X0109511Y0185493D01*
X0109357Y0185420D01*
X0109204Y0185344D01*
X0109054Y0185265D01*
X0108905Y0185181D01*
X0108758Y0185094D01*
X0108614Y0185004D01*
X0108472Y0184910D01*
X0108332Y0184812D01*
X0108195Y0184711D01*
X0108060Y0184607D01*
X0107927Y0184500D01*
X0107798Y0184389D01*
X0107671Y0184275D01*
X0107546Y0184158D01*
X0107425Y0184039D01*
X0107307Y0183916D01*
X0107192Y0183790D01*
X0107079Y0183662D01*
X0106970Y0183531D01*
X0106865Y0183397D01*
X0106762Y0183261D01*
X0106663Y0183122D01*
X0106567Y0182981D01*
X0106475Y0182838D01*
X0106386Y0182693D01*
X0106301Y0182545D01*
X0106219Y0182395D01*
X0106141Y0182244D01*
X0106067Y0182090D01*
X0105996Y0181935D01*
X0105930Y0181778D01*
X0105867Y0181620D01*
X0105808Y0181460D01*
X0105753Y0181298D01*
X0105702Y0181136D01*
X0105655Y0180972D01*
X0105612Y0180807D01*
X0105572Y0180641D01*
X0105537Y0180474D01*
X0105506Y0180307D01*
X0105480Y0180138D01*
X0105457Y0179969D01*
X0105438Y0179800D01*
X0105424Y0179630D01*
X0105413Y0179460D01*
X0105407Y0179289D01*
X0105405Y0179119D01*
X0105405Y0152119D01*
X0105407Y0151949D01*
X0105413Y0151778D01*
X0105424Y0151608D01*
X0105438Y0151438D01*
X0105457Y0151269D01*
X0105480Y0151100D01*
X0105506Y0150931D01*
X0105537Y0150764D01*
X0105572Y0150597D01*
X0105612Y0150431D01*
X0105655Y0150266D01*
X0105702Y0150102D01*
X0105753Y0149940D01*
X0105808Y0149778D01*
X0105867Y0149618D01*
X0105930Y0149460D01*
X0105996Y0149303D01*
X0106067Y0149148D01*
X0106141Y0148994D01*
X0106219Y0148843D01*
X0106301Y0148693D01*
X0106386Y0148545D01*
X0106475Y0148400D01*
X0106567Y0148257D01*
X0106663Y0148116D01*
X0106762Y0147977D01*
X0106865Y0147841D01*
X0106970Y0147707D01*
X0107079Y0147576D01*
X0107192Y0147448D01*
X0107307Y0147322D01*
X0107425Y0147199D01*
X0107546Y0147080D01*
X0107671Y0146963D01*
X0107798Y0146849D01*
X0107927Y0146738D01*
X0108060Y0146631D01*
X0108195Y0146527D01*
X0108332Y0146426D01*
X0108472Y0146328D01*
X0108614Y0146234D01*
X0108758Y0146144D01*
X0108905Y0146057D01*
X0109054Y0145973D01*
X0109204Y0145894D01*
X0109357Y0145818D01*
X0109511Y0145745D01*
X0109667Y0145677D01*
X0109825Y0145612D01*
X0109984Y0145551D01*
X0110145Y0145494D01*
X0110307Y0145441D01*
X0110470Y0145392D01*
X0110634Y0145347D01*
X0110800Y0145306D01*
X0110966Y0145268D01*
X0111134Y0145235D01*
X0111302Y0145207D01*
X0111470Y0145182D01*
X0111639Y0145161D01*
X0111809Y0145144D01*
X0111979Y0145132D01*
X0112149Y0145124D01*
X0112320Y0145120D01*
X0112490Y0145120D01*
X0112661Y0145124D01*
X0112831Y0145132D01*
X0113001Y0145144D01*
X0113171Y0145161D01*
X0113340Y0145182D01*
X0113508Y0145207D01*
X0113676Y0145235D01*
X0113844Y0145268D01*
X0114010Y0145306D01*
X0114176Y0145347D01*
X0114340Y0145392D01*
X0114503Y0145441D01*
X0114665Y0145494D01*
X0114826Y0145551D01*
X0114985Y0145612D01*
X0115143Y0145677D01*
X0115299Y0145745D01*
X0115453Y0145818D01*
X0115606Y0145894D01*
X0115756Y0145973D01*
X0115905Y0146057D01*
X0116052Y0146144D01*
X0116196Y0146234D01*
X0116338Y0146328D01*
X0116478Y0146426D01*
X0116615Y0146527D01*
X0116750Y0146631D01*
X0116883Y0146738D01*
X0117012Y0146849D01*
X0117139Y0146963D01*
X0117264Y0147080D01*
X0117385Y0147199D01*
X0117503Y0147322D01*
X0117618Y0147448D01*
X0117731Y0147576D01*
X0117840Y0147707D01*
X0117945Y0147841D01*
X0118048Y0147977D01*
X0118147Y0148116D01*
X0118243Y0148257D01*
X0118335Y0148400D01*
X0118424Y0148545D01*
X0118509Y0148693D01*
X0118591Y0148843D01*
X0118669Y0148994D01*
X0118743Y0149148D01*
X0118814Y0149303D01*
X0118880Y0149460D01*
X0118943Y0149618D01*
X0119002Y0149778D01*
X0119057Y0149940D01*
X0119108Y0150102D01*
X0119155Y0150266D01*
X0119198Y0150431D01*
X0119238Y0150597D01*
X0119273Y0150764D01*
X0119304Y0150931D01*
X0119330Y0151100D01*
X0119353Y0151269D01*
X0119372Y0151438D01*
X0119386Y0151608D01*
X0119397Y0151778D01*
X0119403Y0151949D01*
X0119405Y0152119D01*
M02*
