G75*
%MOIN*%
%OFA0B0*%
%FSLAX25Y25*%
%IPPOS*%
%LPD*%
%AMOC8*
5,1,8,0,0,1.08239X$1,22.5*
%
%ADD10C,0.00000*%
%ADD11C,0.10827*%
%ADD12R,0.05118X0.05906*%
%ADD13R,0.04331X0.03937*%
%ADD14R,0.03937X0.04331*%
%ADD15R,0.05906X0.05118*%
%ADD16R,0.01181X0.06299*%
%ADD17R,0.06299X0.01181*%
%ADD18R,0.05906X0.01378*%
%ADD19OC8,0.06000*%
%ADD20R,0.03150X0.03150*%
%ADD21C,0.03600*%
%ADD22R,0.05512X0.03937*%
%ADD23R,0.05000X0.02200*%
%ADD24R,0.09449X0.07874*%
%ADD25R,0.11024X0.03937*%
%ADD26R,0.03900X0.01200*%
%ADD27C,0.03937*%
%ADD28C,0.05512*%
D10*
X0008586Y0012587D02*
X0008586Y0213768D01*
X0008589Y0214006D01*
X0008597Y0214244D01*
X0008612Y0214481D01*
X0008632Y0214718D01*
X0008658Y0214954D01*
X0008689Y0215190D01*
X0008726Y0215425D01*
X0008769Y0215659D01*
X0008818Y0215892D01*
X0008872Y0216124D01*
X0008932Y0216354D01*
X0008997Y0216583D01*
X0009068Y0216810D01*
X0009144Y0217035D01*
X0009226Y0217258D01*
X0009313Y0217480D01*
X0009405Y0217699D01*
X0009503Y0217916D01*
X0009605Y0218130D01*
X0009713Y0218342D01*
X0009827Y0218552D01*
X0009945Y0218758D01*
X0010068Y0218962D01*
X0010196Y0219162D01*
X0010328Y0219359D01*
X0010466Y0219554D01*
X0010608Y0219744D01*
X0010755Y0219932D01*
X0010906Y0220115D01*
X0011061Y0220295D01*
X0011221Y0220471D01*
X0011385Y0220643D01*
X0011554Y0220812D01*
X0011726Y0220976D01*
X0011902Y0221136D01*
X0012082Y0221291D01*
X0012265Y0221442D01*
X0012453Y0221589D01*
X0012643Y0221731D01*
X0012838Y0221869D01*
X0013035Y0222001D01*
X0013235Y0222129D01*
X0013439Y0222252D01*
X0013645Y0222370D01*
X0013855Y0222484D01*
X0014067Y0222592D01*
X0014281Y0222694D01*
X0014498Y0222792D01*
X0014717Y0222884D01*
X0014939Y0222971D01*
X0015162Y0223053D01*
X0015387Y0223129D01*
X0015614Y0223200D01*
X0015843Y0223265D01*
X0016073Y0223325D01*
X0016305Y0223379D01*
X0016538Y0223428D01*
X0016772Y0223471D01*
X0017007Y0223508D01*
X0017243Y0223539D01*
X0017479Y0223565D01*
X0017716Y0223585D01*
X0017953Y0223600D01*
X0018191Y0223608D01*
X0018429Y0223611D01*
X0276303Y0223611D01*
X0276303Y0077942D01*
X0264492Y0077942D01*
X0264492Y0009044D01*
X0276303Y0009044D01*
X0276303Y0003138D01*
X0018429Y0003138D01*
X0018192Y0003136D01*
X0017955Y0003140D01*
X0017719Y0003150D01*
X0017482Y0003165D01*
X0017247Y0003186D01*
X0017011Y0003214D01*
X0016777Y0003246D01*
X0016543Y0003285D01*
X0016311Y0003329D01*
X0016079Y0003379D01*
X0015849Y0003435D01*
X0015620Y0003496D01*
X0015393Y0003563D01*
X0015168Y0003636D01*
X0014944Y0003714D01*
X0014723Y0003797D01*
X0014503Y0003886D01*
X0014286Y0003980D01*
X0014071Y0004079D01*
X0013859Y0004184D01*
X0013649Y0004294D01*
X0013442Y0004409D01*
X0013238Y0004529D01*
X0013037Y0004654D01*
X0012839Y0004784D01*
X0012644Y0004919D01*
X0012453Y0005059D01*
X0012265Y0005203D01*
X0012081Y0005351D01*
X0011900Y0005505D01*
X0011723Y0005662D01*
X0011550Y0005824D01*
X0011382Y0005990D01*
X0011217Y0006160D01*
X0011057Y0006334D01*
X0010900Y0006512D01*
X0010749Y0006694D01*
X0010602Y0006880D01*
X0010459Y0007069D01*
X0010321Y0007261D01*
X0010188Y0007457D01*
X0010060Y0007656D01*
X0009936Y0007858D01*
X0009818Y0008063D01*
X0009704Y0008271D01*
X0009596Y0008482D01*
X0009493Y0008695D01*
X0009396Y0008911D01*
X0009303Y0009129D01*
X0009216Y0009349D01*
X0009135Y0009571D01*
X0009059Y0009796D01*
X0008988Y0010022D01*
X0008923Y0010249D01*
X0008864Y0010478D01*
X0008810Y0010709D01*
X0008762Y0010941D01*
X0008719Y0011174D01*
X0008683Y0011408D01*
X0008652Y0011643D01*
X0008627Y0011878D01*
X0008607Y0012114D01*
X0008594Y0012350D01*
X0008586Y0012587D01*
X0016953Y0016918D02*
X0016955Y0017065D01*
X0016961Y0017211D01*
X0016971Y0017357D01*
X0016985Y0017503D01*
X0017003Y0017649D01*
X0017024Y0017794D01*
X0017050Y0017938D01*
X0017080Y0018082D01*
X0017113Y0018224D01*
X0017150Y0018366D01*
X0017191Y0018507D01*
X0017236Y0018646D01*
X0017285Y0018785D01*
X0017337Y0018922D01*
X0017394Y0019057D01*
X0017453Y0019191D01*
X0017517Y0019323D01*
X0017584Y0019453D01*
X0017654Y0019582D01*
X0017728Y0019709D01*
X0017805Y0019833D01*
X0017886Y0019956D01*
X0017970Y0020076D01*
X0018057Y0020194D01*
X0018147Y0020309D01*
X0018240Y0020422D01*
X0018337Y0020533D01*
X0018436Y0020641D01*
X0018538Y0020746D01*
X0018643Y0020848D01*
X0018751Y0020947D01*
X0018862Y0021044D01*
X0018975Y0021137D01*
X0019090Y0021227D01*
X0019208Y0021314D01*
X0019328Y0021398D01*
X0019451Y0021479D01*
X0019575Y0021556D01*
X0019702Y0021630D01*
X0019831Y0021700D01*
X0019961Y0021767D01*
X0020093Y0021831D01*
X0020227Y0021890D01*
X0020362Y0021947D01*
X0020499Y0021999D01*
X0020638Y0022048D01*
X0020777Y0022093D01*
X0020918Y0022134D01*
X0021060Y0022171D01*
X0021202Y0022204D01*
X0021346Y0022234D01*
X0021490Y0022260D01*
X0021635Y0022281D01*
X0021781Y0022299D01*
X0021927Y0022313D01*
X0022073Y0022323D01*
X0022219Y0022329D01*
X0022366Y0022331D01*
X0022513Y0022329D01*
X0022659Y0022323D01*
X0022805Y0022313D01*
X0022951Y0022299D01*
X0023097Y0022281D01*
X0023242Y0022260D01*
X0023386Y0022234D01*
X0023530Y0022204D01*
X0023672Y0022171D01*
X0023814Y0022134D01*
X0023955Y0022093D01*
X0024094Y0022048D01*
X0024233Y0021999D01*
X0024370Y0021947D01*
X0024505Y0021890D01*
X0024639Y0021831D01*
X0024771Y0021767D01*
X0024901Y0021700D01*
X0025030Y0021630D01*
X0025157Y0021556D01*
X0025281Y0021479D01*
X0025404Y0021398D01*
X0025524Y0021314D01*
X0025642Y0021227D01*
X0025757Y0021137D01*
X0025870Y0021044D01*
X0025981Y0020947D01*
X0026089Y0020848D01*
X0026194Y0020746D01*
X0026296Y0020641D01*
X0026395Y0020533D01*
X0026492Y0020422D01*
X0026585Y0020309D01*
X0026675Y0020194D01*
X0026762Y0020076D01*
X0026846Y0019956D01*
X0026927Y0019833D01*
X0027004Y0019709D01*
X0027078Y0019582D01*
X0027148Y0019453D01*
X0027215Y0019323D01*
X0027279Y0019191D01*
X0027338Y0019057D01*
X0027395Y0018922D01*
X0027447Y0018785D01*
X0027496Y0018646D01*
X0027541Y0018507D01*
X0027582Y0018366D01*
X0027619Y0018224D01*
X0027652Y0018082D01*
X0027682Y0017938D01*
X0027708Y0017794D01*
X0027729Y0017649D01*
X0027747Y0017503D01*
X0027761Y0017357D01*
X0027771Y0017211D01*
X0027777Y0017065D01*
X0027779Y0016918D01*
X0027777Y0016771D01*
X0027771Y0016625D01*
X0027761Y0016479D01*
X0027747Y0016333D01*
X0027729Y0016187D01*
X0027708Y0016042D01*
X0027682Y0015898D01*
X0027652Y0015754D01*
X0027619Y0015612D01*
X0027582Y0015470D01*
X0027541Y0015329D01*
X0027496Y0015190D01*
X0027447Y0015051D01*
X0027395Y0014914D01*
X0027338Y0014779D01*
X0027279Y0014645D01*
X0027215Y0014513D01*
X0027148Y0014383D01*
X0027078Y0014254D01*
X0027004Y0014127D01*
X0026927Y0014003D01*
X0026846Y0013880D01*
X0026762Y0013760D01*
X0026675Y0013642D01*
X0026585Y0013527D01*
X0026492Y0013414D01*
X0026395Y0013303D01*
X0026296Y0013195D01*
X0026194Y0013090D01*
X0026089Y0012988D01*
X0025981Y0012889D01*
X0025870Y0012792D01*
X0025757Y0012699D01*
X0025642Y0012609D01*
X0025524Y0012522D01*
X0025404Y0012438D01*
X0025281Y0012357D01*
X0025157Y0012280D01*
X0025030Y0012206D01*
X0024901Y0012136D01*
X0024771Y0012069D01*
X0024639Y0012005D01*
X0024505Y0011946D01*
X0024370Y0011889D01*
X0024233Y0011837D01*
X0024094Y0011788D01*
X0023955Y0011743D01*
X0023814Y0011702D01*
X0023672Y0011665D01*
X0023530Y0011632D01*
X0023386Y0011602D01*
X0023242Y0011576D01*
X0023097Y0011555D01*
X0022951Y0011537D01*
X0022805Y0011523D01*
X0022659Y0011513D01*
X0022513Y0011507D01*
X0022366Y0011505D01*
X0022219Y0011507D01*
X0022073Y0011513D01*
X0021927Y0011523D01*
X0021781Y0011537D01*
X0021635Y0011555D01*
X0021490Y0011576D01*
X0021346Y0011602D01*
X0021202Y0011632D01*
X0021060Y0011665D01*
X0020918Y0011702D01*
X0020777Y0011743D01*
X0020638Y0011788D01*
X0020499Y0011837D01*
X0020362Y0011889D01*
X0020227Y0011946D01*
X0020093Y0012005D01*
X0019961Y0012069D01*
X0019831Y0012136D01*
X0019702Y0012206D01*
X0019575Y0012280D01*
X0019451Y0012357D01*
X0019328Y0012438D01*
X0019208Y0012522D01*
X0019090Y0012609D01*
X0018975Y0012699D01*
X0018862Y0012792D01*
X0018751Y0012889D01*
X0018643Y0012988D01*
X0018538Y0013090D01*
X0018436Y0013195D01*
X0018337Y0013303D01*
X0018240Y0013414D01*
X0018147Y0013527D01*
X0018057Y0013642D01*
X0017970Y0013760D01*
X0017886Y0013880D01*
X0017805Y0014003D01*
X0017728Y0014127D01*
X0017654Y0014254D01*
X0017584Y0014383D01*
X0017517Y0014513D01*
X0017453Y0014645D01*
X0017394Y0014779D01*
X0017337Y0014914D01*
X0017285Y0015051D01*
X0017236Y0015190D01*
X0017191Y0015329D01*
X0017150Y0015470D01*
X0017113Y0015612D01*
X0017080Y0015754D01*
X0017050Y0015898D01*
X0017024Y0016042D01*
X0017003Y0016187D01*
X0016985Y0016333D01*
X0016971Y0016479D01*
X0016961Y0016625D01*
X0016955Y0016771D01*
X0016953Y0016918D01*
X0245299Y0016918D02*
X0245301Y0017065D01*
X0245307Y0017211D01*
X0245317Y0017357D01*
X0245331Y0017503D01*
X0245349Y0017649D01*
X0245370Y0017794D01*
X0245396Y0017938D01*
X0245426Y0018082D01*
X0245459Y0018224D01*
X0245496Y0018366D01*
X0245537Y0018507D01*
X0245582Y0018646D01*
X0245631Y0018785D01*
X0245683Y0018922D01*
X0245740Y0019057D01*
X0245799Y0019191D01*
X0245863Y0019323D01*
X0245930Y0019453D01*
X0246000Y0019582D01*
X0246074Y0019709D01*
X0246151Y0019833D01*
X0246232Y0019956D01*
X0246316Y0020076D01*
X0246403Y0020194D01*
X0246493Y0020309D01*
X0246586Y0020422D01*
X0246683Y0020533D01*
X0246782Y0020641D01*
X0246884Y0020746D01*
X0246989Y0020848D01*
X0247097Y0020947D01*
X0247208Y0021044D01*
X0247321Y0021137D01*
X0247436Y0021227D01*
X0247554Y0021314D01*
X0247674Y0021398D01*
X0247797Y0021479D01*
X0247921Y0021556D01*
X0248048Y0021630D01*
X0248177Y0021700D01*
X0248307Y0021767D01*
X0248439Y0021831D01*
X0248573Y0021890D01*
X0248708Y0021947D01*
X0248845Y0021999D01*
X0248984Y0022048D01*
X0249123Y0022093D01*
X0249264Y0022134D01*
X0249406Y0022171D01*
X0249548Y0022204D01*
X0249692Y0022234D01*
X0249836Y0022260D01*
X0249981Y0022281D01*
X0250127Y0022299D01*
X0250273Y0022313D01*
X0250419Y0022323D01*
X0250565Y0022329D01*
X0250712Y0022331D01*
X0250859Y0022329D01*
X0251005Y0022323D01*
X0251151Y0022313D01*
X0251297Y0022299D01*
X0251443Y0022281D01*
X0251588Y0022260D01*
X0251732Y0022234D01*
X0251876Y0022204D01*
X0252018Y0022171D01*
X0252160Y0022134D01*
X0252301Y0022093D01*
X0252440Y0022048D01*
X0252579Y0021999D01*
X0252716Y0021947D01*
X0252851Y0021890D01*
X0252985Y0021831D01*
X0253117Y0021767D01*
X0253247Y0021700D01*
X0253376Y0021630D01*
X0253503Y0021556D01*
X0253627Y0021479D01*
X0253750Y0021398D01*
X0253870Y0021314D01*
X0253988Y0021227D01*
X0254103Y0021137D01*
X0254216Y0021044D01*
X0254327Y0020947D01*
X0254435Y0020848D01*
X0254540Y0020746D01*
X0254642Y0020641D01*
X0254741Y0020533D01*
X0254838Y0020422D01*
X0254931Y0020309D01*
X0255021Y0020194D01*
X0255108Y0020076D01*
X0255192Y0019956D01*
X0255273Y0019833D01*
X0255350Y0019709D01*
X0255424Y0019582D01*
X0255494Y0019453D01*
X0255561Y0019323D01*
X0255625Y0019191D01*
X0255684Y0019057D01*
X0255741Y0018922D01*
X0255793Y0018785D01*
X0255842Y0018646D01*
X0255887Y0018507D01*
X0255928Y0018366D01*
X0255965Y0018224D01*
X0255998Y0018082D01*
X0256028Y0017938D01*
X0256054Y0017794D01*
X0256075Y0017649D01*
X0256093Y0017503D01*
X0256107Y0017357D01*
X0256117Y0017211D01*
X0256123Y0017065D01*
X0256125Y0016918D01*
X0256123Y0016771D01*
X0256117Y0016625D01*
X0256107Y0016479D01*
X0256093Y0016333D01*
X0256075Y0016187D01*
X0256054Y0016042D01*
X0256028Y0015898D01*
X0255998Y0015754D01*
X0255965Y0015612D01*
X0255928Y0015470D01*
X0255887Y0015329D01*
X0255842Y0015190D01*
X0255793Y0015051D01*
X0255741Y0014914D01*
X0255684Y0014779D01*
X0255625Y0014645D01*
X0255561Y0014513D01*
X0255494Y0014383D01*
X0255424Y0014254D01*
X0255350Y0014127D01*
X0255273Y0014003D01*
X0255192Y0013880D01*
X0255108Y0013760D01*
X0255021Y0013642D01*
X0254931Y0013527D01*
X0254838Y0013414D01*
X0254741Y0013303D01*
X0254642Y0013195D01*
X0254540Y0013090D01*
X0254435Y0012988D01*
X0254327Y0012889D01*
X0254216Y0012792D01*
X0254103Y0012699D01*
X0253988Y0012609D01*
X0253870Y0012522D01*
X0253750Y0012438D01*
X0253627Y0012357D01*
X0253503Y0012280D01*
X0253376Y0012206D01*
X0253247Y0012136D01*
X0253117Y0012069D01*
X0252985Y0012005D01*
X0252851Y0011946D01*
X0252716Y0011889D01*
X0252579Y0011837D01*
X0252440Y0011788D01*
X0252301Y0011743D01*
X0252160Y0011702D01*
X0252018Y0011665D01*
X0251876Y0011632D01*
X0251732Y0011602D01*
X0251588Y0011576D01*
X0251443Y0011555D01*
X0251297Y0011537D01*
X0251151Y0011523D01*
X0251005Y0011513D01*
X0250859Y0011507D01*
X0250712Y0011505D01*
X0250565Y0011507D01*
X0250419Y0011513D01*
X0250273Y0011523D01*
X0250127Y0011537D01*
X0249981Y0011555D01*
X0249836Y0011576D01*
X0249692Y0011602D01*
X0249548Y0011632D01*
X0249406Y0011665D01*
X0249264Y0011702D01*
X0249123Y0011743D01*
X0248984Y0011788D01*
X0248845Y0011837D01*
X0248708Y0011889D01*
X0248573Y0011946D01*
X0248439Y0012005D01*
X0248307Y0012069D01*
X0248177Y0012136D01*
X0248048Y0012206D01*
X0247921Y0012280D01*
X0247797Y0012357D01*
X0247674Y0012438D01*
X0247554Y0012522D01*
X0247436Y0012609D01*
X0247321Y0012699D01*
X0247208Y0012792D01*
X0247097Y0012889D01*
X0246989Y0012988D01*
X0246884Y0013090D01*
X0246782Y0013195D01*
X0246683Y0013303D01*
X0246586Y0013414D01*
X0246493Y0013527D01*
X0246403Y0013642D01*
X0246316Y0013760D01*
X0246232Y0013880D01*
X0246151Y0014003D01*
X0246074Y0014127D01*
X0246000Y0014254D01*
X0245930Y0014383D01*
X0245863Y0014513D01*
X0245799Y0014645D01*
X0245740Y0014779D01*
X0245683Y0014914D01*
X0245631Y0015051D01*
X0245582Y0015190D01*
X0245537Y0015329D01*
X0245496Y0015470D01*
X0245459Y0015612D01*
X0245426Y0015754D01*
X0245396Y0015898D01*
X0245370Y0016042D01*
X0245349Y0016187D01*
X0245331Y0016333D01*
X0245317Y0016479D01*
X0245307Y0016625D01*
X0245301Y0016771D01*
X0245299Y0016918D01*
X0245299Y0209831D02*
X0245301Y0209978D01*
X0245307Y0210124D01*
X0245317Y0210270D01*
X0245331Y0210416D01*
X0245349Y0210562D01*
X0245370Y0210707D01*
X0245396Y0210851D01*
X0245426Y0210995D01*
X0245459Y0211137D01*
X0245496Y0211279D01*
X0245537Y0211420D01*
X0245582Y0211559D01*
X0245631Y0211698D01*
X0245683Y0211835D01*
X0245740Y0211970D01*
X0245799Y0212104D01*
X0245863Y0212236D01*
X0245930Y0212366D01*
X0246000Y0212495D01*
X0246074Y0212622D01*
X0246151Y0212746D01*
X0246232Y0212869D01*
X0246316Y0212989D01*
X0246403Y0213107D01*
X0246493Y0213222D01*
X0246586Y0213335D01*
X0246683Y0213446D01*
X0246782Y0213554D01*
X0246884Y0213659D01*
X0246989Y0213761D01*
X0247097Y0213860D01*
X0247208Y0213957D01*
X0247321Y0214050D01*
X0247436Y0214140D01*
X0247554Y0214227D01*
X0247674Y0214311D01*
X0247797Y0214392D01*
X0247921Y0214469D01*
X0248048Y0214543D01*
X0248177Y0214613D01*
X0248307Y0214680D01*
X0248439Y0214744D01*
X0248573Y0214803D01*
X0248708Y0214860D01*
X0248845Y0214912D01*
X0248984Y0214961D01*
X0249123Y0215006D01*
X0249264Y0215047D01*
X0249406Y0215084D01*
X0249548Y0215117D01*
X0249692Y0215147D01*
X0249836Y0215173D01*
X0249981Y0215194D01*
X0250127Y0215212D01*
X0250273Y0215226D01*
X0250419Y0215236D01*
X0250565Y0215242D01*
X0250712Y0215244D01*
X0250859Y0215242D01*
X0251005Y0215236D01*
X0251151Y0215226D01*
X0251297Y0215212D01*
X0251443Y0215194D01*
X0251588Y0215173D01*
X0251732Y0215147D01*
X0251876Y0215117D01*
X0252018Y0215084D01*
X0252160Y0215047D01*
X0252301Y0215006D01*
X0252440Y0214961D01*
X0252579Y0214912D01*
X0252716Y0214860D01*
X0252851Y0214803D01*
X0252985Y0214744D01*
X0253117Y0214680D01*
X0253247Y0214613D01*
X0253376Y0214543D01*
X0253503Y0214469D01*
X0253627Y0214392D01*
X0253750Y0214311D01*
X0253870Y0214227D01*
X0253988Y0214140D01*
X0254103Y0214050D01*
X0254216Y0213957D01*
X0254327Y0213860D01*
X0254435Y0213761D01*
X0254540Y0213659D01*
X0254642Y0213554D01*
X0254741Y0213446D01*
X0254838Y0213335D01*
X0254931Y0213222D01*
X0255021Y0213107D01*
X0255108Y0212989D01*
X0255192Y0212869D01*
X0255273Y0212746D01*
X0255350Y0212622D01*
X0255424Y0212495D01*
X0255494Y0212366D01*
X0255561Y0212236D01*
X0255625Y0212104D01*
X0255684Y0211970D01*
X0255741Y0211835D01*
X0255793Y0211698D01*
X0255842Y0211559D01*
X0255887Y0211420D01*
X0255928Y0211279D01*
X0255965Y0211137D01*
X0255998Y0210995D01*
X0256028Y0210851D01*
X0256054Y0210707D01*
X0256075Y0210562D01*
X0256093Y0210416D01*
X0256107Y0210270D01*
X0256117Y0210124D01*
X0256123Y0209978D01*
X0256125Y0209831D01*
X0256123Y0209684D01*
X0256117Y0209538D01*
X0256107Y0209392D01*
X0256093Y0209246D01*
X0256075Y0209100D01*
X0256054Y0208955D01*
X0256028Y0208811D01*
X0255998Y0208667D01*
X0255965Y0208525D01*
X0255928Y0208383D01*
X0255887Y0208242D01*
X0255842Y0208103D01*
X0255793Y0207964D01*
X0255741Y0207827D01*
X0255684Y0207692D01*
X0255625Y0207558D01*
X0255561Y0207426D01*
X0255494Y0207296D01*
X0255424Y0207167D01*
X0255350Y0207040D01*
X0255273Y0206916D01*
X0255192Y0206793D01*
X0255108Y0206673D01*
X0255021Y0206555D01*
X0254931Y0206440D01*
X0254838Y0206327D01*
X0254741Y0206216D01*
X0254642Y0206108D01*
X0254540Y0206003D01*
X0254435Y0205901D01*
X0254327Y0205802D01*
X0254216Y0205705D01*
X0254103Y0205612D01*
X0253988Y0205522D01*
X0253870Y0205435D01*
X0253750Y0205351D01*
X0253627Y0205270D01*
X0253503Y0205193D01*
X0253376Y0205119D01*
X0253247Y0205049D01*
X0253117Y0204982D01*
X0252985Y0204918D01*
X0252851Y0204859D01*
X0252716Y0204802D01*
X0252579Y0204750D01*
X0252440Y0204701D01*
X0252301Y0204656D01*
X0252160Y0204615D01*
X0252018Y0204578D01*
X0251876Y0204545D01*
X0251732Y0204515D01*
X0251588Y0204489D01*
X0251443Y0204468D01*
X0251297Y0204450D01*
X0251151Y0204436D01*
X0251005Y0204426D01*
X0250859Y0204420D01*
X0250712Y0204418D01*
X0250565Y0204420D01*
X0250419Y0204426D01*
X0250273Y0204436D01*
X0250127Y0204450D01*
X0249981Y0204468D01*
X0249836Y0204489D01*
X0249692Y0204515D01*
X0249548Y0204545D01*
X0249406Y0204578D01*
X0249264Y0204615D01*
X0249123Y0204656D01*
X0248984Y0204701D01*
X0248845Y0204750D01*
X0248708Y0204802D01*
X0248573Y0204859D01*
X0248439Y0204918D01*
X0248307Y0204982D01*
X0248177Y0205049D01*
X0248048Y0205119D01*
X0247921Y0205193D01*
X0247797Y0205270D01*
X0247674Y0205351D01*
X0247554Y0205435D01*
X0247436Y0205522D01*
X0247321Y0205612D01*
X0247208Y0205705D01*
X0247097Y0205802D01*
X0246989Y0205901D01*
X0246884Y0206003D01*
X0246782Y0206108D01*
X0246683Y0206216D01*
X0246586Y0206327D01*
X0246493Y0206440D01*
X0246403Y0206555D01*
X0246316Y0206673D01*
X0246232Y0206793D01*
X0246151Y0206916D01*
X0246074Y0207040D01*
X0246000Y0207167D01*
X0245930Y0207296D01*
X0245863Y0207426D01*
X0245799Y0207558D01*
X0245740Y0207692D01*
X0245683Y0207827D01*
X0245631Y0207964D01*
X0245582Y0208103D01*
X0245537Y0208242D01*
X0245496Y0208383D01*
X0245459Y0208525D01*
X0245426Y0208667D01*
X0245396Y0208811D01*
X0245370Y0208955D01*
X0245349Y0209100D01*
X0245331Y0209246D01*
X0245317Y0209392D01*
X0245307Y0209538D01*
X0245301Y0209684D01*
X0245299Y0209831D01*
X0016953Y0209831D02*
X0016955Y0209978D01*
X0016961Y0210124D01*
X0016971Y0210270D01*
X0016985Y0210416D01*
X0017003Y0210562D01*
X0017024Y0210707D01*
X0017050Y0210851D01*
X0017080Y0210995D01*
X0017113Y0211137D01*
X0017150Y0211279D01*
X0017191Y0211420D01*
X0017236Y0211559D01*
X0017285Y0211698D01*
X0017337Y0211835D01*
X0017394Y0211970D01*
X0017453Y0212104D01*
X0017517Y0212236D01*
X0017584Y0212366D01*
X0017654Y0212495D01*
X0017728Y0212622D01*
X0017805Y0212746D01*
X0017886Y0212869D01*
X0017970Y0212989D01*
X0018057Y0213107D01*
X0018147Y0213222D01*
X0018240Y0213335D01*
X0018337Y0213446D01*
X0018436Y0213554D01*
X0018538Y0213659D01*
X0018643Y0213761D01*
X0018751Y0213860D01*
X0018862Y0213957D01*
X0018975Y0214050D01*
X0019090Y0214140D01*
X0019208Y0214227D01*
X0019328Y0214311D01*
X0019451Y0214392D01*
X0019575Y0214469D01*
X0019702Y0214543D01*
X0019831Y0214613D01*
X0019961Y0214680D01*
X0020093Y0214744D01*
X0020227Y0214803D01*
X0020362Y0214860D01*
X0020499Y0214912D01*
X0020638Y0214961D01*
X0020777Y0215006D01*
X0020918Y0215047D01*
X0021060Y0215084D01*
X0021202Y0215117D01*
X0021346Y0215147D01*
X0021490Y0215173D01*
X0021635Y0215194D01*
X0021781Y0215212D01*
X0021927Y0215226D01*
X0022073Y0215236D01*
X0022219Y0215242D01*
X0022366Y0215244D01*
X0022513Y0215242D01*
X0022659Y0215236D01*
X0022805Y0215226D01*
X0022951Y0215212D01*
X0023097Y0215194D01*
X0023242Y0215173D01*
X0023386Y0215147D01*
X0023530Y0215117D01*
X0023672Y0215084D01*
X0023814Y0215047D01*
X0023955Y0215006D01*
X0024094Y0214961D01*
X0024233Y0214912D01*
X0024370Y0214860D01*
X0024505Y0214803D01*
X0024639Y0214744D01*
X0024771Y0214680D01*
X0024901Y0214613D01*
X0025030Y0214543D01*
X0025157Y0214469D01*
X0025281Y0214392D01*
X0025404Y0214311D01*
X0025524Y0214227D01*
X0025642Y0214140D01*
X0025757Y0214050D01*
X0025870Y0213957D01*
X0025981Y0213860D01*
X0026089Y0213761D01*
X0026194Y0213659D01*
X0026296Y0213554D01*
X0026395Y0213446D01*
X0026492Y0213335D01*
X0026585Y0213222D01*
X0026675Y0213107D01*
X0026762Y0212989D01*
X0026846Y0212869D01*
X0026927Y0212746D01*
X0027004Y0212622D01*
X0027078Y0212495D01*
X0027148Y0212366D01*
X0027215Y0212236D01*
X0027279Y0212104D01*
X0027338Y0211970D01*
X0027395Y0211835D01*
X0027447Y0211698D01*
X0027496Y0211559D01*
X0027541Y0211420D01*
X0027582Y0211279D01*
X0027619Y0211137D01*
X0027652Y0210995D01*
X0027682Y0210851D01*
X0027708Y0210707D01*
X0027729Y0210562D01*
X0027747Y0210416D01*
X0027761Y0210270D01*
X0027771Y0210124D01*
X0027777Y0209978D01*
X0027779Y0209831D01*
X0027777Y0209684D01*
X0027771Y0209538D01*
X0027761Y0209392D01*
X0027747Y0209246D01*
X0027729Y0209100D01*
X0027708Y0208955D01*
X0027682Y0208811D01*
X0027652Y0208667D01*
X0027619Y0208525D01*
X0027582Y0208383D01*
X0027541Y0208242D01*
X0027496Y0208103D01*
X0027447Y0207964D01*
X0027395Y0207827D01*
X0027338Y0207692D01*
X0027279Y0207558D01*
X0027215Y0207426D01*
X0027148Y0207296D01*
X0027078Y0207167D01*
X0027004Y0207040D01*
X0026927Y0206916D01*
X0026846Y0206793D01*
X0026762Y0206673D01*
X0026675Y0206555D01*
X0026585Y0206440D01*
X0026492Y0206327D01*
X0026395Y0206216D01*
X0026296Y0206108D01*
X0026194Y0206003D01*
X0026089Y0205901D01*
X0025981Y0205802D01*
X0025870Y0205705D01*
X0025757Y0205612D01*
X0025642Y0205522D01*
X0025524Y0205435D01*
X0025404Y0205351D01*
X0025281Y0205270D01*
X0025157Y0205193D01*
X0025030Y0205119D01*
X0024901Y0205049D01*
X0024771Y0204982D01*
X0024639Y0204918D01*
X0024505Y0204859D01*
X0024370Y0204802D01*
X0024233Y0204750D01*
X0024094Y0204701D01*
X0023955Y0204656D01*
X0023814Y0204615D01*
X0023672Y0204578D01*
X0023530Y0204545D01*
X0023386Y0204515D01*
X0023242Y0204489D01*
X0023097Y0204468D01*
X0022951Y0204450D01*
X0022805Y0204436D01*
X0022659Y0204426D01*
X0022513Y0204420D01*
X0022366Y0204418D01*
X0022219Y0204420D01*
X0022073Y0204426D01*
X0021927Y0204436D01*
X0021781Y0204450D01*
X0021635Y0204468D01*
X0021490Y0204489D01*
X0021346Y0204515D01*
X0021202Y0204545D01*
X0021060Y0204578D01*
X0020918Y0204615D01*
X0020777Y0204656D01*
X0020638Y0204701D01*
X0020499Y0204750D01*
X0020362Y0204802D01*
X0020227Y0204859D01*
X0020093Y0204918D01*
X0019961Y0204982D01*
X0019831Y0205049D01*
X0019702Y0205119D01*
X0019575Y0205193D01*
X0019451Y0205270D01*
X0019328Y0205351D01*
X0019208Y0205435D01*
X0019090Y0205522D01*
X0018975Y0205612D01*
X0018862Y0205705D01*
X0018751Y0205802D01*
X0018643Y0205901D01*
X0018538Y0206003D01*
X0018436Y0206108D01*
X0018337Y0206216D01*
X0018240Y0206327D01*
X0018147Y0206440D01*
X0018057Y0206555D01*
X0017970Y0206673D01*
X0017886Y0206793D01*
X0017805Y0206916D01*
X0017728Y0207040D01*
X0017654Y0207167D01*
X0017584Y0207296D01*
X0017517Y0207426D01*
X0017453Y0207558D01*
X0017394Y0207692D01*
X0017337Y0207827D01*
X0017285Y0207964D01*
X0017236Y0208103D01*
X0017191Y0208242D01*
X0017150Y0208383D01*
X0017113Y0208525D01*
X0017080Y0208667D01*
X0017050Y0208811D01*
X0017024Y0208955D01*
X0017003Y0209100D01*
X0016985Y0209246D01*
X0016971Y0209392D01*
X0016961Y0209538D01*
X0016955Y0209684D01*
X0016953Y0209831D01*
D11*
X0022366Y0209831D03*
X0250712Y0209831D03*
X0250712Y0016918D03*
X0022366Y0016918D03*
D12*
X0080830Y0107863D03*
X0088311Y0107863D03*
X0071382Y0116524D03*
X0063901Y0116524D03*
X0063901Y0133453D03*
X0071382Y0133453D03*
X0054846Y0177548D03*
X0047366Y0177548D03*
X0193035Y0151564D03*
X0200515Y0151564D03*
D13*
X0196185Y0141327D03*
X0189492Y0141327D03*
X0206027Y0141327D03*
X0212720Y0141327D03*
X0225909Y0133650D03*
X0225909Y0126957D03*
X0231224Y0096446D03*
X0237917Y0096446D03*
X0237523Y0069674D03*
X0230830Y0069674D03*
X0170397Y0072233D03*
X0170397Y0065540D03*
X0162326Y0075186D03*
X0155634Y0075186D03*
X0142051Y0071446D03*
X0142051Y0064753D03*
X0131224Y0065737D03*
X0124531Y0065737D03*
X0115279Y0057272D03*
X0115279Y0050579D03*
X0104649Y0050579D03*
X0104649Y0057272D03*
X0094413Y0057272D03*
X0094413Y0050579D03*
X0084177Y0050579D03*
X0084177Y0057272D03*
X0070988Y0108257D03*
X0064295Y0108257D03*
X0081224Y0117705D03*
X0087917Y0117705D03*
X0070988Y0124792D03*
X0064295Y0124792D03*
X0026145Y0162587D03*
X0026145Y0169280D03*
X0029256Y0177548D03*
X0035948Y0177548D03*
X0143232Y0178926D03*
X0143232Y0185619D03*
X0151500Y0185619D03*
X0151500Y0178926D03*
X0160161Y0171446D03*
X0160161Y0164753D03*
X0143232Y0167509D03*
X0143232Y0160816D03*
X0267011Y0182115D03*
X0267011Y0188808D03*
D14*
X0266460Y0163572D03*
X0266460Y0156879D03*
X0266460Y0149792D03*
X0266460Y0143099D03*
X0245200Y0133650D03*
X0245200Y0126957D03*
X0209767Y0150186D03*
X0209767Y0156879D03*
X0205240Y0163768D03*
X0198547Y0163768D03*
X0184964Y0178532D03*
X0184964Y0185225D03*
X0159767Y0185619D03*
X0159767Y0178926D03*
X0134964Y0167509D03*
X0134964Y0160816D03*
X0126697Y0160816D03*
X0126697Y0167509D03*
X0095200Y0157272D03*
X0095200Y0150579D03*
X0086145Y0150579D03*
X0086145Y0157272D03*
X0084767Y0164556D03*
X0091460Y0164556D03*
X0035161Y0141721D03*
X0028468Y0141721D03*
X0121736Y0093060D03*
X0128429Y0093060D03*
X0131224Y0074005D03*
X0124531Y0074005D03*
X0155634Y0066918D03*
X0162326Y0066918D03*
X0115279Y0045068D03*
X0115279Y0038375D03*
X0104649Y0038375D03*
X0104649Y0045068D03*
X0094413Y0045068D03*
X0094413Y0038375D03*
X0084177Y0038375D03*
X0084177Y0045068D03*
X0231224Y0078335D03*
X0237917Y0078335D03*
X0237917Y0087390D03*
X0231224Y0087390D03*
D15*
X0170397Y0056879D03*
X0170397Y0049398D03*
X0142051Y0049792D03*
X0142051Y0057272D03*
X0115279Y0064359D03*
X0115279Y0071839D03*
X0104649Y0071839D03*
X0104649Y0064359D03*
X0094413Y0064359D03*
X0094413Y0071839D03*
X0084177Y0071839D03*
X0084177Y0064359D03*
X0168035Y0178532D03*
X0168035Y0186012D03*
X0176697Y0186012D03*
X0176697Y0178532D03*
D16*
X0157799Y0141918D03*
X0155830Y0141918D03*
X0153862Y0141918D03*
X0151893Y0141918D03*
X0149925Y0141918D03*
X0147956Y0141918D03*
X0145988Y0141918D03*
X0144019Y0141918D03*
X0142051Y0141918D03*
X0140082Y0141918D03*
X0138114Y0141918D03*
X0136145Y0141918D03*
X0136145Y0108060D03*
X0138114Y0108060D03*
X0140082Y0108060D03*
X0142051Y0108060D03*
X0144019Y0108060D03*
X0145988Y0108060D03*
X0147956Y0108060D03*
X0149925Y0108060D03*
X0151893Y0108060D03*
X0153862Y0108060D03*
X0155830Y0108060D03*
X0157799Y0108060D03*
D17*
X0163901Y0114162D03*
X0163901Y0116131D03*
X0163901Y0118099D03*
X0163901Y0120068D03*
X0163901Y0122036D03*
X0163901Y0124005D03*
X0163901Y0125973D03*
X0163901Y0127942D03*
X0163901Y0129910D03*
X0163901Y0131879D03*
X0163901Y0133847D03*
X0163901Y0135816D03*
X0130043Y0135816D03*
X0130043Y0133847D03*
X0130043Y0131879D03*
X0130043Y0129910D03*
X0130043Y0125973D03*
X0130043Y0124005D03*
X0130043Y0122036D03*
X0130043Y0120068D03*
X0130043Y0118099D03*
X0130043Y0116131D03*
X0130043Y0114162D03*
D18*
X0130043Y0127942D03*
D19*
X0131539Y0204831D03*
X0141539Y0204831D03*
X0151539Y0204831D03*
X0161539Y0204831D03*
X0171539Y0204831D03*
X0181539Y0204831D03*
X0191539Y0204831D03*
X0201539Y0204831D03*
X0211539Y0204831D03*
X0221539Y0204831D03*
X0231539Y0204831D03*
X0231539Y0214831D03*
X0221539Y0214831D03*
X0211539Y0214831D03*
X0201539Y0214831D03*
X0191539Y0214831D03*
X0181539Y0214831D03*
X0171539Y0214831D03*
X0161539Y0214831D03*
X0151539Y0214831D03*
X0141539Y0214831D03*
X0131539Y0214831D03*
X0121539Y0214831D03*
X0111539Y0214831D03*
X0111539Y0204831D03*
X0121539Y0204831D03*
X0101539Y0204831D03*
X0091539Y0204831D03*
X0081539Y0204831D03*
X0071539Y0204831D03*
X0061539Y0204831D03*
X0051539Y0204831D03*
X0041539Y0204831D03*
X0041539Y0214831D03*
X0051539Y0214831D03*
X0061539Y0214831D03*
X0071539Y0214831D03*
X0081539Y0214831D03*
X0091539Y0214831D03*
X0101539Y0214831D03*
X0101539Y0021918D03*
X0091539Y0021918D03*
X0081539Y0021918D03*
X0071539Y0021918D03*
X0061539Y0021918D03*
X0051539Y0021918D03*
X0041539Y0021918D03*
X0041539Y0011918D03*
X0051539Y0011918D03*
X0061539Y0011918D03*
X0071539Y0011918D03*
X0081539Y0011918D03*
X0091539Y0011918D03*
X0101539Y0011918D03*
X0111539Y0011918D03*
X0121539Y0011918D03*
X0121539Y0021918D03*
X0111539Y0021918D03*
X0131539Y0021918D03*
X0141539Y0021918D03*
X0141539Y0011918D03*
X0131539Y0011918D03*
X0151539Y0011918D03*
X0161539Y0011918D03*
X0171539Y0011918D03*
X0171539Y0021918D03*
X0161539Y0021918D03*
X0151539Y0021918D03*
X0181539Y0021918D03*
X0191539Y0021918D03*
X0191539Y0011918D03*
X0181539Y0011918D03*
X0201539Y0011918D03*
X0211539Y0011918D03*
X0211539Y0021918D03*
X0201539Y0021918D03*
X0221539Y0021918D03*
X0231539Y0021918D03*
X0231539Y0011918D03*
X0221539Y0011918D03*
D20*
X0265673Y0196249D03*
X0265673Y0202154D03*
D21*
X0114205Y0175619D02*
X0110605Y0175619D01*
X0110605Y0155619D02*
X0114205Y0155619D01*
D22*
X0169925Y0162509D03*
X0169925Y0169989D03*
X0178586Y0166249D03*
D23*
X0046836Y0169673D03*
X0046836Y0162273D03*
X0036636Y0162273D03*
X0036636Y0165973D03*
X0036636Y0169673D03*
D24*
X0128665Y0055107D03*
X0128665Y0040146D03*
X0157011Y0040146D03*
X0157011Y0055107D03*
D25*
X0044610Y0051564D03*
X0026106Y0051564D03*
D26*
X0225288Y0141672D03*
X0225288Y0144172D03*
X0225288Y0146672D03*
X0225288Y0149172D03*
X0225288Y0151672D03*
X0225288Y0154172D03*
X0225288Y0156672D03*
X0225288Y0159172D03*
X0225288Y0161672D03*
X0225288Y0164172D03*
X0247082Y0164172D03*
X0247082Y0161672D03*
X0247082Y0159172D03*
X0247082Y0156672D03*
X0247082Y0154172D03*
X0247082Y0151672D03*
X0247082Y0149172D03*
X0247082Y0146672D03*
X0247082Y0144172D03*
X0247082Y0141672D03*
D27*
X0210948Y0120855D03*
X0267248Y0173611D03*
D28*
X0223153Y0097233D03*
X0221972Y0070461D03*
M02*
