%
M48
M72
T01C0.01181
T02C0.02362
T03C0.03150
T04C0.03200
T05C0.04000
T06C0.06299
T07C0.06496
T08C0.10827
%
T01
X21008Y33111
X70614Y61063
X69827Y79567
X69433Y98071
X91087Y122481
X69827Y137048
X69040Y156339
X69827Y174843
X115496Y165788
X115496Y162244
X115496Y158701
X119827Y158701
X120221Y155158
X120221Y151614
X124945Y151614
X124945Y155158
X124945Y158701
X124945Y162244
X124945Y165788
X120221Y165788
X120221Y162244
X115496Y155158
X115496Y151614
X126914Y137441
X118646Y131929
X119236Y123662
X117465Y115788
X117465Y107520
X142268Y123662
X148173Y120906
X161953Y124449
X159197Y128386
X152110Y134685
X135969Y128386
X160378Y148859
X160772Y155158
X159984Y161851
X152110Y169725
X174945Y184292
X182425Y181142
X182425Y188229
X195024Y196890
X209591Y188229
X207622Y179961
X229276Y168544
X243055Y162244
X235181Y157126
X240299Y150827
X232819Y142166
X232425Y137048
X221008Y142166
X222189Y148071
X221796Y152008
X211166Y155158
X211953Y159095
X202504Y142559
X206441Y135079
X200536Y127992
X200536Y122874
X200536Y117756
X200536Y113032
X183607Y113819
X176914Y121693
X172583Y127599
X174551Y135473
X184788Y153583
X182032Y162244
X220614Y126811
X234000Y114607
X234000Y110670
X233607Y103583
X232819Y99646
X233607Y96103
X233607Y89016
X241481Y86260
X247386Y76811
X231244Y70906
X229276Y74055
X215496Y69331
X209984Y65788
X219827Y63819
X228095Y61457
X225339Y56339
X218646Y53977
X215496Y50040
X212740Y46496
X221008Y40197
X225339Y40197
X201717Y42953
X199355Y46496
X201717Y50040
X200536Y53977
X202898Y57126
X198961Y63819
X208016Y74055
X187544Y80748
X181244Y79173
X177701Y81536
X184000Y89410
X183607Y93347
X179670Y99252
X182032Y102796
X160772Y108307
X152110Y100827
X152504Y90591
X160772Y86654
X160772Y79961
X161166Y62244
X152504Y63425
X158410Y56339
X166677Y55158
X170221Y58307
X182819Y52796
X187544Y52008
X192662Y42953
X150142Y48465
X128488Y62638
X118646Y54370
X119827Y76024
X119827Y79567
X115890Y79567
X115890Y76024
X115890Y83111
X115890Y86260
X119827Y86260
X119827Y83111
X124158Y83111
X124158Y86260
X124158Y89803
X119827Y89803
X115890Y89803
X124158Y79567
X124158Y76024
X247780Y103583
X334788Y47677
X334788Y42166
X334394Y35079
X312347Y33898
X309197Y33898
X306047Y33898
X305654Y37835
X309197Y37835
X312347Y37835
X287937Y23268
X310378Y16181
X250536Y34685
X340299Y57520
X302504Y164607
X299355Y166575
X118646Y183111
X118252Y191772
T02
X238725Y198465
X249748Y198465
X260772Y198465
X270221Y198465
X278095Y195709
X280457Y212638
X288331Y212638
X295811Y213032
X295811Y220512
X287937Y220512
X280063Y220118
X271796Y220118
X271796Y212638
X303292Y213425
X303292Y220512
X312347Y201221
X322977Y200827
X335181Y200827
X238725Y207914
X238843Y218819
X340299Y61457
X282819Y49252
X279670Y43740
X284394Y37835
X271402Y43740
X262347Y48859
X262347Y37835
X100536Y50040
X98961Y45709
X100536Y54370
X100536Y59095
X57622Y19725
X57622Y10276
T03
X50536Y50827
X70221Y50827
X70221Y69331
X50536Y69331
X50536Y87835
X70221Y87835
X69827Y106733
X50142Y106733
X50142Y128386
X69827Y128386
X70221Y146890
X50536Y146890
X50142Y165000
X69827Y165000
X69433Y183111
X49748Y183111
T04
X49355Y208819
X49355Y218819
X72977Y218425
X72977Y208425
X96205Y208819
X96205Y218819
X119433Y218425
X119433Y208425
T05
X122544Y25118
X132544Y25118
X142544Y25118
X152544Y25118
X162544Y25118
X172544Y25118
X182544Y25118
X192544Y25118
X202544Y25118
X212544Y25118
X222544Y25118
X232544Y25118
X232544Y15118
X222544Y15118
X212544Y15118
X202544Y15118
X192544Y15118
X182544Y15118
X172544Y15118
X162544Y15118
X152544Y15118
X142544Y15118
X132544Y15118
X122544Y15118
X112544Y15118
X102544Y15118
X92544Y15118
X82544Y15118
X72544Y15118
X62544Y15118
X52544Y15118
X42544Y15118
X42544Y25118
X52544Y25118
X62544Y25118
X72544Y25118
X82544Y25118
X92544Y25118
X102544Y25118
X112544Y25118
T06
X311756Y191378
X329473Y191378
T07
X24551Y180748
X24551Y165158
X24551Y149567
X24551Y133977
X24551Y102008
X24551Y86418
X24551Y70827
X24551Y55236
T08
X23370Y20118
X251717Y20118
X251717Y213032
X23370Y213032
M30
