G75*
%MOIN*%
%OFA0B0*%
%FSLAX25Y25*%
%IPPOS*%
%LPD*%
%AMOC8*
5,1,8,0,0,1.08239X$1,22.5*
%
%ADD10C,0.00000*%
%ADD11OC8,0.06300*%
%ADD12C,0.06300*%
%ADD13C,0.07600*%
%ADD14OC8,0.06000*%
%ADD15C,0.09744*%
%ADD16R,0.08661X0.02362*%
%ADD17C,0.03150*%
%ADD18C,0.01181*%
%ADD19C,0.02381*%
%ADD20C,0.01575*%
%ADD21C,0.01969*%
%ADD22OC8,0.03562*%
%ADD23C,0.03150*%
%ADD24C,0.02756*%
%ADD25R,0.03562X0.03562*%
%ADD26C,0.07874*%
%ADD27C,0.01600*%
%ADD28C,0.03562*%
%ADD29OC8,0.02381*%
%ADD30C,0.05906*%
%ADD31C,0.03937*%
D10*
X0019433Y0005945D02*
X0334394Y0006339D01*
X0334394Y0006338D02*
X0334632Y0006341D01*
X0334870Y0006349D01*
X0335107Y0006364D01*
X0335344Y0006384D01*
X0335580Y0006410D01*
X0335816Y0006441D01*
X0336051Y0006478D01*
X0336285Y0006521D01*
X0336518Y0006570D01*
X0336750Y0006624D01*
X0336980Y0006684D01*
X0337209Y0006749D01*
X0337436Y0006820D01*
X0337661Y0006896D01*
X0337884Y0006978D01*
X0338106Y0007065D01*
X0338325Y0007157D01*
X0338542Y0007255D01*
X0338756Y0007357D01*
X0338968Y0007465D01*
X0339178Y0007579D01*
X0339384Y0007697D01*
X0339588Y0007820D01*
X0339788Y0007948D01*
X0339985Y0008080D01*
X0340180Y0008218D01*
X0340370Y0008360D01*
X0340558Y0008507D01*
X0340741Y0008658D01*
X0340921Y0008813D01*
X0341097Y0008973D01*
X0341269Y0009137D01*
X0341438Y0009306D01*
X0341602Y0009478D01*
X0341762Y0009654D01*
X0341917Y0009834D01*
X0342068Y0010017D01*
X0342215Y0010205D01*
X0342357Y0010395D01*
X0342495Y0010590D01*
X0342627Y0010787D01*
X0342755Y0010987D01*
X0342878Y0011191D01*
X0342996Y0011397D01*
X0343110Y0011607D01*
X0343218Y0011819D01*
X0343320Y0012033D01*
X0343418Y0012250D01*
X0343510Y0012469D01*
X0343597Y0012691D01*
X0343679Y0012914D01*
X0343755Y0013139D01*
X0343826Y0013366D01*
X0343891Y0013595D01*
X0343951Y0013825D01*
X0344005Y0014057D01*
X0344054Y0014290D01*
X0344097Y0014524D01*
X0344134Y0014759D01*
X0344165Y0014995D01*
X0344191Y0015231D01*
X0344211Y0015468D01*
X0344226Y0015705D01*
X0344234Y0015943D01*
X0344237Y0016181D01*
X0344236Y0016181D02*
X0344236Y0152008D01*
X0320614Y0152008D01*
X0320614Y0159882D01*
X0344236Y0159882D01*
X0344236Y0216969D01*
X0344237Y0216969D02*
X0344234Y0217207D01*
X0344226Y0217445D01*
X0344211Y0217682D01*
X0344191Y0217919D01*
X0344165Y0218155D01*
X0344134Y0218391D01*
X0344097Y0218626D01*
X0344054Y0218860D01*
X0344005Y0219093D01*
X0343951Y0219325D01*
X0343891Y0219555D01*
X0343826Y0219784D01*
X0343755Y0220011D01*
X0343679Y0220236D01*
X0343597Y0220459D01*
X0343510Y0220681D01*
X0343418Y0220900D01*
X0343320Y0221117D01*
X0343218Y0221331D01*
X0343110Y0221543D01*
X0342996Y0221753D01*
X0342878Y0221959D01*
X0342755Y0222163D01*
X0342627Y0222363D01*
X0342495Y0222560D01*
X0342357Y0222755D01*
X0342215Y0222945D01*
X0342068Y0223133D01*
X0341917Y0223316D01*
X0341762Y0223496D01*
X0341602Y0223672D01*
X0341438Y0223844D01*
X0341269Y0224013D01*
X0341097Y0224177D01*
X0340921Y0224337D01*
X0340741Y0224492D01*
X0340558Y0224643D01*
X0340370Y0224790D01*
X0340180Y0224932D01*
X0339985Y0225070D01*
X0339788Y0225202D01*
X0339588Y0225330D01*
X0339384Y0225453D01*
X0339178Y0225571D01*
X0338968Y0225685D01*
X0338756Y0225793D01*
X0338542Y0225895D01*
X0338325Y0225993D01*
X0338106Y0226085D01*
X0337884Y0226172D01*
X0337661Y0226254D01*
X0337436Y0226330D01*
X0337209Y0226401D01*
X0336980Y0226466D01*
X0336750Y0226526D01*
X0336518Y0226580D01*
X0336285Y0226629D01*
X0336051Y0226672D01*
X0335816Y0226709D01*
X0335580Y0226740D01*
X0335344Y0226766D01*
X0335107Y0226786D01*
X0334870Y0226801D01*
X0334632Y0226809D01*
X0334394Y0226812D01*
X0334394Y0226811D02*
X0328488Y0226811D01*
X0328488Y0218937D01*
X0320614Y0218937D01*
X0320614Y0226811D01*
X0019433Y0226811D01*
X0019433Y0226812D02*
X0019200Y0226814D01*
X0018967Y0226810D01*
X0018734Y0226801D01*
X0018501Y0226786D01*
X0018269Y0226765D01*
X0018037Y0226739D01*
X0017806Y0226707D01*
X0017576Y0226670D01*
X0017347Y0226627D01*
X0017119Y0226579D01*
X0016892Y0226525D01*
X0016666Y0226466D01*
X0016442Y0226401D01*
X0016220Y0226331D01*
X0016000Y0226255D01*
X0015781Y0226174D01*
X0015564Y0226088D01*
X0015350Y0225997D01*
X0015137Y0225900D01*
X0014928Y0225799D01*
X0014720Y0225692D01*
X0014516Y0225580D01*
X0014314Y0225464D01*
X0014115Y0225342D01*
X0013918Y0225216D01*
X0013725Y0225085D01*
X0013536Y0224950D01*
X0013349Y0224810D01*
X0013166Y0224666D01*
X0012987Y0224517D01*
X0012811Y0224364D01*
X0012639Y0224206D01*
X0012471Y0224045D01*
X0012307Y0223879D01*
X0012146Y0223710D01*
X0011990Y0223537D01*
X0011839Y0223360D01*
X0011691Y0223179D01*
X0011548Y0222995D01*
X0011409Y0222808D01*
X0011275Y0222617D01*
X0011146Y0222423D01*
X0011021Y0222226D01*
X0010901Y0222026D01*
X0010786Y0221823D01*
X0010676Y0221617D01*
X0010571Y0221409D01*
X0010471Y0221199D01*
X0010376Y0220986D01*
X0010287Y0220771D01*
X0010202Y0220553D01*
X0010123Y0220334D01*
X0010049Y0220113D01*
X0009981Y0219890D01*
X0009917Y0219666D01*
X0009860Y0219440D01*
X0009808Y0219212D01*
X0009761Y0218984D01*
X0009720Y0218755D01*
X0009684Y0218524D01*
X0009654Y0218293D01*
X0009630Y0218061D01*
X0009611Y0217829D01*
X0009598Y0217596D01*
X0009590Y0217363D01*
X0009591Y0217362D02*
X0009591Y0015788D01*
X0009590Y0015788D02*
X0009593Y0015550D01*
X0009601Y0015312D01*
X0009616Y0015075D01*
X0009636Y0014838D01*
X0009662Y0014602D01*
X0009693Y0014366D01*
X0009730Y0014131D01*
X0009773Y0013897D01*
X0009822Y0013664D01*
X0009876Y0013432D01*
X0009936Y0013202D01*
X0010001Y0012973D01*
X0010072Y0012746D01*
X0010148Y0012521D01*
X0010230Y0012298D01*
X0010317Y0012076D01*
X0010409Y0011857D01*
X0010507Y0011640D01*
X0010609Y0011426D01*
X0010717Y0011214D01*
X0010831Y0011004D01*
X0010949Y0010798D01*
X0011072Y0010594D01*
X0011200Y0010394D01*
X0011332Y0010197D01*
X0011470Y0010002D01*
X0011612Y0009812D01*
X0011759Y0009624D01*
X0011910Y0009441D01*
X0012065Y0009261D01*
X0012225Y0009085D01*
X0012389Y0008913D01*
X0012558Y0008744D01*
X0012730Y0008580D01*
X0012906Y0008420D01*
X0013086Y0008265D01*
X0013269Y0008114D01*
X0013457Y0007967D01*
X0013647Y0007825D01*
X0013842Y0007687D01*
X0014039Y0007555D01*
X0014239Y0007427D01*
X0014443Y0007304D01*
X0014649Y0007186D01*
X0014859Y0007072D01*
X0015071Y0006964D01*
X0015285Y0006862D01*
X0015502Y0006764D01*
X0015721Y0006672D01*
X0015943Y0006585D01*
X0016166Y0006503D01*
X0016391Y0006427D01*
X0016618Y0006356D01*
X0016847Y0006291D01*
X0017077Y0006231D01*
X0017309Y0006177D01*
X0017542Y0006128D01*
X0017776Y0006085D01*
X0018011Y0006048D01*
X0018247Y0006017D01*
X0018483Y0005991D01*
X0018720Y0005971D01*
X0018957Y0005956D01*
X0019195Y0005948D01*
X0019433Y0005945D01*
X0017957Y0020118D02*
X0017959Y0020265D01*
X0017965Y0020411D01*
X0017975Y0020557D01*
X0017989Y0020703D01*
X0018007Y0020849D01*
X0018028Y0020994D01*
X0018054Y0021138D01*
X0018084Y0021282D01*
X0018117Y0021424D01*
X0018154Y0021566D01*
X0018195Y0021707D01*
X0018240Y0021846D01*
X0018289Y0021985D01*
X0018341Y0022122D01*
X0018398Y0022257D01*
X0018457Y0022391D01*
X0018521Y0022523D01*
X0018588Y0022653D01*
X0018658Y0022782D01*
X0018732Y0022909D01*
X0018809Y0023033D01*
X0018890Y0023156D01*
X0018974Y0023276D01*
X0019061Y0023394D01*
X0019151Y0023509D01*
X0019244Y0023622D01*
X0019341Y0023733D01*
X0019440Y0023841D01*
X0019542Y0023946D01*
X0019647Y0024048D01*
X0019755Y0024147D01*
X0019866Y0024244D01*
X0019979Y0024337D01*
X0020094Y0024427D01*
X0020212Y0024514D01*
X0020332Y0024598D01*
X0020455Y0024679D01*
X0020579Y0024756D01*
X0020706Y0024830D01*
X0020835Y0024900D01*
X0020965Y0024967D01*
X0021097Y0025031D01*
X0021231Y0025090D01*
X0021366Y0025147D01*
X0021503Y0025199D01*
X0021642Y0025248D01*
X0021781Y0025293D01*
X0021922Y0025334D01*
X0022064Y0025371D01*
X0022206Y0025404D01*
X0022350Y0025434D01*
X0022494Y0025460D01*
X0022639Y0025481D01*
X0022785Y0025499D01*
X0022931Y0025513D01*
X0023077Y0025523D01*
X0023223Y0025529D01*
X0023370Y0025531D01*
X0023517Y0025529D01*
X0023663Y0025523D01*
X0023809Y0025513D01*
X0023955Y0025499D01*
X0024101Y0025481D01*
X0024246Y0025460D01*
X0024390Y0025434D01*
X0024534Y0025404D01*
X0024676Y0025371D01*
X0024818Y0025334D01*
X0024959Y0025293D01*
X0025098Y0025248D01*
X0025237Y0025199D01*
X0025374Y0025147D01*
X0025509Y0025090D01*
X0025643Y0025031D01*
X0025775Y0024967D01*
X0025905Y0024900D01*
X0026034Y0024830D01*
X0026161Y0024756D01*
X0026285Y0024679D01*
X0026408Y0024598D01*
X0026528Y0024514D01*
X0026646Y0024427D01*
X0026761Y0024337D01*
X0026874Y0024244D01*
X0026985Y0024147D01*
X0027093Y0024048D01*
X0027198Y0023946D01*
X0027300Y0023841D01*
X0027399Y0023733D01*
X0027496Y0023622D01*
X0027589Y0023509D01*
X0027679Y0023394D01*
X0027766Y0023276D01*
X0027850Y0023156D01*
X0027931Y0023033D01*
X0028008Y0022909D01*
X0028082Y0022782D01*
X0028152Y0022653D01*
X0028219Y0022523D01*
X0028283Y0022391D01*
X0028342Y0022257D01*
X0028399Y0022122D01*
X0028451Y0021985D01*
X0028500Y0021846D01*
X0028545Y0021707D01*
X0028586Y0021566D01*
X0028623Y0021424D01*
X0028656Y0021282D01*
X0028686Y0021138D01*
X0028712Y0020994D01*
X0028733Y0020849D01*
X0028751Y0020703D01*
X0028765Y0020557D01*
X0028775Y0020411D01*
X0028781Y0020265D01*
X0028783Y0020118D01*
X0028781Y0019971D01*
X0028775Y0019825D01*
X0028765Y0019679D01*
X0028751Y0019533D01*
X0028733Y0019387D01*
X0028712Y0019242D01*
X0028686Y0019098D01*
X0028656Y0018954D01*
X0028623Y0018812D01*
X0028586Y0018670D01*
X0028545Y0018529D01*
X0028500Y0018390D01*
X0028451Y0018251D01*
X0028399Y0018114D01*
X0028342Y0017979D01*
X0028283Y0017845D01*
X0028219Y0017713D01*
X0028152Y0017583D01*
X0028082Y0017454D01*
X0028008Y0017327D01*
X0027931Y0017203D01*
X0027850Y0017080D01*
X0027766Y0016960D01*
X0027679Y0016842D01*
X0027589Y0016727D01*
X0027496Y0016614D01*
X0027399Y0016503D01*
X0027300Y0016395D01*
X0027198Y0016290D01*
X0027093Y0016188D01*
X0026985Y0016089D01*
X0026874Y0015992D01*
X0026761Y0015899D01*
X0026646Y0015809D01*
X0026528Y0015722D01*
X0026408Y0015638D01*
X0026285Y0015557D01*
X0026161Y0015480D01*
X0026034Y0015406D01*
X0025905Y0015336D01*
X0025775Y0015269D01*
X0025643Y0015205D01*
X0025509Y0015146D01*
X0025374Y0015089D01*
X0025237Y0015037D01*
X0025098Y0014988D01*
X0024959Y0014943D01*
X0024818Y0014902D01*
X0024676Y0014865D01*
X0024534Y0014832D01*
X0024390Y0014802D01*
X0024246Y0014776D01*
X0024101Y0014755D01*
X0023955Y0014737D01*
X0023809Y0014723D01*
X0023663Y0014713D01*
X0023517Y0014707D01*
X0023370Y0014705D01*
X0023223Y0014707D01*
X0023077Y0014713D01*
X0022931Y0014723D01*
X0022785Y0014737D01*
X0022639Y0014755D01*
X0022494Y0014776D01*
X0022350Y0014802D01*
X0022206Y0014832D01*
X0022064Y0014865D01*
X0021922Y0014902D01*
X0021781Y0014943D01*
X0021642Y0014988D01*
X0021503Y0015037D01*
X0021366Y0015089D01*
X0021231Y0015146D01*
X0021097Y0015205D01*
X0020965Y0015269D01*
X0020835Y0015336D01*
X0020706Y0015406D01*
X0020579Y0015480D01*
X0020455Y0015557D01*
X0020332Y0015638D01*
X0020212Y0015722D01*
X0020094Y0015809D01*
X0019979Y0015899D01*
X0019866Y0015992D01*
X0019755Y0016089D01*
X0019647Y0016188D01*
X0019542Y0016290D01*
X0019440Y0016395D01*
X0019341Y0016503D01*
X0019244Y0016614D01*
X0019151Y0016727D01*
X0019061Y0016842D01*
X0018974Y0016960D01*
X0018890Y0017080D01*
X0018809Y0017203D01*
X0018732Y0017327D01*
X0018658Y0017454D01*
X0018588Y0017583D01*
X0018521Y0017713D01*
X0018457Y0017845D01*
X0018398Y0017979D01*
X0018341Y0018114D01*
X0018289Y0018251D01*
X0018240Y0018390D01*
X0018195Y0018529D01*
X0018154Y0018670D01*
X0018117Y0018812D01*
X0018084Y0018954D01*
X0018054Y0019098D01*
X0018028Y0019242D01*
X0018007Y0019387D01*
X0017989Y0019533D01*
X0017975Y0019679D01*
X0017965Y0019825D01*
X0017959Y0019971D01*
X0017957Y0020118D01*
X0246304Y0020118D02*
X0246306Y0020265D01*
X0246312Y0020411D01*
X0246322Y0020557D01*
X0246336Y0020703D01*
X0246354Y0020849D01*
X0246375Y0020994D01*
X0246401Y0021138D01*
X0246431Y0021282D01*
X0246464Y0021424D01*
X0246501Y0021566D01*
X0246542Y0021707D01*
X0246587Y0021846D01*
X0246636Y0021985D01*
X0246688Y0022122D01*
X0246745Y0022257D01*
X0246804Y0022391D01*
X0246868Y0022523D01*
X0246935Y0022653D01*
X0247005Y0022782D01*
X0247079Y0022909D01*
X0247156Y0023033D01*
X0247237Y0023156D01*
X0247321Y0023276D01*
X0247408Y0023394D01*
X0247498Y0023509D01*
X0247591Y0023622D01*
X0247688Y0023733D01*
X0247787Y0023841D01*
X0247889Y0023946D01*
X0247994Y0024048D01*
X0248102Y0024147D01*
X0248213Y0024244D01*
X0248326Y0024337D01*
X0248441Y0024427D01*
X0248559Y0024514D01*
X0248679Y0024598D01*
X0248802Y0024679D01*
X0248926Y0024756D01*
X0249053Y0024830D01*
X0249182Y0024900D01*
X0249312Y0024967D01*
X0249444Y0025031D01*
X0249578Y0025090D01*
X0249713Y0025147D01*
X0249850Y0025199D01*
X0249989Y0025248D01*
X0250128Y0025293D01*
X0250269Y0025334D01*
X0250411Y0025371D01*
X0250553Y0025404D01*
X0250697Y0025434D01*
X0250841Y0025460D01*
X0250986Y0025481D01*
X0251132Y0025499D01*
X0251278Y0025513D01*
X0251424Y0025523D01*
X0251570Y0025529D01*
X0251717Y0025531D01*
X0251864Y0025529D01*
X0252010Y0025523D01*
X0252156Y0025513D01*
X0252302Y0025499D01*
X0252448Y0025481D01*
X0252593Y0025460D01*
X0252737Y0025434D01*
X0252881Y0025404D01*
X0253023Y0025371D01*
X0253165Y0025334D01*
X0253306Y0025293D01*
X0253445Y0025248D01*
X0253584Y0025199D01*
X0253721Y0025147D01*
X0253856Y0025090D01*
X0253990Y0025031D01*
X0254122Y0024967D01*
X0254252Y0024900D01*
X0254381Y0024830D01*
X0254508Y0024756D01*
X0254632Y0024679D01*
X0254755Y0024598D01*
X0254875Y0024514D01*
X0254993Y0024427D01*
X0255108Y0024337D01*
X0255221Y0024244D01*
X0255332Y0024147D01*
X0255440Y0024048D01*
X0255545Y0023946D01*
X0255647Y0023841D01*
X0255746Y0023733D01*
X0255843Y0023622D01*
X0255936Y0023509D01*
X0256026Y0023394D01*
X0256113Y0023276D01*
X0256197Y0023156D01*
X0256278Y0023033D01*
X0256355Y0022909D01*
X0256429Y0022782D01*
X0256499Y0022653D01*
X0256566Y0022523D01*
X0256630Y0022391D01*
X0256689Y0022257D01*
X0256746Y0022122D01*
X0256798Y0021985D01*
X0256847Y0021846D01*
X0256892Y0021707D01*
X0256933Y0021566D01*
X0256970Y0021424D01*
X0257003Y0021282D01*
X0257033Y0021138D01*
X0257059Y0020994D01*
X0257080Y0020849D01*
X0257098Y0020703D01*
X0257112Y0020557D01*
X0257122Y0020411D01*
X0257128Y0020265D01*
X0257130Y0020118D01*
X0257128Y0019971D01*
X0257122Y0019825D01*
X0257112Y0019679D01*
X0257098Y0019533D01*
X0257080Y0019387D01*
X0257059Y0019242D01*
X0257033Y0019098D01*
X0257003Y0018954D01*
X0256970Y0018812D01*
X0256933Y0018670D01*
X0256892Y0018529D01*
X0256847Y0018390D01*
X0256798Y0018251D01*
X0256746Y0018114D01*
X0256689Y0017979D01*
X0256630Y0017845D01*
X0256566Y0017713D01*
X0256499Y0017583D01*
X0256429Y0017454D01*
X0256355Y0017327D01*
X0256278Y0017203D01*
X0256197Y0017080D01*
X0256113Y0016960D01*
X0256026Y0016842D01*
X0255936Y0016727D01*
X0255843Y0016614D01*
X0255746Y0016503D01*
X0255647Y0016395D01*
X0255545Y0016290D01*
X0255440Y0016188D01*
X0255332Y0016089D01*
X0255221Y0015992D01*
X0255108Y0015899D01*
X0254993Y0015809D01*
X0254875Y0015722D01*
X0254755Y0015638D01*
X0254632Y0015557D01*
X0254508Y0015480D01*
X0254381Y0015406D01*
X0254252Y0015336D01*
X0254122Y0015269D01*
X0253990Y0015205D01*
X0253856Y0015146D01*
X0253721Y0015089D01*
X0253584Y0015037D01*
X0253445Y0014988D01*
X0253306Y0014943D01*
X0253165Y0014902D01*
X0253023Y0014865D01*
X0252881Y0014832D01*
X0252737Y0014802D01*
X0252593Y0014776D01*
X0252448Y0014755D01*
X0252302Y0014737D01*
X0252156Y0014723D01*
X0252010Y0014713D01*
X0251864Y0014707D01*
X0251717Y0014705D01*
X0251570Y0014707D01*
X0251424Y0014713D01*
X0251278Y0014723D01*
X0251132Y0014737D01*
X0250986Y0014755D01*
X0250841Y0014776D01*
X0250697Y0014802D01*
X0250553Y0014832D01*
X0250411Y0014865D01*
X0250269Y0014902D01*
X0250128Y0014943D01*
X0249989Y0014988D01*
X0249850Y0015037D01*
X0249713Y0015089D01*
X0249578Y0015146D01*
X0249444Y0015205D01*
X0249312Y0015269D01*
X0249182Y0015336D01*
X0249053Y0015406D01*
X0248926Y0015480D01*
X0248802Y0015557D01*
X0248679Y0015638D01*
X0248559Y0015722D01*
X0248441Y0015809D01*
X0248326Y0015899D01*
X0248213Y0015992D01*
X0248102Y0016089D01*
X0247994Y0016188D01*
X0247889Y0016290D01*
X0247787Y0016395D01*
X0247688Y0016503D01*
X0247591Y0016614D01*
X0247498Y0016727D01*
X0247408Y0016842D01*
X0247321Y0016960D01*
X0247237Y0017080D01*
X0247156Y0017203D01*
X0247079Y0017327D01*
X0247005Y0017454D01*
X0246935Y0017583D01*
X0246868Y0017713D01*
X0246804Y0017845D01*
X0246745Y0017979D01*
X0246688Y0018114D01*
X0246636Y0018251D01*
X0246587Y0018390D01*
X0246542Y0018529D01*
X0246501Y0018670D01*
X0246464Y0018812D01*
X0246431Y0018954D01*
X0246401Y0019098D01*
X0246375Y0019242D01*
X0246354Y0019387D01*
X0246336Y0019533D01*
X0246322Y0019679D01*
X0246312Y0019825D01*
X0246306Y0019971D01*
X0246304Y0020118D01*
X0308606Y0191378D02*
X0308608Y0191490D01*
X0308614Y0191601D01*
X0308624Y0191713D01*
X0308638Y0191824D01*
X0308655Y0191934D01*
X0308677Y0192044D01*
X0308703Y0192153D01*
X0308732Y0192261D01*
X0308765Y0192367D01*
X0308802Y0192473D01*
X0308843Y0192577D01*
X0308888Y0192680D01*
X0308936Y0192781D01*
X0308987Y0192880D01*
X0309042Y0192977D01*
X0309101Y0193072D01*
X0309162Y0193166D01*
X0309227Y0193257D01*
X0309296Y0193345D01*
X0309367Y0193431D01*
X0309441Y0193515D01*
X0309519Y0193595D01*
X0309599Y0193673D01*
X0309682Y0193749D01*
X0309767Y0193821D01*
X0309855Y0193890D01*
X0309945Y0193956D01*
X0310038Y0194018D01*
X0310133Y0194078D01*
X0310230Y0194134D01*
X0310328Y0194186D01*
X0310429Y0194235D01*
X0310531Y0194280D01*
X0310635Y0194322D01*
X0310740Y0194360D01*
X0310847Y0194394D01*
X0310954Y0194424D01*
X0311063Y0194451D01*
X0311172Y0194473D01*
X0311283Y0194492D01*
X0311393Y0194507D01*
X0311505Y0194518D01*
X0311616Y0194525D01*
X0311728Y0194528D01*
X0311840Y0194527D01*
X0311952Y0194522D01*
X0312063Y0194513D01*
X0312174Y0194500D01*
X0312285Y0194483D01*
X0312395Y0194463D01*
X0312504Y0194438D01*
X0312612Y0194410D01*
X0312719Y0194377D01*
X0312825Y0194341D01*
X0312929Y0194301D01*
X0313032Y0194258D01*
X0313134Y0194211D01*
X0313233Y0194160D01*
X0313331Y0194106D01*
X0313427Y0194048D01*
X0313521Y0193987D01*
X0313612Y0193923D01*
X0313701Y0193856D01*
X0313788Y0193785D01*
X0313872Y0193711D01*
X0313954Y0193635D01*
X0314032Y0193555D01*
X0314108Y0193473D01*
X0314181Y0193388D01*
X0314251Y0193301D01*
X0314317Y0193211D01*
X0314381Y0193119D01*
X0314441Y0193025D01*
X0314498Y0192929D01*
X0314551Y0192830D01*
X0314601Y0192730D01*
X0314647Y0192629D01*
X0314690Y0192525D01*
X0314729Y0192420D01*
X0314764Y0192314D01*
X0314795Y0192207D01*
X0314823Y0192098D01*
X0314846Y0191989D01*
X0314866Y0191879D01*
X0314882Y0191768D01*
X0314894Y0191657D01*
X0314902Y0191546D01*
X0314906Y0191434D01*
X0314906Y0191322D01*
X0314902Y0191210D01*
X0314894Y0191099D01*
X0314882Y0190988D01*
X0314866Y0190877D01*
X0314846Y0190767D01*
X0314823Y0190658D01*
X0314795Y0190549D01*
X0314764Y0190442D01*
X0314729Y0190336D01*
X0314690Y0190231D01*
X0314647Y0190127D01*
X0314601Y0190026D01*
X0314551Y0189926D01*
X0314498Y0189827D01*
X0314441Y0189731D01*
X0314381Y0189637D01*
X0314317Y0189545D01*
X0314251Y0189455D01*
X0314181Y0189368D01*
X0314108Y0189283D01*
X0314032Y0189201D01*
X0313954Y0189121D01*
X0313872Y0189045D01*
X0313788Y0188971D01*
X0313701Y0188900D01*
X0313612Y0188833D01*
X0313521Y0188769D01*
X0313427Y0188708D01*
X0313331Y0188650D01*
X0313233Y0188596D01*
X0313134Y0188545D01*
X0313032Y0188498D01*
X0312929Y0188455D01*
X0312825Y0188415D01*
X0312719Y0188379D01*
X0312612Y0188346D01*
X0312504Y0188318D01*
X0312395Y0188293D01*
X0312285Y0188273D01*
X0312174Y0188256D01*
X0312063Y0188243D01*
X0311952Y0188234D01*
X0311840Y0188229D01*
X0311728Y0188228D01*
X0311616Y0188231D01*
X0311505Y0188238D01*
X0311393Y0188249D01*
X0311283Y0188264D01*
X0311172Y0188283D01*
X0311063Y0188305D01*
X0310954Y0188332D01*
X0310847Y0188362D01*
X0310740Y0188396D01*
X0310635Y0188434D01*
X0310531Y0188476D01*
X0310429Y0188521D01*
X0310328Y0188570D01*
X0310230Y0188622D01*
X0310133Y0188678D01*
X0310038Y0188738D01*
X0309945Y0188800D01*
X0309855Y0188866D01*
X0309767Y0188935D01*
X0309682Y0189007D01*
X0309599Y0189083D01*
X0309519Y0189161D01*
X0309441Y0189241D01*
X0309367Y0189325D01*
X0309296Y0189411D01*
X0309227Y0189499D01*
X0309162Y0189590D01*
X0309101Y0189684D01*
X0309042Y0189779D01*
X0308987Y0189876D01*
X0308936Y0189975D01*
X0308888Y0190076D01*
X0308843Y0190179D01*
X0308802Y0190283D01*
X0308765Y0190389D01*
X0308732Y0190495D01*
X0308703Y0190603D01*
X0308677Y0190712D01*
X0308655Y0190822D01*
X0308638Y0190932D01*
X0308624Y0191043D01*
X0308614Y0191155D01*
X0308608Y0191266D01*
X0308606Y0191378D01*
X0326323Y0191378D02*
X0326325Y0191490D01*
X0326331Y0191601D01*
X0326341Y0191713D01*
X0326355Y0191824D01*
X0326372Y0191934D01*
X0326394Y0192044D01*
X0326420Y0192153D01*
X0326449Y0192261D01*
X0326482Y0192367D01*
X0326519Y0192473D01*
X0326560Y0192577D01*
X0326605Y0192680D01*
X0326653Y0192781D01*
X0326704Y0192880D01*
X0326759Y0192977D01*
X0326818Y0193072D01*
X0326879Y0193166D01*
X0326944Y0193257D01*
X0327013Y0193345D01*
X0327084Y0193431D01*
X0327158Y0193515D01*
X0327236Y0193595D01*
X0327316Y0193673D01*
X0327399Y0193749D01*
X0327484Y0193821D01*
X0327572Y0193890D01*
X0327662Y0193956D01*
X0327755Y0194018D01*
X0327850Y0194078D01*
X0327947Y0194134D01*
X0328045Y0194186D01*
X0328146Y0194235D01*
X0328248Y0194280D01*
X0328352Y0194322D01*
X0328457Y0194360D01*
X0328564Y0194394D01*
X0328671Y0194424D01*
X0328780Y0194451D01*
X0328889Y0194473D01*
X0329000Y0194492D01*
X0329110Y0194507D01*
X0329222Y0194518D01*
X0329333Y0194525D01*
X0329445Y0194528D01*
X0329557Y0194527D01*
X0329669Y0194522D01*
X0329780Y0194513D01*
X0329891Y0194500D01*
X0330002Y0194483D01*
X0330112Y0194463D01*
X0330221Y0194438D01*
X0330329Y0194410D01*
X0330436Y0194377D01*
X0330542Y0194341D01*
X0330646Y0194301D01*
X0330749Y0194258D01*
X0330851Y0194211D01*
X0330950Y0194160D01*
X0331048Y0194106D01*
X0331144Y0194048D01*
X0331238Y0193987D01*
X0331329Y0193923D01*
X0331418Y0193856D01*
X0331505Y0193785D01*
X0331589Y0193711D01*
X0331671Y0193635D01*
X0331749Y0193555D01*
X0331825Y0193473D01*
X0331898Y0193388D01*
X0331968Y0193301D01*
X0332034Y0193211D01*
X0332098Y0193119D01*
X0332158Y0193025D01*
X0332215Y0192929D01*
X0332268Y0192830D01*
X0332318Y0192730D01*
X0332364Y0192629D01*
X0332407Y0192525D01*
X0332446Y0192420D01*
X0332481Y0192314D01*
X0332512Y0192207D01*
X0332540Y0192098D01*
X0332563Y0191989D01*
X0332583Y0191879D01*
X0332599Y0191768D01*
X0332611Y0191657D01*
X0332619Y0191546D01*
X0332623Y0191434D01*
X0332623Y0191322D01*
X0332619Y0191210D01*
X0332611Y0191099D01*
X0332599Y0190988D01*
X0332583Y0190877D01*
X0332563Y0190767D01*
X0332540Y0190658D01*
X0332512Y0190549D01*
X0332481Y0190442D01*
X0332446Y0190336D01*
X0332407Y0190231D01*
X0332364Y0190127D01*
X0332318Y0190026D01*
X0332268Y0189926D01*
X0332215Y0189827D01*
X0332158Y0189731D01*
X0332098Y0189637D01*
X0332034Y0189545D01*
X0331968Y0189455D01*
X0331898Y0189368D01*
X0331825Y0189283D01*
X0331749Y0189201D01*
X0331671Y0189121D01*
X0331589Y0189045D01*
X0331505Y0188971D01*
X0331418Y0188900D01*
X0331329Y0188833D01*
X0331238Y0188769D01*
X0331144Y0188708D01*
X0331048Y0188650D01*
X0330950Y0188596D01*
X0330851Y0188545D01*
X0330749Y0188498D01*
X0330646Y0188455D01*
X0330542Y0188415D01*
X0330436Y0188379D01*
X0330329Y0188346D01*
X0330221Y0188318D01*
X0330112Y0188293D01*
X0330002Y0188273D01*
X0329891Y0188256D01*
X0329780Y0188243D01*
X0329669Y0188234D01*
X0329557Y0188229D01*
X0329445Y0188228D01*
X0329333Y0188231D01*
X0329222Y0188238D01*
X0329110Y0188249D01*
X0329000Y0188264D01*
X0328889Y0188283D01*
X0328780Y0188305D01*
X0328671Y0188332D01*
X0328564Y0188362D01*
X0328457Y0188396D01*
X0328352Y0188434D01*
X0328248Y0188476D01*
X0328146Y0188521D01*
X0328045Y0188570D01*
X0327947Y0188622D01*
X0327850Y0188678D01*
X0327755Y0188738D01*
X0327662Y0188800D01*
X0327572Y0188866D01*
X0327484Y0188935D01*
X0327399Y0189007D01*
X0327316Y0189083D01*
X0327236Y0189161D01*
X0327158Y0189241D01*
X0327084Y0189325D01*
X0327013Y0189411D01*
X0326944Y0189499D01*
X0326879Y0189590D01*
X0326818Y0189684D01*
X0326759Y0189779D01*
X0326704Y0189876D01*
X0326653Y0189975D01*
X0326605Y0190076D01*
X0326560Y0190179D01*
X0326519Y0190283D01*
X0326482Y0190389D01*
X0326449Y0190495D01*
X0326420Y0190603D01*
X0326394Y0190712D01*
X0326372Y0190822D01*
X0326355Y0190932D01*
X0326341Y0191043D01*
X0326331Y0191155D01*
X0326325Y0191266D01*
X0326323Y0191378D01*
X0246304Y0213032D02*
X0246306Y0213179D01*
X0246312Y0213325D01*
X0246322Y0213471D01*
X0246336Y0213617D01*
X0246354Y0213763D01*
X0246375Y0213908D01*
X0246401Y0214052D01*
X0246431Y0214196D01*
X0246464Y0214338D01*
X0246501Y0214480D01*
X0246542Y0214621D01*
X0246587Y0214760D01*
X0246636Y0214899D01*
X0246688Y0215036D01*
X0246745Y0215171D01*
X0246804Y0215305D01*
X0246868Y0215437D01*
X0246935Y0215567D01*
X0247005Y0215696D01*
X0247079Y0215823D01*
X0247156Y0215947D01*
X0247237Y0216070D01*
X0247321Y0216190D01*
X0247408Y0216308D01*
X0247498Y0216423D01*
X0247591Y0216536D01*
X0247688Y0216647D01*
X0247787Y0216755D01*
X0247889Y0216860D01*
X0247994Y0216962D01*
X0248102Y0217061D01*
X0248213Y0217158D01*
X0248326Y0217251D01*
X0248441Y0217341D01*
X0248559Y0217428D01*
X0248679Y0217512D01*
X0248802Y0217593D01*
X0248926Y0217670D01*
X0249053Y0217744D01*
X0249182Y0217814D01*
X0249312Y0217881D01*
X0249444Y0217945D01*
X0249578Y0218004D01*
X0249713Y0218061D01*
X0249850Y0218113D01*
X0249989Y0218162D01*
X0250128Y0218207D01*
X0250269Y0218248D01*
X0250411Y0218285D01*
X0250553Y0218318D01*
X0250697Y0218348D01*
X0250841Y0218374D01*
X0250986Y0218395D01*
X0251132Y0218413D01*
X0251278Y0218427D01*
X0251424Y0218437D01*
X0251570Y0218443D01*
X0251717Y0218445D01*
X0251864Y0218443D01*
X0252010Y0218437D01*
X0252156Y0218427D01*
X0252302Y0218413D01*
X0252448Y0218395D01*
X0252593Y0218374D01*
X0252737Y0218348D01*
X0252881Y0218318D01*
X0253023Y0218285D01*
X0253165Y0218248D01*
X0253306Y0218207D01*
X0253445Y0218162D01*
X0253584Y0218113D01*
X0253721Y0218061D01*
X0253856Y0218004D01*
X0253990Y0217945D01*
X0254122Y0217881D01*
X0254252Y0217814D01*
X0254381Y0217744D01*
X0254508Y0217670D01*
X0254632Y0217593D01*
X0254755Y0217512D01*
X0254875Y0217428D01*
X0254993Y0217341D01*
X0255108Y0217251D01*
X0255221Y0217158D01*
X0255332Y0217061D01*
X0255440Y0216962D01*
X0255545Y0216860D01*
X0255647Y0216755D01*
X0255746Y0216647D01*
X0255843Y0216536D01*
X0255936Y0216423D01*
X0256026Y0216308D01*
X0256113Y0216190D01*
X0256197Y0216070D01*
X0256278Y0215947D01*
X0256355Y0215823D01*
X0256429Y0215696D01*
X0256499Y0215567D01*
X0256566Y0215437D01*
X0256630Y0215305D01*
X0256689Y0215171D01*
X0256746Y0215036D01*
X0256798Y0214899D01*
X0256847Y0214760D01*
X0256892Y0214621D01*
X0256933Y0214480D01*
X0256970Y0214338D01*
X0257003Y0214196D01*
X0257033Y0214052D01*
X0257059Y0213908D01*
X0257080Y0213763D01*
X0257098Y0213617D01*
X0257112Y0213471D01*
X0257122Y0213325D01*
X0257128Y0213179D01*
X0257130Y0213032D01*
X0257128Y0212885D01*
X0257122Y0212739D01*
X0257112Y0212593D01*
X0257098Y0212447D01*
X0257080Y0212301D01*
X0257059Y0212156D01*
X0257033Y0212012D01*
X0257003Y0211868D01*
X0256970Y0211726D01*
X0256933Y0211584D01*
X0256892Y0211443D01*
X0256847Y0211304D01*
X0256798Y0211165D01*
X0256746Y0211028D01*
X0256689Y0210893D01*
X0256630Y0210759D01*
X0256566Y0210627D01*
X0256499Y0210497D01*
X0256429Y0210368D01*
X0256355Y0210241D01*
X0256278Y0210117D01*
X0256197Y0209994D01*
X0256113Y0209874D01*
X0256026Y0209756D01*
X0255936Y0209641D01*
X0255843Y0209528D01*
X0255746Y0209417D01*
X0255647Y0209309D01*
X0255545Y0209204D01*
X0255440Y0209102D01*
X0255332Y0209003D01*
X0255221Y0208906D01*
X0255108Y0208813D01*
X0254993Y0208723D01*
X0254875Y0208636D01*
X0254755Y0208552D01*
X0254632Y0208471D01*
X0254508Y0208394D01*
X0254381Y0208320D01*
X0254252Y0208250D01*
X0254122Y0208183D01*
X0253990Y0208119D01*
X0253856Y0208060D01*
X0253721Y0208003D01*
X0253584Y0207951D01*
X0253445Y0207902D01*
X0253306Y0207857D01*
X0253165Y0207816D01*
X0253023Y0207779D01*
X0252881Y0207746D01*
X0252737Y0207716D01*
X0252593Y0207690D01*
X0252448Y0207669D01*
X0252302Y0207651D01*
X0252156Y0207637D01*
X0252010Y0207627D01*
X0251864Y0207621D01*
X0251717Y0207619D01*
X0251570Y0207621D01*
X0251424Y0207627D01*
X0251278Y0207637D01*
X0251132Y0207651D01*
X0250986Y0207669D01*
X0250841Y0207690D01*
X0250697Y0207716D01*
X0250553Y0207746D01*
X0250411Y0207779D01*
X0250269Y0207816D01*
X0250128Y0207857D01*
X0249989Y0207902D01*
X0249850Y0207951D01*
X0249713Y0208003D01*
X0249578Y0208060D01*
X0249444Y0208119D01*
X0249312Y0208183D01*
X0249182Y0208250D01*
X0249053Y0208320D01*
X0248926Y0208394D01*
X0248802Y0208471D01*
X0248679Y0208552D01*
X0248559Y0208636D01*
X0248441Y0208723D01*
X0248326Y0208813D01*
X0248213Y0208906D01*
X0248102Y0209003D01*
X0247994Y0209102D01*
X0247889Y0209204D01*
X0247787Y0209309D01*
X0247688Y0209417D01*
X0247591Y0209528D01*
X0247498Y0209641D01*
X0247408Y0209756D01*
X0247321Y0209874D01*
X0247237Y0209994D01*
X0247156Y0210117D01*
X0247079Y0210241D01*
X0247005Y0210368D01*
X0246935Y0210497D01*
X0246868Y0210627D01*
X0246804Y0210759D01*
X0246745Y0210893D01*
X0246688Y0211028D01*
X0246636Y0211165D01*
X0246587Y0211304D01*
X0246542Y0211443D01*
X0246501Y0211584D01*
X0246464Y0211726D01*
X0246431Y0211868D01*
X0246401Y0212012D01*
X0246375Y0212156D01*
X0246354Y0212301D01*
X0246336Y0212447D01*
X0246322Y0212593D01*
X0246312Y0212739D01*
X0246306Y0212885D01*
X0246304Y0213032D01*
X0017957Y0213032D02*
X0017959Y0213179D01*
X0017965Y0213325D01*
X0017975Y0213471D01*
X0017989Y0213617D01*
X0018007Y0213763D01*
X0018028Y0213908D01*
X0018054Y0214052D01*
X0018084Y0214196D01*
X0018117Y0214338D01*
X0018154Y0214480D01*
X0018195Y0214621D01*
X0018240Y0214760D01*
X0018289Y0214899D01*
X0018341Y0215036D01*
X0018398Y0215171D01*
X0018457Y0215305D01*
X0018521Y0215437D01*
X0018588Y0215567D01*
X0018658Y0215696D01*
X0018732Y0215823D01*
X0018809Y0215947D01*
X0018890Y0216070D01*
X0018974Y0216190D01*
X0019061Y0216308D01*
X0019151Y0216423D01*
X0019244Y0216536D01*
X0019341Y0216647D01*
X0019440Y0216755D01*
X0019542Y0216860D01*
X0019647Y0216962D01*
X0019755Y0217061D01*
X0019866Y0217158D01*
X0019979Y0217251D01*
X0020094Y0217341D01*
X0020212Y0217428D01*
X0020332Y0217512D01*
X0020455Y0217593D01*
X0020579Y0217670D01*
X0020706Y0217744D01*
X0020835Y0217814D01*
X0020965Y0217881D01*
X0021097Y0217945D01*
X0021231Y0218004D01*
X0021366Y0218061D01*
X0021503Y0218113D01*
X0021642Y0218162D01*
X0021781Y0218207D01*
X0021922Y0218248D01*
X0022064Y0218285D01*
X0022206Y0218318D01*
X0022350Y0218348D01*
X0022494Y0218374D01*
X0022639Y0218395D01*
X0022785Y0218413D01*
X0022931Y0218427D01*
X0023077Y0218437D01*
X0023223Y0218443D01*
X0023370Y0218445D01*
X0023517Y0218443D01*
X0023663Y0218437D01*
X0023809Y0218427D01*
X0023955Y0218413D01*
X0024101Y0218395D01*
X0024246Y0218374D01*
X0024390Y0218348D01*
X0024534Y0218318D01*
X0024676Y0218285D01*
X0024818Y0218248D01*
X0024959Y0218207D01*
X0025098Y0218162D01*
X0025237Y0218113D01*
X0025374Y0218061D01*
X0025509Y0218004D01*
X0025643Y0217945D01*
X0025775Y0217881D01*
X0025905Y0217814D01*
X0026034Y0217744D01*
X0026161Y0217670D01*
X0026285Y0217593D01*
X0026408Y0217512D01*
X0026528Y0217428D01*
X0026646Y0217341D01*
X0026761Y0217251D01*
X0026874Y0217158D01*
X0026985Y0217061D01*
X0027093Y0216962D01*
X0027198Y0216860D01*
X0027300Y0216755D01*
X0027399Y0216647D01*
X0027496Y0216536D01*
X0027589Y0216423D01*
X0027679Y0216308D01*
X0027766Y0216190D01*
X0027850Y0216070D01*
X0027931Y0215947D01*
X0028008Y0215823D01*
X0028082Y0215696D01*
X0028152Y0215567D01*
X0028219Y0215437D01*
X0028283Y0215305D01*
X0028342Y0215171D01*
X0028399Y0215036D01*
X0028451Y0214899D01*
X0028500Y0214760D01*
X0028545Y0214621D01*
X0028586Y0214480D01*
X0028623Y0214338D01*
X0028656Y0214196D01*
X0028686Y0214052D01*
X0028712Y0213908D01*
X0028733Y0213763D01*
X0028751Y0213617D01*
X0028765Y0213471D01*
X0028775Y0213325D01*
X0028781Y0213179D01*
X0028783Y0213032D01*
X0028781Y0212885D01*
X0028775Y0212739D01*
X0028765Y0212593D01*
X0028751Y0212447D01*
X0028733Y0212301D01*
X0028712Y0212156D01*
X0028686Y0212012D01*
X0028656Y0211868D01*
X0028623Y0211726D01*
X0028586Y0211584D01*
X0028545Y0211443D01*
X0028500Y0211304D01*
X0028451Y0211165D01*
X0028399Y0211028D01*
X0028342Y0210893D01*
X0028283Y0210759D01*
X0028219Y0210627D01*
X0028152Y0210497D01*
X0028082Y0210368D01*
X0028008Y0210241D01*
X0027931Y0210117D01*
X0027850Y0209994D01*
X0027766Y0209874D01*
X0027679Y0209756D01*
X0027589Y0209641D01*
X0027496Y0209528D01*
X0027399Y0209417D01*
X0027300Y0209309D01*
X0027198Y0209204D01*
X0027093Y0209102D01*
X0026985Y0209003D01*
X0026874Y0208906D01*
X0026761Y0208813D01*
X0026646Y0208723D01*
X0026528Y0208636D01*
X0026408Y0208552D01*
X0026285Y0208471D01*
X0026161Y0208394D01*
X0026034Y0208320D01*
X0025905Y0208250D01*
X0025775Y0208183D01*
X0025643Y0208119D01*
X0025509Y0208060D01*
X0025374Y0208003D01*
X0025237Y0207951D01*
X0025098Y0207902D01*
X0024959Y0207857D01*
X0024818Y0207816D01*
X0024676Y0207779D01*
X0024534Y0207746D01*
X0024390Y0207716D01*
X0024246Y0207690D01*
X0024101Y0207669D01*
X0023955Y0207651D01*
X0023809Y0207637D01*
X0023663Y0207627D01*
X0023517Y0207621D01*
X0023370Y0207619D01*
X0023223Y0207621D01*
X0023077Y0207627D01*
X0022931Y0207637D01*
X0022785Y0207651D01*
X0022639Y0207669D01*
X0022494Y0207690D01*
X0022350Y0207716D01*
X0022206Y0207746D01*
X0022064Y0207779D01*
X0021922Y0207816D01*
X0021781Y0207857D01*
X0021642Y0207902D01*
X0021503Y0207951D01*
X0021366Y0208003D01*
X0021231Y0208060D01*
X0021097Y0208119D01*
X0020965Y0208183D01*
X0020835Y0208250D01*
X0020706Y0208320D01*
X0020579Y0208394D01*
X0020455Y0208471D01*
X0020332Y0208552D01*
X0020212Y0208636D01*
X0020094Y0208723D01*
X0019979Y0208813D01*
X0019866Y0208906D01*
X0019755Y0209003D01*
X0019647Y0209102D01*
X0019542Y0209204D01*
X0019440Y0209309D01*
X0019341Y0209417D01*
X0019244Y0209528D01*
X0019151Y0209641D01*
X0019061Y0209756D01*
X0018974Y0209874D01*
X0018890Y0209994D01*
X0018809Y0210117D01*
X0018732Y0210241D01*
X0018658Y0210368D01*
X0018588Y0210497D01*
X0018521Y0210627D01*
X0018457Y0210759D01*
X0018398Y0210893D01*
X0018341Y0211028D01*
X0018289Y0211165D01*
X0018240Y0211304D01*
X0018195Y0211443D01*
X0018154Y0211584D01*
X0018117Y0211726D01*
X0018084Y0211868D01*
X0018054Y0212012D01*
X0018028Y0212156D01*
X0018007Y0212301D01*
X0017989Y0212447D01*
X0017975Y0212593D01*
X0017965Y0212739D01*
X0017959Y0212885D01*
X0017957Y0213032D01*
D11*
X0049355Y0208819D03*
X0072977Y0208425D03*
X0096205Y0208819D03*
X0119433Y0208425D03*
D12*
X0119433Y0218425D03*
X0096205Y0218819D03*
X0072977Y0218425D03*
X0049355Y0218819D03*
D13*
X0049748Y0183111D03*
X0069433Y0183111D03*
X0069827Y0165000D03*
X0050142Y0165000D03*
X0050536Y0146890D03*
X0070221Y0146890D03*
X0069827Y0128386D03*
X0050142Y0128386D03*
X0050142Y0106733D03*
X0069827Y0106733D03*
X0070221Y0087835D03*
X0050536Y0087835D03*
X0050536Y0069331D03*
X0070221Y0069331D03*
X0070221Y0050827D03*
X0050536Y0050827D03*
D14*
X0052544Y0025118D03*
X0042544Y0025118D03*
X0042544Y0015118D03*
X0052544Y0015118D03*
X0062544Y0015118D03*
X0072544Y0015118D03*
X0082544Y0015118D03*
X0092544Y0015118D03*
X0102544Y0015118D03*
X0112544Y0015118D03*
X0122544Y0015118D03*
X0132544Y0015118D03*
X0142544Y0015118D03*
X0152544Y0015118D03*
X0162544Y0015118D03*
X0172544Y0015118D03*
X0182544Y0015118D03*
X0192544Y0015118D03*
X0202544Y0015118D03*
X0212544Y0015118D03*
X0222544Y0015118D03*
X0232544Y0015118D03*
X0232544Y0025118D03*
X0222544Y0025118D03*
X0212544Y0025118D03*
X0202544Y0025118D03*
X0192544Y0025118D03*
X0182544Y0025118D03*
X0172544Y0025118D03*
X0162544Y0025118D03*
X0152544Y0025118D03*
X0142544Y0025118D03*
X0132544Y0025118D03*
X0122544Y0025118D03*
X0112544Y0025118D03*
X0102544Y0025118D03*
X0092544Y0025118D03*
X0082544Y0025118D03*
X0072544Y0025118D03*
X0062544Y0025118D03*
D15*
X0024551Y0055236D03*
X0024551Y0070827D03*
X0024551Y0086418D03*
X0024551Y0102008D03*
X0024551Y0133977D03*
X0024551Y0149567D03*
X0024551Y0165158D03*
X0024551Y0180748D03*
D16*
X0190299Y0129233D03*
X0190299Y0124233D03*
X0190299Y0119233D03*
X0190299Y0114233D03*
X0190299Y0109233D03*
X0190299Y0104233D03*
X0190299Y0099233D03*
X0190299Y0094233D03*
X0190299Y0089233D03*
X0226520Y0089233D03*
X0226520Y0094351D03*
X0226520Y0099469D03*
X0226520Y0104469D03*
X0226520Y0109469D03*
X0226520Y0114469D03*
X0226520Y0119469D03*
X0226520Y0124469D03*
X0226520Y0129469D03*
D17*
X0206441Y0054764D03*
X0206441Y0050040D03*
X0203292Y0046496D03*
X0205260Y0041378D03*
D18*
X0209984Y0041378D01*
X0209984Y0065788D01*
X0207229Y0063819D02*
X0198961Y0063819D01*
X0196205Y0066575D02*
X0196205Y0057126D01*
X0202898Y0057126D01*
X0200536Y0053977D02*
X0206441Y0054764D01*
X0205654Y0053977D01*
X0206441Y0050040D02*
X0201717Y0050040D01*
X0203292Y0046496D02*
X0199355Y0046496D01*
X0201717Y0042953D02*
X0192662Y0042953D01*
X0187544Y0052008D02*
X0184000Y0055945D01*
X0184000Y0089410D01*
X0188331Y0089016D01*
X0190299Y0089233D01*
X0187544Y0094134D02*
X0183607Y0093347D01*
X0187544Y0094134D02*
X0190299Y0094233D01*
X0182425Y0102008D02*
X0179670Y0105945D01*
X0161953Y0124449D01*
X0158016Y0123662D02*
X0162740Y0118937D01*
X0177701Y0103583D01*
X0179670Y0099252D01*
X0182425Y0102008D02*
X0182032Y0102796D01*
X0174945Y0101614D02*
X0174945Y0058307D01*
X0170221Y0058307D01*
X0172583Y0061457D02*
X0166677Y0061457D01*
X0166677Y0055158D01*
X0172583Y0061457D02*
X0172583Y0100040D01*
X0164315Y0108307D01*
X0160772Y0108307D01*
X0154079Y0100827D02*
X0156441Y0098465D01*
X0156441Y0062244D01*
X0156441Y0059882D01*
X0158410Y0059882D01*
X0158410Y0056339D01*
X0156441Y0062244D02*
X0161166Y0062244D01*
X0150142Y0048465D02*
X0177701Y0048465D01*
X0177701Y0081536D01*
X0181244Y0079173D02*
X0181244Y0055158D01*
X0182819Y0052796D01*
X0196205Y0066575D02*
X0205260Y0066575D01*
X0205260Y0132323D01*
X0206441Y0135079D01*
X0202504Y0142559D02*
X0210378Y0142559D01*
X0210378Y0145315D01*
X0216284Y0151221D01*
X0216284Y0163032D01*
X0207229Y0172087D01*
X0207229Y0179567D01*
X0207622Y0179961D01*
X0206441Y0181142D01*
X0182425Y0181142D01*
X0174945Y0184292D02*
X0210378Y0184292D01*
X0210378Y0172874D01*
X0218252Y0165000D01*
X0227307Y0165000D01*
X0230063Y0162244D01*
X0228882Y0161063D01*
X0228882Y0131831D01*
X0226520Y0129469D01*
X0226520Y0124469D02*
X0226520Y0124449D01*
X0222977Y0124449D01*
X0220614Y0126811D01*
X0221796Y0119331D02*
X0224945Y0119331D01*
X0226520Y0119469D01*
X0225339Y0119331D01*
X0229670Y0119331D01*
X0232425Y0121693D01*
X0232425Y0137048D01*
X0231638Y0137441D01*
X0235575Y0135473D02*
X0240299Y0137048D01*
X0240299Y0150827D01*
X0235575Y0156733D02*
X0235181Y0157126D01*
X0230063Y0162244D02*
X0243055Y0162244D01*
X0221796Y0152008D02*
X0213134Y0142953D01*
X0212740Y0046496D01*
X0212740Y0039803D01*
X0210772Y0036260D01*
X0141481Y0036260D01*
X0132544Y0027323D01*
X0132544Y0025118D01*
X0137544Y0022874D02*
X0134394Y0019725D01*
X0127701Y0019725D01*
X0123095Y0015118D01*
X0122544Y0015118D01*
X0132544Y0015118D02*
X0138055Y0019843D01*
X0147386Y0019725D01*
X0147386Y0026811D01*
X0151323Y0031536D01*
X0216284Y0031536D01*
X0218252Y0034292D01*
X0218252Y0055551D01*
X0218646Y0053977D01*
X0219040Y0053977D01*
X0218252Y0055551D02*
X0218252Y0062244D01*
X0219827Y0063819D01*
X0218252Y0062244D02*
X0217859Y0139803D01*
X0221008Y0142166D01*
X0215496Y0141378D02*
X0222189Y0148071D01*
X0215496Y0141378D02*
X0215496Y0069331D01*
X0215496Y0050040D01*
X0215496Y0037441D01*
X0213134Y0033898D01*
X0143055Y0033898D01*
X0137544Y0027599D01*
X0137544Y0022874D01*
X0124827Y0025118D02*
X0138725Y0039016D01*
X0208803Y0039016D01*
X0209984Y0041378D01*
X0220221Y0039410D02*
X0220221Y0029567D01*
X0217465Y0029567D01*
X0217465Y0020118D01*
X0212740Y0020118D01*
X0212740Y0015394D01*
X0212544Y0015118D01*
X0222544Y0015118D02*
X0222583Y0015394D01*
X0227701Y0020512D01*
X0227701Y0029961D01*
X0225339Y0033111D01*
X0225339Y0040197D01*
X0221008Y0040197D02*
X0220221Y0039410D01*
X0225339Y0056339D02*
X0225339Y0080748D01*
X0220221Y0086260D01*
X0220221Y0117362D01*
X0221796Y0119331D01*
X0225339Y0114607D02*
X0226520Y0114469D01*
X0225339Y0114607D02*
X0234000Y0114607D01*
X0238725Y0109882D01*
X0238725Y0070906D01*
X0231244Y0070906D01*
X0230851Y0074055D02*
X0229276Y0074055D01*
X0236362Y0074055D01*
X0236362Y0108307D01*
X0234000Y0110670D01*
X0230457Y0110670D01*
X0230457Y0109488D01*
X0225339Y0109488D01*
X0226520Y0109469D01*
X0226520Y0104469D02*
X0233508Y0104469D01*
X0233607Y0103583D01*
X0232819Y0099646D02*
X0226520Y0099646D01*
X0226520Y0099469D01*
X0226520Y0094351D02*
X0232642Y0094351D01*
X0233607Y0096103D01*
X0233390Y0089233D02*
X0226520Y0089233D01*
X0233390Y0089233D02*
X0233607Y0089016D01*
X0241481Y0086260D02*
X0241087Y0113032D01*
X0235575Y0118150D01*
X0235575Y0135473D01*
X0232819Y0141772D02*
X0232819Y0142166D01*
X0212347Y0155551D02*
X0211953Y0155158D01*
X0211166Y0155158D01*
X0211953Y0159095D02*
X0211953Y0163425D01*
X0203685Y0171693D01*
X0203685Y0177599D01*
X0202898Y0178386D01*
X0173764Y0178386D01*
X0171402Y0180748D01*
X0171402Y0185866D01*
X0173764Y0188229D01*
X0182425Y0188229D01*
X0209591Y0188229D01*
X0182032Y0169725D02*
X0182032Y0162244D01*
X0182032Y0169725D02*
X0152110Y0169725D01*
X0159984Y0161851D02*
X0160378Y0161851D01*
X0160772Y0155945D02*
X0160772Y0155158D01*
X0160378Y0149646D02*
X0160378Y0148859D01*
X0154473Y0135473D02*
X0152110Y0134685D01*
X0154473Y0135473D02*
X0174551Y0135473D01*
X0159591Y0127992D02*
X0159197Y0128386D01*
X0158016Y0123662D02*
X0142268Y0123662D01*
X0119236Y0123662D01*
X0117465Y0115788D02*
X0117465Y0115394D01*
X0148173Y0120906D02*
X0156835Y0120906D01*
X0156835Y0120118D01*
X0174945Y0101614D01*
X0183607Y0113819D02*
X0184020Y0114233D01*
X0190299Y0114233D01*
X0154079Y0100827D02*
X0152110Y0100827D01*
X0152110Y0091772D02*
X0152504Y0090591D01*
X0160378Y0087835D02*
X0160772Y0086654D01*
X0160378Y0081536D02*
X0160772Y0079961D01*
X0187544Y0080355D02*
X0187544Y0080748D01*
X0208016Y0074055D02*
X0208016Y0073662D01*
X0207229Y0068544D02*
X0210772Y0068544D01*
X0210772Y0081142D01*
X0210378Y0142559D01*
X0247780Y0105551D02*
X0247780Y0103583D01*
X0210772Y0081536D02*
X0210772Y0081142D01*
X0207229Y0068544D02*
X0207229Y0063819D01*
X0228095Y0061457D02*
X0229670Y0061457D01*
X0247386Y0076811D02*
X0247780Y0076811D01*
X0334394Y0035079D02*
X0333213Y0021299D01*
X0332425Y0020512D01*
X0124827Y0025118D02*
X0122544Y0025118D01*
X0021008Y0033111D02*
X0018252Y0033111D01*
X0098173Y0155945D02*
X0098961Y0155945D01*
X0114709Y0158307D02*
X0114709Y0161457D01*
X0115496Y0162244D01*
X0115496Y0158701D02*
X0114709Y0158307D01*
X0118252Y0191772D02*
X0130063Y0190591D01*
X0260772Y0198465D02*
X0266677Y0197677D01*
X0265890Y0198465D01*
X0266677Y0198465D01*
D19*
X0229276Y0168544D03*
X0243055Y0162244D03*
X0235181Y0157126D03*
X0240299Y0150827D03*
X0232819Y0142166D03*
X0232425Y0137048D03*
X0221008Y0142166D03*
X0222189Y0148071D03*
X0221796Y0152008D03*
X0211166Y0155158D03*
X0202504Y0142559D03*
X0184788Y0153583D03*
X0182032Y0162244D03*
X0159984Y0161851D03*
X0160772Y0155158D03*
X0160378Y0148859D03*
X0174551Y0135473D03*
X0172583Y0127599D03*
X0176914Y0121693D03*
X0183607Y0113819D03*
X0182032Y0102796D03*
X0179670Y0099252D03*
X0183607Y0093347D03*
X0184000Y0089410D03*
X0187544Y0080748D03*
X0181244Y0079173D03*
X0177701Y0081536D03*
X0160772Y0079961D03*
X0160772Y0086654D03*
X0152504Y0090591D03*
X0152110Y0100827D03*
X0160772Y0108307D03*
X0148173Y0120906D03*
X0142268Y0123662D03*
X0135969Y0128386D03*
X0126914Y0137441D03*
X0118646Y0131929D03*
X0119236Y0123662D03*
X0117465Y0115788D03*
X0117465Y0107520D03*
X0115890Y0089803D03*
X0119827Y0089803D03*
X0119827Y0086260D03*
X0119827Y0083111D03*
X0115890Y0083111D03*
X0115890Y0086260D03*
X0115890Y0079567D03*
X0115890Y0076024D03*
X0119827Y0076024D03*
X0119827Y0079567D03*
X0124158Y0079567D03*
X0124158Y0076024D03*
X0124158Y0083111D03*
X0124158Y0086260D03*
X0124158Y0089803D03*
X0128488Y0062638D03*
X0118646Y0054370D03*
X0150142Y0048465D03*
X0158410Y0056339D03*
X0161166Y0062244D03*
X0152504Y0063425D03*
X0166677Y0055158D03*
X0170221Y0058307D03*
X0182819Y0052796D03*
X0187544Y0052008D03*
X0199355Y0046496D03*
X0201717Y0050040D03*
X0200536Y0053977D03*
X0198961Y0063819D03*
X0209984Y0065788D03*
X0215496Y0069331D03*
X0219827Y0063819D03*
X0228095Y0061457D03*
X0225339Y0056339D03*
X0218646Y0053977D03*
X0215496Y0050040D03*
X0212740Y0046496D03*
X0221008Y0040197D03*
X0225339Y0040197D03*
X0201717Y0042953D03*
X0192662Y0042953D03*
X0231244Y0070906D03*
X0229276Y0074055D03*
X0241481Y0086260D03*
X0233607Y0089016D03*
X0233607Y0096103D03*
X0232819Y0099646D03*
X0233607Y0103583D03*
X0234000Y0110670D03*
X0234000Y0114607D03*
X0247780Y0103583D03*
X0220614Y0126811D03*
X0200536Y0127992D03*
X0200536Y0122874D03*
X0200536Y0117756D03*
X0200536Y0113032D03*
X0161953Y0124449D03*
X0159197Y0128386D03*
X0152110Y0134685D03*
X0124945Y0151614D03*
X0124945Y0155158D03*
X0120221Y0155158D03*
X0120221Y0151614D03*
X0115496Y0151614D03*
X0115496Y0155158D03*
X0115496Y0158701D03*
X0119827Y0158701D03*
X0120221Y0162244D03*
X0120221Y0165788D03*
X0124945Y0165788D03*
X0124945Y0162244D03*
X0124945Y0158701D03*
X0115496Y0162244D03*
X0115496Y0165788D03*
X0118646Y0183111D03*
X0118252Y0191772D03*
X0152110Y0169725D03*
X0174945Y0184292D03*
X0182425Y0181142D03*
X0182425Y0188229D03*
X0195024Y0196890D03*
X0209591Y0188229D03*
X0207622Y0179961D03*
X0299355Y0166575D03*
X0302504Y0164607D03*
X0247386Y0076811D03*
X0208016Y0074055D03*
X0250536Y0034685D03*
X0287937Y0023268D03*
X0306047Y0033898D03*
X0309197Y0033898D03*
X0312347Y0033898D03*
X0312347Y0037835D03*
X0309197Y0037835D03*
X0305654Y0037835D03*
X0334394Y0035079D03*
X0334788Y0042166D03*
X0334788Y0047677D03*
X0340299Y0057520D03*
X0310378Y0016181D03*
X0091087Y0122481D03*
X0069827Y0137048D03*
X0069040Y0156339D03*
X0069827Y0174843D03*
X0069433Y0098071D03*
X0069827Y0079567D03*
X0070614Y0061063D03*
X0021008Y0033111D03*
D20*
X0070614Y0060276D02*
X0071402Y0059488D01*
X0070614Y0060276D02*
X0070614Y0061063D01*
X0070614Y0079173D02*
X0070221Y0079567D01*
X0069827Y0079567D01*
X0070221Y0098071D02*
X0070614Y0098465D01*
X0070221Y0098071D02*
X0069433Y0098071D01*
X0071008Y0118150D02*
X0070614Y0118544D01*
X0091087Y0122481D01*
X0071008Y0137441D02*
X0070614Y0137048D01*
X0069827Y0137048D01*
X0069827Y0156339D02*
X0069040Y0156339D01*
X0069827Y0174843D02*
X0071008Y0174843D01*
X0126914Y0137441D02*
X0126914Y0137048D01*
X0127307Y0136654D01*
X0127701Y0062638D02*
X0128488Y0062638D01*
X0119827Y0053583D02*
X0119040Y0054370D01*
X0118646Y0054370D01*
D21*
X0014840Y0011194D02*
X0013645Y0012839D01*
X0013017Y0014771D01*
X0012937Y0015788D01*
X0012937Y0041285D01*
X0014398Y0039599D01*
X0014487Y0039385D01*
X0015214Y0038658D01*
X0015887Y0037881D01*
X0016095Y0037777D01*
X0016259Y0037613D01*
X0017209Y0037219D01*
X0018128Y0036759D01*
X0018360Y0036743D01*
X0018574Y0036654D01*
X0019602Y0036654D01*
X0020628Y0036581D01*
X0020848Y0036654D01*
X0097458Y0036654D01*
X0099773Y0037613D01*
X0101545Y0039385D01*
X0104104Y0041944D01*
X0105876Y0043716D01*
X0106835Y0046031D01*
X0106835Y0060348D01*
X0105876Y0062663D01*
X0104104Y0064435D01*
X0101789Y0065394D01*
X0099283Y0065394D01*
X0096967Y0064435D01*
X0095195Y0062663D01*
X0094236Y0060348D01*
X0094236Y0049893D01*
X0093596Y0049252D01*
X0077304Y0049252D01*
X0077367Y0049406D01*
X0077367Y0052249D01*
X0076279Y0054875D01*
X0074269Y0056886D01*
X0071642Y0057973D01*
X0068799Y0057973D01*
X0066173Y0056886D01*
X0064162Y0054875D01*
X0063074Y0052249D01*
X0063074Y0049406D01*
X0063138Y0049252D01*
X0057767Y0049252D01*
X0057819Y0049378D01*
X0057819Y0053063D01*
X0056710Y0055740D01*
X0053167Y0059283D01*
X0051118Y0061332D01*
X0049392Y0062048D01*
X0051984Y0062048D01*
X0054661Y0063156D01*
X0056710Y0065205D01*
X0057819Y0067882D01*
X0057819Y0070780D01*
X0056710Y0073457D01*
X0054661Y0075506D01*
X0051984Y0076614D01*
X0051584Y0076614D01*
X0050724Y0077474D01*
X0048047Y0078583D01*
X0027303Y0078583D01*
X0027208Y0078622D01*
X0029014Y0079370D01*
X0043717Y0079370D01*
X0046394Y0080479D01*
X0046466Y0080551D01*
X0051984Y0080551D01*
X0054661Y0081660D01*
X0056710Y0083709D01*
X0057819Y0086386D01*
X0057819Y0089284D01*
X0056710Y0091961D01*
X0054661Y0094010D01*
X0051984Y0095118D01*
X0045455Y0095118D01*
X0047181Y0095834D01*
X0049230Y0097882D01*
X0050797Y0099449D01*
X0051591Y0099449D01*
X0054268Y0100558D01*
X0056317Y0102607D01*
X0057425Y0105284D01*
X0057425Y0108181D01*
X0056317Y0110858D01*
X0054268Y0112907D01*
X0051591Y0114016D01*
X0046331Y0114016D01*
X0043654Y0112907D01*
X0040038Y0109292D01*
X0028444Y0109292D01*
X0026186Y0110227D01*
X0022917Y0110227D01*
X0021172Y0109504D01*
X0021217Y0126462D01*
X0022917Y0125758D01*
X0026186Y0125758D01*
X0028444Y0126693D01*
X0041535Y0126693D01*
X0046016Y0122211D01*
X0048693Y0121103D01*
X0051591Y0121103D01*
X0054268Y0122211D01*
X0056317Y0124260D01*
X0057425Y0126937D01*
X0057425Y0129835D01*
X0056317Y0132512D01*
X0049222Y0139607D01*
X0051984Y0139607D01*
X0054661Y0140715D01*
X0056710Y0142764D01*
X0057819Y0145441D01*
X0057819Y0148339D01*
X0056710Y0151016D01*
X0051984Y0155742D01*
X0049307Y0156851D01*
X0028444Y0156851D01*
X0027208Y0157362D01*
X0028063Y0157717D01*
X0051591Y0157717D01*
X0054268Y0158826D01*
X0056317Y0160875D01*
X0057425Y0163551D01*
X0057425Y0166449D01*
X0056317Y0169126D01*
X0054268Y0171175D01*
X0051591Y0172284D01*
X0028824Y0172284D01*
X0027208Y0172953D01*
X0028444Y0173465D01*
X0048835Y0173465D01*
X0051512Y0174574D01*
X0055923Y0178985D01*
X0057032Y0181662D01*
X0057032Y0184559D01*
X0055923Y0187236D01*
X0053874Y0189285D01*
X0051197Y0190394D01*
X0048299Y0190394D01*
X0045623Y0189285D01*
X0044369Y0188032D01*
X0028444Y0188032D01*
X0026186Y0188967D01*
X0022917Y0188967D01*
X0021384Y0188332D01*
X0021400Y0194331D01*
X0037813Y0194331D01*
X0039767Y0195140D01*
X0041262Y0196635D01*
X0042071Y0198589D01*
X0042071Y0213504D01*
X0044315Y0213504D01*
X0044752Y0212991D01*
X0045754Y0212480D01*
X0044220Y0210946D01*
X0044220Y0208819D01*
X0044220Y0206692D01*
X0047228Y0203685D01*
X0049355Y0203685D01*
X0051481Y0203685D01*
X0054489Y0206692D01*
X0054489Y0208819D01*
X0049355Y0208819D01*
X0049355Y0208819D01*
X0054489Y0208819D01*
X0054489Y0210946D01*
X0053043Y0212392D01*
X0054661Y0213772D01*
X0068500Y0213714D01*
X0069297Y0212918D01*
X0069941Y0212651D01*
X0067842Y0210552D01*
X0067842Y0208426D01*
X0072976Y0208426D01*
X0072976Y0208425D01*
X0067842Y0208425D01*
X0067842Y0206299D01*
X0070850Y0203291D01*
X0072977Y0203291D01*
X0075103Y0203291D01*
X0078111Y0206299D01*
X0078111Y0208425D01*
X0072977Y0208425D01*
X0072977Y0208426D01*
X0078111Y0208426D01*
X0078111Y0210552D01*
X0076012Y0212651D01*
X0076657Y0212918D01*
X0077415Y0213677D01*
X0091104Y0213620D01*
X0092079Y0212645D01*
X0092567Y0212442D01*
X0091071Y0210946D01*
X0091071Y0208819D01*
X0091071Y0206692D01*
X0094078Y0203685D01*
X0096205Y0203685D01*
X0098332Y0203685D01*
X0101339Y0206692D01*
X0101339Y0208819D01*
X0096205Y0208819D01*
X0096205Y0203685D01*
X0096205Y0208819D01*
X0096205Y0208819D01*
X0096205Y0208819D01*
X0091071Y0208819D01*
X0096205Y0208819D01*
X0096205Y0208819D01*
X0101339Y0208819D01*
X0101339Y0210946D01*
X0100749Y0211536D01*
X0115283Y0211536D01*
X0114299Y0210552D01*
X0114299Y0208426D01*
X0119433Y0208426D01*
X0119433Y0208425D01*
X0119433Y0208425D01*
X0119433Y0203291D01*
X0117307Y0203291D01*
X0114299Y0206299D01*
X0114299Y0208425D01*
X0119433Y0208425D01*
X0119433Y0203291D01*
X0121560Y0203291D01*
X0124568Y0206299D01*
X0124568Y0208425D01*
X0119433Y0208425D01*
X0119433Y0208426D01*
X0124568Y0208426D01*
X0124568Y0210552D01*
X0123584Y0211536D01*
X0232242Y0211536D01*
X0232241Y0211534D01*
X0231884Y0210432D01*
X0231441Y0209362D01*
X0231441Y0209062D01*
X0231349Y0208777D01*
X0231441Y0207623D01*
X0231441Y0197016D01*
X0232550Y0194339D01*
X0234599Y0192290D01*
X0235271Y0192012D01*
X0235386Y0191897D01*
X0235663Y0191782D01*
X0235892Y0191587D01*
X0236994Y0191231D01*
X0238063Y0190788D01*
X0238363Y0190788D01*
X0238649Y0190695D01*
X0239803Y0190788D01*
X0240961Y0190788D01*
X0241238Y0190902D01*
X0241537Y0190926D01*
X0242036Y0191181D01*
X0274327Y0191181D01*
X0274418Y0191091D01*
X0275648Y0190581D01*
X0280541Y0190581D01*
X0281771Y0191091D01*
X0282713Y0192032D01*
X0283222Y0193262D01*
X0283222Y0196564D01*
X0283410Y0197016D01*
X0283410Y0199914D01*
X0282301Y0202591D01*
X0280252Y0204639D01*
X0277575Y0205748D01*
X0256822Y0205748D01*
X0259143Y0208070D01*
X0260477Y0211289D01*
X0260477Y0214774D01*
X0259143Y0217994D01*
X0256679Y0220458D01*
X0253459Y0221792D01*
X0249974Y0221792D01*
X0246755Y0220458D01*
X0246242Y0219945D01*
X0245586Y0222508D01*
X0244869Y0223465D01*
X0317268Y0223465D01*
X0317268Y0218272D01*
X0317777Y0217042D01*
X0318719Y0216100D01*
X0319949Y0215591D01*
X0329154Y0215591D01*
X0330384Y0216100D01*
X0331325Y0217042D01*
X0331835Y0218272D01*
X0331835Y0223465D01*
X0334394Y0223465D01*
X0335410Y0223385D01*
X0337343Y0222757D01*
X0338987Y0221562D01*
X0340182Y0219918D01*
X0340810Y0217985D01*
X0340890Y0216969D01*
X0340890Y0163229D01*
X0319949Y0163229D01*
X0318719Y0162719D01*
X0317777Y0161778D01*
X0317268Y0160548D01*
X0317268Y0151342D01*
X0317777Y0150113D01*
X0318719Y0149171D01*
X0319949Y0148662D01*
X0340890Y0148662D01*
X0340890Y0066585D01*
X0338176Y0066585D01*
X0335172Y0063581D01*
X0335172Y0059333D01*
X0335378Y0059127D01*
X0335378Y0018920D01*
X0331874Y0015197D01*
X0314881Y0015197D01*
X0314915Y0015279D01*
X0314915Y0017084D01*
X0314224Y0018751D01*
X0312948Y0020028D01*
X0311281Y0020718D01*
X0309476Y0020718D01*
X0308978Y0020512D01*
X0265890Y0020512D01*
X0265890Y0024523D01*
X0265231Y0026115D01*
X0254588Y0036757D01*
X0254382Y0037255D01*
X0253106Y0038532D01*
X0251438Y0039222D01*
X0249633Y0039222D01*
X0247966Y0038532D01*
X0246689Y0037255D01*
X0245999Y0035588D01*
X0245999Y0033783D01*
X0246689Y0032115D01*
X0247966Y0030839D01*
X0248464Y0030633D01*
X0250218Y0028878D01*
X0249974Y0028878D01*
X0246755Y0027545D01*
X0244291Y0025080D01*
X0242957Y0021861D01*
X0242957Y0018376D01*
X0244274Y0015197D01*
X0240669Y0015197D01*
X0238890Y0016863D01*
X0238890Y0017747D01*
X0237465Y0019172D01*
X0237465Y0021064D01*
X0238890Y0022490D01*
X0238890Y0027747D01*
X0235172Y0031465D01*
X0231380Y0031465D01*
X0231320Y0031697D01*
X0231148Y0031926D01*
X0231039Y0032191D01*
X0230683Y0032547D01*
X0229276Y0034423D01*
X0229276Y0037846D01*
X0229876Y0039295D01*
X0229876Y0041100D01*
X0229185Y0042767D01*
X0227909Y0044043D01*
X0226241Y0044734D01*
X0224436Y0044734D01*
X0223173Y0044211D01*
X0222189Y0044619D01*
X0222189Y0051104D01*
X0222492Y0051407D01*
X0222917Y0052431D01*
X0224436Y0051802D01*
X0226241Y0051802D01*
X0227909Y0052493D01*
X0229185Y0053769D01*
X0229876Y0055436D01*
X0229876Y0057241D01*
X0229276Y0058690D01*
X0229276Y0066810D01*
X0230342Y0066369D01*
X0232147Y0066369D01*
X0233595Y0066969D01*
X0239508Y0066969D01*
X0240955Y0067568D01*
X0242062Y0068676D01*
X0242662Y0070123D01*
X0242662Y0081839D01*
X0244051Y0082414D01*
X0245327Y0083690D01*
X0246018Y0085358D01*
X0246018Y0087163D01*
X0245382Y0088697D01*
X0245034Y0112352D01*
X0245050Y0112395D01*
X0245023Y0113134D01*
X0245012Y0113873D01*
X0244994Y0113915D01*
X0244992Y0113960D01*
X0244684Y0114632D01*
X0244391Y0115311D01*
X0244359Y0115342D01*
X0244340Y0115384D01*
X0243798Y0115887D01*
X0243268Y0116402D01*
X0243225Y0116419D01*
X0239512Y0119867D01*
X0239512Y0132635D01*
X0240938Y0133111D01*
X0241083Y0133111D01*
X0241677Y0133357D01*
X0242287Y0133560D01*
X0242396Y0133655D01*
X0242530Y0133710D01*
X0242985Y0134165D01*
X0243471Y0134586D01*
X0243535Y0134715D01*
X0243637Y0134817D01*
X0243883Y0135412D01*
X0244171Y0135987D01*
X0244181Y0136131D01*
X0244236Y0136264D01*
X0244236Y0136908D01*
X0244282Y0137550D01*
X0244236Y0137686D01*
X0244236Y0148476D01*
X0244836Y0149925D01*
X0244836Y0151730D01*
X0244146Y0153397D01*
X0242869Y0154673D01*
X0241202Y0155364D01*
X0239397Y0155364D01*
X0237729Y0154673D01*
X0236453Y0153397D01*
X0235762Y0151730D01*
X0235762Y0149925D01*
X0236362Y0148476D01*
X0236362Y0139885D01*
X0236094Y0139796D01*
X0234995Y0140894D01*
X0233328Y0141585D01*
X0232819Y0141585D01*
X0232819Y0158307D01*
X0240704Y0158307D01*
X0242153Y0157707D01*
X0243958Y0157707D01*
X0245625Y0158398D01*
X0246902Y0159674D01*
X0247592Y0161342D01*
X0247592Y0163147D01*
X0246902Y0164814D01*
X0245625Y0166091D01*
X0243958Y0166781D01*
X0242153Y0166781D01*
X0240704Y0166181D01*
X0233208Y0166181D01*
X0233813Y0167641D01*
X0233813Y0169446D01*
X0233122Y0171114D01*
X0231846Y0172390D01*
X0230178Y0173081D01*
X0228373Y0173081D01*
X0227875Y0172874D01*
X0220833Y0172874D01*
X0218646Y0175062D01*
X0218646Y0192633D01*
X0217987Y0194225D01*
X0212475Y0199737D01*
X0211257Y0200955D01*
X0209665Y0201614D01*
X0194556Y0201614D01*
X0192964Y0200955D01*
X0192952Y0200943D01*
X0192454Y0200736D01*
X0191178Y0199460D01*
X0190487Y0197792D01*
X0190487Y0195988D01*
X0191178Y0194320D01*
X0192454Y0193044D01*
X0194121Y0192353D01*
X0195926Y0192353D01*
X0197375Y0192953D01*
X0207010Y0192953D01*
X0207634Y0192329D01*
X0207240Y0192166D01*
X0184776Y0192166D01*
X0183328Y0192766D01*
X0181523Y0192766D01*
X0180074Y0192166D01*
X0172981Y0192166D01*
X0171534Y0191566D01*
X0170426Y0190459D01*
X0168064Y0188097D01*
X0167465Y0186650D01*
X0167465Y0179965D01*
X0168064Y0178518D01*
X0169172Y0177411D01*
X0171534Y0175048D01*
X0172981Y0174449D01*
X0199748Y0174449D01*
X0199748Y0170910D01*
X0200348Y0169463D01*
X0201455Y0168356D01*
X0208016Y0161795D01*
X0208016Y0161574D01*
X0207416Y0160974D01*
X0207416Y0157215D01*
X0210074Y0154558D01*
X0212347Y0154558D01*
X0212347Y0152852D01*
X0207041Y0147545D01*
X0206606Y0146496D01*
X0204855Y0146496D01*
X0203407Y0147096D01*
X0201602Y0147096D01*
X0199934Y0146406D01*
X0198658Y0145129D01*
X0197967Y0143462D01*
X0197967Y0141657D01*
X0198658Y0139989D01*
X0199934Y0138713D01*
X0201602Y0138022D01*
X0202968Y0138022D01*
X0201904Y0136958D01*
X0201904Y0134509D01*
X0201632Y0133852D01*
X0201333Y0133154D01*
X0201333Y0133129D01*
X0201323Y0133106D01*
X0201323Y0132347D01*
X0201314Y0131588D01*
X0201323Y0131565D01*
X0201323Y0070512D01*
X0195422Y0070512D01*
X0193975Y0069913D01*
X0192867Y0068805D01*
X0192268Y0067358D01*
X0192268Y0056343D01*
X0192867Y0054896D01*
X0193975Y0053789D01*
X0195422Y0053189D01*
X0195999Y0053189D01*
X0195999Y0053074D01*
X0196689Y0051407D01*
X0197180Y0050916D01*
X0197180Y0050506D01*
X0196785Y0050343D01*
X0195508Y0049066D01*
X0194818Y0047399D01*
X0194818Y0046971D01*
X0193564Y0047490D01*
X0191759Y0047490D01*
X0190092Y0046799D01*
X0188815Y0045523D01*
X0188125Y0043855D01*
X0188125Y0042953D01*
X0137942Y0042953D01*
X0136495Y0042354D01*
X0135387Y0041246D01*
X0125389Y0031248D01*
X0125172Y0031465D01*
X0119915Y0031465D01*
X0117544Y0029094D01*
X0115172Y0031465D01*
X0109915Y0031465D01*
X0107544Y0029094D01*
X0105172Y0031465D01*
X0099915Y0031465D01*
X0097544Y0029094D01*
X0095172Y0031465D01*
X0089915Y0031465D01*
X0087544Y0029094D01*
X0085172Y0031465D01*
X0079915Y0031465D01*
X0077544Y0029094D01*
X0075172Y0031465D01*
X0069915Y0031465D01*
X0066580Y0028130D01*
X0064608Y0030103D01*
X0062559Y0030103D01*
X0062559Y0025134D01*
X0062528Y0025134D01*
X0062528Y0030103D01*
X0060479Y0030103D01*
X0058507Y0028130D01*
X0055172Y0031465D01*
X0049915Y0031465D01*
X0047544Y0029094D01*
X0045172Y0031465D01*
X0039915Y0031465D01*
X0036197Y0027747D01*
X0036197Y0022490D01*
X0038568Y0020118D01*
X0036197Y0017747D01*
X0036197Y0012490D01*
X0039370Y0009317D01*
X0019434Y0009292D01*
X0019433Y0009292D01*
X0018417Y0009372D01*
X0016484Y0010000D01*
X0014840Y0011194D01*
X0014080Y0012240D02*
X0019500Y0012240D01*
X0018408Y0012692D02*
X0021628Y0011359D01*
X0025113Y0011359D01*
X0028332Y0012692D01*
X0030797Y0015156D01*
X0032130Y0018376D01*
X0032130Y0021861D01*
X0030797Y0025080D01*
X0028332Y0027545D01*
X0025113Y0028878D01*
X0021628Y0028878D01*
X0018408Y0027545D01*
X0015944Y0025080D01*
X0014610Y0021861D01*
X0014610Y0018376D01*
X0015944Y0015156D01*
X0018408Y0012692D01*
X0016893Y0014207D02*
X0013201Y0014207D01*
X0012937Y0016174D02*
X0015523Y0016174D01*
X0014708Y0018141D02*
X0012937Y0018141D01*
X0012937Y0020108D02*
X0014610Y0020108D01*
X0014699Y0022075D02*
X0012937Y0022075D01*
X0012937Y0024042D02*
X0015514Y0024042D01*
X0016873Y0026009D02*
X0012937Y0026009D01*
X0012937Y0027976D02*
X0019450Y0027976D01*
X0012937Y0029943D02*
X0038393Y0029943D01*
X0036426Y0027976D02*
X0027291Y0027976D01*
X0029868Y0026009D02*
X0036197Y0026009D01*
X0036197Y0024042D02*
X0031227Y0024042D01*
X0032041Y0022075D02*
X0036612Y0022075D01*
X0038558Y0020108D02*
X0032130Y0020108D01*
X0032033Y0018141D02*
X0036591Y0018141D01*
X0036197Y0016174D02*
X0031218Y0016174D01*
X0029847Y0014207D02*
X0036197Y0014207D01*
X0036447Y0012240D02*
X0027241Y0012240D01*
X0016108Y0010273D02*
X0038414Y0010273D01*
X0045725Y0009324D02*
X0048507Y0012106D01*
X0050479Y0010134D01*
X0052528Y0010134D01*
X0052528Y0015103D01*
X0052559Y0015103D01*
X0052559Y0015134D01*
X0057528Y0015134D01*
X0057528Y0017183D01*
X0055556Y0019155D01*
X0058507Y0022106D01*
X0060479Y0020134D01*
X0062528Y0020134D01*
X0062528Y0025103D01*
X0062559Y0025103D01*
X0062559Y0020134D01*
X0064608Y0020134D01*
X0066580Y0022106D01*
X0068568Y0020118D01*
X0066580Y0018130D01*
X0064608Y0020103D01*
X0062559Y0020103D01*
X0062559Y0015134D01*
X0062528Y0015134D01*
X0062528Y0020103D01*
X0060479Y0020103D01*
X0057559Y0017183D01*
X0057559Y0015134D01*
X0062528Y0015134D01*
X0062528Y0015103D01*
X0057559Y0015103D01*
X0057559Y0013054D01*
X0060479Y0010134D01*
X0062528Y0010134D01*
X0062528Y0015103D01*
X0062559Y0015103D01*
X0062559Y0010134D01*
X0064608Y0010134D01*
X0066580Y0012106D01*
X0069333Y0009354D01*
X0045725Y0009324D01*
X0046673Y0010273D02*
X0050340Y0010273D01*
X0052528Y0010273D02*
X0052559Y0010273D01*
X0052559Y0010134D02*
X0054608Y0010134D01*
X0057528Y0013054D01*
X0057528Y0015103D01*
X0052559Y0015103D01*
X0052559Y0010134D01*
X0052528Y0012240D02*
X0052559Y0012240D01*
X0052528Y0014207D02*
X0052559Y0014207D01*
X0054747Y0010273D02*
X0060340Y0010273D01*
X0062528Y0010273D02*
X0062559Y0010273D01*
X0062528Y0012240D02*
X0062559Y0012240D01*
X0062528Y0014207D02*
X0062559Y0014207D01*
X0062528Y0016174D02*
X0062559Y0016174D01*
X0062528Y0018141D02*
X0062559Y0018141D01*
X0066570Y0018141D02*
X0066591Y0018141D01*
X0068558Y0020108D02*
X0056508Y0020108D01*
X0056570Y0018141D02*
X0058517Y0018141D01*
X0057559Y0016174D02*
X0057528Y0016174D01*
X0057528Y0014207D02*
X0057559Y0014207D01*
X0058373Y0012240D02*
X0056714Y0012240D01*
X0064747Y0010273D02*
X0068414Y0010273D01*
X0066612Y0022075D02*
X0066549Y0022075D01*
X0062559Y0022075D02*
X0062528Y0022075D01*
X0062528Y0024042D02*
X0062559Y0024042D01*
X0062528Y0026009D02*
X0062559Y0026009D01*
X0062528Y0027976D02*
X0062559Y0027976D01*
X0062528Y0029943D02*
X0062559Y0029943D01*
X0064768Y0029943D02*
X0068393Y0029943D01*
X0060319Y0029943D02*
X0056694Y0029943D01*
X0048393Y0029943D02*
X0046694Y0029943D01*
X0058475Y0022075D02*
X0058538Y0022075D01*
X0076694Y0029943D02*
X0078393Y0029943D01*
X0086694Y0029943D02*
X0088393Y0029943D01*
X0096694Y0029943D02*
X0098393Y0029943D01*
X0099971Y0037811D02*
X0131952Y0037811D01*
X0129985Y0035844D02*
X0012937Y0035844D01*
X0012937Y0033877D02*
X0128018Y0033877D01*
X0126051Y0031910D02*
X0012937Y0031910D01*
X0012937Y0037811D02*
X0016026Y0037811D01*
X0014243Y0039778D02*
X0012937Y0039778D01*
X0050918Y0061415D02*
X0094679Y0061415D01*
X0094236Y0059448D02*
X0053002Y0059448D01*
X0054969Y0057481D02*
X0067611Y0057481D01*
X0064801Y0055514D02*
X0056804Y0055514D01*
X0057619Y0053547D02*
X0063612Y0053547D01*
X0063074Y0051580D02*
X0057819Y0051580D01*
X0057819Y0049613D02*
X0063074Y0049613D01*
X0072831Y0057481D02*
X0094236Y0057481D01*
X0094236Y0055514D02*
X0075640Y0055514D01*
X0076829Y0053547D02*
X0094236Y0053547D01*
X0094236Y0051580D02*
X0077367Y0051580D01*
X0077367Y0049613D02*
X0093957Y0049613D01*
X0103905Y0041745D02*
X0135886Y0041745D01*
X0133919Y0039778D02*
X0101938Y0039778D01*
X0101545Y0039385D02*
X0101545Y0039385D01*
X0104104Y0041944D02*
X0104104Y0041944D01*
X0105873Y0043712D02*
X0188125Y0043712D01*
X0188971Y0045679D02*
X0180483Y0045679D01*
X0179931Y0045127D02*
X0181039Y0046235D01*
X0181638Y0047682D01*
X0181638Y0048374D01*
X0181917Y0048259D01*
X0183722Y0048259D01*
X0184538Y0048597D01*
X0184974Y0048162D01*
X0186641Y0047471D01*
X0188446Y0047471D01*
X0190114Y0048162D01*
X0191390Y0049438D01*
X0192081Y0051106D01*
X0192081Y0052911D01*
X0191390Y0054578D01*
X0190114Y0055854D01*
X0188942Y0056340D01*
X0187937Y0057456D01*
X0187937Y0084705D01*
X0195296Y0084705D01*
X0196526Y0085214D01*
X0197467Y0086156D01*
X0197977Y0087386D01*
X0197977Y0091079D01*
X0197706Y0091733D01*
X0197977Y0092386D01*
X0197977Y0096079D01*
X0197467Y0097309D01*
X0196614Y0098162D01*
X0196614Y0099232D01*
X0190300Y0099232D01*
X0190300Y0099233D01*
X0196614Y0099233D01*
X0196614Y0100675D01*
X0196479Y0101180D01*
X0196218Y0101632D01*
X0196117Y0101733D01*
X0196218Y0101833D01*
X0196479Y0102286D01*
X0196614Y0102790D01*
X0196614Y0104232D01*
X0190300Y0104232D01*
X0190300Y0104233D01*
X0196614Y0104233D01*
X0196614Y0105675D01*
X0196479Y0106180D01*
X0196218Y0106632D01*
X0196117Y0106733D01*
X0196218Y0106833D01*
X0196479Y0107286D01*
X0196614Y0107790D01*
X0196614Y0109232D01*
X0190300Y0109232D01*
X0190300Y0109233D01*
X0196614Y0109233D01*
X0196614Y0110303D01*
X0197467Y0111156D01*
X0197977Y0112386D01*
X0197977Y0116079D01*
X0197706Y0116733D01*
X0197977Y0117386D01*
X0197977Y0121079D01*
X0197706Y0121733D01*
X0197977Y0122386D01*
X0197977Y0126079D01*
X0197467Y0127309D01*
X0196614Y0128162D01*
X0196614Y0129232D01*
X0190300Y0129232D01*
X0190300Y0129233D01*
X0196614Y0129233D01*
X0196614Y0130675D01*
X0196479Y0131180D01*
X0196218Y0131632D01*
X0195849Y0132001D01*
X0195396Y0132263D01*
X0194891Y0132398D01*
X0190300Y0132398D01*
X0190300Y0129233D01*
X0190299Y0129233D01*
X0190299Y0132398D01*
X0185708Y0132398D01*
X0185203Y0132263D01*
X0184750Y0132001D01*
X0184381Y0131632D01*
X0184120Y0131180D01*
X0183984Y0130675D01*
X0183984Y0129233D01*
X0190299Y0129233D01*
X0190299Y0129232D01*
X0183984Y0129232D01*
X0183984Y0128162D01*
X0183132Y0127309D01*
X0182622Y0126079D01*
X0182622Y0122386D01*
X0182893Y0121733D01*
X0182622Y0121079D01*
X0182622Y0118322D01*
X0181037Y0117665D01*
X0179760Y0116389D01*
X0179070Y0114722D01*
X0179070Y0112917D01*
X0179546Y0111767D01*
X0166452Y0125443D01*
X0165799Y0127019D01*
X0164523Y0128295D01*
X0162855Y0128986D01*
X0161051Y0128986D01*
X0159383Y0128295D01*
X0158686Y0127599D01*
X0144619Y0127599D01*
X0143170Y0128199D01*
X0141365Y0128199D01*
X0139917Y0127599D01*
X0121587Y0127599D01*
X0120139Y0128199D01*
X0118334Y0128199D01*
X0116666Y0127508D01*
X0115390Y0126232D01*
X0114699Y0124564D01*
X0114699Y0122759D01*
X0115390Y0121092D01*
X0116666Y0119815D01*
X0118334Y0119125D01*
X0120139Y0119125D01*
X0121587Y0119725D01*
X0139917Y0119725D01*
X0141365Y0119125D01*
X0143170Y0119125D01*
X0143879Y0119418D01*
X0144327Y0118336D01*
X0145603Y0117059D01*
X0147271Y0116369D01*
X0149076Y0116369D01*
X0150524Y0116969D01*
X0154409Y0116969D01*
X0158856Y0112425D01*
X0158202Y0112154D01*
X0156926Y0110877D01*
X0156235Y0109210D01*
X0156235Y0107405D01*
X0156926Y0105737D01*
X0158202Y0104461D01*
X0159869Y0103770D01*
X0161674Y0103770D01*
X0162813Y0104242D01*
X0168646Y0098409D01*
X0168646Y0065394D01*
X0165894Y0065394D01*
X0164860Y0064966D01*
X0163736Y0066091D01*
X0162068Y0066781D01*
X0160378Y0066781D01*
X0160378Y0099248D01*
X0159779Y0100695D01*
X0156309Y0104165D01*
X0154862Y0104764D01*
X0154461Y0104764D01*
X0153013Y0105364D01*
X0151208Y0105364D01*
X0149540Y0104673D01*
X0148264Y0103397D01*
X0147573Y0101730D01*
X0147573Y0099925D01*
X0148264Y0098257D01*
X0149540Y0096981D01*
X0151208Y0096290D01*
X0152504Y0096290D01*
X0152504Y0060665D01*
X0152504Y0059099D01*
X0153104Y0057652D01*
X0153873Y0056883D01*
X0153873Y0055436D01*
X0154563Y0053769D01*
X0155840Y0052493D01*
X0156059Y0052402D01*
X0152493Y0052402D01*
X0151044Y0053002D01*
X0149240Y0053002D01*
X0147572Y0052311D01*
X0146296Y0051035D01*
X0145605Y0049367D01*
X0145605Y0047562D01*
X0146296Y0045895D01*
X0147572Y0044619D01*
X0149240Y0043928D01*
X0151044Y0043928D01*
X0152493Y0044528D01*
X0178484Y0044528D01*
X0179931Y0045127D01*
X0181623Y0047646D02*
X0186218Y0047646D01*
X0188869Y0047646D02*
X0194920Y0047646D01*
X0196055Y0049613D02*
X0191462Y0049613D01*
X0192081Y0051580D02*
X0196617Y0051580D01*
X0194558Y0053547D02*
X0191817Y0053547D01*
X0192611Y0055514D02*
X0190454Y0055514D01*
X0192268Y0057481D02*
X0187937Y0057481D01*
X0187937Y0059448D02*
X0192268Y0059448D01*
X0192268Y0061415D02*
X0187937Y0061415D01*
X0187937Y0063382D02*
X0192268Y0063382D01*
X0192268Y0065349D02*
X0187937Y0065349D01*
X0187937Y0067316D02*
X0192268Y0067316D01*
X0193345Y0069283D02*
X0187937Y0069283D01*
X0187937Y0071250D02*
X0201323Y0071250D01*
X0201323Y0073217D02*
X0187937Y0073217D01*
X0187937Y0075184D02*
X0201323Y0075184D01*
X0201323Y0077151D02*
X0187937Y0077151D01*
X0187937Y0079118D02*
X0201323Y0079118D01*
X0201323Y0081085D02*
X0187937Y0081085D01*
X0187937Y0083052D02*
X0201323Y0083052D01*
X0201323Y0085019D02*
X0196055Y0085019D01*
X0197811Y0086986D02*
X0201323Y0086986D01*
X0201323Y0088953D02*
X0197977Y0088953D01*
X0197977Y0090921D02*
X0201323Y0090921D01*
X0201323Y0092888D02*
X0197977Y0092888D01*
X0197977Y0094855D02*
X0201323Y0094855D01*
X0201323Y0096822D02*
X0197669Y0096822D01*
X0196614Y0098789D02*
X0201323Y0098789D01*
X0201323Y0100756D02*
X0196593Y0100756D01*
X0196596Y0102723D02*
X0201323Y0102723D01*
X0201323Y0104690D02*
X0196614Y0104690D01*
X0196193Y0106657D02*
X0201323Y0106657D01*
X0201323Y0108624D02*
X0196614Y0108624D01*
X0196902Y0110591D02*
X0201323Y0110591D01*
X0201323Y0112558D02*
X0197977Y0112558D01*
X0197977Y0114525D02*
X0201323Y0114525D01*
X0201323Y0116492D02*
X0197806Y0116492D01*
X0197977Y0118459D02*
X0201323Y0118459D01*
X0201323Y0120426D02*
X0197977Y0120426D01*
X0197977Y0122393D02*
X0201323Y0122393D01*
X0201323Y0124360D02*
X0197977Y0124360D01*
X0197874Y0126327D02*
X0201323Y0126327D01*
X0201323Y0128294D02*
X0196614Y0128294D01*
X0196614Y0130261D02*
X0201323Y0130261D01*
X0201322Y0132228D02*
X0195456Y0132228D01*
X0190300Y0132228D02*
X0190299Y0132228D01*
X0190299Y0130261D02*
X0190300Y0130261D01*
X0185143Y0132228D02*
X0177723Y0132228D01*
X0177121Y0131626D02*
X0178398Y0132903D01*
X0179088Y0134570D01*
X0179088Y0136375D01*
X0178398Y0138043D01*
X0177121Y0139319D01*
X0175454Y0140010D01*
X0173649Y0140010D01*
X0172200Y0139410D01*
X0154612Y0139410D01*
X0153971Y0139455D01*
X0153834Y0139410D01*
X0153690Y0139410D01*
X0153125Y0139176D01*
X0153013Y0139222D01*
X0151208Y0139222D01*
X0149540Y0138532D01*
X0148264Y0137255D01*
X0147573Y0135588D01*
X0147573Y0133783D01*
X0148264Y0132115D01*
X0149540Y0130839D01*
X0151208Y0130148D01*
X0153013Y0130148D01*
X0154680Y0130839D01*
X0155377Y0131536D01*
X0172200Y0131536D01*
X0173649Y0130936D01*
X0175454Y0130936D01*
X0177121Y0131626D01*
X0178933Y0134195D02*
X0201774Y0134195D01*
X0201904Y0136162D02*
X0179088Y0136162D01*
X0178312Y0138129D02*
X0201344Y0138129D01*
X0198614Y0140096D02*
X0072493Y0140096D01*
X0071642Y0139744D02*
X0074269Y0140832D01*
X0076279Y0142842D01*
X0077367Y0145469D01*
X0077367Y0148312D01*
X0076279Y0150938D01*
X0074269Y0152948D01*
X0071642Y0154036D01*
X0068799Y0154036D01*
X0066173Y0152948D01*
X0064162Y0150938D01*
X0063074Y0148312D01*
X0063074Y0145469D01*
X0064162Y0142842D01*
X0066173Y0140832D01*
X0068799Y0139744D01*
X0071642Y0139744D01*
X0067949Y0140096D02*
X0053166Y0140096D01*
X0050700Y0138129D02*
X0149138Y0138129D01*
X0147811Y0136162D02*
X0052667Y0136162D01*
X0054634Y0134195D02*
X0065529Y0134195D01*
X0065779Y0134445D02*
X0063769Y0132434D01*
X0062681Y0129808D01*
X0062681Y0126965D01*
X0063769Y0124338D01*
X0065779Y0122328D01*
X0068405Y0121240D01*
X0071249Y0121240D01*
X0073875Y0122328D01*
X0075885Y0124338D01*
X0076973Y0126965D01*
X0076973Y0129808D01*
X0075885Y0132434D01*
X0073875Y0134445D01*
X0071249Y0135533D01*
X0068405Y0135533D01*
X0065779Y0134445D01*
X0063683Y0132228D02*
X0056434Y0132228D01*
X0057249Y0130261D02*
X0062868Y0130261D01*
X0062681Y0128294D02*
X0057425Y0128294D01*
X0057173Y0126327D02*
X0062945Y0126327D01*
X0063759Y0124360D02*
X0056358Y0124360D01*
X0054449Y0122393D02*
X0065714Y0122393D01*
X0073940Y0122393D02*
X0114851Y0122393D01*
X0114699Y0124360D02*
X0075895Y0124360D01*
X0076709Y0126327D02*
X0115485Y0126327D01*
X0116056Y0120426D02*
X0021201Y0120426D01*
X0021206Y0122393D02*
X0045835Y0122393D01*
X0043868Y0124360D02*
X0021212Y0124360D01*
X0021217Y0126327D02*
X0021544Y0126327D01*
X0027559Y0126327D02*
X0041901Y0126327D01*
X0021196Y0118459D02*
X0144276Y0118459D01*
X0146974Y0116492D02*
X0021190Y0116492D01*
X0021185Y0114525D02*
X0156801Y0114525D01*
X0154876Y0116492D02*
X0149373Y0116492D01*
X0156807Y0110591D02*
X0075964Y0110591D01*
X0075885Y0110781D02*
X0073875Y0112791D01*
X0071249Y0113879D01*
X0068405Y0113879D01*
X0065779Y0112791D01*
X0063769Y0110781D01*
X0062681Y0108154D01*
X0062681Y0105311D01*
X0063769Y0102684D01*
X0065779Y0100674D01*
X0068405Y0099586D01*
X0071249Y0099586D01*
X0073875Y0100674D01*
X0075885Y0102684D01*
X0076973Y0105311D01*
X0076973Y0108154D01*
X0075885Y0110781D01*
X0076779Y0108624D02*
X0156235Y0108624D01*
X0156545Y0106657D02*
X0076973Y0106657D01*
X0076716Y0104690D02*
X0149580Y0104690D01*
X0147985Y0102723D02*
X0075901Y0102723D01*
X0073957Y0100756D02*
X0147573Y0100756D01*
X0148044Y0098789D02*
X0050136Y0098789D01*
X0048169Y0096822D02*
X0149925Y0096822D01*
X0152504Y0094855D02*
X0071948Y0094855D01*
X0071642Y0094981D02*
X0068799Y0094981D01*
X0066173Y0093893D01*
X0064162Y0091883D01*
X0063074Y0089256D01*
X0063074Y0086413D01*
X0064162Y0083787D01*
X0066173Y0081776D01*
X0068799Y0080688D01*
X0071642Y0080688D01*
X0074269Y0081776D01*
X0076279Y0083787D01*
X0077367Y0086413D01*
X0077367Y0089256D01*
X0076279Y0091883D01*
X0074269Y0093893D01*
X0071642Y0094981D01*
X0068493Y0094855D02*
X0052621Y0094855D01*
X0055783Y0092888D02*
X0065167Y0092888D01*
X0063764Y0090921D02*
X0057141Y0090921D01*
X0057819Y0088953D02*
X0063074Y0088953D01*
X0063074Y0086986D02*
X0057819Y0086986D01*
X0057253Y0085019D02*
X0063652Y0085019D01*
X0064897Y0083052D02*
X0056054Y0083052D01*
X0053274Y0081085D02*
X0067841Y0081085D01*
X0072601Y0081085D02*
X0152504Y0081085D01*
X0152504Y0079118D02*
X0028406Y0079118D01*
X0051047Y0077151D02*
X0152504Y0077151D01*
X0152504Y0075184D02*
X0074474Y0075184D01*
X0074269Y0075389D02*
X0076279Y0073379D01*
X0077367Y0070752D01*
X0077367Y0067909D01*
X0076279Y0065283D01*
X0074269Y0063273D01*
X0071642Y0062185D01*
X0068799Y0062185D01*
X0066173Y0063273D01*
X0064162Y0065283D01*
X0063074Y0067909D01*
X0063074Y0070752D01*
X0064162Y0073379D01*
X0066173Y0075389D01*
X0068799Y0076477D01*
X0071642Y0076477D01*
X0074269Y0075389D01*
X0076346Y0073217D02*
X0152504Y0073217D01*
X0152504Y0071250D02*
X0077161Y0071250D01*
X0077367Y0069283D02*
X0152504Y0069283D01*
X0152504Y0067316D02*
X0077121Y0067316D01*
X0076307Y0065349D02*
X0099175Y0065349D01*
X0101896Y0065349D02*
X0152504Y0065349D01*
X0152504Y0063382D02*
X0105157Y0063382D01*
X0106393Y0061415D02*
X0152504Y0061415D01*
X0152504Y0059448D02*
X0106835Y0059448D01*
X0106835Y0057481D02*
X0153274Y0057481D01*
X0153873Y0055514D02*
X0106835Y0055514D01*
X0106835Y0053547D02*
X0154785Y0053547D01*
X0146841Y0051580D02*
X0106835Y0051580D01*
X0106835Y0049613D02*
X0145707Y0049613D01*
X0145605Y0047646D02*
X0106835Y0047646D01*
X0106689Y0045679D02*
X0146511Y0045679D01*
X0164477Y0065349D02*
X0165786Y0065349D01*
X0168646Y0067316D02*
X0160378Y0067316D01*
X0160378Y0069283D02*
X0168646Y0069283D01*
X0168646Y0071250D02*
X0160378Y0071250D01*
X0160378Y0073217D02*
X0168646Y0073217D01*
X0168646Y0075184D02*
X0160378Y0075184D01*
X0160378Y0077151D02*
X0168646Y0077151D01*
X0168646Y0079118D02*
X0160378Y0079118D01*
X0160378Y0081085D02*
X0168646Y0081085D01*
X0168646Y0083052D02*
X0160378Y0083052D01*
X0160378Y0085019D02*
X0168646Y0085019D01*
X0168646Y0086986D02*
X0160378Y0086986D01*
X0160378Y0088953D02*
X0168646Y0088953D01*
X0168646Y0090921D02*
X0160378Y0090921D01*
X0160378Y0092888D02*
X0168646Y0092888D01*
X0168646Y0094855D02*
X0160378Y0094855D01*
X0160378Y0096822D02*
X0168646Y0096822D01*
X0168266Y0098789D02*
X0160378Y0098789D01*
X0159718Y0100756D02*
X0166299Y0100756D01*
X0164332Y0102723D02*
X0157751Y0102723D01*
X0157973Y0104690D02*
X0155042Y0104690D01*
X0158726Y0112558D02*
X0074108Y0112558D01*
X0065546Y0112558D02*
X0054617Y0112558D01*
X0056427Y0110591D02*
X0063690Y0110591D01*
X0062875Y0108624D02*
X0057242Y0108624D01*
X0057425Y0106657D02*
X0062681Y0106657D01*
X0062938Y0104690D02*
X0057179Y0104690D01*
X0056365Y0102723D02*
X0063753Y0102723D01*
X0065697Y0100756D02*
X0054465Y0100756D01*
X0041338Y0110591D02*
X0021175Y0110591D01*
X0021180Y0112558D02*
X0043305Y0112558D01*
X0076973Y0128294D02*
X0159381Y0128294D01*
X0164525Y0128294D02*
X0183984Y0128294D01*
X0183984Y0130261D02*
X0153285Y0130261D01*
X0150936Y0130261D02*
X0076786Y0130261D01*
X0075971Y0132228D02*
X0148218Y0132228D01*
X0147573Y0134195D02*
X0074125Y0134195D01*
X0075500Y0142063D02*
X0197967Y0142063D01*
X0198203Y0144030D02*
X0076771Y0144030D01*
X0077367Y0145997D02*
X0199525Y0145997D01*
X0207459Y0147964D02*
X0077367Y0147964D01*
X0076696Y0149931D02*
X0209426Y0149931D01*
X0211393Y0151898D02*
X0075319Y0151898D01*
X0072056Y0153865D02*
X0212347Y0153865D01*
X0208799Y0155832D02*
X0051767Y0155832D01*
X0051789Y0157799D02*
X0180908Y0157799D01*
X0181129Y0157707D02*
X0182934Y0157707D01*
X0184602Y0158398D01*
X0185878Y0159674D01*
X0186569Y0161342D01*
X0186569Y0163147D01*
X0185969Y0164595D01*
X0185969Y0170508D01*
X0185369Y0171955D01*
X0184262Y0173062D01*
X0182815Y0173662D01*
X0154461Y0173662D01*
X0153013Y0174262D01*
X0151208Y0174262D01*
X0149540Y0173571D01*
X0148264Y0172295D01*
X0147573Y0170627D01*
X0147573Y0168822D01*
X0148264Y0167155D01*
X0149540Y0165878D01*
X0151208Y0165188D01*
X0153013Y0165188D01*
X0154461Y0165788D01*
X0178095Y0165788D01*
X0178095Y0164595D01*
X0177495Y0163147D01*
X0177495Y0161342D01*
X0178185Y0159674D01*
X0179462Y0158398D01*
X0181129Y0157707D01*
X0183156Y0157799D02*
X0207416Y0157799D01*
X0207416Y0159766D02*
X0185916Y0159766D01*
X0186569Y0161733D02*
X0208016Y0161733D01*
X0206111Y0163700D02*
X0186340Y0163700D01*
X0185969Y0165667D02*
X0204144Y0165667D01*
X0202177Y0167634D02*
X0185969Y0167634D01*
X0185969Y0169601D02*
X0200290Y0169601D01*
X0199748Y0171568D02*
X0185530Y0171568D01*
X0183120Y0173535D02*
X0199748Y0173535D01*
X0214315Y0173268D02*
X0214315Y0191772D01*
X0208803Y0197284D01*
X0195418Y0197284D01*
X0195024Y0196890D01*
X0190825Y0195172D02*
X0039799Y0195172D01*
X0041471Y0197139D02*
X0190487Y0197139D01*
X0191031Y0199106D02*
X0042071Y0199106D01*
X0042071Y0201073D02*
X0193250Y0201073D01*
X0192292Y0193205D02*
X0021397Y0193205D01*
X0021392Y0191238D02*
X0171206Y0191238D01*
X0169239Y0189271D02*
X0073234Y0189271D01*
X0073481Y0189169D02*
X0070855Y0190257D01*
X0068012Y0190257D01*
X0065385Y0189169D01*
X0063375Y0187159D01*
X0062287Y0184532D01*
X0062287Y0181689D01*
X0063375Y0179062D01*
X0065385Y0177052D01*
X0068012Y0175964D01*
X0070855Y0175964D01*
X0073481Y0177052D01*
X0075492Y0179062D01*
X0076580Y0181689D01*
X0076580Y0184532D01*
X0075492Y0187159D01*
X0073481Y0189169D01*
X0075346Y0187304D02*
X0167736Y0187304D01*
X0167465Y0185337D02*
X0076246Y0185337D01*
X0076580Y0183370D02*
X0167465Y0183370D01*
X0167465Y0181403D02*
X0076461Y0181403D01*
X0075647Y0179436D02*
X0167684Y0179436D01*
X0169113Y0177469D02*
X0073899Y0177469D01*
X0071249Y0172147D02*
X0068405Y0172147D01*
X0065779Y0171059D01*
X0063769Y0169048D01*
X0062681Y0166422D01*
X0062681Y0163579D01*
X0063769Y0160952D01*
X0065779Y0158942D01*
X0068405Y0157854D01*
X0071249Y0157854D01*
X0073875Y0158942D01*
X0075885Y0160952D01*
X0076973Y0163579D01*
X0076973Y0166422D01*
X0075885Y0169048D01*
X0073875Y0171059D01*
X0071249Y0172147D01*
X0072645Y0171568D02*
X0147963Y0171568D01*
X0147573Y0169601D02*
X0075333Y0169601D01*
X0076471Y0167634D02*
X0148066Y0167634D01*
X0150051Y0165667D02*
X0076973Y0165667D01*
X0076973Y0163700D02*
X0177724Y0163700D01*
X0177495Y0161733D02*
X0076209Y0161733D01*
X0074699Y0159766D02*
X0178147Y0159766D01*
X0178095Y0165667D02*
X0154170Y0165667D01*
X0149505Y0173535D02*
X0049005Y0173535D01*
X0052440Y0175502D02*
X0171080Y0175502D01*
X0214315Y0173268D02*
X0219040Y0168544D01*
X0229276Y0168544D01*
X0233749Y0169601D02*
X0340890Y0169601D01*
X0340890Y0167634D02*
X0233810Y0167634D01*
X0232668Y0171568D02*
X0340890Y0171568D01*
X0340890Y0173535D02*
X0220173Y0173535D01*
X0218646Y0175502D02*
X0340890Y0175502D01*
X0340890Y0177469D02*
X0218646Y0177469D01*
X0218646Y0179436D02*
X0340890Y0179436D01*
X0340890Y0181403D02*
X0218646Y0181403D01*
X0218646Y0183370D02*
X0340890Y0183370D01*
X0340890Y0185337D02*
X0331863Y0185337D01*
X0330765Y0184882D02*
X0333152Y0185871D01*
X0334980Y0187698D01*
X0335969Y0190086D01*
X0335969Y0192670D01*
X0334980Y0195058D01*
X0333152Y0196885D01*
X0330765Y0197874D01*
X0328181Y0197874D01*
X0325793Y0196885D01*
X0323966Y0195058D01*
X0322977Y0192670D01*
X0322977Y0190086D01*
X0323966Y0187698D01*
X0325793Y0185871D01*
X0328181Y0184882D01*
X0330765Y0184882D01*
X0327082Y0185337D02*
X0314147Y0185337D01*
X0313048Y0184882D02*
X0315436Y0185871D01*
X0317263Y0187698D01*
X0318252Y0190086D01*
X0318252Y0192670D01*
X0317263Y0195058D01*
X0315436Y0196885D01*
X0313048Y0197874D01*
X0310464Y0197874D01*
X0308076Y0196885D01*
X0306249Y0195058D01*
X0305260Y0192670D01*
X0305260Y0190086D01*
X0306249Y0187698D01*
X0308076Y0185871D01*
X0310464Y0184882D01*
X0313048Y0184882D01*
X0309365Y0185337D02*
X0218646Y0185337D01*
X0218646Y0187304D02*
X0306643Y0187304D01*
X0305598Y0189271D02*
X0218646Y0189271D01*
X0218646Y0191238D02*
X0236970Y0191238D01*
X0233684Y0193205D02*
X0218409Y0193205D01*
X0217039Y0195172D02*
X0232205Y0195172D01*
X0231441Y0197139D02*
X0215072Y0197139D01*
X0213105Y0199106D02*
X0231441Y0199106D01*
X0231441Y0201073D02*
X0210971Y0201073D01*
X0231441Y0203040D02*
X0042071Y0203040D01*
X0042071Y0205007D02*
X0045905Y0205007D01*
X0044220Y0206974D02*
X0042071Y0206974D01*
X0042071Y0208941D02*
X0044220Y0208941D01*
X0044220Y0208819D02*
X0049354Y0208819D01*
X0044220Y0208819D01*
X0044220Y0210908D02*
X0042071Y0210908D01*
X0042071Y0212875D02*
X0044979Y0212875D01*
X0049354Y0208819D02*
X0049354Y0208819D01*
X0049355Y0208819D02*
X0049355Y0208819D01*
X0049355Y0203685D01*
X0049355Y0208819D01*
X0049355Y0206974D02*
X0049355Y0206974D01*
X0049355Y0205007D02*
X0049355Y0205007D01*
X0052804Y0205007D02*
X0069134Y0205007D01*
X0067842Y0206974D02*
X0054489Y0206974D01*
X0054489Y0208941D02*
X0067842Y0208941D01*
X0068199Y0210908D02*
X0054489Y0210908D01*
X0053609Y0212875D02*
X0069399Y0212875D01*
X0072977Y0208425D02*
X0072977Y0208425D01*
X0072977Y0203291D01*
X0072977Y0208425D01*
X0072977Y0206974D02*
X0072977Y0206974D01*
X0072977Y0205007D02*
X0072977Y0205007D01*
X0076819Y0205007D02*
X0092756Y0205007D01*
X0091071Y0206974D02*
X0078111Y0206974D01*
X0078111Y0208941D02*
X0091071Y0208941D01*
X0091071Y0210908D02*
X0077755Y0210908D01*
X0076554Y0212875D02*
X0091848Y0212875D01*
X0101339Y0210908D02*
X0114655Y0210908D01*
X0114299Y0208941D02*
X0101339Y0208941D01*
X0101339Y0206974D02*
X0114299Y0206974D01*
X0115590Y0205007D02*
X0099654Y0205007D01*
X0096205Y0205007D02*
X0096205Y0205007D01*
X0096205Y0206974D02*
X0096205Y0206974D01*
X0119433Y0206974D02*
X0119433Y0206974D01*
X0119433Y0205007D02*
X0119433Y0205007D01*
X0123276Y0205007D02*
X0231441Y0205007D01*
X0231441Y0206974D02*
X0124568Y0206974D01*
X0124568Y0208941D02*
X0231402Y0208941D01*
X0232038Y0210908D02*
X0124211Y0210908D01*
X0065632Y0189271D02*
X0053888Y0189271D01*
X0055855Y0187304D02*
X0063520Y0187304D01*
X0062620Y0185337D02*
X0056709Y0185337D01*
X0057032Y0183370D02*
X0062287Y0183370D01*
X0062405Y0181403D02*
X0056925Y0181403D01*
X0056110Y0179436D02*
X0063220Y0179436D01*
X0064968Y0177469D02*
X0054407Y0177469D01*
X0053318Y0171568D02*
X0067009Y0171568D01*
X0064321Y0169601D02*
X0055841Y0169601D01*
X0056935Y0167634D02*
X0063183Y0167634D01*
X0062681Y0165667D02*
X0057425Y0165667D01*
X0057425Y0163700D02*
X0062681Y0163700D01*
X0063445Y0161733D02*
X0056672Y0161733D01*
X0055208Y0159766D02*
X0064955Y0159766D01*
X0068385Y0153865D02*
X0053861Y0153865D01*
X0055828Y0151898D02*
X0065122Y0151898D01*
X0063745Y0149931D02*
X0057160Y0149931D01*
X0057819Y0147964D02*
X0063074Y0147964D01*
X0063074Y0145997D02*
X0057819Y0145997D01*
X0057235Y0144030D02*
X0063670Y0144030D01*
X0064941Y0142063D02*
X0056009Y0142063D01*
X0045609Y0189271D02*
X0021387Y0189271D01*
X0166086Y0126327D02*
X0182725Y0126327D01*
X0182622Y0124360D02*
X0167489Y0124360D01*
X0169372Y0122393D02*
X0182622Y0122393D01*
X0182622Y0120426D02*
X0171256Y0120426D01*
X0173139Y0118459D02*
X0182622Y0118459D01*
X0179863Y0116492D02*
X0175022Y0116492D01*
X0176906Y0114525D02*
X0179070Y0114525D01*
X0179218Y0112558D02*
X0178789Y0112558D01*
X0181413Y0109817D02*
X0182704Y0109282D01*
X0183984Y0109282D01*
X0183984Y0109233D01*
X0190299Y0109233D01*
X0190299Y0109232D01*
X0190300Y0109232D01*
X0190300Y0106067D01*
X0190300Y0104233D01*
X0190299Y0104233D01*
X0190299Y0109232D01*
X0183984Y0109232D01*
X0183984Y0107790D01*
X0184120Y0107286D01*
X0184381Y0106833D01*
X0184481Y0106733D01*
X0184453Y0106704D01*
X0183737Y0107000D01*
X0183167Y0107814D01*
X0183055Y0108102D01*
X0182722Y0108450D01*
X0182446Y0108844D01*
X0182185Y0109010D01*
X0181413Y0109817D01*
X0182600Y0108624D02*
X0183984Y0108624D01*
X0190299Y0108624D02*
X0190300Y0108624D01*
X0190299Y0106657D02*
X0190300Y0106657D01*
X0190299Y0104690D02*
X0190300Y0104690D01*
X0190300Y0104232D02*
X0190300Y0101067D01*
X0190300Y0099233D01*
X0190299Y0099233D01*
X0190299Y0104232D01*
X0190300Y0104232D01*
X0190299Y0102723D02*
X0190300Y0102723D01*
X0190299Y0100756D02*
X0190300Y0100756D01*
X0152504Y0092888D02*
X0075275Y0092888D01*
X0076678Y0090921D02*
X0152504Y0090921D01*
X0152504Y0088953D02*
X0077367Y0088953D01*
X0077367Y0086986D02*
X0152504Y0086986D01*
X0152504Y0085019D02*
X0076790Y0085019D01*
X0075545Y0083052D02*
X0152504Y0083052D01*
X0095915Y0063382D02*
X0074379Y0063382D01*
X0066063Y0063382D02*
X0054887Y0063382D01*
X0056770Y0065349D02*
X0064135Y0065349D01*
X0063320Y0067316D02*
X0057585Y0067316D01*
X0057819Y0069283D02*
X0063074Y0069283D01*
X0063280Y0071250D02*
X0057624Y0071250D01*
X0056809Y0073217D02*
X0064095Y0073217D01*
X0065968Y0075184D02*
X0054983Y0075184D01*
X0106694Y0029943D02*
X0108393Y0029943D01*
X0116694Y0029943D02*
X0118393Y0029943D01*
X0152544Y0025118D02*
X0152622Y0025118D01*
X0222189Y0045679D02*
X0335378Y0045679D01*
X0335378Y0043712D02*
X0228240Y0043712D01*
X0229608Y0041745D02*
X0335378Y0041745D01*
X0335378Y0039778D02*
X0229876Y0039778D01*
X0229276Y0037811D02*
X0247245Y0037811D01*
X0246105Y0035844D02*
X0229276Y0035844D01*
X0229685Y0033877D02*
X0245999Y0033877D01*
X0246895Y0031910D02*
X0231160Y0031910D01*
X0236694Y0029943D02*
X0249153Y0029943D01*
X0247796Y0027976D02*
X0238661Y0027976D01*
X0238890Y0026009D02*
X0245219Y0026009D01*
X0243860Y0024042D02*
X0238890Y0024042D01*
X0238475Y0022075D02*
X0243046Y0022075D01*
X0242957Y0020108D02*
X0237465Y0020108D01*
X0238496Y0018141D02*
X0243054Y0018141D01*
X0243869Y0016174D02*
X0239626Y0016174D01*
X0259435Y0031910D02*
X0335378Y0031910D01*
X0335378Y0029943D02*
X0261402Y0029943D01*
X0263369Y0027976D02*
X0335378Y0027976D01*
X0335378Y0026009D02*
X0265275Y0026009D01*
X0265890Y0024042D02*
X0335378Y0024042D01*
X0335378Y0022075D02*
X0265890Y0022075D01*
X0261559Y0023662D02*
X0250536Y0034685D01*
X0253826Y0037811D02*
X0335378Y0037811D01*
X0335378Y0035844D02*
X0255501Y0035844D01*
X0257468Y0033877D02*
X0335378Y0033877D01*
X0335378Y0020108D02*
X0312754Y0020108D01*
X0314477Y0018141D02*
X0334645Y0018141D01*
X0332793Y0016174D02*
X0314915Y0016174D01*
X0310378Y0016181D02*
X0263134Y0016181D01*
X0261559Y0016969D01*
X0261559Y0023662D01*
X0222189Y0047646D02*
X0335378Y0047646D01*
X0335378Y0049613D02*
X0222189Y0049613D01*
X0222564Y0051580D02*
X0335378Y0051580D01*
X0335378Y0053547D02*
X0228963Y0053547D01*
X0229876Y0055514D02*
X0335378Y0055514D01*
X0335378Y0057481D02*
X0229776Y0057481D01*
X0229276Y0059448D02*
X0335172Y0059448D01*
X0335172Y0061415D02*
X0229276Y0061415D01*
X0229276Y0063382D02*
X0335172Y0063382D01*
X0336940Y0065349D02*
X0229276Y0065349D01*
X0240347Y0067316D02*
X0340890Y0067316D01*
X0340890Y0069283D02*
X0242314Y0069283D01*
X0242662Y0071250D02*
X0340890Y0071250D01*
X0340890Y0073217D02*
X0242662Y0073217D01*
X0242662Y0075184D02*
X0340890Y0075184D01*
X0340890Y0077151D02*
X0242662Y0077151D01*
X0242662Y0079118D02*
X0340890Y0079118D01*
X0340890Y0081085D02*
X0242662Y0081085D01*
X0244689Y0083052D02*
X0340890Y0083052D01*
X0340890Y0085019D02*
X0245877Y0085019D01*
X0246018Y0086986D02*
X0340890Y0086986D01*
X0340890Y0088953D02*
X0245378Y0088953D01*
X0245349Y0090921D02*
X0340890Y0090921D01*
X0340890Y0092888D02*
X0245321Y0092888D01*
X0245292Y0094855D02*
X0340890Y0094855D01*
X0340890Y0096822D02*
X0245263Y0096822D01*
X0245234Y0098789D02*
X0340890Y0098789D01*
X0340890Y0100756D02*
X0245205Y0100756D01*
X0245176Y0102723D02*
X0340890Y0102723D01*
X0340890Y0104690D02*
X0245147Y0104690D01*
X0245118Y0106657D02*
X0340890Y0106657D01*
X0340890Y0108624D02*
X0245089Y0108624D01*
X0245060Y0110591D02*
X0340890Y0110591D01*
X0340890Y0112558D02*
X0245044Y0112558D01*
X0244733Y0114525D02*
X0340890Y0114525D01*
X0340890Y0116492D02*
X0243147Y0116492D01*
X0241028Y0118459D02*
X0340890Y0118459D01*
X0340890Y0120426D02*
X0239512Y0120426D01*
X0239512Y0122393D02*
X0340890Y0122393D01*
X0340890Y0124360D02*
X0239512Y0124360D01*
X0239512Y0126327D02*
X0340890Y0126327D01*
X0340890Y0128294D02*
X0239512Y0128294D01*
X0239512Y0130261D02*
X0340890Y0130261D01*
X0340890Y0132228D02*
X0239512Y0132228D01*
X0243019Y0134195D02*
X0340890Y0134195D01*
X0340890Y0136162D02*
X0244194Y0136162D01*
X0244236Y0138129D02*
X0340890Y0138129D01*
X0340890Y0140096D02*
X0244236Y0140096D01*
X0244236Y0142063D02*
X0340890Y0142063D01*
X0340890Y0144030D02*
X0244236Y0144030D01*
X0244236Y0145997D02*
X0340890Y0145997D01*
X0340890Y0147964D02*
X0244236Y0147964D01*
X0244836Y0149931D02*
X0317959Y0149931D01*
X0317268Y0151898D02*
X0244767Y0151898D01*
X0243678Y0153865D02*
X0317268Y0153865D01*
X0317268Y0155832D02*
X0232819Y0155832D01*
X0232819Y0153865D02*
X0236921Y0153865D01*
X0235832Y0151898D02*
X0232819Y0151898D01*
X0232819Y0149931D02*
X0235762Y0149931D01*
X0236362Y0147964D02*
X0232819Y0147964D01*
X0232819Y0145997D02*
X0236362Y0145997D01*
X0236362Y0144030D02*
X0232819Y0144030D01*
X0232819Y0142063D02*
X0236362Y0142063D01*
X0236362Y0140096D02*
X0235793Y0140096D01*
X0232819Y0157799D02*
X0241932Y0157799D01*
X0244179Y0157799D02*
X0317268Y0157799D01*
X0317268Y0159766D02*
X0246940Y0159766D01*
X0247592Y0161733D02*
X0317759Y0161733D01*
X0340890Y0163700D02*
X0247363Y0163700D01*
X0246049Y0165667D02*
X0340890Y0165667D01*
X0340890Y0187304D02*
X0334586Y0187304D01*
X0335631Y0189271D02*
X0340890Y0189271D01*
X0340890Y0191238D02*
X0335969Y0191238D01*
X0335747Y0193205D02*
X0340890Y0193205D01*
X0340890Y0195172D02*
X0334865Y0195172D01*
X0332539Y0197139D02*
X0340890Y0197139D01*
X0340890Y0199106D02*
X0283410Y0199106D01*
X0283410Y0197139D02*
X0308690Y0197139D01*
X0306363Y0195172D02*
X0283222Y0195172D01*
X0283199Y0193205D02*
X0305482Y0193205D01*
X0305260Y0191238D02*
X0281919Y0191238D01*
X0282929Y0201073D02*
X0340890Y0201073D01*
X0340890Y0203040D02*
X0281851Y0203040D01*
X0279364Y0205007D02*
X0340890Y0205007D01*
X0340890Y0206974D02*
X0258048Y0206974D01*
X0259504Y0208941D02*
X0340890Y0208941D01*
X0340890Y0210908D02*
X0260319Y0210908D01*
X0260477Y0212875D02*
X0340890Y0212875D01*
X0340890Y0214842D02*
X0260448Y0214842D01*
X0259634Y0216809D02*
X0318010Y0216809D01*
X0317268Y0218777D02*
X0258360Y0218777D01*
X0255990Y0220744D02*
X0317268Y0220744D01*
X0317268Y0222711D02*
X0245434Y0222711D01*
X0246037Y0220744D02*
X0247444Y0220744D01*
X0314823Y0197139D02*
X0326406Y0197139D01*
X0324080Y0195172D02*
X0317149Y0195172D01*
X0318031Y0193205D02*
X0323198Y0193205D01*
X0322977Y0191238D02*
X0318252Y0191238D01*
X0317915Y0189271D02*
X0323314Y0189271D01*
X0324360Y0187304D02*
X0316869Y0187304D01*
X0331093Y0216809D02*
X0340890Y0216809D01*
X0340553Y0218777D02*
X0331835Y0218777D01*
X0331835Y0220744D02*
X0339582Y0220744D01*
X0337407Y0222711D02*
X0331835Y0222711D01*
D22*
X0340299Y0061457D03*
X0057622Y0019725D03*
X0057622Y0010276D03*
D23*
X0053292Y0009882D02*
X0058803Y0015000D01*
X0232544Y0016063D02*
X0238725Y0010276D01*
X0334000Y0010276D01*
X0340299Y0016969D01*
X0340299Y0061457D01*
X0232544Y0025118D02*
X0232544Y0016063D01*
D24*
X0053292Y0009882D02*
X0030851Y0009882D01*
D25*
X0278095Y0195709D03*
X0270221Y0198465D03*
X0260772Y0198465D03*
X0249748Y0198465D03*
X0238725Y0198465D03*
X0238725Y0207914D03*
X0238843Y0218819D03*
X0271796Y0220118D03*
X0280063Y0220118D03*
X0287937Y0220512D03*
X0295811Y0220512D03*
X0295811Y0213032D03*
X0288331Y0212638D03*
X0280457Y0212638D03*
X0271796Y0212638D03*
X0303292Y0213425D03*
X0303292Y0220512D03*
X0312347Y0201221D03*
X0322977Y0200827D03*
X0335181Y0200827D03*
D26*
X0303292Y0220512D01*
X0300536Y0220512D01*
X0291087Y0207520D01*
X0288331Y0212638D02*
X0276914Y0213032D01*
X0267465Y0212244D01*
X0280457Y0212638D01*
X0271796Y0212638D02*
X0271796Y0220118D01*
X0280063Y0220118D02*
X0287937Y0220512D01*
X0295811Y0220512D02*
X0303292Y0220512D01*
X0303292Y0213425D02*
X0322977Y0200827D01*
X0312347Y0201221D02*
X0295811Y0213032D01*
X0276126Y0198465D02*
X0270221Y0198465D01*
X0266677Y0198465D01*
X0270221Y0198465D02*
X0249748Y0198465D01*
X0239118Y0198465D01*
X0239512Y0198071D01*
X0238725Y0207914D01*
X0238725Y0198859D01*
X0239118Y0198465D01*
X0238725Y0198465D02*
X0238725Y0198859D01*
X0237007Y0218819D02*
X0238889Y0219300D01*
X0237007Y0218819D02*
X0096205Y0218819D01*
X0050842Y0220087D02*
X0049355Y0218819D01*
X0049748Y0183111D02*
X0047386Y0180748D01*
X0024551Y0180748D01*
X0024551Y0165158D02*
X0024709Y0165000D01*
X0050142Y0165000D01*
X0047859Y0149567D02*
X0050536Y0146890D01*
X0047859Y0149567D02*
X0024551Y0149567D01*
X0024551Y0133977D02*
X0044551Y0133977D01*
X0050142Y0128386D01*
X0050142Y0106733D02*
X0047780Y0106733D01*
X0043055Y0102008D01*
X0024551Y0102008D01*
X0042268Y0086654D02*
X0043449Y0087835D01*
X0050536Y0087835D01*
X0042268Y0086654D02*
X0024788Y0086654D01*
X0024551Y0086418D01*
X0025024Y0071299D02*
X0024551Y0070827D01*
X0025024Y0071299D02*
X0046599Y0071299D01*
X0048567Y0069331D01*
X0050536Y0069331D01*
X0046992Y0055158D02*
X0024630Y0055158D01*
X0024551Y0055236D01*
X0046992Y0055158D02*
X0050536Y0051614D01*
X0050536Y0050827D01*
D27*
X0249748Y0198465D02*
X0266677Y0198465D01*
X0287937Y0024449D02*
X0287937Y0023268D01*
D28*
X0284394Y0037835D03*
X0279670Y0043740D03*
X0282819Y0049252D03*
X0271402Y0043740D03*
X0262347Y0048859D03*
X0262347Y0037835D03*
X0100536Y0050040D03*
X0098961Y0045709D03*
X0100536Y0054370D03*
X0100536Y0059095D03*
D29*
X0202898Y0057126D03*
X0206441Y0135079D03*
X0211953Y0159095D03*
D30*
X0238725Y0198465D02*
X0238843Y0218819D01*
X0238889Y0219300D02*
X0050842Y0220087D01*
X0015103Y0194922D02*
X0014709Y0048859D01*
X0019827Y0042953D01*
X0096205Y0042953D01*
X0100536Y0047284D01*
X0100536Y0059095D01*
D31*
X0015103Y0194922D02*
X0018646Y0199646D01*
X0036756Y0199646D01*
X0036756Y0218819D01*
X0049355Y0218819D01*
M02*
