G75*
%MOIN*%
%OFA0B0*%
%FSLAX25Y25*%
%IPPOS*%
%LPD*%
%AMOC8*
5,1,8,0,0,1.08239X$1,22.5*
%
%ADD10C,0.00000*%
%ADD11R,0.08661X0.02362*%
D10*
X0019433Y0005945D02*
X0334394Y0006339D01*
X0334394Y0006338D02*
X0334632Y0006341D01*
X0334870Y0006349D01*
X0335107Y0006364D01*
X0335344Y0006384D01*
X0335580Y0006410D01*
X0335816Y0006441D01*
X0336051Y0006478D01*
X0336285Y0006521D01*
X0336518Y0006570D01*
X0336750Y0006624D01*
X0336980Y0006684D01*
X0337209Y0006749D01*
X0337436Y0006820D01*
X0337661Y0006896D01*
X0337884Y0006978D01*
X0338106Y0007065D01*
X0338325Y0007157D01*
X0338542Y0007255D01*
X0338756Y0007357D01*
X0338968Y0007465D01*
X0339178Y0007579D01*
X0339384Y0007697D01*
X0339588Y0007820D01*
X0339788Y0007948D01*
X0339985Y0008080D01*
X0340180Y0008218D01*
X0340370Y0008360D01*
X0340558Y0008507D01*
X0340741Y0008658D01*
X0340921Y0008813D01*
X0341097Y0008973D01*
X0341269Y0009137D01*
X0341438Y0009306D01*
X0341602Y0009478D01*
X0341762Y0009654D01*
X0341917Y0009834D01*
X0342068Y0010017D01*
X0342215Y0010205D01*
X0342357Y0010395D01*
X0342495Y0010590D01*
X0342627Y0010787D01*
X0342755Y0010987D01*
X0342878Y0011191D01*
X0342996Y0011397D01*
X0343110Y0011607D01*
X0343218Y0011819D01*
X0343320Y0012033D01*
X0343418Y0012250D01*
X0343510Y0012469D01*
X0343597Y0012691D01*
X0343679Y0012914D01*
X0343755Y0013139D01*
X0343826Y0013366D01*
X0343891Y0013595D01*
X0343951Y0013825D01*
X0344005Y0014057D01*
X0344054Y0014290D01*
X0344097Y0014524D01*
X0344134Y0014759D01*
X0344165Y0014995D01*
X0344191Y0015231D01*
X0344211Y0015468D01*
X0344226Y0015705D01*
X0344234Y0015943D01*
X0344237Y0016181D01*
X0344236Y0016181D02*
X0344236Y0152008D01*
X0320614Y0152008D01*
X0320614Y0159882D01*
X0344236Y0159882D01*
X0344236Y0216969D01*
X0344237Y0216969D02*
X0344234Y0217207D01*
X0344226Y0217445D01*
X0344211Y0217682D01*
X0344191Y0217919D01*
X0344165Y0218155D01*
X0344134Y0218391D01*
X0344097Y0218626D01*
X0344054Y0218860D01*
X0344005Y0219093D01*
X0343951Y0219325D01*
X0343891Y0219555D01*
X0343826Y0219784D01*
X0343755Y0220011D01*
X0343679Y0220236D01*
X0343597Y0220459D01*
X0343510Y0220681D01*
X0343418Y0220900D01*
X0343320Y0221117D01*
X0343218Y0221331D01*
X0343110Y0221543D01*
X0342996Y0221753D01*
X0342878Y0221959D01*
X0342755Y0222163D01*
X0342627Y0222363D01*
X0342495Y0222560D01*
X0342357Y0222755D01*
X0342215Y0222945D01*
X0342068Y0223133D01*
X0341917Y0223316D01*
X0341762Y0223496D01*
X0341602Y0223672D01*
X0341438Y0223844D01*
X0341269Y0224013D01*
X0341097Y0224177D01*
X0340921Y0224337D01*
X0340741Y0224492D01*
X0340558Y0224643D01*
X0340370Y0224790D01*
X0340180Y0224932D01*
X0339985Y0225070D01*
X0339788Y0225202D01*
X0339588Y0225330D01*
X0339384Y0225453D01*
X0339178Y0225571D01*
X0338968Y0225685D01*
X0338756Y0225793D01*
X0338542Y0225895D01*
X0338325Y0225993D01*
X0338106Y0226085D01*
X0337884Y0226172D01*
X0337661Y0226254D01*
X0337436Y0226330D01*
X0337209Y0226401D01*
X0336980Y0226466D01*
X0336750Y0226526D01*
X0336518Y0226580D01*
X0336285Y0226629D01*
X0336051Y0226672D01*
X0335816Y0226709D01*
X0335580Y0226740D01*
X0335344Y0226766D01*
X0335107Y0226786D01*
X0334870Y0226801D01*
X0334632Y0226809D01*
X0334394Y0226812D01*
X0334394Y0226811D02*
X0328488Y0226811D01*
X0328488Y0218937D01*
X0320614Y0218937D01*
X0320614Y0226811D01*
X0019433Y0226811D01*
X0019433Y0226812D02*
X0019200Y0226814D01*
X0018967Y0226810D01*
X0018734Y0226801D01*
X0018501Y0226786D01*
X0018269Y0226765D01*
X0018037Y0226739D01*
X0017806Y0226707D01*
X0017576Y0226670D01*
X0017347Y0226627D01*
X0017119Y0226579D01*
X0016892Y0226525D01*
X0016666Y0226466D01*
X0016442Y0226401D01*
X0016220Y0226331D01*
X0016000Y0226255D01*
X0015781Y0226174D01*
X0015564Y0226088D01*
X0015350Y0225997D01*
X0015137Y0225900D01*
X0014928Y0225799D01*
X0014720Y0225692D01*
X0014516Y0225580D01*
X0014314Y0225464D01*
X0014115Y0225342D01*
X0013918Y0225216D01*
X0013725Y0225085D01*
X0013536Y0224950D01*
X0013349Y0224810D01*
X0013166Y0224666D01*
X0012987Y0224517D01*
X0012811Y0224364D01*
X0012639Y0224206D01*
X0012471Y0224045D01*
X0012307Y0223879D01*
X0012146Y0223710D01*
X0011990Y0223537D01*
X0011839Y0223360D01*
X0011691Y0223179D01*
X0011548Y0222995D01*
X0011409Y0222808D01*
X0011275Y0222617D01*
X0011146Y0222423D01*
X0011021Y0222226D01*
X0010901Y0222026D01*
X0010786Y0221823D01*
X0010676Y0221617D01*
X0010571Y0221409D01*
X0010471Y0221199D01*
X0010376Y0220986D01*
X0010287Y0220771D01*
X0010202Y0220553D01*
X0010123Y0220334D01*
X0010049Y0220113D01*
X0009981Y0219890D01*
X0009917Y0219666D01*
X0009860Y0219440D01*
X0009808Y0219212D01*
X0009761Y0218984D01*
X0009720Y0218755D01*
X0009684Y0218524D01*
X0009654Y0218293D01*
X0009630Y0218061D01*
X0009611Y0217829D01*
X0009598Y0217596D01*
X0009590Y0217363D01*
X0009591Y0217362D02*
X0009591Y0015788D01*
X0009590Y0015788D02*
X0009593Y0015550D01*
X0009601Y0015312D01*
X0009616Y0015075D01*
X0009636Y0014838D01*
X0009662Y0014602D01*
X0009693Y0014366D01*
X0009730Y0014131D01*
X0009773Y0013897D01*
X0009822Y0013664D01*
X0009876Y0013432D01*
X0009936Y0013202D01*
X0010001Y0012973D01*
X0010072Y0012746D01*
X0010148Y0012521D01*
X0010230Y0012298D01*
X0010317Y0012076D01*
X0010409Y0011857D01*
X0010507Y0011640D01*
X0010609Y0011426D01*
X0010717Y0011214D01*
X0010831Y0011004D01*
X0010949Y0010798D01*
X0011072Y0010594D01*
X0011200Y0010394D01*
X0011332Y0010197D01*
X0011470Y0010002D01*
X0011612Y0009812D01*
X0011759Y0009624D01*
X0011910Y0009441D01*
X0012065Y0009261D01*
X0012225Y0009085D01*
X0012389Y0008913D01*
X0012558Y0008744D01*
X0012730Y0008580D01*
X0012906Y0008420D01*
X0013086Y0008265D01*
X0013269Y0008114D01*
X0013457Y0007967D01*
X0013647Y0007825D01*
X0013842Y0007687D01*
X0014039Y0007555D01*
X0014239Y0007427D01*
X0014443Y0007304D01*
X0014649Y0007186D01*
X0014859Y0007072D01*
X0015071Y0006964D01*
X0015285Y0006862D01*
X0015502Y0006764D01*
X0015721Y0006672D01*
X0015943Y0006585D01*
X0016166Y0006503D01*
X0016391Y0006427D01*
X0016618Y0006356D01*
X0016847Y0006291D01*
X0017077Y0006231D01*
X0017309Y0006177D01*
X0017542Y0006128D01*
X0017776Y0006085D01*
X0018011Y0006048D01*
X0018247Y0006017D01*
X0018483Y0005991D01*
X0018720Y0005971D01*
X0018957Y0005956D01*
X0019195Y0005948D01*
X0019433Y0005945D01*
X0017957Y0020118D02*
X0017959Y0020265D01*
X0017965Y0020411D01*
X0017975Y0020557D01*
X0017989Y0020703D01*
X0018007Y0020849D01*
X0018028Y0020994D01*
X0018054Y0021138D01*
X0018084Y0021282D01*
X0018117Y0021424D01*
X0018154Y0021566D01*
X0018195Y0021707D01*
X0018240Y0021846D01*
X0018289Y0021985D01*
X0018341Y0022122D01*
X0018398Y0022257D01*
X0018457Y0022391D01*
X0018521Y0022523D01*
X0018588Y0022653D01*
X0018658Y0022782D01*
X0018732Y0022909D01*
X0018809Y0023033D01*
X0018890Y0023156D01*
X0018974Y0023276D01*
X0019061Y0023394D01*
X0019151Y0023509D01*
X0019244Y0023622D01*
X0019341Y0023733D01*
X0019440Y0023841D01*
X0019542Y0023946D01*
X0019647Y0024048D01*
X0019755Y0024147D01*
X0019866Y0024244D01*
X0019979Y0024337D01*
X0020094Y0024427D01*
X0020212Y0024514D01*
X0020332Y0024598D01*
X0020455Y0024679D01*
X0020579Y0024756D01*
X0020706Y0024830D01*
X0020835Y0024900D01*
X0020965Y0024967D01*
X0021097Y0025031D01*
X0021231Y0025090D01*
X0021366Y0025147D01*
X0021503Y0025199D01*
X0021642Y0025248D01*
X0021781Y0025293D01*
X0021922Y0025334D01*
X0022064Y0025371D01*
X0022206Y0025404D01*
X0022350Y0025434D01*
X0022494Y0025460D01*
X0022639Y0025481D01*
X0022785Y0025499D01*
X0022931Y0025513D01*
X0023077Y0025523D01*
X0023223Y0025529D01*
X0023370Y0025531D01*
X0023517Y0025529D01*
X0023663Y0025523D01*
X0023809Y0025513D01*
X0023955Y0025499D01*
X0024101Y0025481D01*
X0024246Y0025460D01*
X0024390Y0025434D01*
X0024534Y0025404D01*
X0024676Y0025371D01*
X0024818Y0025334D01*
X0024959Y0025293D01*
X0025098Y0025248D01*
X0025237Y0025199D01*
X0025374Y0025147D01*
X0025509Y0025090D01*
X0025643Y0025031D01*
X0025775Y0024967D01*
X0025905Y0024900D01*
X0026034Y0024830D01*
X0026161Y0024756D01*
X0026285Y0024679D01*
X0026408Y0024598D01*
X0026528Y0024514D01*
X0026646Y0024427D01*
X0026761Y0024337D01*
X0026874Y0024244D01*
X0026985Y0024147D01*
X0027093Y0024048D01*
X0027198Y0023946D01*
X0027300Y0023841D01*
X0027399Y0023733D01*
X0027496Y0023622D01*
X0027589Y0023509D01*
X0027679Y0023394D01*
X0027766Y0023276D01*
X0027850Y0023156D01*
X0027931Y0023033D01*
X0028008Y0022909D01*
X0028082Y0022782D01*
X0028152Y0022653D01*
X0028219Y0022523D01*
X0028283Y0022391D01*
X0028342Y0022257D01*
X0028399Y0022122D01*
X0028451Y0021985D01*
X0028500Y0021846D01*
X0028545Y0021707D01*
X0028586Y0021566D01*
X0028623Y0021424D01*
X0028656Y0021282D01*
X0028686Y0021138D01*
X0028712Y0020994D01*
X0028733Y0020849D01*
X0028751Y0020703D01*
X0028765Y0020557D01*
X0028775Y0020411D01*
X0028781Y0020265D01*
X0028783Y0020118D01*
X0028781Y0019971D01*
X0028775Y0019825D01*
X0028765Y0019679D01*
X0028751Y0019533D01*
X0028733Y0019387D01*
X0028712Y0019242D01*
X0028686Y0019098D01*
X0028656Y0018954D01*
X0028623Y0018812D01*
X0028586Y0018670D01*
X0028545Y0018529D01*
X0028500Y0018390D01*
X0028451Y0018251D01*
X0028399Y0018114D01*
X0028342Y0017979D01*
X0028283Y0017845D01*
X0028219Y0017713D01*
X0028152Y0017583D01*
X0028082Y0017454D01*
X0028008Y0017327D01*
X0027931Y0017203D01*
X0027850Y0017080D01*
X0027766Y0016960D01*
X0027679Y0016842D01*
X0027589Y0016727D01*
X0027496Y0016614D01*
X0027399Y0016503D01*
X0027300Y0016395D01*
X0027198Y0016290D01*
X0027093Y0016188D01*
X0026985Y0016089D01*
X0026874Y0015992D01*
X0026761Y0015899D01*
X0026646Y0015809D01*
X0026528Y0015722D01*
X0026408Y0015638D01*
X0026285Y0015557D01*
X0026161Y0015480D01*
X0026034Y0015406D01*
X0025905Y0015336D01*
X0025775Y0015269D01*
X0025643Y0015205D01*
X0025509Y0015146D01*
X0025374Y0015089D01*
X0025237Y0015037D01*
X0025098Y0014988D01*
X0024959Y0014943D01*
X0024818Y0014902D01*
X0024676Y0014865D01*
X0024534Y0014832D01*
X0024390Y0014802D01*
X0024246Y0014776D01*
X0024101Y0014755D01*
X0023955Y0014737D01*
X0023809Y0014723D01*
X0023663Y0014713D01*
X0023517Y0014707D01*
X0023370Y0014705D01*
X0023223Y0014707D01*
X0023077Y0014713D01*
X0022931Y0014723D01*
X0022785Y0014737D01*
X0022639Y0014755D01*
X0022494Y0014776D01*
X0022350Y0014802D01*
X0022206Y0014832D01*
X0022064Y0014865D01*
X0021922Y0014902D01*
X0021781Y0014943D01*
X0021642Y0014988D01*
X0021503Y0015037D01*
X0021366Y0015089D01*
X0021231Y0015146D01*
X0021097Y0015205D01*
X0020965Y0015269D01*
X0020835Y0015336D01*
X0020706Y0015406D01*
X0020579Y0015480D01*
X0020455Y0015557D01*
X0020332Y0015638D01*
X0020212Y0015722D01*
X0020094Y0015809D01*
X0019979Y0015899D01*
X0019866Y0015992D01*
X0019755Y0016089D01*
X0019647Y0016188D01*
X0019542Y0016290D01*
X0019440Y0016395D01*
X0019341Y0016503D01*
X0019244Y0016614D01*
X0019151Y0016727D01*
X0019061Y0016842D01*
X0018974Y0016960D01*
X0018890Y0017080D01*
X0018809Y0017203D01*
X0018732Y0017327D01*
X0018658Y0017454D01*
X0018588Y0017583D01*
X0018521Y0017713D01*
X0018457Y0017845D01*
X0018398Y0017979D01*
X0018341Y0018114D01*
X0018289Y0018251D01*
X0018240Y0018390D01*
X0018195Y0018529D01*
X0018154Y0018670D01*
X0018117Y0018812D01*
X0018084Y0018954D01*
X0018054Y0019098D01*
X0018028Y0019242D01*
X0018007Y0019387D01*
X0017989Y0019533D01*
X0017975Y0019679D01*
X0017965Y0019825D01*
X0017959Y0019971D01*
X0017957Y0020118D01*
X0246304Y0020118D02*
X0246306Y0020265D01*
X0246312Y0020411D01*
X0246322Y0020557D01*
X0246336Y0020703D01*
X0246354Y0020849D01*
X0246375Y0020994D01*
X0246401Y0021138D01*
X0246431Y0021282D01*
X0246464Y0021424D01*
X0246501Y0021566D01*
X0246542Y0021707D01*
X0246587Y0021846D01*
X0246636Y0021985D01*
X0246688Y0022122D01*
X0246745Y0022257D01*
X0246804Y0022391D01*
X0246868Y0022523D01*
X0246935Y0022653D01*
X0247005Y0022782D01*
X0247079Y0022909D01*
X0247156Y0023033D01*
X0247237Y0023156D01*
X0247321Y0023276D01*
X0247408Y0023394D01*
X0247498Y0023509D01*
X0247591Y0023622D01*
X0247688Y0023733D01*
X0247787Y0023841D01*
X0247889Y0023946D01*
X0247994Y0024048D01*
X0248102Y0024147D01*
X0248213Y0024244D01*
X0248326Y0024337D01*
X0248441Y0024427D01*
X0248559Y0024514D01*
X0248679Y0024598D01*
X0248802Y0024679D01*
X0248926Y0024756D01*
X0249053Y0024830D01*
X0249182Y0024900D01*
X0249312Y0024967D01*
X0249444Y0025031D01*
X0249578Y0025090D01*
X0249713Y0025147D01*
X0249850Y0025199D01*
X0249989Y0025248D01*
X0250128Y0025293D01*
X0250269Y0025334D01*
X0250411Y0025371D01*
X0250553Y0025404D01*
X0250697Y0025434D01*
X0250841Y0025460D01*
X0250986Y0025481D01*
X0251132Y0025499D01*
X0251278Y0025513D01*
X0251424Y0025523D01*
X0251570Y0025529D01*
X0251717Y0025531D01*
X0251864Y0025529D01*
X0252010Y0025523D01*
X0252156Y0025513D01*
X0252302Y0025499D01*
X0252448Y0025481D01*
X0252593Y0025460D01*
X0252737Y0025434D01*
X0252881Y0025404D01*
X0253023Y0025371D01*
X0253165Y0025334D01*
X0253306Y0025293D01*
X0253445Y0025248D01*
X0253584Y0025199D01*
X0253721Y0025147D01*
X0253856Y0025090D01*
X0253990Y0025031D01*
X0254122Y0024967D01*
X0254252Y0024900D01*
X0254381Y0024830D01*
X0254508Y0024756D01*
X0254632Y0024679D01*
X0254755Y0024598D01*
X0254875Y0024514D01*
X0254993Y0024427D01*
X0255108Y0024337D01*
X0255221Y0024244D01*
X0255332Y0024147D01*
X0255440Y0024048D01*
X0255545Y0023946D01*
X0255647Y0023841D01*
X0255746Y0023733D01*
X0255843Y0023622D01*
X0255936Y0023509D01*
X0256026Y0023394D01*
X0256113Y0023276D01*
X0256197Y0023156D01*
X0256278Y0023033D01*
X0256355Y0022909D01*
X0256429Y0022782D01*
X0256499Y0022653D01*
X0256566Y0022523D01*
X0256630Y0022391D01*
X0256689Y0022257D01*
X0256746Y0022122D01*
X0256798Y0021985D01*
X0256847Y0021846D01*
X0256892Y0021707D01*
X0256933Y0021566D01*
X0256970Y0021424D01*
X0257003Y0021282D01*
X0257033Y0021138D01*
X0257059Y0020994D01*
X0257080Y0020849D01*
X0257098Y0020703D01*
X0257112Y0020557D01*
X0257122Y0020411D01*
X0257128Y0020265D01*
X0257130Y0020118D01*
X0257128Y0019971D01*
X0257122Y0019825D01*
X0257112Y0019679D01*
X0257098Y0019533D01*
X0257080Y0019387D01*
X0257059Y0019242D01*
X0257033Y0019098D01*
X0257003Y0018954D01*
X0256970Y0018812D01*
X0256933Y0018670D01*
X0256892Y0018529D01*
X0256847Y0018390D01*
X0256798Y0018251D01*
X0256746Y0018114D01*
X0256689Y0017979D01*
X0256630Y0017845D01*
X0256566Y0017713D01*
X0256499Y0017583D01*
X0256429Y0017454D01*
X0256355Y0017327D01*
X0256278Y0017203D01*
X0256197Y0017080D01*
X0256113Y0016960D01*
X0256026Y0016842D01*
X0255936Y0016727D01*
X0255843Y0016614D01*
X0255746Y0016503D01*
X0255647Y0016395D01*
X0255545Y0016290D01*
X0255440Y0016188D01*
X0255332Y0016089D01*
X0255221Y0015992D01*
X0255108Y0015899D01*
X0254993Y0015809D01*
X0254875Y0015722D01*
X0254755Y0015638D01*
X0254632Y0015557D01*
X0254508Y0015480D01*
X0254381Y0015406D01*
X0254252Y0015336D01*
X0254122Y0015269D01*
X0253990Y0015205D01*
X0253856Y0015146D01*
X0253721Y0015089D01*
X0253584Y0015037D01*
X0253445Y0014988D01*
X0253306Y0014943D01*
X0253165Y0014902D01*
X0253023Y0014865D01*
X0252881Y0014832D01*
X0252737Y0014802D01*
X0252593Y0014776D01*
X0252448Y0014755D01*
X0252302Y0014737D01*
X0252156Y0014723D01*
X0252010Y0014713D01*
X0251864Y0014707D01*
X0251717Y0014705D01*
X0251570Y0014707D01*
X0251424Y0014713D01*
X0251278Y0014723D01*
X0251132Y0014737D01*
X0250986Y0014755D01*
X0250841Y0014776D01*
X0250697Y0014802D01*
X0250553Y0014832D01*
X0250411Y0014865D01*
X0250269Y0014902D01*
X0250128Y0014943D01*
X0249989Y0014988D01*
X0249850Y0015037D01*
X0249713Y0015089D01*
X0249578Y0015146D01*
X0249444Y0015205D01*
X0249312Y0015269D01*
X0249182Y0015336D01*
X0249053Y0015406D01*
X0248926Y0015480D01*
X0248802Y0015557D01*
X0248679Y0015638D01*
X0248559Y0015722D01*
X0248441Y0015809D01*
X0248326Y0015899D01*
X0248213Y0015992D01*
X0248102Y0016089D01*
X0247994Y0016188D01*
X0247889Y0016290D01*
X0247787Y0016395D01*
X0247688Y0016503D01*
X0247591Y0016614D01*
X0247498Y0016727D01*
X0247408Y0016842D01*
X0247321Y0016960D01*
X0247237Y0017080D01*
X0247156Y0017203D01*
X0247079Y0017327D01*
X0247005Y0017454D01*
X0246935Y0017583D01*
X0246868Y0017713D01*
X0246804Y0017845D01*
X0246745Y0017979D01*
X0246688Y0018114D01*
X0246636Y0018251D01*
X0246587Y0018390D01*
X0246542Y0018529D01*
X0246501Y0018670D01*
X0246464Y0018812D01*
X0246431Y0018954D01*
X0246401Y0019098D01*
X0246375Y0019242D01*
X0246354Y0019387D01*
X0246336Y0019533D01*
X0246322Y0019679D01*
X0246312Y0019825D01*
X0246306Y0019971D01*
X0246304Y0020118D01*
X0308606Y0191378D02*
X0308608Y0191490D01*
X0308614Y0191601D01*
X0308624Y0191713D01*
X0308638Y0191824D01*
X0308655Y0191934D01*
X0308677Y0192044D01*
X0308703Y0192153D01*
X0308732Y0192261D01*
X0308765Y0192367D01*
X0308802Y0192473D01*
X0308843Y0192577D01*
X0308888Y0192680D01*
X0308936Y0192781D01*
X0308987Y0192880D01*
X0309042Y0192977D01*
X0309101Y0193072D01*
X0309162Y0193166D01*
X0309227Y0193257D01*
X0309296Y0193345D01*
X0309367Y0193431D01*
X0309441Y0193515D01*
X0309519Y0193595D01*
X0309599Y0193673D01*
X0309682Y0193749D01*
X0309767Y0193821D01*
X0309855Y0193890D01*
X0309945Y0193956D01*
X0310038Y0194018D01*
X0310133Y0194078D01*
X0310230Y0194134D01*
X0310328Y0194186D01*
X0310429Y0194235D01*
X0310531Y0194280D01*
X0310635Y0194322D01*
X0310740Y0194360D01*
X0310847Y0194394D01*
X0310954Y0194424D01*
X0311063Y0194451D01*
X0311172Y0194473D01*
X0311283Y0194492D01*
X0311393Y0194507D01*
X0311505Y0194518D01*
X0311616Y0194525D01*
X0311728Y0194528D01*
X0311840Y0194527D01*
X0311952Y0194522D01*
X0312063Y0194513D01*
X0312174Y0194500D01*
X0312285Y0194483D01*
X0312395Y0194463D01*
X0312504Y0194438D01*
X0312612Y0194410D01*
X0312719Y0194377D01*
X0312825Y0194341D01*
X0312929Y0194301D01*
X0313032Y0194258D01*
X0313134Y0194211D01*
X0313233Y0194160D01*
X0313331Y0194106D01*
X0313427Y0194048D01*
X0313521Y0193987D01*
X0313612Y0193923D01*
X0313701Y0193856D01*
X0313788Y0193785D01*
X0313872Y0193711D01*
X0313954Y0193635D01*
X0314032Y0193555D01*
X0314108Y0193473D01*
X0314181Y0193388D01*
X0314251Y0193301D01*
X0314317Y0193211D01*
X0314381Y0193119D01*
X0314441Y0193025D01*
X0314498Y0192929D01*
X0314551Y0192830D01*
X0314601Y0192730D01*
X0314647Y0192629D01*
X0314690Y0192525D01*
X0314729Y0192420D01*
X0314764Y0192314D01*
X0314795Y0192207D01*
X0314823Y0192098D01*
X0314846Y0191989D01*
X0314866Y0191879D01*
X0314882Y0191768D01*
X0314894Y0191657D01*
X0314902Y0191546D01*
X0314906Y0191434D01*
X0314906Y0191322D01*
X0314902Y0191210D01*
X0314894Y0191099D01*
X0314882Y0190988D01*
X0314866Y0190877D01*
X0314846Y0190767D01*
X0314823Y0190658D01*
X0314795Y0190549D01*
X0314764Y0190442D01*
X0314729Y0190336D01*
X0314690Y0190231D01*
X0314647Y0190127D01*
X0314601Y0190026D01*
X0314551Y0189926D01*
X0314498Y0189827D01*
X0314441Y0189731D01*
X0314381Y0189637D01*
X0314317Y0189545D01*
X0314251Y0189455D01*
X0314181Y0189368D01*
X0314108Y0189283D01*
X0314032Y0189201D01*
X0313954Y0189121D01*
X0313872Y0189045D01*
X0313788Y0188971D01*
X0313701Y0188900D01*
X0313612Y0188833D01*
X0313521Y0188769D01*
X0313427Y0188708D01*
X0313331Y0188650D01*
X0313233Y0188596D01*
X0313134Y0188545D01*
X0313032Y0188498D01*
X0312929Y0188455D01*
X0312825Y0188415D01*
X0312719Y0188379D01*
X0312612Y0188346D01*
X0312504Y0188318D01*
X0312395Y0188293D01*
X0312285Y0188273D01*
X0312174Y0188256D01*
X0312063Y0188243D01*
X0311952Y0188234D01*
X0311840Y0188229D01*
X0311728Y0188228D01*
X0311616Y0188231D01*
X0311505Y0188238D01*
X0311393Y0188249D01*
X0311283Y0188264D01*
X0311172Y0188283D01*
X0311063Y0188305D01*
X0310954Y0188332D01*
X0310847Y0188362D01*
X0310740Y0188396D01*
X0310635Y0188434D01*
X0310531Y0188476D01*
X0310429Y0188521D01*
X0310328Y0188570D01*
X0310230Y0188622D01*
X0310133Y0188678D01*
X0310038Y0188738D01*
X0309945Y0188800D01*
X0309855Y0188866D01*
X0309767Y0188935D01*
X0309682Y0189007D01*
X0309599Y0189083D01*
X0309519Y0189161D01*
X0309441Y0189241D01*
X0309367Y0189325D01*
X0309296Y0189411D01*
X0309227Y0189499D01*
X0309162Y0189590D01*
X0309101Y0189684D01*
X0309042Y0189779D01*
X0308987Y0189876D01*
X0308936Y0189975D01*
X0308888Y0190076D01*
X0308843Y0190179D01*
X0308802Y0190283D01*
X0308765Y0190389D01*
X0308732Y0190495D01*
X0308703Y0190603D01*
X0308677Y0190712D01*
X0308655Y0190822D01*
X0308638Y0190932D01*
X0308624Y0191043D01*
X0308614Y0191155D01*
X0308608Y0191266D01*
X0308606Y0191378D01*
X0326323Y0191378D02*
X0326325Y0191490D01*
X0326331Y0191601D01*
X0326341Y0191713D01*
X0326355Y0191824D01*
X0326372Y0191934D01*
X0326394Y0192044D01*
X0326420Y0192153D01*
X0326449Y0192261D01*
X0326482Y0192367D01*
X0326519Y0192473D01*
X0326560Y0192577D01*
X0326605Y0192680D01*
X0326653Y0192781D01*
X0326704Y0192880D01*
X0326759Y0192977D01*
X0326818Y0193072D01*
X0326879Y0193166D01*
X0326944Y0193257D01*
X0327013Y0193345D01*
X0327084Y0193431D01*
X0327158Y0193515D01*
X0327236Y0193595D01*
X0327316Y0193673D01*
X0327399Y0193749D01*
X0327484Y0193821D01*
X0327572Y0193890D01*
X0327662Y0193956D01*
X0327755Y0194018D01*
X0327850Y0194078D01*
X0327947Y0194134D01*
X0328045Y0194186D01*
X0328146Y0194235D01*
X0328248Y0194280D01*
X0328352Y0194322D01*
X0328457Y0194360D01*
X0328564Y0194394D01*
X0328671Y0194424D01*
X0328780Y0194451D01*
X0328889Y0194473D01*
X0329000Y0194492D01*
X0329110Y0194507D01*
X0329222Y0194518D01*
X0329333Y0194525D01*
X0329445Y0194528D01*
X0329557Y0194527D01*
X0329669Y0194522D01*
X0329780Y0194513D01*
X0329891Y0194500D01*
X0330002Y0194483D01*
X0330112Y0194463D01*
X0330221Y0194438D01*
X0330329Y0194410D01*
X0330436Y0194377D01*
X0330542Y0194341D01*
X0330646Y0194301D01*
X0330749Y0194258D01*
X0330851Y0194211D01*
X0330950Y0194160D01*
X0331048Y0194106D01*
X0331144Y0194048D01*
X0331238Y0193987D01*
X0331329Y0193923D01*
X0331418Y0193856D01*
X0331505Y0193785D01*
X0331589Y0193711D01*
X0331671Y0193635D01*
X0331749Y0193555D01*
X0331825Y0193473D01*
X0331898Y0193388D01*
X0331968Y0193301D01*
X0332034Y0193211D01*
X0332098Y0193119D01*
X0332158Y0193025D01*
X0332215Y0192929D01*
X0332268Y0192830D01*
X0332318Y0192730D01*
X0332364Y0192629D01*
X0332407Y0192525D01*
X0332446Y0192420D01*
X0332481Y0192314D01*
X0332512Y0192207D01*
X0332540Y0192098D01*
X0332563Y0191989D01*
X0332583Y0191879D01*
X0332599Y0191768D01*
X0332611Y0191657D01*
X0332619Y0191546D01*
X0332623Y0191434D01*
X0332623Y0191322D01*
X0332619Y0191210D01*
X0332611Y0191099D01*
X0332599Y0190988D01*
X0332583Y0190877D01*
X0332563Y0190767D01*
X0332540Y0190658D01*
X0332512Y0190549D01*
X0332481Y0190442D01*
X0332446Y0190336D01*
X0332407Y0190231D01*
X0332364Y0190127D01*
X0332318Y0190026D01*
X0332268Y0189926D01*
X0332215Y0189827D01*
X0332158Y0189731D01*
X0332098Y0189637D01*
X0332034Y0189545D01*
X0331968Y0189455D01*
X0331898Y0189368D01*
X0331825Y0189283D01*
X0331749Y0189201D01*
X0331671Y0189121D01*
X0331589Y0189045D01*
X0331505Y0188971D01*
X0331418Y0188900D01*
X0331329Y0188833D01*
X0331238Y0188769D01*
X0331144Y0188708D01*
X0331048Y0188650D01*
X0330950Y0188596D01*
X0330851Y0188545D01*
X0330749Y0188498D01*
X0330646Y0188455D01*
X0330542Y0188415D01*
X0330436Y0188379D01*
X0330329Y0188346D01*
X0330221Y0188318D01*
X0330112Y0188293D01*
X0330002Y0188273D01*
X0329891Y0188256D01*
X0329780Y0188243D01*
X0329669Y0188234D01*
X0329557Y0188229D01*
X0329445Y0188228D01*
X0329333Y0188231D01*
X0329222Y0188238D01*
X0329110Y0188249D01*
X0329000Y0188264D01*
X0328889Y0188283D01*
X0328780Y0188305D01*
X0328671Y0188332D01*
X0328564Y0188362D01*
X0328457Y0188396D01*
X0328352Y0188434D01*
X0328248Y0188476D01*
X0328146Y0188521D01*
X0328045Y0188570D01*
X0327947Y0188622D01*
X0327850Y0188678D01*
X0327755Y0188738D01*
X0327662Y0188800D01*
X0327572Y0188866D01*
X0327484Y0188935D01*
X0327399Y0189007D01*
X0327316Y0189083D01*
X0327236Y0189161D01*
X0327158Y0189241D01*
X0327084Y0189325D01*
X0327013Y0189411D01*
X0326944Y0189499D01*
X0326879Y0189590D01*
X0326818Y0189684D01*
X0326759Y0189779D01*
X0326704Y0189876D01*
X0326653Y0189975D01*
X0326605Y0190076D01*
X0326560Y0190179D01*
X0326519Y0190283D01*
X0326482Y0190389D01*
X0326449Y0190495D01*
X0326420Y0190603D01*
X0326394Y0190712D01*
X0326372Y0190822D01*
X0326355Y0190932D01*
X0326341Y0191043D01*
X0326331Y0191155D01*
X0326325Y0191266D01*
X0326323Y0191378D01*
X0246304Y0213032D02*
X0246306Y0213179D01*
X0246312Y0213325D01*
X0246322Y0213471D01*
X0246336Y0213617D01*
X0246354Y0213763D01*
X0246375Y0213908D01*
X0246401Y0214052D01*
X0246431Y0214196D01*
X0246464Y0214338D01*
X0246501Y0214480D01*
X0246542Y0214621D01*
X0246587Y0214760D01*
X0246636Y0214899D01*
X0246688Y0215036D01*
X0246745Y0215171D01*
X0246804Y0215305D01*
X0246868Y0215437D01*
X0246935Y0215567D01*
X0247005Y0215696D01*
X0247079Y0215823D01*
X0247156Y0215947D01*
X0247237Y0216070D01*
X0247321Y0216190D01*
X0247408Y0216308D01*
X0247498Y0216423D01*
X0247591Y0216536D01*
X0247688Y0216647D01*
X0247787Y0216755D01*
X0247889Y0216860D01*
X0247994Y0216962D01*
X0248102Y0217061D01*
X0248213Y0217158D01*
X0248326Y0217251D01*
X0248441Y0217341D01*
X0248559Y0217428D01*
X0248679Y0217512D01*
X0248802Y0217593D01*
X0248926Y0217670D01*
X0249053Y0217744D01*
X0249182Y0217814D01*
X0249312Y0217881D01*
X0249444Y0217945D01*
X0249578Y0218004D01*
X0249713Y0218061D01*
X0249850Y0218113D01*
X0249989Y0218162D01*
X0250128Y0218207D01*
X0250269Y0218248D01*
X0250411Y0218285D01*
X0250553Y0218318D01*
X0250697Y0218348D01*
X0250841Y0218374D01*
X0250986Y0218395D01*
X0251132Y0218413D01*
X0251278Y0218427D01*
X0251424Y0218437D01*
X0251570Y0218443D01*
X0251717Y0218445D01*
X0251864Y0218443D01*
X0252010Y0218437D01*
X0252156Y0218427D01*
X0252302Y0218413D01*
X0252448Y0218395D01*
X0252593Y0218374D01*
X0252737Y0218348D01*
X0252881Y0218318D01*
X0253023Y0218285D01*
X0253165Y0218248D01*
X0253306Y0218207D01*
X0253445Y0218162D01*
X0253584Y0218113D01*
X0253721Y0218061D01*
X0253856Y0218004D01*
X0253990Y0217945D01*
X0254122Y0217881D01*
X0254252Y0217814D01*
X0254381Y0217744D01*
X0254508Y0217670D01*
X0254632Y0217593D01*
X0254755Y0217512D01*
X0254875Y0217428D01*
X0254993Y0217341D01*
X0255108Y0217251D01*
X0255221Y0217158D01*
X0255332Y0217061D01*
X0255440Y0216962D01*
X0255545Y0216860D01*
X0255647Y0216755D01*
X0255746Y0216647D01*
X0255843Y0216536D01*
X0255936Y0216423D01*
X0256026Y0216308D01*
X0256113Y0216190D01*
X0256197Y0216070D01*
X0256278Y0215947D01*
X0256355Y0215823D01*
X0256429Y0215696D01*
X0256499Y0215567D01*
X0256566Y0215437D01*
X0256630Y0215305D01*
X0256689Y0215171D01*
X0256746Y0215036D01*
X0256798Y0214899D01*
X0256847Y0214760D01*
X0256892Y0214621D01*
X0256933Y0214480D01*
X0256970Y0214338D01*
X0257003Y0214196D01*
X0257033Y0214052D01*
X0257059Y0213908D01*
X0257080Y0213763D01*
X0257098Y0213617D01*
X0257112Y0213471D01*
X0257122Y0213325D01*
X0257128Y0213179D01*
X0257130Y0213032D01*
X0257128Y0212885D01*
X0257122Y0212739D01*
X0257112Y0212593D01*
X0257098Y0212447D01*
X0257080Y0212301D01*
X0257059Y0212156D01*
X0257033Y0212012D01*
X0257003Y0211868D01*
X0256970Y0211726D01*
X0256933Y0211584D01*
X0256892Y0211443D01*
X0256847Y0211304D01*
X0256798Y0211165D01*
X0256746Y0211028D01*
X0256689Y0210893D01*
X0256630Y0210759D01*
X0256566Y0210627D01*
X0256499Y0210497D01*
X0256429Y0210368D01*
X0256355Y0210241D01*
X0256278Y0210117D01*
X0256197Y0209994D01*
X0256113Y0209874D01*
X0256026Y0209756D01*
X0255936Y0209641D01*
X0255843Y0209528D01*
X0255746Y0209417D01*
X0255647Y0209309D01*
X0255545Y0209204D01*
X0255440Y0209102D01*
X0255332Y0209003D01*
X0255221Y0208906D01*
X0255108Y0208813D01*
X0254993Y0208723D01*
X0254875Y0208636D01*
X0254755Y0208552D01*
X0254632Y0208471D01*
X0254508Y0208394D01*
X0254381Y0208320D01*
X0254252Y0208250D01*
X0254122Y0208183D01*
X0253990Y0208119D01*
X0253856Y0208060D01*
X0253721Y0208003D01*
X0253584Y0207951D01*
X0253445Y0207902D01*
X0253306Y0207857D01*
X0253165Y0207816D01*
X0253023Y0207779D01*
X0252881Y0207746D01*
X0252737Y0207716D01*
X0252593Y0207690D01*
X0252448Y0207669D01*
X0252302Y0207651D01*
X0252156Y0207637D01*
X0252010Y0207627D01*
X0251864Y0207621D01*
X0251717Y0207619D01*
X0251570Y0207621D01*
X0251424Y0207627D01*
X0251278Y0207637D01*
X0251132Y0207651D01*
X0250986Y0207669D01*
X0250841Y0207690D01*
X0250697Y0207716D01*
X0250553Y0207746D01*
X0250411Y0207779D01*
X0250269Y0207816D01*
X0250128Y0207857D01*
X0249989Y0207902D01*
X0249850Y0207951D01*
X0249713Y0208003D01*
X0249578Y0208060D01*
X0249444Y0208119D01*
X0249312Y0208183D01*
X0249182Y0208250D01*
X0249053Y0208320D01*
X0248926Y0208394D01*
X0248802Y0208471D01*
X0248679Y0208552D01*
X0248559Y0208636D01*
X0248441Y0208723D01*
X0248326Y0208813D01*
X0248213Y0208906D01*
X0248102Y0209003D01*
X0247994Y0209102D01*
X0247889Y0209204D01*
X0247787Y0209309D01*
X0247688Y0209417D01*
X0247591Y0209528D01*
X0247498Y0209641D01*
X0247408Y0209756D01*
X0247321Y0209874D01*
X0247237Y0209994D01*
X0247156Y0210117D01*
X0247079Y0210241D01*
X0247005Y0210368D01*
X0246935Y0210497D01*
X0246868Y0210627D01*
X0246804Y0210759D01*
X0246745Y0210893D01*
X0246688Y0211028D01*
X0246636Y0211165D01*
X0246587Y0211304D01*
X0246542Y0211443D01*
X0246501Y0211584D01*
X0246464Y0211726D01*
X0246431Y0211868D01*
X0246401Y0212012D01*
X0246375Y0212156D01*
X0246354Y0212301D01*
X0246336Y0212447D01*
X0246322Y0212593D01*
X0246312Y0212739D01*
X0246306Y0212885D01*
X0246304Y0213032D01*
X0017957Y0213032D02*
X0017959Y0213179D01*
X0017965Y0213325D01*
X0017975Y0213471D01*
X0017989Y0213617D01*
X0018007Y0213763D01*
X0018028Y0213908D01*
X0018054Y0214052D01*
X0018084Y0214196D01*
X0018117Y0214338D01*
X0018154Y0214480D01*
X0018195Y0214621D01*
X0018240Y0214760D01*
X0018289Y0214899D01*
X0018341Y0215036D01*
X0018398Y0215171D01*
X0018457Y0215305D01*
X0018521Y0215437D01*
X0018588Y0215567D01*
X0018658Y0215696D01*
X0018732Y0215823D01*
X0018809Y0215947D01*
X0018890Y0216070D01*
X0018974Y0216190D01*
X0019061Y0216308D01*
X0019151Y0216423D01*
X0019244Y0216536D01*
X0019341Y0216647D01*
X0019440Y0216755D01*
X0019542Y0216860D01*
X0019647Y0216962D01*
X0019755Y0217061D01*
X0019866Y0217158D01*
X0019979Y0217251D01*
X0020094Y0217341D01*
X0020212Y0217428D01*
X0020332Y0217512D01*
X0020455Y0217593D01*
X0020579Y0217670D01*
X0020706Y0217744D01*
X0020835Y0217814D01*
X0020965Y0217881D01*
X0021097Y0217945D01*
X0021231Y0218004D01*
X0021366Y0218061D01*
X0021503Y0218113D01*
X0021642Y0218162D01*
X0021781Y0218207D01*
X0021922Y0218248D01*
X0022064Y0218285D01*
X0022206Y0218318D01*
X0022350Y0218348D01*
X0022494Y0218374D01*
X0022639Y0218395D01*
X0022785Y0218413D01*
X0022931Y0218427D01*
X0023077Y0218437D01*
X0023223Y0218443D01*
X0023370Y0218445D01*
X0023517Y0218443D01*
X0023663Y0218437D01*
X0023809Y0218427D01*
X0023955Y0218413D01*
X0024101Y0218395D01*
X0024246Y0218374D01*
X0024390Y0218348D01*
X0024534Y0218318D01*
X0024676Y0218285D01*
X0024818Y0218248D01*
X0024959Y0218207D01*
X0025098Y0218162D01*
X0025237Y0218113D01*
X0025374Y0218061D01*
X0025509Y0218004D01*
X0025643Y0217945D01*
X0025775Y0217881D01*
X0025905Y0217814D01*
X0026034Y0217744D01*
X0026161Y0217670D01*
X0026285Y0217593D01*
X0026408Y0217512D01*
X0026528Y0217428D01*
X0026646Y0217341D01*
X0026761Y0217251D01*
X0026874Y0217158D01*
X0026985Y0217061D01*
X0027093Y0216962D01*
X0027198Y0216860D01*
X0027300Y0216755D01*
X0027399Y0216647D01*
X0027496Y0216536D01*
X0027589Y0216423D01*
X0027679Y0216308D01*
X0027766Y0216190D01*
X0027850Y0216070D01*
X0027931Y0215947D01*
X0028008Y0215823D01*
X0028082Y0215696D01*
X0028152Y0215567D01*
X0028219Y0215437D01*
X0028283Y0215305D01*
X0028342Y0215171D01*
X0028399Y0215036D01*
X0028451Y0214899D01*
X0028500Y0214760D01*
X0028545Y0214621D01*
X0028586Y0214480D01*
X0028623Y0214338D01*
X0028656Y0214196D01*
X0028686Y0214052D01*
X0028712Y0213908D01*
X0028733Y0213763D01*
X0028751Y0213617D01*
X0028765Y0213471D01*
X0028775Y0213325D01*
X0028781Y0213179D01*
X0028783Y0213032D01*
X0028781Y0212885D01*
X0028775Y0212739D01*
X0028765Y0212593D01*
X0028751Y0212447D01*
X0028733Y0212301D01*
X0028712Y0212156D01*
X0028686Y0212012D01*
X0028656Y0211868D01*
X0028623Y0211726D01*
X0028586Y0211584D01*
X0028545Y0211443D01*
X0028500Y0211304D01*
X0028451Y0211165D01*
X0028399Y0211028D01*
X0028342Y0210893D01*
X0028283Y0210759D01*
X0028219Y0210627D01*
X0028152Y0210497D01*
X0028082Y0210368D01*
X0028008Y0210241D01*
X0027931Y0210117D01*
X0027850Y0209994D01*
X0027766Y0209874D01*
X0027679Y0209756D01*
X0027589Y0209641D01*
X0027496Y0209528D01*
X0027399Y0209417D01*
X0027300Y0209309D01*
X0027198Y0209204D01*
X0027093Y0209102D01*
X0026985Y0209003D01*
X0026874Y0208906D01*
X0026761Y0208813D01*
X0026646Y0208723D01*
X0026528Y0208636D01*
X0026408Y0208552D01*
X0026285Y0208471D01*
X0026161Y0208394D01*
X0026034Y0208320D01*
X0025905Y0208250D01*
X0025775Y0208183D01*
X0025643Y0208119D01*
X0025509Y0208060D01*
X0025374Y0208003D01*
X0025237Y0207951D01*
X0025098Y0207902D01*
X0024959Y0207857D01*
X0024818Y0207816D01*
X0024676Y0207779D01*
X0024534Y0207746D01*
X0024390Y0207716D01*
X0024246Y0207690D01*
X0024101Y0207669D01*
X0023955Y0207651D01*
X0023809Y0207637D01*
X0023663Y0207627D01*
X0023517Y0207621D01*
X0023370Y0207619D01*
X0023223Y0207621D01*
X0023077Y0207627D01*
X0022931Y0207637D01*
X0022785Y0207651D01*
X0022639Y0207669D01*
X0022494Y0207690D01*
X0022350Y0207716D01*
X0022206Y0207746D01*
X0022064Y0207779D01*
X0021922Y0207816D01*
X0021781Y0207857D01*
X0021642Y0207902D01*
X0021503Y0207951D01*
X0021366Y0208003D01*
X0021231Y0208060D01*
X0021097Y0208119D01*
X0020965Y0208183D01*
X0020835Y0208250D01*
X0020706Y0208320D01*
X0020579Y0208394D01*
X0020455Y0208471D01*
X0020332Y0208552D01*
X0020212Y0208636D01*
X0020094Y0208723D01*
X0019979Y0208813D01*
X0019866Y0208906D01*
X0019755Y0209003D01*
X0019647Y0209102D01*
X0019542Y0209204D01*
X0019440Y0209309D01*
X0019341Y0209417D01*
X0019244Y0209528D01*
X0019151Y0209641D01*
X0019061Y0209756D01*
X0018974Y0209874D01*
X0018890Y0209994D01*
X0018809Y0210117D01*
X0018732Y0210241D01*
X0018658Y0210368D01*
X0018588Y0210497D01*
X0018521Y0210627D01*
X0018457Y0210759D01*
X0018398Y0210893D01*
X0018341Y0211028D01*
X0018289Y0211165D01*
X0018240Y0211304D01*
X0018195Y0211443D01*
X0018154Y0211584D01*
X0018117Y0211726D01*
X0018084Y0211868D01*
X0018054Y0212012D01*
X0018028Y0212156D01*
X0018007Y0212301D01*
X0017989Y0212447D01*
X0017975Y0212593D01*
X0017965Y0212739D01*
X0017959Y0212885D01*
X0017957Y0213032D01*
D11*
X0190299Y0129233D03*
X0190299Y0124233D03*
X0190299Y0119233D03*
X0190299Y0114233D03*
X0190299Y0109233D03*
X0190299Y0104233D03*
X0190299Y0099233D03*
X0190299Y0094233D03*
X0190299Y0089233D03*
X0226520Y0089233D03*
X0226520Y0094351D03*
X0226520Y0099469D03*
X0226520Y0104469D03*
X0226520Y0109469D03*
X0226520Y0114469D03*
X0226520Y0119469D03*
X0226520Y0124469D03*
X0226520Y0129469D03*
M02*
